<svg id="Layer_1" xmlns="http://www.w3.org/2000/svg" width="2000" height="2000" viewBox="0 0 2000 2000"><style>.st0{fill:#fff}.st1{opacity:.26;fill:#f464c8}.st2{fill:#ffbbed}.st3{fill:#d4fffd}.st4{fill:#51f2ed}.st5{fill:#27c0cc}.st6{fill:#37ddd4}.st7{fill:#7e5bff}.st8{fill:#b92bf1}.st9{fill:#fae6ff}.st10{fill:url(#SVGID_1_)}.st11{fill:#303075}.st12{fill:#a897fc}.st13{fill:#f464c8}.st14{fill:#464392}.st15{fill:#e476ff}.st16{fill:#d8a5e5}.st17{fill:#fdf3ff}.st18{fill:#f1daf7}.st19{fill:#6c52ef}.st20{fill:#e250bc}.st21{fill:url(#SVGID_2_)}.st22{fill:url(#SVGID_3_)}.st23{fill:url(#SVGID_4_)}.st24{fill:url(#SVGID_5_)}.st25{fill:url(#SVGID_6_)}.st26{fill:url(#SVGID_7_)}.st27{fill:url(#SVGID_8_)}.st28{fill:url(#SVGID_9_)}.st29{fill:url(#SVGID_10_)}.st30{fill:#5252aa}</style><path class="st0" d="M0 0h2000v2000H0z"/><path class="st1" d="M1880.4 621.3c8.4-90.6-9.1-184.3-71.1-253.9-26.4-29.7-60.6-53-98.9-64-50.4-14.5-103.4-6.1-153.8 4-51.9 10.4-103.7 20-156.4 26-51.5 5.9-103.3 9.3-155.2 10.2-105.8 1.8-211.8-6.8-315.9-26.2-102.3-19.1-202.2-49.1-304.5-68-95.3-17.6-195.3-26.9-290.6-4.5-84.8 19.9-160.9 67.8-202.4 146.1-95.2 179.3-3.8 382.3-2.5 570.4 1.3 190.9-60.6 402.4 44.9 577.8 92.1 152.9 283.7 196.6 450.3 185.4 105.8-7.1 209.2-31.8 313.3-50.4 98.2-17.6 197.9-25.4 297.4-14.2 33.2 3.8 66.2 9.9 98.5 18.4 12.3 4 24.8 7.8 37.4 11.1.5.2 1.1.4 1.6.5 1.1.4 2.1.6 3.1.7 79.7 20.5 164.2 25.7 242.9-1.2 42.2-14.4 81.8-37.2 113.4-69 30.5-30.6 52.2-68.7 66.2-109.4 30.2-87.2 24.8-181.2 14.2-271.3-6.2-52.9-13.8-105.8-16-159.1-2.2-51.7 2.4-102.4 13.1-153 21.8-102.5 61.2-201.2 71-306.4z"/><path class="st1" d="M1815.8 866.7c30.8-42.6 61.6-84.8 82.6-133.4 41.3-95.5 54.3-210 23.1-310.5-14.2-46-40.7-90.1-84-113.8-45.4-24.9-98.9-24.6-148.8-17.3-109.1 16-213.1 58.3-318.2 89.7-102.7 30.8-210.1 53.6-317.5 36.9-95-14.8-183.9-53.7-270.6-93.5-87.3-40.1-174.7-83-268.2-106.7-91.8-23.2-196.8-29.4-283.4 15.2-44.7 23-78.5 60.2-97.9 106.5-20.8 49.7-24.6 104.7-20.8 157.9 4.2 60.4 16 120 21.2 180.3 5.1 59.7 6.4 119.8 3.8 179.7-2.6 59.8-9.1 119.4-19.6 178.3-10 55.9-24.1 110.9-35.9 166.4-22.4 105.7-36.6 220 13.9 320.2 39.8 79 114.7 133.1 196.1 163.5 91.7 34.3 189.5 37.3 285.6 24.2 116.4-15.9 228.3-53.2 342.6-78.9 100-22.6 205.9-35.6 307.6-15.8 46.3 9 90.7 25.1 131.1 49.5 74.9 53.9 157.8 101.5 252 104.7 46.9 1.6 95.2-8 136-31.5 42.1-24.2 72.4-62.7 89.5-107.7 37.9-99.5 7.9-206.5-28.8-301.3-39.9-103.2-94.3-217.2-63.5-330.1 13.3-49.3 42.7-91.7 72.1-132.5z"/><path class="st0" d="M1404.4 1554.3H1394c-1.9 0-3.5-1.6-3.5-3.5s1.6-3.5 3.5-3.5h10.4c1.9 0 3.5 1.6 3.5 3.5s-1.5 3.5-3.5 3.5zm-50.3 0h-20c-1.9 0-3.5-1.6-3.5-3.5s1.6-3.5 3.5-3.5h20c1.9 0 3.5 1.6 3.5 3.5s-1.6 3.5-3.5 3.5zm-60 0h-20c-1.9 0-3.5-1.6-3.5-3.5s1.6-3.5 3.5-3.5h20c1.9 0 3.5 1.6 3.5 3.5s-1.6 3.5-3.5 3.5zm-60 0h-20c-1.9 0-3.5-1.6-3.5-3.5s1.6-3.5 3.5-3.5h20c1.9 0 3.5 1.6 3.5 3.5s-1.6 3.5-3.5 3.5zm-60 0h-20c-1.9 0-3.5-1.6-3.5-3.5s1.6-3.5 3.5-3.5h20c1.9 0 3.5 1.6 3.5 3.5s-1.6 3.5-3.5 3.5zm-60 0h-20c-1.9 0-3.5-1.6-3.5-3.5s1.6-3.5 3.5-3.5h20c1.9 0 3.5 1.6 3.5 3.5s-1.6 3.5-3.5 3.5zm-60 0h-20c-1.9 0-3.5-1.6-3.5-3.5s1.6-3.5 3.5-3.5h20c1.9 0 3.5 1.6 3.5 3.5s-1.6 3.5-3.5 3.5zm-60 0h-20c-1.9 0-3.5-1.6-3.5-3.5s1.6-3.5 3.5-3.5h20c1.9 0 3.5 1.6 3.5 3.5s-1.6 3.5-3.5 3.5zm-60 0h-20c-1.9 0-3.5-1.6-3.5-3.5s1.6-3.5 3.5-3.5h20c1.9 0 3.5 1.6 3.5 3.5s-1.6 3.5-3.5 3.5zm-60 0h-20c-1.9 0-3.5-1.6-3.5-3.5s1.6-3.5 3.5-3.5h20c1.9 0 3.5 1.6 3.5 3.5s-1.6 3.5-3.5 3.5zm-60 0h-20c-1.9 0-3.5-1.6-3.5-3.5s1.6-3.5 3.5-3.5h20c1.9 0 3.5 1.6 3.5 3.5s-1.6 3.5-3.5 3.5zm-60 0h-20c-1.9 0-3.5-1.6-3.5-3.5s1.6-3.5 3.5-3.5h20c1.9 0 3.5 1.6 3.5 3.5s-1.6 3.5-3.5 3.5zm-60 0h-20c-1.9 0-3.5-1.6-3.5-3.5s1.6-3.5 3.5-3.5h20c1.9 0 3.5 1.6 3.5 3.5s-1.6 3.5-3.5 3.5zm-60 0h-20c-1.9 0-3.5-1.6-3.5-3.5s1.6-3.5 3.5-3.5h20c1.9 0 3.5 1.6 3.5 3.5s-1.6 3.5-3.5 3.5zm-60 0h-20c-1.9 0-3.5-1.6-3.5-3.5s1.6-3.5 3.5-3.5h20c1.9 0 3.5 1.6 3.5 3.5s-1.6 3.5-3.5 3.5zm-60 0h-20c-1.9 0-3.5-1.6-3.5-3.5s1.6-3.5 3.5-3.5h20c1.9 0 3.5 1.6 3.5 3.5s-1.6 3.5-3.5 3.5zm-55.1-14.8c-1.1 0-2.2-.5-2.9-1.5-4.2-6.1-6.5-13.3-6.6-20.7 0-1.9 1.5-3.5 3.4-3.6h.1c1.9 0 3.5 1.5 3.5 3.4.1 6.1 1.9 11.9 5.4 16.8 1.1 1.6.7 3.8-.9 4.9-.6.5-1.3.7-2 .7zm-6-58.8c-1.9 0-3.5-1.6-3.5-3.5v-20c0-1.9 1.6-3.5 3.5-3.5s3.5 1.6 3.5 3.5v20c0 1.9-1.5 3.5-3.5 3.5zM1649.4 723.6h-20c-1.9 0-3.5-1.6-3.5-3.5s1.6-3.5 3.5-3.5h20c1.9 0 3.5 1.6 3.5 3.5s-1.6 3.5-3.5 3.5zm40-.2c-1.8 0-3.3-1.3-3.5-3.2-.2-1.9 1.2-3.6 3.1-3.8 6-.6 11.6-3 16.2-6.9 1.5-1.3 3.7-1.1 4.9.4 1.3 1.5 1.1 3.7-.4 4.9-5.7 4.9-12.6 7.8-20 8.6h-.3zM1719 679c-1.9 0-3.5-1.6-3.5-3.5v-20c0-1.9 1.6-3.5 3.5-3.5s3.5 1.6 3.5 3.5v20c0 2-1.6 3.5-3.5 3.5zm0-60c-1.9 0-3.5-1.6-3.5-3.5v-20c0-1.9 1.6-3.5 3.5-3.5s3.5 1.6 3.5 3.5v20c0 2-1.6 3.5-3.5 3.5zm0-60c-1.9 0-3.5-1.6-3.5-3.5v-20c0-1.9 1.6-3.5 3.5-3.5s3.5 1.6 3.5 3.5v20c0 2-1.6 3.5-3.5 3.5zm0-60c-1.9 0-3.5-1.6-3.5-3.5v-20c0-1.9 1.6-3.5 3.5-3.5s3.5 1.6 3.5 3.5v20c0 2-1.6 3.5-3.5 3.5zM670.5 484.6c-1.9 0-3.5-1.6-3.5-3.5v-20c0-1.9 1.6-3.5 3.5-3.5s3.5 1.6 3.5 3.5v20c0 2-1.6 3.5-3.5 3.5zM1719 439c-1.9 0-3.5-1.6-3.5-3.5v-14.2c0-1.7-.2-3.5-.5-5.2-.3-1.9.9-3.7 2.8-4.1 1.9-.3 3.7.9 4.1 2.8.4 2.1.6 4.3.6 6.4v14.2c0 2.1-1.6 3.6-3.5 3.6zM670.5 424.6c-.1 0-.1 0 0 0-2 0-3.5-1.6-3.5-3.5.1-7.5 2.4-14.7 6.7-20.7 1.1-1.6 3.3-1.9 4.9-.8 1.6 1.1 1.9 3.3.8 4.9-3.5 4.9-5.3 10.7-5.4 16.7-.1 1.9-1.6 3.4-3.5 3.4zm1021.4-32.1c-.2 0-.4 0-.6-.1-1.7-.3-3.4-.4-5.1-.4H1672c-1.9 0-3.5-1.6-3.5-3.5s1.6-3.5 3.5-3.5h14.2c2.1 0 4.3.2 6.4.6 1.9.3 3.2 2.2 2.8 4.1-.4 1.6-1.8 2.8-3.5 2.8zm-60-.5h-20c-1.9 0-3.5-1.6-3.5-3.5s1.6-3.5 3.5-3.5h20c1.9 0 3.5 1.6 3.5 3.5s-1.5 3.5-3.5 3.5zm-60 0h-20c-1.9 0-3.5-1.6-3.5-3.5s1.6-3.5 3.5-3.5h20c1.9 0 3.5 1.6 3.5 3.5s-1.5 3.5-3.5 3.5zm-60 0h-20c-1.9 0-3.5-1.6-3.5-3.5s1.6-3.5 3.5-3.5h20c1.9 0 3.5 1.6 3.5 3.5s-1.5 3.5-3.5 3.5zm-60 0h-20c-1.9 0-3.5-1.6-3.5-3.5s1.6-3.5 3.5-3.5h20c1.9 0 3.5 1.6 3.5 3.5s-1.5 3.5-3.5 3.5zm-60 0h-20c-1.9 0-3.5-1.6-3.5-3.5s1.6-3.5 3.5-3.5h20c1.9 0 3.5 1.6 3.5 3.5s-1.5 3.5-3.5 3.5zm-60 0h-20c-1.9 0-3.5-1.6-3.5-3.5s1.6-3.5 3.5-3.5h20c1.9 0 3.5 1.6 3.5 3.5s-1.5 3.5-3.5 3.5zm-60 0h-20c-1.9 0-3.5-1.6-3.5-3.5s1.6-3.5 3.5-3.5h20c1.9 0 3.5 1.6 3.5 3.5s-1.5 3.5-3.5 3.5zm-60 0h-20c-1.9 0-3.5-1.6-3.5-3.5s1.6-3.5 3.5-3.5h20c1.9 0 3.5 1.6 3.5 3.5s-1.5 3.5-3.5 3.5zm-60 0h-20c-1.9 0-3.5-1.6-3.5-3.5s1.6-3.5 3.5-3.5h20c1.9 0 3.5 1.6 3.5 3.5s-1.5 3.5-3.5 3.5zm-60 0h-20c-1.9 0-3.5-1.6-3.5-3.5s1.6-3.5 3.5-3.5h20c1.9 0 3.5 1.6 3.5 3.5s-1.5 3.5-3.5 3.5zm-60 0h-20c-1.9 0-3.5-1.6-3.5-3.5s1.6-3.5 3.5-3.5h20c1.9 0 3.5 1.6 3.5 3.5s-1.5 3.5-3.5 3.5zm-60 0h-20c-1.9 0-3.5-1.6-3.5-3.5s1.6-3.5 3.5-3.5h20c1.9 0 3.5 1.6 3.5 3.5s-1.5 3.5-3.5 3.5zm-60 0h-20c-1.9 0-3.5-1.6-3.5-3.5s1.6-3.5 3.5-3.5h20c1.9 0 3.5 1.6 3.5 3.5s-1.5 3.5-3.5 3.5zm-60 0h-20c-1.9 0-3.5-1.6-3.5-3.5s1.6-3.5 3.5-3.5h20c1.9 0 3.5 1.6 3.5 3.5s-1.5 3.5-3.5 3.5zm-60 0h-20c-1.9 0-3.5-1.6-3.5-3.5s1.6-3.5 3.5-3.5h20c1.9 0 3.5 1.6 3.5 3.5s-1.5 3.5-3.5 3.5zm-60 0h-20c-1.9 0-3.5-1.6-3.5-3.5s1.6-3.5 3.5-3.5h20c1.9 0 3.5 1.6 3.5 3.5s-1.5 3.5-3.5 3.5z"/><path class="st0" d="M1576.5 1457.2H310.6c-22 0-39.9-17.9-39.9-39.9V521c0-22 17.9-39.9 39.9-39.9h1265.9c22 0 39.9 17.9 39.9 39.9v896.3c.1 22-17.8 39.9-39.9 39.9z"/><path class="st2" d="M1525.8 1335.3H859.7c-9.3 0-16.9-7.6-16.9-16.9V996.6c0-9.3 7.6-16.9 16.9-16.9h666.2c9.3 0 16.9 7.6 16.9 16.9v321.8c-.1 9.3-7.6 16.9-17 16.9z"/><path class="st3" d="M1075.6 1237.9H402.7c-13 0-23.6-10.6-23.6-23.6V700.4c0-13 10.6-23.6 23.6-23.6h672.9c13 0 23.6 10.6 23.6 23.6v513.9c0 13-10.5 23.6-23.6 23.6z"/><path class="st4" d="M1574.9 481.1H312.3c-23 0-41.6 18.6-41.6 41.6V572h1345.7v-49.3c.1-22.9-18.6-41.6-41.5-41.6zM316.1 1264.3h-78.2c-3.9 0-7.1-3.2-7.1-7.1V1179c0-3.9 3.2-7.1 7.1-7.1h78.2c3.9 0 7.1 3.2 7.1 7.1v78.2c0 3.9-3.2 7.1-7.1 7.1z"/><path class="st5" d="M301.2 1258.3c-.6 0-1-.4-1-1s.4-1 1-1h7.9c.6 0 1 .4 1 1s-.4 1-1 1v-1 1h-7.9zm-9.8 0h-7.9c-.6 0-1-.4-1-1s.4-1 1-1h7.9c.6 0 1 .4 1 1s-.5 1-1 1zm-17.8 0h-7.9c-.6 0-1-.4-1-1s.4-1 1-1h7.9c.6 0 1 .4 1 1s-.4 1-1 1zm-17.7 0H248c-.6 0-1-.4-1-1s.4-1 1-1h7.9c.6 0 1 .4 1 1s-.5 1-1 1zm-16.8-2.9c-.3 0-.6-.1-.8-.4-1-1.4-1.5-3-1.5-4.8v-3.4c0-.6.4-1 1-1s1 .4 1 1v3.4c0 1.3.4 2.5 1.2 3.6.3.4.2 1.1-.2 1.4-.3.2-.5.2-.7.2zm77-3h-.2c-.5-.1-.9-.6-.8-1.2.1-.3.1-.7.1-1v-6.7c0-.6.4-1 1-1s1 .4 1 1v6.7c0 .4 0 .9-.1 1.3-.1.6-.5.9-1 .9zm-78.4-14.4c-.6 0-1-.4-1-1v-7.9c0-.6.4-1 1-1s1 .4 1 1v7.9c0 .5-.4 1-1 1zm78.5-3.3c-.6 0-1-.4-1-1v-7.9c0-.6.4-1 1-1s1 .4 1 1v7.9c0 .5-.4 1-1 1zm-78.5-14.5c-.6 0-1-.4-1-1v-7.9c0-.6.4-1 1-1s1 .4 1 1v7.9c0 .6-.4 1-1 1zm78.5-3.3c-.6 0-1-.4-1-1v-7.9c0-.6.4-1 1-1s1 .4 1 1v7.9c0 .6-.4 1-1 1zm-78.5-14.4c-.6 0-1-.4-1-1v-7.9c0-.6.4-1 1-1s1 .4 1 1v7.9c0 .5-.4 1-1 1zm78.5-3.3c-.6 0-1-.4-1-1v-7.9c0-.6.4-1 1-1s1 .4 1 1v7.9c0 .5-.4 1-1 1zm-78.1-14.5h-.3c-.5-.2-.8-.7-.6-1.3.9-2.9 3.5-5.1 6.5-5.5.5-.1 1.1.3 1.1.8.1.5-.3 1.1-.8 1.1-2.3.3-4.2 2-4.9 4.1-.2.6-.6.8-1 .8zm76.1-2.7c-.3 0-.5-.1-.7-.3-1.2-1.2-2.7-1.8-4.3-1.8H307c-.6 0-1-.4-1-1s.4-1 1-1h2.2c2.2 0 4.2.9 5.8 2.4.4.4.4 1 0 1.4-.3.2-.6.3-.8.3zm-17.2-2.2h-7.9c-.6 0-1-.4-1-1s.4-1 1-1h7.9c.6 0 1 .4 1 1s-.4 1-1 1zm-17.7 0h-7.9c-.6 0-1-.4-1-1s.4-1 1-1h7.9c.6 0 1 .4 1 1s-.5 1-1 1zm-17.8 0h-7.9c-.6 0-1-.4-1-1s.4-1 1-1h7.9c.6 0 1 .4 1 1s-.4 1-1 1z"/><path class="st6" d="M283.9 1203.9v37.9c0 1.3-1 2.3-2.3 2.3H275c-1.3 0-2.3-1-2.3-2.3v-37.9H261c-1.3 0-2.4-1.1-2.4-2.4v-4.9c0-1.3 1.1-2.4 2.4-2.4h34.6c1.3 0 2.4 1.1 2.4 2.4v4.9c0 1.3-1.1 2.4-2.4 2.4h-11.7z"/><path class="st7" d="M281.2 1201.7v37.9c0 1.3-1 2.3-2.3 2.3h-6.6c-1.3 0-2.3-1-2.3-2.3v-37.9h-11.8c-1.3 0-2.4-1.1-2.4-2.4v-4.9c0-1.3 1.1-2.4 2.4-2.4h34.6c1.3 0 2.4 1.1 2.4 2.4v4.9c0 1.3-1.1 2.4-2.4 2.4h-11.6z"/><path class="st4" d="M432.7 1264.3h-78.2c-3.9 0-7.1-3.2-7.1-7.1V1179c0-3.9 3.2-7.1 7.1-7.1h78.2c3.9 0 7.1 3.2 7.1 7.1v78.2c0 3.9-3.1 7.1-7.1 7.1z"/><path class="st5" d="M417.9 1258.3c-.6 0-1-.4-1-1s.4-1 1-1h7.9c.6 0 1 .4 1 1s-.4 1-1 1v-1 1h-7.9zm-9.8 0h-7.9c-.6 0-1-.4-1-1s.4-1 1-1h7.9c.6 0 1 .4 1 1s-.5 1-1 1zm-17.8 0h-7.9c-.6 0-1-.4-1-1s.4-1 1-1h7.9c.6 0 1 .4 1 1s-.4 1-1 1zm-17.7 0h-7.9c-.6 0-1-.4-1-1s.4-1 1-1h7.9c.6 0 1 .4 1 1s-.5 1-1 1zm-16.8-2.9c-.3 0-.6-.1-.8-.4-1-1.4-1.5-3-1.5-4.8v-3.4c0-.6.4-1 1-1s1 .4 1 1v3.4c0 1.3.4 2.5 1.2 3.6.3.4.2 1.1-.2 1.4-.3.2-.5.2-.7.2zm77-3h-.2c-.5-.1-.9-.6-.8-1.2.1-.3.1-.7.1-1v-6.7c0-.6.4-1 1-1s1 .4 1 1v6.7c0 .5 0 .9-.1 1.3-.1.6-.5.9-1 .9zm-78.4-14.4c-.6 0-1-.4-1-1v-7.9c0-.6.4-1 1-1s1 .4 1 1v7.9c0 .5-.5 1-1 1zm78.5-3.3c-.6 0-1-.4-1-1v-7.9c0-.6.4-1 1-1s1 .4 1 1v7.9c0 .5-.5 1-1 1zm-78.5-14.5c-.6 0-1-.4-1-1v-7.9c0-.6.4-1 1-1s1 .4 1 1v7.9c0 .6-.5 1-1 1zm78.5-3.3c-.6 0-1-.4-1-1v-7.9c0-.6.4-1 1-1s1 .4 1 1v7.9c0 .6-.5 1-1 1zm-78.5-14.4c-.6 0-1-.4-1-1v-7.9c0-.6.4-1 1-1s1 .4 1 1v7.9c0 .5-.5 1-1 1zm78.5-3.3c-.6 0-1-.4-1-1v-7.9c0-.6.4-1 1-1s1 .4 1 1v7.9c0 .5-.5 1-1 1zm-78.2-14.5h-.3c-.5-.2-.8-.7-.6-1.3.9-2.9 3.5-5.1 6.5-5.5.5-.1 1.1.3 1.1.8.1.5-.3 1.1-.8 1.1-2.3.3-4.2 2-4.9 4.1-.1.6-.5.8-1 .8zm76.2-2.7c-.3 0-.5-.1-.7-.3-1.2-1.2-2.7-1.8-4.3-1.8h-2.2c-.6 0-1-.4-1-1s.4-1 1-1h2.2c2.2 0 4.2.9 5.8 2.4.4.4.4 1 0 1.4-.3.2-.6.3-.8.3zm-17.2-2.2h-7.9c-.6 0-1-.4-1-1s.4-1 1-1h7.9c.6 0 1 .4 1 1s-.5 1-1 1zm-17.8 0H388c-.6 0-1-.4-1-1s.4-1 1-1h7.9c.6 0 1 .4 1 1s-.4 1-1 1zm-17.7 0h-7.9c-.6 0-1-.4-1-1s.4-1 1-1h7.9c.6 0 1 .4 1 1s-.4 1-1 1z"/><path class="st6" d="M417.2 1198.6l-9-9-2.8 10.8-16.4 3.4c-2.7.6-4.9 2.4-6.1 4.9l-16.4 36.1 1.5 1.5 23.2-23.2c-1.4-2.1-1.1-4.9.9-6.7 1.9-1.7 4.9-1.6 6.8.1 2.1 2 2.1 5.2.1 7.3-1.7 1.7-4.4 1.9-6.4.6l-23.2 23.2 1.5 1.5 36.1-16.4c2.5-1.1 4.3-3.4 4.9-6.1l3.4-16.4 10.8-2.8-8.9-8.8z"/><path class="st0" d="M409 1224.1l3.4-16.4-5-5-5-5-16.4 3.4c-2.7.6-4.9 2.4-6.1 4.9l-16.4 36.1 1.5 1.5 23.2-23.2c-1.4-2.1-1.1-4.9.9-6.7 1.9-1.7 4.9-1.6 6.8.1 2.1 2 2.1 5.2.1 7.3-1.7 1.7-4.4 1.9-6.4.6l-23.2 23.2 1.5 1.5L404 1230c2.6-.9 4.4-3.2 5-5.9z"/><path class="st8" d="M414.2 1195.9l-9-9-2.8 10.8 5 5 5 5 10.8-2.8z"/><path class="st9" d="M742.6 1387.6H238.8c-5.3 0-9.7-4.3-9.7-9.7v-76.4c0-5.3 4.3-9.7 9.7-9.7h503.8c5.3 0 9.7 4.3 9.7 9.7v76.4c0 5.4-4.3 9.7-9.7 9.7z"/><linearGradient id="SVGID_1_" gradientUnits="userSpaceOnUse" x1="250.878" y1="1332.035" x2="730.534" y2="1332.035"><stop offset="0" stop-color="#b92bf1"/><stop offset=".496" stop-color="#7e5bff"/><stop offset="1" stop-color="#ff6695"/></linearGradient><path class="st10" d="M250.9 1311.3h479.7v41.5H250.9z"/><path class="st0" d="M261.3 1352.8l-5 6.8v6.8h10.1v-6.8zM712.7 1351.9l-5.1 6.8v6.8h10.1v-6.8zM481.9 1352.8l-5 6.8v6.8H487v-6.8zM260.8 1311.3h1v41.5h-1zM276.5 1311.3h1v41.5h-1zM282.4 1311.3h1v41.5h-1zM288.3 1311.3h1v41.5h-1zM481.4 1311.3h1v41.5h-1z"/><path class="st0" d="M712.1 1311.3h1v41.5h-1zM718.7 1311.3h1v41.5h-1zM686.4 1311.3h1v41.5h-1zM680.4 1311.3h1v41.5h-1zM670.5 1311.3h1v41.5h-1z"/><g><path class="st4" d="M1117.9 1169.6H567.7c-9.9 0-17.9-8-17.9-17.9V839.1c0-9.9 8-17.9 17.9-17.9h550.2c9.9 0 17.9 8 17.9 17.9v312.6c0 9.9-8 17.9-17.9 17.9z"/><path class="st11" d="M568.5 1169.6h548.6c10.3 0 18.7-8.4 18.7-18.7V995.4l-74.4-61.7c-24.6-20.4-60.8-18-82.4 5.5l-122.1 132.7c-7.9 8.5-21 9.4-29.9 1.9l-92.4-77.9c-23-19.4-56.7-18.8-79 1.4l-105.8 96v57.6c0 10.4 8.3 18.7 18.7 18.7z"/><circle class="st8" cx="627.2" cy="918.5" r="32.7"/><g><path class="st7" d="M1165.6 1205.3h-8c-1.1 0-2-.9-2-2s.9-2 2-2h8c1.1 0 2 .9 2 2s-.9 2-2 2zm-28 0h-8c-1.1 0-2-.9-2-2s.9-2 2-2h8c1.1 0 2 .9 2 2s-.9 2-2 2zm-28 0h-8c-1.1 0-2-.9-2-2s.9-2 2-2h8c1.1 0 2 .9 2 2s-.9 2-2 2zm-28 0h-8c-1.1 0-2-.9-2-2s.9-2 2-2h8c1.1 0 2 .9 2 2s-.9 2-2 2zm-28 0h-8c-1.1 0-2-.9-2-2s.9-2 2-2h8c1.1 0 2 .9 2 2s-.9 2-2 2zm-28 0h-8c-1.1 0-2-.9-2-2s.9-2 2-2h8c1.1 0 2 .9 2 2s-.9 2-2 2zm-28 0h-8c-1.1 0-2-.9-2-2s.9-2 2-2h8c1.1 0 2 .9 2 2s-.9 2-2 2zm-28 0h-8c-1.1 0-2-.9-2-2s.9-2 2-2h8c1.1 0 2 .9 2 2s-.9 2-2 2zm-28 0h-8c-1.1 0-2-.9-2-2s.9-2 2-2h8c1.1 0 2 .9 2 2s-.9 2-2 2zm-28 0h-8c-1.1 0-2-.9-2-2s.9-2 2-2h8c1.1 0 2 .9 2 2s-.9 2-2 2zm-28 0h-8c-1.1 0-2-.9-2-2s.9-2 2-2h8c1.1 0 2 .9 2 2s-.9 2-2 2zm-28 0h-8c-1.1 0-2-.9-2-2s.9-2 2-2h8c1.1 0 2 .9 2 2s-.9 2-2 2zm-28 0h-8c-1.1 0-2-.9-2-2s.9-2 2-2h8c1.1 0 2 .9 2 2s-.9 2-2 2zm-28 0h-8c-1.1 0-2-.9-2-2s.9-2 2-2h8c1.1 0 2 .9 2 2s-.9 2-2 2zm-28 0h-8c-1.1 0-2-.9-2-2s.9-2 2-2h8c1.1 0 2 .9 2 2s-.9 2-2 2zm-28 0h-8c-1.1 0-2-.9-2-2s.9-2 2-2h8c1.1 0 2 .9 2 2s-.9 2-2 2zm-28 0h-8c-1.1 0-2-.9-2-2s.9-2 2-2h8c1.1 0 2 .9 2 2s-.9 2-2 2zm-28 0h-8c-1.1 0-2-.9-2-2s.9-2 2-2h8c1.1 0 2 .9 2 2s-.9 2-2 2zm-28 0h-8c-1.1 0-2-.9-2-2s.9-2 2-2h8c1.1 0 2 .9 2 2s-.9 2-2 2zm-28 0h-8c-1.1 0-2-.9-2-2s.9-2 2-2h8c1.1 0 2 .9 2 2s-.9 2-2 2zm-28 0h-8c-1.1 0-2-.9-2-2s.9-2 2-2h8c1.1 0 2 .9 2 2s-.9 2-2 2zm-28 0h-8c-1.1 0-2-.9-2-2s.9-2 2-2h8c1.1 0 2 .9 2 2s-.9 2-2 2zm-28 0h-8c-1.1 0-2-.9-2-2s.9-2 2-2h8c1.1 0 2 .9 2 2s-.9 2-2 2zm-28 0h-1.2c-1.1 0-2-.9-2-2v-6.8c0-1.1.9-2 2-2s2 .9 2 2v5c.7.3 1.2 1 1.2 1.8 0 1.1-.9 2-2 2zm644-14.1c-1.1 0-2-.9-2-2v-8c0-1.1.9-2 2-2s2 .9 2 2v8c0 1.1-.9 2-2 2zm-645.2-12.7c-1.1 0-2-.9-2-2v-8c0-1.1.9-2 2-2s2 .9 2 2v8c0 1.1-.9 2-2 2zm645.2-15.3c-1.1 0-2-.9-2-2v-8c0-1.1.9-2 2-2s2 .9 2 2v8c0 1.1-.9 2-2 2zm-645.2-12.7c-1.1 0-2-.9-2-2v-8c0-1.1.9-2 2-2s2 .9 2 2v8c0 1.1-.9 2-2 2zm645.2-15.3c-1.1 0-2-.9-2-2v-8c0-1.1.9-2 2-2s2 .9 2 2v8c0 1.1-.9 2-2 2zm-645.2-12.7c-1.1 0-2-.9-2-2v-8c0-1.1.9-2 2-2s2 .9 2 2v8c0 1.1-.9 2-2 2zm645.2-15.3c-1.1 0-2-.9-2-2v-8c0-1.1.9-2 2-2s2 .9 2 2v8c0 1.1-.9 2-2 2zm-645.2-12.7c-1.1 0-2-.9-2-2v-8c0-1.1.9-2 2-2s2 .9 2 2v8c0 1.1-.9 2-2 2zm645.2-15.3c-1.1 0-2-.9-2-2v-8c0-1.1.9-2 2-2s2 .9 2 2v8c0 1.1-.9 2-2 2zm-645.2-12.7c-1.1 0-2-.9-2-2v-8c0-1.1.9-2 2-2s2 .9 2 2v8c0 1.1-.9 2-2 2zm645.2-15.3c-1.1 0-2-.9-2-2v-8c0-1.1.9-2 2-2s2 .9 2 2v8c0 1.1-.9 2-2 2zm-645.2-12.7c-1.1 0-2-.9-2-2v-8c0-1.1.9-2 2-2s2 .9 2 2v8c0 1.1-.9 2-2 2zm645.2-15.3c-1.1 0-2-.9-2-2v-8c0-1.1.9-2 2-2s2 .9 2 2v8c0 1.1-.9 2-2 2zm-645.2-12.7c-1.1 0-2-.9-2-2v-8c0-1.1.9-2 2-2s2 .9 2 2v8c0 1.1-.9 2-2 2zm645.2-15.3c-1.1 0-2-.9-2-2v-8c0-1.1.9-2 2-2s2 .9 2 2v8c0 1.1-.9 2-2 2zm-645.2-12.7c-1.1 0-2-.9-2-2v-8c0-1.1.9-2 2-2s2 .9 2 2v8c0 1.1-.9 2-2 2zm645.2-15.3c-1.1 0-2-.9-2-2v-8c0-1.1.9-2 2-2s2 .9 2 2v8c0 1.1-.9 2-2 2zm-645.2-12.7c-1.1 0-2-.9-2-2v-8c0-1.1.9-2 2-2s2 .9 2 2v8c0 1.1-.9 2-2 2zm645.2-15.3c-1.1 0-2-.9-2-2v-8c0-1.1.9-2 2-2s2 .9 2 2v8c0 1.1-.9 2-2 2zm-645.2-12.7c-1.1 0-2-.9-2-2v-8c0-1.1.9-2 2-2s2 .9 2 2v8c0 1.1-.9 2-2 2zm645.2-15.3c-1.1 0-2-.9-2-2v-8c0-1.1.9-2 2-2s2 .9 2 2v8c0 1.1-.9 2-2 2zm-645.2-12.7c-1.1 0-2-.9-2-2v-8c0-1.1.9-2 2-2s2 .9 2 2v8c0 1.1-.9 2-2 2zm645.2-15.3c-1.1 0-2-.9-2-2v-8c0-1.1.9-2 2-2s2 .9 2 2v8c0 1.1-.9 2-2 2zm-645.2-12.7c-1.1 0-2-.9-2-2v-8c0-1.1.9-2 2-2s2 .9 2 2v8c0 1.1-.9 2-2 2zm645.2-15.3c-1.1 0-2-.9-2-2v-8c0-1.1.9-2 2-2s2 .9 2 2v8c0 1.1-.9 2-2 2zm-645.2-12.7c-1.1 0-2-.9-2-2v-8c0-1.1.9-2 2-2s2 .9 2 2v8c0 1.1-.9 2-2 2zm645.2-15.3c-1.1 0-2-.9-2-2v-8c0-1.1.9-2 2-2s2 .9 2 2v8c0 1.1-.9 2-2 2zm-645.2-12.7c-1.1 0-2-.9-2-2v-8c0-1.1.9-2 2-2s2 .9 2 2v8c0 1.1-.9 2-2 2zm645.2-15.3c-1.1 0-2-.9-2-2v-8c0-1.1.9-2 2-2s2 .9 2 2v8c0 1.1-.9 2-2 2zm-18.3-9.8h-8c-1.1 0-2-.9-2-2s.9-2 2-2h8c1.1 0 2 .9 2 2s-.8 2-2 2zm-28 0h-8c-1.1 0-2-.9-2-2s.9-2 2-2h8c1.1 0 2 .9 2 2s-.8 2-2 2zm-28 0h-8c-1.1 0-2-.9-2-2s.9-2 2-2h8c1.1 0 2 .9 2 2s-.8 2-2 2zm-28 0h-8c-1.1 0-2-.9-2-2s.9-2 2-2h8c1.1 0 2 .9 2 2s-.8 2-2 2zm-28 0h-8c-1.1 0-2-.9-2-2s.9-2 2-2h8c1.1 0 2 .9 2 2s-.8 2-2 2zm-28 0h-8c-1.1 0-2-.9-2-2s.9-2 2-2h8c1.1 0 2 .9 2 2s-.8 2-2 2zm-28 0h-8c-1.1 0-2-.9-2-2s.9-2 2-2h8c1.1 0 2 .9 2 2s-.8 2-2 2zm-28 0h-8c-1.1 0-2-.9-2-2s.9-2 2-2h8c1.1 0 2 .9 2 2s-.8 2-2 2zm-28 0h-8c-1.1 0-2-.9-2-2s.9-2 2-2h8c1.1 0 2 .9 2 2s-.8 2-2 2zm-28 0h-8c-1.1 0-2-.9-2-2s.9-2 2-2h8c1.1 0 2 .9 2 2s-.8 2-2 2zm-28 0h-8c-1.1 0-2-.9-2-2s.9-2 2-2h8c1.1 0 2 .9 2 2s-.8 2-2 2zm-28 0h-8c-1.1 0-2-.9-2-2s.9-2 2-2h8c1.1 0 2 .9 2 2s-.8 2-2 2zm-28 0h-8c-1.1 0-2-.9-2-2s.9-2 2-2h8c1.1 0 2 .9 2 2s-.8 2-2 2zm-28 0h-8c-1.1 0-2-.9-2-2s.9-2 2-2h8c1.1 0 2 .9 2 2s-.8 2-2 2zm-28 0h-8c-1.1 0-2-.9-2-2s.9-2 2-2h8c1.1 0 2 .9 2 2s-.8 2-2 2zm-28 0h-8c-1.1 0-2-.9-2-2s.9-2 2-2h8c1.1 0 2 .9 2 2s-.8 2-2 2zm-28 0h-8c-1.1 0-2-.9-2-2s.9-2 2-2h8c1.1 0 2 .9 2 2s-.8 2-2 2zm-28 0h-8c-1.1 0-2-.9-2-2s.9-2 2-2h8c1.1 0 2 .9 2 2s-.8 2-2 2zm-28 0h-8c-1.1 0-2-.9-2-2s.9-2 2-2h8c1.1 0 2 .9 2 2s-.8 2-2 2zm-28 0h-8c-1.1 0-2-.9-2-2s.9-2 2-2h8c1.1 0 2 .9 2 2s-.8 2-2 2zm-28 0h-8c-1.1 0-2-.9-2-2s.9-2 2-2h8c1.1 0 2 .9 2 2s-.8 2-2 2zm-28 0h-8c-1.1 0-2-.9-2-2s.9-2 2-2h8c1.1 0 2 .9 2 2s-.8 2-2 2zm-28 0h-8c-1.1 0-2-.9-2-2s.9-2 2-2h8c1.1 0 2 .9 2 2s-.8 2-2 2z"/><path class="st12" d="M502.7 774h34.4v34.4h-34.4zM1148.4 774h34.4v34.4h-34.4zM1148.4 1184.2h34.4v34.4h-34.4zM503.2 1184.2h34.4v34.4h-34.4zM503.2 979.1h34.4v34.4h-34.4zM1148.4 979.1h34.4v34.4h-34.4zM825.8 771.4h34.4v34.4h-34.4zM825.8 1184.2h34.4v34.4h-34.4z"/></g></g><circle class="st7" cx="337.7" cy="529.1" r="14.5"/><circle class="st8" cx="393.6" cy="529.1" r="14.5"/><circle class="st13" cx="449.6" cy="529.1" r="14.5"/><path class="st13" d="M983.3 708.4H975c-1.2 0-2.1-.9-2.1-2.1 0-1.2.9-2.1 2.1-2.1h8.3c1.2 0 2.1.9 2.1 2.1-.1 1.2-1 2.1-2.1 2.1zm-29.2 0h-8.3c-1.2 0-2.1-.9-2.1-2.1 0-1.2.9-2.1 2.1-2.1h8.3c1.2 0 2.1.9 2.1 2.1 0 1.2-1 2.1-2.1 2.1zm-29.2 0h-8.3c-1.2 0-2.1-.9-2.1-2.1 0-1.2.9-2.1 2.1-2.1h8.3c1.2 0 2.1.9 2.1 2.1 0 1.2-1 2.1-2.1 2.1zm-29.2 0h-8.3c-1.2 0-2.1-.9-2.1-2.1 0-1.2.9-2.1 2.1-2.1h8.3c1.2 0 2.1.9 2.1 2.1 0 1.2-.9 2.1-2.1 2.1zm-29.2 0h-8.3c-1.2 0-2.1-.9-2.1-2.1 0-1.2.9-2.1 2.1-2.1h8.3c1.2 0 2.1.9 2.1 2.1 0 1.2-.9 2.1-2.1 2.1zm-29.2 0H829c-1.2 0-2.1-.9-2.1-2.1 0-1.2.9-2.1 2.1-2.1h8.3c1.2 0 2.1.9 2.1 2.1 0 1.2-.9 2.1-2.1 2.1zm-29.2 0h-8.3c-1.2 0-2.1-.9-2.1-2.1 0-1.2.9-2.1 2.1-2.1h8.3c1.2 0 2.1.9 2.1 2.1 0 1.2-.9 2.1-2.1 2.1zm-29.1 0h-8.3c-1.2 0-2.1-.9-2.1-2.1 0-1.2.9-2.1 2.1-2.1h8.3c1.2 0 2.1.9 2.1 2.1-.1 1.2-1 2.1-2.1 2.1zm-29.2 0h-8.3c-1.2 0-2.1-.9-2.1-2.1 0-1.2.9-2.1 2.1-2.1h8.3c1.2 0 2.1.9 2.1 2.1 0 1.2-1 2.1-2.1 2.1zm-29.2 0h-8.3c-1.2 0-2.1-.9-2.1-2.1 0-1.2.9-2.1 2.1-2.1h8.3c1.2 0 2.1.9 2.1 2.1 0 1.2-1 2.1-2.1 2.1zm-29.2 0h-8.3c-1.2 0-2.1-.9-2.1-2.1 0-1.2.9-2.1 2.1-2.1h8.3c1.2 0 2.1.9 2.1 2.1 0 1.2-.9 2.1-2.1 2.1zm-29.2 0h-8.3c-1.2 0-2.1-.9-2.1-2.1 0-1.2.9-2.1 2.1-2.1h8.3c1.2 0 2.1.9 2.1 2.1 0 1.2-.9 2.1-2.1 2.1zm-29.2 0h-8.3c-1.2 0-2.1-.9-2.1-2.1 0-1.2.9-2.1 2.1-2.1h8.3c1.2 0 2.1.9 2.1 2.1 0 1.2-.9 2.1-2.1 2.1zm-29.2 0h-8.3c-1.2 0-2.1-.9-2.1-2.1 0-1.2.9-2.1 2.1-2.1h8.3c1.2 0 2.1.9 2.1 2.1 0 1.2-.9 2.1-2.1 2.1zm-29.1 0h-8.3c-1.2 0-2.1-.9-2.1-2.1 0-1.2.9-2.1 2.1-2.1h8.3c1.2 0 2.1.9 2.1 2.1-.1 1.2-1 2.1-2.1 2.1zm-29.2 0h-8.3c-1.2 0-2.1-.9-2.1-2.1 0-1.2.9-2.1 2.1-2.1h8.3c1.2 0 2.1.9 2.1 2.1 0 1.2-1 2.1-2.1 2.1zm-29.2 0H508c-1.2 0-2.1-.9-2.1-2.1 0-1.2.9-2.1 2.1-2.1h8.3c1.2 0 2.1.9 2.1 2.1 0 1.2-1 2.1-2.1 2.1zm-29.2 0h-8.3c-1.2 0-2.1-.9-2.1-2.1 0-1.2.9-2.1 2.1-2.1h8.3c1.2 0 2.1.9 2.1 2.1 0 1.2-.9 2.1-2.1 2.1zm-29.2 0h-8.3c-1.2 0-2.1-.9-2.1-2.1 0-1.2.9-2.1 2.1-2.1h8.3c1.2 0 2.1.9 2.1 2.1 0 1.2-.9 2.1-2.1 2.1zM1315.1 1367.6h-8.3c-1.2 0-2.1-.9-2.1-2.1s.9-2.1 2.1-2.1h8.3c1.2 0 2.1.9 2.1 2.1s-.9 2.1-2.1 2.1zm-29.1 0h-8.3c-1.2 0-2.1-.9-2.1-2.1s.9-2.1 2.1-2.1h8.3c1.2 0 2.1.9 2.1 2.1s-1 2.1-2.1 2.1zm-29.2 0h-8.3c-1.2 0-2.1-.9-2.1-2.1s.9-2.1 2.1-2.1h8.3c1.2 0 2.1.9 2.1 2.1s-1 2.1-2.1 2.1zm-29.2 0h-8.3c-1.2 0-2.1-.9-2.1-2.1s.9-2.1 2.1-2.1h8.3c1.2 0 2.1.9 2.1 2.1s-1 2.1-2.1 2.1zm-29.2 0h-8.3c-1.2 0-2.1-.9-2.1-2.1s.9-2.1 2.1-2.1h8.3c1.2 0 2.1.9 2.1 2.1s-1 2.1-2.1 2.1zm-29.2 0h-8.3c-1.2 0-2.1-.9-2.1-2.1s.9-2.1 2.1-2.1h8.3c1.2 0 2.1.9 2.1 2.1s-.9 2.1-2.1 2.1zm-29.2 0h-8.3c-1.2 0-2.1-.9-2.1-2.1s.9-2.1 2.1-2.1h8.3c1.2 0 2.1.9 2.1 2.1s-.9 2.1-2.1 2.1zm-29.2 0h-8.3c-1.2 0-2.1-.9-2.1-2.1s.9-2.1 2.1-2.1h8.3c1.2 0 2.1.9 2.1 2.1s-.9 2.1-2.1 2.1zm-29.1 0h-8.3c-1.2 0-2.1-.9-2.1-2.1s.9-2.1 2.1-2.1h8.3c1.2 0 2.1.9 2.1 2.1s-1 2.1-2.1 2.1zm-29.2 0h-8.3c-1.2 0-2.1-.9-2.1-2.1s.9-2.1 2.1-2.1h8.3c1.2 0 2.1.9 2.1 2.1s-1 2.1-2.1 2.1zm-29.2 0h-8.3c-1.2 0-2.1-.9-2.1-2.1s.9-2.1 2.1-2.1h8.3c1.2 0 2.1.9 2.1 2.1s-1 2.1-2.1 2.1zm-29.2 0h-8.3c-1.2 0-2.1-.9-2.1-2.1s.9-2.1 2.1-2.1h8.3c1.2 0 2.1.9 2.1 2.1s-.9 2.1-2.1 2.1zm-29.2 0h-8.3c-1.2 0-2.1-.9-2.1-2.1s.9-2.1 2.1-2.1h8.3c1.2 0 2.1.9 2.1 2.1s-.9 2.1-2.1 2.1zm-29.2 0h-8.3c-1.2 0-2.1-.9-2.1-2.1s.9-2.1 2.1-2.1h8.3c1.2 0 2.1.9 2.1 2.1s-.9 2.1-2.1 2.1zm-29.2 0h-8.3c-1.2 0-2.1-.9-2.1-2.1s.9-2.1 2.1-2.1h8.3c1.2 0 2.1.9 2.1 2.1s-.9 2.1-2.1 2.1zm-29.1 0H869c-1.2 0-2.1-.9-2.1-2.1s.9-2.1 2.1-2.1h8.3c1.2 0 2.1.9 2.1 2.1s-.9 2.1-2 2.1zm-29.2 0h-8.3c-1.2 0-2.1-.9-2.1-2.1s.9-2.1 2.1-2.1h8.3c1.2 0 2.1.9 2.1 2.1s-1 2.1-2.1 2.1zm-29.2 0h-8.3c-1.2 0-2.1-.9-2.1-2.1s.9-2.1 2.1-2.1h8.3c1.2 0 2.1.9 2.1 2.1s-1 2.1-2.1 2.1zm-29.2 0h-8.3c-1.2 0-2.1-.9-2.1-2.1s.9-2.1 2.1-2.1h8.3c1.2 0 2.1.9 2.1 2.1s-.9 2.1-2.1 2.1zm-29.2 0h-8.3c-1.2 0-2.1-.9-2.1-2.1s.9-2.1 2.1-2.1h8.3c1.2 0 2.1.9 2.1 2.1s-.9 2.1-2.1 2.1zm565-10.4c-1.2 0-2.1-.9-2.1-2.1v-8.3c0-1.2.9-2.1 2.1-2.1s2.1.9 2.1 2.1v8.3c0 1.2-.9 2.1-2.1 2.1zm0-29.2c-1.2 0-2.1-.9-2.1-2.1v-8.3c0-1.2.9-2.1 2.1-2.1s2.1.9 2.1 2.1v8.3c0 1.2-.9 2.1-2.1 2.1zm0-29.1c-1.2 0-2.1-.9-2.1-2.1v-8.3c0-1.2.9-2.1 2.1-2.1s2.1.9 2.1 2.1v8.3c0 1.1-.9 2.1-2.1 2.1zm0-29.2c-1.2 0-2.1-.9-2.1-2.1v-8.3c0-1.2.9-2.1 2.1-2.1s2.1.9 2.1 2.1v8.3c0 1.1-.9 2.1-2.1 2.1zm0-29.2c-1.2 0-2.1-.9-2.1-2.1v-8.3c0-1.2.9-2.1 2.1-2.1s2.1.9 2.1 2.1v8.3c0 1.2-.9 2.1-2.1 2.1zm0-29.2c-1.2 0-2.1-.9-2.1-2.1v-8.3c0-1.2.9-2.1 2.1-2.1s2.1.9 2.1 2.1v8.3c0 1.2-.9 2.1-2.1 2.1zm0-29.2c-1.2 0-2.1-.9-2.1-2.1v-8.3c0-1.2.9-2.1 2.1-2.1s2.1.9 2.1 2.1v8.3c0 1.2-.9 2.1-2.1 2.1zm0-29.2c-1.2 0-2.1-.9-2.1-2.1v-8.3c0-1.2.9-2.1 2.1-2.1s2.1.9 2.1 2.1v8.3c0 1.2-.9 2.1-2.1 2.1zm0-29.1c-1.2 0-2.1-.9-2.1-2.1v-8.3c0-1.2.9-2.1 2.1-2.1s2.1.9 2.1 2.1v8.3c0 1.1-.9 2.1-2.1 2.1zm0-29.2c-1.2 0-2.1-.9-2.1-2.1v-8.3c0-1.2.9-2.1 2.1-2.1s2.1.9 2.1 2.1v8.3c0 1.1-.9 2.1-2.1 2.1zm0-29.2c-1.2 0-2.1-.9-2.1-2.1v-8.3c0-1.2.9-2.1 2.1-2.1s2.1.9 2.1 2.1v8.3c0 1.1-.9 2.1-2.1 2.1zm0-29.2c-1.2 0-2.1-.9-2.1-2.1v-8.3c0-1.2.9-2.1 2.1-2.1s2.1.9 2.1 2.1v8.3c0 1.2-.9 2.1-2.1 2.1zm0-29.2c-1.2 0-2.1-.9-2.1-2.1v-8.3c0-1.2.9-2.1 2.1-2.1s2.1.9 2.1 2.1v8.3c0 1.2-.9 2.1-2.1 2.1zm0-29.2c-1.2 0-2.1-.9-2.1-2.1v-8.3c0-1.2.9-2.1 2.1-2.1s2.1.9 2.1 2.1v8.3c0 1.2-.9 2.1-2.1 2.1zm0-29.2c-1.2 0-2.1-.9-2.1-2.1v-8.3c0-1.2.9-2.1 2.1-2.1s2.1.9 2.1 2.1v8.3c0 1.2-.9 2.1-2.1 2.1zm0-29.1c-1.2 0-2.1-.9-2.1-2.1V909c0-1.2.9-2.1 2.1-2.1s2.1.9 2.1 2.1v8.3c0 1.2-.9 2.2-2.1 2.2zM1469.6 821.6h-1c-1.2 0-2.1-.9-2.1-2.1 0-.7.4-1.4 1-1.8v-5.6c0-1.2.9-2.1 2.1-2.1s2.1.9 2.1 2.1v7.4c0 1.2-.9 2.1-2.1 2.1zm-21.8 0h-8.3c-1.2 0-2.1-.9-2.1-2.1s.9-2.1 2.1-2.1h8.3c1.2 0 2.1.9 2.1 2.1s-1 2.1-2.1 2.1zm-29.2 0h-8.3c-1.2 0-2.1-.9-2.1-2.1s.9-2.1 2.1-2.1h8.3c1.2 0 2.1.9 2.1 2.1s-.9 2.1-2.1 2.1zm-29.2 0h-8.3c-1.2 0-2.1-.9-2.1-2.1s.9-2.1 2.1-2.1h8.3c1.2 0 2.1.9 2.1 2.1s-.9 2.1-2.1 2.1zm-29.2 0h-8.3c-1.2 0-2.1-.9-2.1-2.1s.9-2.1 2.1-2.1h8.3c1.2 0 2.1.9 2.1 2.1s-.9 2.1-2.1 2.1zm-29.1 0h-8.3c-1.2 0-2.1-.9-2.1-2.1s.9-2.1 2.1-2.1h8.3c1.2 0 2.1.9 2.1 2.1s-1 2.1-2.1 2.1zm-29.2 0h-8.3c-1.2 0-2.1-.9-2.1-2.1s.9-2.1 2.1-2.1h8.3c1.2 0 2.1.9 2.1 2.1s-1 2.1-2.1 2.1zm-29.2 0h-8.3c-1.2 0-2.1-.9-2.1-2.1s.9-2.1 2.1-2.1h8.3c1.2 0 2.1.9 2.1 2.1s-1 2.1-2.1 2.1zm-29.2 0h-8.3c-1.2 0-2.1-.9-2.1-2.1s.9-2.1 2.1-2.1h8.3c1.2 0 2.1.9 2.1 2.1s-1 2.1-2.1 2.1zm-17.7-11.4c-1.2 0-2.1-.9-2.1-2.1v-8.3c0-1.2.9-2.1 2.1-2.1s2.1.9 2.1 2.1v8.3c0 1.1-1 2.1-2.1 2.1zm243.8-16.8c-1.2 0-2.1-.9-2.1-2.1V783c0-1.2.9-2.1 2.1-2.1s2.1.9 2.1 2.1v8.3c0 1.2-.9 2.1-2.1 2.1zM1225.8 781c-1.2 0-2.1-.9-2.1-2.1v-8.3c0-1.2.9-2.1 2.1-2.1s2.1.9 2.1 2.1v8.3c0 1.2-1 2.1-2.1 2.1zm243.8-16.7c-1.2 0-2.1-.9-2.1-2.1v-8.3c0-1.2.9-2.1 2.1-2.1s2.1.9 2.1 2.1v8.3c0 1.1-.9 2.1-2.1 2.1zm-243.8-12.5c-1.2 0-2.1-.9-2.1-2.1v-8.3c0-1.2.9-2.1 2.1-2.1s2.1.9 2.1 2.1v8.3c0 1.2-1 2.1-2.1 2.1z"/><g><path class="st9" d="M1501.4 741.4h-488.9c-8.8 0-15.9-7.1-15.9-15.9v-72.1c0-8.8 7.1-15.9 15.9-15.9h488.9c8.8 0 15.9 7.1 15.9 15.9v72.1c0 8.8-7.1 15.9-15.9 15.9z"/><path class="st13" d="M1109.4 720.1h-48.2c-3.6 0-6.5-2.9-6.5-6.5v-48.2c0-3.6 2.9-6.5 6.5-6.5h48.2c3.6 0 6.5 2.9 6.5 6.5v48.2c.1 3.5-2.9 6.5-6.5 6.5z"/><path class="st8" d="M1177.9 720.1h-48.2c-3.6 0-6.5-2.9-6.5-6.5v-48.2c0-3.6 2.9-6.5 6.5-6.5h48.2c3.6 0 6.5 2.9 6.5 6.5v48.2c.1 3.5-2.9 6.5-6.5 6.5z"/><path class="st7" d="M1246.1 720.1h-48.2c-3.6 0-6.5-2.9-6.5-6.5v-48.2c0-3.6 2.9-6.5 6.5-6.5h48.2c3.6 0 6.5 2.9 6.5 6.5v48.2c.1 3.5-2.9 6.5-6.5 6.5z"/><path class="st14" d="M1315.2 720.1H1267c-3.6 0-6.5-2.9-6.5-6.5v-48.2c0-3.6 2.9-6.5 6.5-6.5h48.2c3.6 0 6.5 2.9 6.5 6.5v48.2c0 3.5-2.9 6.5-6.5 6.5z"/><path class="st4" d="M1384.9 720.1h-48.2c-3.6 0-6.5-2.9-6.5-6.5v-48.2c0-3.6 2.9-6.5 6.5-6.5h48.2c3.6 0 6.5 2.9 6.5 6.5v48.2c0 3.5-2.9 6.5-6.5 6.5z"/><path class="st15" d="M1453.8 720.1h-48.2c-3.6 0-6.5-2.9-6.5-6.5v-48.2c0-3.6 2.9-6.5 6.5-6.5h48.2c3.6 0 6.5 2.9 6.5 6.5v48.2c.1 3.5-2.9 6.5-6.5 6.5z"/><path class="st16" d="M1014.4 689.4l21.2 16.9v-33.8zM1499.5 689.4l-21.2-16.9v33.8z"/></g><g><path class="st9" d="M438.5 1082.4h-79.4c-8 0-14.5-6.5-14.5-14.5V640.4c0-8 6.5-14.5 14.5-14.5h79.4c8 0 14.5 6.5 14.5 14.5v427.5c0 8-6.4 14.5-14.5 14.5z"/><path class="st16" d="M437.9 625.9h-78.2c-8.3 0-15.1 6.8-15.1 15.1v16.2H453V641c0-8.3-6.7-15.1-15.1-15.1z"/><path class="st0" d="M353.8 643l9.6 7.7v-15.4z"/><path class="st0" d="M363.4 643l9.7 7.7v-15.4z"/><path class="st17" d="M357.2 676.8h36.4v36.4h-36.4z"/><path class="st18" d="M404 676.8h36.4v36.4H404zM357.2 723.4h36.4v36.4h-36.4z"/><path class="st17" d="M404 723.4h36.4v36.4H404zM357.2 770h36.4v36.4h-36.4z"/><path class="st18" d="M404 770h36.4v36.4H404zM357.2 816.5h36.4v36.4h-36.4z"/><path class="st17" d="M404 816.5h36.4v36.4H404zM357.2 863.1h36.4v36.4h-36.4z"/><path class="st18" d="M404 863.1h36.4v36.4H404zM357.2 909.7h36.4v36.4h-36.4z"/><path class="st17" d="M404 909.7h36.4v36.4H404zM438.7 1036.3H385v-53.7h53.7v53.7zm-45.3-8.3h37v-37h-37v37z"/><path class="st7" d="M359.8 967.8h52.1v52.1h-52.1z"/></g><g><path class="st13" d="M1407.9 1203.5h-164.6c-9.7 0-17.6-7.9-17.6-17.6v-117c0-9.7 7.9-17.6 17.6-17.6h164.6c9.7 0 17.6 7.9 17.6 17.6v117c0 9.7-7.9 17.6-17.6 17.6z"/><path class="st7" d="M1410.6 1021.4h-169.9c-8.2 0-14.9-6.7-14.9-14.9V884.1c0-8.2 6.7-14.9 14.9-14.9h169.9c8.2 0 14.9 6.7 14.9 14.9v122.3c0 8.3-6.7 15-14.9 15z"/><path class="st19" d="M1409.9 869.2h-168.6c-8.6 0-15.6 7-15.6 15.6v12.9h199.7v-12.9c.1-8.6-6.9-15.6-15.5-15.6z"/><path class="st20" d="M1407.2 1051.3h-163.1c-10.1 0-18.3 8.2-18.3 18.3v8.1h199.7v-8.1c0-10.1-8.2-18.3-18.3-18.3z"/></g><g><linearGradient id="SVGID_2_" gradientUnits="userSpaceOnUse" x1="1421.711" y1="947.183" x2="1389.81" y2="877.035"><stop offset="0" stop-color="#f27370"/><stop offset="1" stop-color="#ffabab"/></linearGradient><path class="st21" d="M1474.8 847.9s-15.8 10.7-25.8 28.6-57.3 86.2-70.9 83.1c-13.6-3.1-61.9-112.1-65.6-126.3-3.7-14.2-26.5-38.9-42-38.3 0 0-13.6 9.1-6.2 21.8 7.4 12.8 26.5 16.5 31.5 28.2s42.1 170.4 72.6 171.6c30.5 1.2 110.6-96.3 110.6-96.3l-4.2-72.4z"/><linearGradient id="SVGID_3_" gradientUnits="userSpaceOnUse" x1="1385.105" y1="956.217" x2="1468.599" y2="813.127"><stop offset="0" stop-color="#b92bf1"/><stop offset="1" stop-color="#951dce"/></linearGradient><path class="st22" d="M1474.8 847.9s-15.8 10.7-25.8 28.6c-9.9 17.9-57.3 86.2-70.9 83.1-5.2-1.2-15.5-17.9-26.4-38.9-5.7 14.7-24.7 27.4-38.3 33.4 14.6 20.1 40.4 61.9 55.1 62.5 30.5 1.2 110.6-96.3 110.6-96.3l-4.3-72.4z"/><linearGradient id="SVGID_4_" gradientUnits="userSpaceOnUse" x1="1445.095" y1="1496.68" x2="1445.095" y2="1702.984"><stop offset="0" stop-color="#f27370"/><stop offset="1" stop-color="#ffabab"/></linearGradient><path class="st23" d="M1507.9 798.5s14.5 21.7 6.5 31.9c-8 10.1-46.3 15.2-44.9 26.1 1.4 10.9 11.5 141.2 9.4 157.9-2.1 16.7-10.8 117.8-24.6 176.2-13.8 58.4-36.2 219.9-42.7 240.9s-59.4 273.7-67.4 293.3-24.7 42-37.7 42.8c-25.3 1.6-52.1 24.5-37.6 28.2 9 2.2 37.6 1.7 58.2 1 13.1-.5 24.9-8.1 30.7-19.8 8.1-16.2 20.8-37.4 33.3-40.5 20.5-5.1 15-26.8 0-39.1s48-117.3 56.7-180.3c8.7-63 13-76 31.9-103.6 18.8-27.5 56.1-128.6 62.3-199.9 1.2-14 2.2 185.4 0 217.3-2.2 31.9 5.8 249.1 6.5 260s2.2 31.9-2.2 48.5c-4.3 16.7-11.6 32.6-19.6 36.9-8 4.3-34.8 8-34.8 18.1 0 6.7 31.8 5.9 53.7 4.6 11.1-.7 20.5-8.2 23.8-18.9 3.8-12.5 11.3-27.9 26.1-32.8 26.1-8.7-13-32.6-13-58.7s31.7-167.3 22-215.1c-9.7-47.8-17.7-55-6.1-93.4 9.8-32.4 52.6-190.2 4.7-263.9-20.1-30.9-26.5-68.7-16.7-104.3 6.8-24.8 13.6-49.1 17.1-60.6 8.7-28.2 5.1-112.3-3.6-115.1-8.7-2.9-53.6-.7-52.9-37.7.7-36.9-39.1 0-39.1 0z"/><linearGradient id="SVGID_5_" gradientUnits="userSpaceOnUse" x1="1591.822" y1="992.275" x2="1555.844" y2="1034.596"><stop offset="0" stop-color="#f27370"/><stop offset="1" stop-color="#ffabab"/></linearGradient><path class="st24" d="M1599.4 835.1s19.1 2.2 31 16.9c14.6 18.1 85.2 95.9 88.5 118.1 3.4 22.7-73.1 73.9-93.5 86.9s-34.9 18.8-25.5 31.1c9.4 12.3 7.1 34.5 7.1 34.5l-25.3 4.6-7.9-63s69.1-72.5 92.2-93c1.7-1.5 1.7-4.2-.1-5.7l-68.6-63.8 2.1-66.6z"/><linearGradient id="SVGID_6_" gradientUnits="userSpaceOnUse" x1="1518.519" y1="1531.223" x2="1518.519" y2="1123.648"><stop offset="0" stop-color="#464392"/><stop offset="1" stop-color="#303075"/></linearGradient><path class="st25" d="M1638.1 1331.3c0-73.8-4.5-117.2-6.5-132.3-.5-3.5-1.1-7-1.8-10.5l-5.2-23.3c-1.3-5.8-3.1-11.4-5.5-16.8v-.1c-17.8-39.9-40.8-78-35.3-124.5h-105.9c-.8 10.9-3.4 26.2-4.7 44.4l-.9 8s-72.8 388.4-114 418.5c0 0 44.7 36.1 75.6 26.6 30.9-9.5 46.6-30 67.8-10.9 21.2 19.1 44.6 28.9 65.2 12.4s51.5-17.9 64.6-5.6c13.1 12.3 47.4-5.1 47.4-5.1s-40.8-87.2-40.8-180.8z"/><linearGradient id="SVGID_7_" gradientUnits="userSpaceOnUse" x1="1538.717" y1="1026.927" x2="1538.717" y2="821.394"><stop offset="0" stop-color="#b92bf1"/><stop offset="1" stop-color="#951dce"/></linearGradient><path class="st26" d="M1588.8 1009.8c6.8-24.8 11.4-45.9 14.9-57.4 8.7-28.2 4.4-114.4-4.3-117.3s-52.9-1.3-52.1-38.2c.7-36.9-48.6 1.1-48.6 1.1s18.9 22.4 10.9 32.6c-8 10.1-42 14-40.5 24.9 1.4 10.9 11.5 141.2 9.4 157.9-.7 5.6-2.5 21.3-9.4 46.6 11.3 3.5 19.1 6.1 60.8 6.1 43.5 0 44.8-2.8 60.6-8.4-1.4-14.8-5.7-33.2-1.7-47.9z"/><linearGradient id="SVGID_8_" gradientUnits="userSpaceOnUse" x1="1560.869" y1="719.4" x2="1479.629" y2="790.226"><stop offset="0" stop-color="#f27370"/><stop offset="1" stop-color="#ffabab"/></linearGradient><path class="st27" d="M1522.7 694.6c-18.2-.1-34.2 12.2-39.4 29.7-4.5 15-9.9 36.3-9.4 50.7.8 24.3 4.6 43.3 22.8 40.2 18.2-3 39.5 3 60-22s36.4-67.5 14.4-82c-13.3-8.7-30.8-16.5-48.4-16.6z"/><path class="st4" d="M1332 1773.1c-7.9-1.7-13.6-4.7-17.6-8.3-2.7 1.6-5.4 2.6-7.9 2.7-25.3 1.6-52.1 24.5-37.6 28.2 9 2.2 37.6 1.7 58.2 1 13.1-.5 24.9-8.1 30.7-19.8 8.1-16.2 20.8-37.4 33.3-40.5 20.5-5.1 15-26.8 0-39.1 0-.1-33.6 81.3-59.1 75.8z"/><path class="st4" d="M1404.4 1723.9l-13.5 73.4h-11.6l3.1-63.8zM1587.5 1706.2s-25.2 71.1-46 68.6c-4-.5-7.4-1.3-10.3-2.3-1.5 1.6-3 2.9-4.5 3.7-8 4.3-34.8 8-34.8 18.1 0 6.7 31.8 5.9 53.7 4.6 11.1-.7 20.5-8.2 23.8-18.9 3.8-12.5 11.3-27.9 26.1-32.8 20-6.7 1.6-22.3-8-41z"/><path class="st4" d="M1604.4 1739.2l-8.8 58.1h-11.2l1.7-52.9z"/><linearGradient id="SVGID_9_" gradientUnits="userSpaceOnUse" x1="1680.435" y1="991.898" x2="1559.632" y2="863.283"><stop offset="0" stop-color="#b92bf1"/><stop offset="1" stop-color="#951dce"/></linearGradient><path class="st28" d="M1718.9 970.1c-3.3-22.3-73.9-100-88.5-118.1-11.9-14.7-31-16.9-31-16.9l-2.1 66.7 68.6 63.8c1.8 1.4 1.8 4.1.1 5.7-8.9 7.8-24.5 23.3-40.4 39.4 3.4 11.4 25.6 41.3 38.9 46.8 10.5-33.6 56.9-70.4 54.4-87.4z"/><linearGradient id="SVGID_10_" gradientUnits="userSpaceOnUse" x1="1680.435" y1="991.898" x2="1559.632" y2="863.283"><stop offset="0" stop-color="#b92bf1"/><stop offset="1" stop-color="#951dce"/></linearGradient><path class="st29" d="M1718.9 970.1c-3.3-22.3-73.9-100-88.5-118.1-11.9-14.7-31-16.9-31-16.9l-2.1 66.7 68.6 63.8c1.8 1.4 1.8 4.1.1 5.7-8.9 7.8-24.5 23.3-40.4 39.4 3.4 11.4 25.6 41.3 38.9 46.8 10.5-33.6 56.9-70.4 54.4-87.4z"/><circle class="st30" cx="1516.3" cy="1395.4" r="8.4"/><path class="st30" d="M1472.6 1072.2l-.5 4.1s-.8 4.5-2.4 12.5c.6.2 1.3.2 2 .2 4.7 0 8.4-3.8 8.4-8.4.1-4.4-3.2-8-7.5-8.4zM1442.8 1251.4c4.7 0 8.4-3.8 8.4-8.4 0-4.7-3.8-8.4-8.4-8.4-1.2 0-2.3.2-3.3.7-1 4.5-2 8.9-3 13.4 1.5 1.6 3.8 2.7 6.3 2.7z"/><circle class="st30" cx="1530.3" cy="1286" r="8.4"/><circle class="st30" cx="1588.8" cy="1246.7" r="8.4"/><circle class="st30" cx="1451.2" cy="1328" r="8.4"/><path class="st30" d="M1401.3 1406.8c4.7 0 8.4-3.8 8.4-8.4 0-4.6-3.8-8.4-8.4-8.4-1.5 5.3-3 10.5-4.5 15.6 1.3.7 2.8 1.2 4.5 1.2zM1398.9 1518.1c1.4-1.5 2.3-3.6 2.3-5.8 0-4.7-3.8-8.4-8.4-8.4-4.4 0-8.1 3.4-8.4 7.8 4.6 2.3 9.5 4.6 14.5 6.4z"/><circle class="st30" cx="1459.6" cy="1462.3" r="8.4"/><path class="st30" d="M1459.6 1158.1c4.7 0 8.4-3.8 8.4-8.4s-3.8-8.4-8.4-8.4h-.3c-1 5.1-2.1 10.5-3.3 16.1 1.2.5 2.4.7 3.6.7z"/><circle class="st30" cx="1580.4" cy="1448.2" r="8.4"/><path class="st30" d="M1583.6 1089c0 4.7 3.8 8.4 8.4 8.4 1.3 0 2.6-.3 3.7-.8-2.1-5.2-4-10.5-5.7-15.8-3.7.9-6.4 4.2-6.4 8.2zM1622.8 1171c1 0 2-.2 2.9-.5l-1.1-5.1c-.8-3.8-1.9-7.5-3.2-11.1-4 .7-7 4.1-7 8.3-.1 4.6 3.7 8.4 8.4 8.4zM1637.8 1299.3c-.1-5.9-.3-11.5-.4-16.8-4.3.4-7.6 4-7.6 8.4-.1 4.5 3.5 8.2 8 8.4zM1658.1 1519.8c-.5-4.2-4-7.5-8.4-7.5-4.7 0-8.4 3.8-8.4 8.4v.6c5.2.8 11.1-.1 16.8-1.5zM1654.8 1453.9c.9 0 1.8-.1 2.6-.4-1.5-5.2-3.1-10.6-4.6-16.2-3.7.9-6.5 4.2-6.5 8.2.1 4.6 3.9 8.4 8.5 8.4z"/><circle class="st30" cx="1565.7" cy="1149.7" r="8.4"/><circle class="st30" cx="1510.1" cy="1197.1" r="8.4"/><circle class="st30" cx="1597.3" cy="1368.3" r="8.4"/><path class="st30" d="M1557.2 1528.6c-.3-4.4-4-7.9-8.4-7.9-4.7 0-8.4 3.8-8.4 8.4 0 .6.1 1.2.2 1.8 5.6.7 11.2 0 16.6-2.3z"/><circle class="st30" cx="1524.8" cy="1105.9" r="8.4"/><path class="st14" d="M1561.4 833.2c-4-7.9-7.9-16.6-6.2-25.4 5.7-1.5 11.5-3.2 16.4-6.5 5.2-3.5 9.1-8.6 11.8-14.3 5.1-10.7 5.3-22.4 4.3-34 1.1-15.7-1.8-32.2-10.9-44.2-15.4-20.2-47.6-23.9-70.6-17.2-.2 0-.4.1-.6.2l-.6.3c-6.3 2.7-11.1 7.4-14.2 13.2-3.7 5.2-6.9 10.8-8.3 17-1.8 8-.8 16.8 2.3 24.4 4.2 10.1 13.9 17.2 21.8 25.1 4.2 8.2 7.6 16.6 8.2 26.1.3 4.8.3 10 3.5 13.8 3.2 3.8 8 4.6 12.7 4h.1c-.9 2.2-1.4 4.5-1.7 6.8-17 19.2 8.4 45.4 6.6 66.3-2.8 5.3-6.7 10-10.4 14.6-6.9 8.8-11.5 17.5-11.5 28.9 0 11.8 5.5 22.1 15.7 27.8.5.5 1.1.7 1.8.7 2 .2 3.5-2 2.9-3.7-1.4-8.5 0-17.3 4.9-24.5.7-1 1.4-1.9 2.1-2.7 7.8-3.5 17.7-5 23.9-7.4 10.1-4 16.4-12.1 17-23.1.1-1.3 0-2.5-.1-3.7 1.1-3.2 1.8-6.5 2-9.7.6-13.2-5.2-24.7-12.8-35-3.9-5.6-7-11.7-10.1-17.8zm-67.2-76.1c-7.1-7.9-10.8-17.8-10.3-28.5.2-4.8 1.5-9.3 3.5-13.5-.1.3-.1.6-.2.9-2.2 13.4 3.2 26.3 9.5 37.9 2.3 4.2 4.8 8.4 7.1 12.7-3.3-3.1-6.7-6.2-9.6-9.5zm90.1 15.5c.7-2.3 1.3-4.7 1.8-7.2-.2 7-1.4 14-4.5 20.5-2.7 5.8-6.9 11.1-12.4 14.4-2.9 1.8-6.1 3-9.4 4 11.5-7.9 20.8-19.1 24.5-31.7zm-55.1 53.7c-.1 7.8 2.2 15.9 4.4 22.9 3.2 10.1 7.9 20.9 5.4 31.7-.3 1.2-.6 2.3-1 3.4-1.8-19.1-20.2-41.2-8.8-58zm50.9 75.4c-2.4 17.6-18.5 19.2-32.3 23.5 3.7-2 7.9-3.3 12.4-5.1 8.3-3.2 15.6-10.6 20-19.1-.1.2-.1.4-.1.7z"/><path class="st4" d="M1557.9 807.1c-3-3.8-8.9-2.7-12.5-.5-1 .6-1.8 1.4-2.5 2.3-4.3-2.4-9.8-2.8-13.9.4-3.6 2.8-4.1 8-.2 10.7 3.8 2.7 9.3 1.4 12.8-1.1.9-.7 1.6-1.5 2.3-2.4 3.2 1.9 7.3 2.9 10.6 1.7 4.2-1.8 6.3-7.3 3.4-11.1zM1534 816c-1-2.9-.2-4.1 2.5-3.6 1.1.1 2 .4 2.9.8-1.3 1.5-3.8 3.6-5.4 2.8zm15.6-3.1c-.7.1-1.5-.3-2.4-.8.3-.3.6-.5.9-.8 1.2-.8 2.6-1.2 4-1.3-.3 2.7-1.1 3.6-2.5 2.9z"/></g></svg>