<svg version="1.1" id="Layer_1" xmlns="http://www.w3.org/2000/svg" x="0" y="0" width="2000" height="2000" xml:space="preserve"><style>.st0{fill:#fff}.st1{fill:#e4c9f7}.st4{fill:#7e5bff}.st10{fill:#f4f3ff}.st11{fill:#fc70c7}.st12{fill:#b92bf1}.st13{fill:#aa25e8}.st14{fill:#ba3bf4}.st16{fill:#e3e2f7}.st20{fill:#464392}.st21{fill:#51f2ed}.st25{fill:#ff80d5}.st26{fill:#ea5cc2}.st29{fill:#303075}.st38{fill:#fc81d3}</style><path class="st0" d="M0 0h2000v2000H0z"/><path class="st1" d="M1125.4 1598.3c-18.4.2-36.9 1.6-55.5 4.5-40.4 6.1-86 16.4-130.2 18.3 16.2 5.1 32.8 7.3 49.8 7.3 45.1-.1 92.2-15.3 135.9-30.1m-970.9-108.8c5.4 24.9 15.6 48.6 30.9 69.4 22.8 31.2 54.5 55 89.3 71.4 47.4 22.4 97.4 30.6 148.1 30.6 39.3 0 78.9-4.9 117.9-11.9 93.2-16.8 186.4-42.4 281.7-42.4 5.4 0 10.7.1 16.1.2 3.4.1 6.7.3 10.1.4-5-2.1-9.8-4.5-14.6-7.2-29.6-10.7-59.8-19.9-90.8-25.7-41.2-7.7-82.7-10.1-124.4-10.1-58.8 0-117.8 4.8-176.3 6.2-7.8.2-15.6.3-23.4.3-83.1 0-166.2-11.8-236.6-59.5-9.8-6.6-19.2-13.8-28-21.7m1607.3-606.3c-.3 1.4-.7 2.8-1 4.1-11.2 49.6 1 100.2 15 147.8 14.5 49.2 29.1 98.1 37.5 148.8 15.9 96 13.8 198.7-25.6 289-3.1 7.2-6.5 14.3-10.1 21.4 37.1-42 63.4-93.7 77.6-147.6 25.2-95.3 11.5-197.1-18.9-289.6-16.1-48.8-38-94.9-59.8-141.3-5.1-10.6-10.1-21.5-14.7-32.6M237 372.6c-51.2 42-82.4 104.2-94.7 170.2-28.5 153.5 40.8 298 69.9 446.5 32.7-189.5-59.7-386.3 6-573.2 5.2-14.8 11.5-29.5 18.8-43.5m1345.1-89.9c-48.1 0-97 9.5-142.2 20.3-101.2 24.3-199.5 59.3-300.5 84.5-42.1 10.5-84.9 19.2-128 24.3 38 6.1 76.5 8.6 115.1 8.6 33.6 0 67.3-1.9 100.8-4.9 103.7-9.4 206.1-29 309.9-37.5 23.3-1.9 47.5-3.3 71.9-3.3 68.5 0 138.2 11.2 192.2 54.4-15.9-46.2-45.5-87.5-87.9-113.3-40.2-24.5-85.4-33.1-131.3-33.1"/><path class="st1" d="M848.5 1607.3c24.1 10.3 50.4 14 77.5 14 4.5 0 9.1-.1 13.7-.3-2.5-.8-5-1.7-7.5-2.6-27.7-5.4-55.6-9.6-83.7-11.1m929.1-112.9c-16.7 19-35.7 35.9-56.7 50.2-36 24.5-77.1 39.1-120.2 44.7-16.5 2.1-33 3-49.6 3-30.8 0-61.7-3.1-92.3-7.1-49-6.3-97.7-15-147.1-17.8-8.7-.5-17.3-.8-25.9-.8-40.8 0-80.5 5.7-120.1 18.2-13 4.1-26.5 8.7-40.3 13.4h3.4c29.4 0 58.6 3.3 88 9.6 48.4 10.4 95.2 26.4 142.6 40.2 45.5 13.2 92 24.5 139.6 25.7 2.5.1 5 .1 7.5.1 40.8 0 81.1-8.2 118.1-25.8 66.6-31.6 119.5-88.3 153-153.6m-1565.4-505c-2.6 15.3-6.1 30.6-10.5 45.8-27.4 94.4-97.2 173-113.9 271-7 41-2 83.6 17.3 120.8 12.4 23.8 29.5 44.8 49.4 62.6-3.4-15.5-4.9-31.4-4.7-47.3 1.4-99.4 58.3-187.7 71-285.2 7.4-56.9 2.2-112.6-8.6-167.7m1589-560.4c9.3 27.1 14 56 13.7 84.5-.4 42.9-13.5 82.6-30.3 121.6-19 44-42.4 88.4-45.7 137.1-2.7 38.6 8.2 75.7 22.9 111.1 11.5-45.8 40.4-84.9 65.2-124.3 22.6-36 41.6-73.2 48.6-115.5 12.5-76-10-160.2-70.2-211-1.4-1.2-2.8-2.3-4.2-3.5M474.3 228.2c-29.6 0-59.1 3.8-87.7 12.7-67.6 21-118 70.8-149.6 131.8 13.6-11.1 28.5-20.9 44.9-28.9 44.6-21.8 93.9-30.3 143.5-30.3 36.9 0 74 4.7 109.4 12.2 101 21.4 195.9 65.2 297.8 83.2 31.9 5.6 63.9 8.1 95.9 8.1 27.7 0 55.4-1.9 82.9-5.2-30.6-4.9-60.9-12.1-90.6-22.3-97.9-33.4-185-91.2-281.5-127.8-51.9-19.7-108.7-33.5-165-33.5"/><path d="M425.4 313.4c-49.6 0-98.9 8.5-143.5 30.3-16.4 8-31.4 17.7-44.9 28.9-7.3 14-13.6 28.6-18.8 43.6-65.6 186.9 26.7 383.7-6 573.2 10.8 55.1 16 110.8 8.6 167.6-12.7 97.5-69.6 185.8-71 285.2-.2 15.9 1.3 31.8 4.7 47.3 8.8 7.8 18.1 15.1 27.9 21.7 70.4 47.7 153.5 59.5 236.6 59.5 7.8 0 15.6-.1 23.4-.3 58.5-1.4 117.5-6.2 176.3-6.2 41.7 0 83.2 2.4 124.4 10.1 31 5.8 61.2 15 90.8 25.7 4.8 2.7 9.6 5.1 14.6 7.2 28.1 1.5 56 5.7 83.6 11.1 2.5 1 5 1.8 7.5 2.6 44.3-1.9 89.8-12.2 130.2-18.3 18.6-2.8 37.1-4.3 55.5-4.5 13.8-4.7 27.3-9.3 40.3-13.4 39.5-12.4 79.2-18.2 120.1-18.2 8.6 0 17.2.3 25.9.8 49.4 2.8 98.1 11.5 147.1 17.8 30.6 4 61.4 7.1 92.3 7.1 16.6 0 33.1-.9 49.6-3 43-5.6 84.2-20.2 120.2-44.7 21-14.3 40-31.3 56.7-50.2 3.6-7 7-14.2 10.1-21.4 39.5-90.4 41.6-193 25.6-289-8.4-50.7-23-99.6-37.5-148.8-14-47.7-26.2-98.2-15-147.8.3-1.4.6-2.8 1-4.1-14.7-35.4-25.5-72.5-22.9-111.1 3.3-48.7 26.7-93.1 45.7-137.1 16.9-39 29.9-78.7 30.3-121.6.2-28.5-4.4-57.3-13.7-84.5-54-43.1-123.7-54.4-192.2-54.4-24.4 0-48.6 1.4-71.9 3.3-103.8 8.5-206.2 28-309.9 37.5-33.5 3-67.2 4.9-100.8 4.9-38.6 0-77.1-2.5-115.1-8.6-27.6 3.3-55.2 5.2-82.9 5.2-32 0-64-2.5-95.9-8.1-101.8-18-196.8-61.8-297.8-83.2-35.2-7.4-72.3-12.1-109.2-12.1" fill="#d5acf2"/><linearGradient id="SVGID_1_" gradientUnits="userSpaceOnUse" x1="-198.954" y1="2827.84" x2="-6.976" y2="3101.767" gradientTransform="rotate(-31.444 -3475.351 1302.608)"><stop offset=".283" stop-color="#7e5bff"/><stop offset=".931" stop-color="#fc70c7"/></linearGradient><path d="M279.6 1051.3c-.1 15.2-.6 30.4 5.4 44.7 12.4 29.2 40.8 45.4 69.1 56.1 6.6 2.5 13.3 4.8 20.1 7 1.9 2.6 5.8 3.9 8.7.9 18.5-19.4 21.5-47.5 17.5-72.9-4.9-31.1-20.7-59.2-26.3-90.1-5.2-28.6-2.6-60.1-19.7-85.2-14.9-21.8-39.2-33.5-59.5-49.3-9.7-7.5-18.8-16.2-24.1-27.4-5.8-12.4-5.8-29.3-20.2-35.6-15.4-6.7-25.6 8.5-32.7 19.7-7.5 11.9-14.7 24.2-18.8 37.7-18.9 62.6 46.5 102.7 71.2 151.4 7 13.7 9.4 27.8 9.3 43z" fill="url(#SVGID_1_)"/><path class="st4" d="M341.8 1098.9c-4.8-3.2-9.8-6-15.1-8.4-6.6-3-12 6.9-5.3 9.9 9.9 4.5 18.7 10.4 26.6 17.7 10 29.8 22.3 58.7 40.7 84.5 16.5 23.1 37.3 43.1 62.8 56 6.5 3.3 11.8-6.7 5.3-9.9-46-23.2-74.2-69.5-91.8-116.2-1.8-4.7-3.5-9.4-5.1-14.1.6-1.8.4-3.9-1.4-5.7l-.8-.8c-5.3-16.1-10.1-32.5-14.8-48.9.4-.6.7-1.2.8-2 6.3-30.6 8.1-61.9 5.3-93-.6-7.2-11.9-7-11.3.2 2.1 23.8 1.5 47.7-1.8 71.4-7-23.3-14.8-46.3-25.1-68.5-13.1-28.1-30.6-54.4-54.1-74.8-5.5-4.7-13.2 3.5-7.7 8.2 15.5 13.5 28 29.3 38.4 46.5-5.5-3.6-10.9-7.2-16.4-10.8-6-4-11.4 5.9-5.3 9.9 11 7.3 22 14.6 33.1 21.9 12.1 25 20.9 51.9 28.7 78.4 4.8 16.1 9.3 32.4 14.3 48.5z"/><linearGradient id="SVGID_2_" gradientUnits="userSpaceOnUse" x1="-33.934" y1="2463.709" x2="27.281" y2="2903.552" gradientTransform="rotate(-24.811 -3562.263 1348.62)"><stop offset=".283" stop-color="#7e5bff"/><stop offset="1" stop-color="#fc70c7"/></linearGradient><path d="M155.5 1127c9.2 16.7 23.9 26.5 39.7 36.3 8 5 15.9 10.1 22.1 17.2 5.5 6.3 9.4 13.6 12.7 21.3 6.6 15.4 10.3 31.8 16.8 47.1 6.8 15.7 17.1 29.6 32.3 38.1 32.5 18.2 71.7 9.9 101.2-10.2 15.1-10.3 30.1-23.3 37.9-40.3 6.9-15.1 6-31.6-.6-46.6-15.4-34.7-52.6-48.1-85.4-61-18.2-7.2-36.9-15.4-50.9-29.5-6.8-6.8-12-14.6-15.4-23.5-3.2-8.3-5.1-17.1-8-25.5-2.9-8.6-6.5-16.9-12.4-24-5.5-6.6-12.9-11.5-20.6-15.3-16.1-7.9-33.9-12.2-47.1-25.1-13.4-13.1-22-30.2-33.9-44.6-9.6-11.6-27.7-29.5-44.5-22.2-7.2 3.1-11.4 10.1-10.3 17.9.2 1.6.9 2.8 1.9 3.5-5.3 30.7 16.7 60.3 31.2 86 9.3 16.4 14 33.6 18 52 3.6 16.5 7.1 33.5 15.3 48.4z" fill="url(#SVGID_2_)"/><path class="st4" d="M235.5 1050.2c-2.5-7.2-14.2-4.7-11.7 2.6 8.9 26.3 14 53.6 15 81.3-8.3-11.1-16.2-22.5-23.7-34.1-18.6-28.9-35.2-59-51.6-89.2-3.7-6.8-14.3-1.3-10.6 5.5 29 53.1 58.5 106.9 98.8 152.5 19.9 22.5 42.6 42 67.1 59.3.2.2.5.3.7.5-12.7-.8-25.5-1.7-38.2-2.5-7.7-.5-8.1 11.4-.5 12 15.9 1.1 31.8 2.1 47.7 3.2 2.6.2 4.3-1 5.2-2.7 19.6 13.3 39.4 26.2 57.8 41.2 24.4 20 46.1 44 57.7 73.6 2.8 7.2 13.4 1.6 10.6-5.5-21.4-54.5-72.6-87.5-119-119-24.9-16.9-48.7-34.7-69.6-56.5-7.2-7.5-14-15.2-20.6-23.2.1-.5.2-1.1.2-1.7.5-33.1-4.7-66-15.3-97.3z"/><linearGradient id="SVGID_3_" gradientUnits="userSpaceOnUse" x1="-6962.293" y1="-1644.949" x2="-6770.315" y2="-1371.022" gradientTransform="scale(-1 1) rotate(-31.444 -438.535 -9485.223)"><stop offset=".283" stop-color="#7e5bff"/><stop offset=".931" stop-color="#fc70c7"/></linearGradient><path d="M1749.8 763.5c.1 15.2.6 30.4-5.4 44.7-12.4 29.2-40.8 45.4-69.1 56.1-6.6 2.5-13.3 4.8-20.1 7-1.9 2.6-5.8 3.9-8.7.9-18.5-19.4-21.5-47.5-17.5-72.9 4.9-31.1 20.7-59.2 26.3-90.1 5.2-28.6 2.6-60.1 19.7-85.2 14.9-21.8 39.2-33.5 59.5-49.3 9.7-7.5 18.8-16.2 24.1-27.4 5.8-12.4 5.8-29.3 20.2-35.6 15.4-6.7 25.6 8.5 32.7 19.7 7.5 11.9 14.7 24.2 18.8 37.7 18.9 62.6-46.5 102.7-71.2 151.4-6.9 13.7-9.4 27.8-9.3 43z" fill="url(#SVGID_3_)"/><path class="st4" d="M1687.6 811.1c4.8-3.2 9.8-6 15.1-8.4 6.6-3 12 6.9 5.3 9.9-9.9 4.5-18.7 10.4-26.6 17.7-10 29.8-22.3 58.7-40.7 84.5-16.5 23.1-37.3 43.1-62.8 56-6.5 3.3-11.8-6.7-5.3-9.9 46-23.2 74.2-69.5 91.8-116.2 1.8-4.7 3.5-9.4 5.1-14.1-.6-1.8-.4-3.9 1.4-5.7l.8-.8c5.3-16.1 10.1-32.5 14.8-48.9-.4-.6-.7-1.2-.8-2-6.3-30.6-8.1-61.9-5.3-93 .6-7.2 11.9-7 11.3.2-2.1 23.8-1.5 47.7 1.8 71.4 7-23.3 14.8-46.3 25.1-68.5 13.1-28.1 30.6-54.4 54.1-74.8 5.5-4.7 13.2 3.5 7.7 8.2-15.5 13.5-28 29.3-38.4 46.5 5.5-3.6 10.9-7.2 16.4-10.8 6-4 11.4 5.9 5.3 9.9-11 7.3-22 14.6-33.1 21.9-12.1 25-20.9 51.9-28.7 78.4-4.7 16.1-9.3 32.4-14.3 48.5z"/><linearGradient id="SVGID_4_" gradientUnits="userSpaceOnUse" x1="-7252.421" y1="-1172.861" x2="-7191.206" y2="-733.019" gradientTransform="scale(-1 1) rotate(-24.81 -525.227 -12459)"><stop offset=".283" stop-color="#7e5bff"/><stop offset="1" stop-color="#fc70c7"/></linearGradient><path d="M1848.7 854.7c-9.2 16.7-23.9 26.5-39.7 36.3-8 5-15.9 10.1-22.1 17.2-5.5 6.3-9.4 13.6-12.7 21.3-6.6 15.4-10.3 31.8-16.8 47.1-6.8 15.7-17.1 29.6-32.3 38.1-32.5 18.2-71.7 9.9-101.2-10.2-15.1-10.3-30.1-23.3-37.9-40.3-6.9-15.1-6-31.6.6-46.6 15.4-34.7 52.6-48.1 85.4-61 18.2-7.2 36.9-15.4 50.9-29.5 6.8-6.8 12-14.6 15.4-23.5 3.2-8.3 5.1-17.1 8-25.5 2.9-8.6 6.5-16.9 12.4-24 5.5-6.6 12.9-11.5 20.6-15.3 16.1-7.9 33.9-12.2 47.1-25.1 13.4-13.1 22-30.2 33.9-44.6 9.6-11.6 27.7-29.5 44.5-22.2 7.2 3.1 11.4 10.1 10.3 17.9-.2 1.6-.9 2.8-1.9 3.5 5.3 30.7-16.7 60.3-31.2 86-9.3 16.4-14 33.6-18 52-3.6 16.5-7.1 33.5-15.3 48.4z" fill="url(#SVGID_4_)"/><path class="st4" d="M1768.7 777.9c2.5-7.2 14.2-4.7 11.7 2.6-8.9 26.3-14 53.6-15 81.3 8.3-11.1 16.2-22.5 23.7-34.1 18.6-28.9 35.2-59 51.6-89.2 3.7-6.8 14.3-1.3 10.6 5.5-29 53.1-58.5 106.9-98.8 152.5-19.9 22.5-42.6 42-67.1 59.3-.2.2-.5.3-.7.5 12.7-.8 25.5-1.7 38.2-2.5 7.7-.5 8.1 11.4.5 12-15.9 1.1-31.8 2.1-47.7 3.2-2.6.2-4.3-1-5.2-2.7-19.6 13.3-39.4 26.2-57.8 41.2-24.4 20-46.1 44-57.7 73.6-2.8 7.2-13.4 1.6-10.6-5.5 21.4-54.5 72.6-87.5 119-119 24.9-16.9 48.7-34.7 69.6-56.5 7.2-7.5 14-15.2 20.6-23.2-.1-.5-.2-1.1-.2-1.7-.5-33.1 4.6-66 15.3-97.3z"/><path class="st0" d="M1625.6 527.7H396.5c-16.2 0-29.3 13.1-29.3 29.3v814.6c0 16.2 13.1 29.3 29.3 29.3h1229.2c16.2 0 29.3-13.1 29.3-29.3V557c0-16.2-13.2-29.3-29.4-29.3z"/><path fill="#ffc2eb" d="M1002.5 1008.3h489.1v291.5h-489.1z"/><path fill="#ccfffc" d="M474.4 696h489.1v291.5H474.4z"/><path class="st10" d="M1522.3 1117.2h-233.5c-11.5 0-20.8-9.3-20.8-20.8V717.7c0-11.5 9.3-20.8 20.8-20.8h233.5c11.5 0 20.8 9.3 20.8 20.8v378.8c0 11.4-9.3 20.7-20.8 20.7z"/><path class="st11" d="M1507.3 721.5h-201.2c-8.7 0-15.8 7.1-15.8 15.8v139c0 8.7 7.1 15.8 15.8 15.8h201.2c8.7 0 15.8-7.1 15.8-15.8v-139c0-8.8-7.1-15.8-15.8-15.8z"/><path class="st12" d="M1507.3 923.7h-201.2c-8.7 0-15.8 7.1-15.8 15.8v139c0 8.7 7.1 15.8 15.8 15.8h201.2c8.7 0 15.8-7.1 15.8-15.8v-139c0-8.7-7.1-15.8-15.8-15.8z"/><path class="st13" d="M1317 964.3h25.5v25.5H1317z"/><path class="st14" d="M1355.5 964.3h25.5v25.5h-25.5z"/><path class="st13" d="M1393.9 964.3h25.5v25.5h-25.5z"/><path class="st14" d="M1432.4 964.3h25.5v25.5h-25.5z"/><path class="st13" d="M1470.8 964.3h25.5v25.5h-25.5z"/><path d="M1507.3 923.7h-201.2c-8.7 0-15.8 7.1-15.8 15.8v4.7H1523v-4.7c.1-8.7-7-15.8-15.7-15.8z" fill="#a624e2"/><path class="st10" d="M520.4 649.5h-82.3c-7 0-12.7 5.7-12.7 12.7v346.3c0 7 5.7 12.7 12.7 12.7h82.3c7 0 12.7-5.7 12.7-12.7V662.3c0-7.1-5.7-12.8-12.7-12.8z"/><path class="st16" d="M519.8 649.5h-81.2c-7.3 0-13.3 5.9-13.3 13.3v15.7H533v-15.7c.1-7.3-5.9-13.3-13.2-13.3z"/><path d="M436 692.7h37.6v37.6H436zm46.5 43.1h37.6v37.6h-37.6zM436 774.4h37.6V812H436zm46.5 43.2h37.6v37.6h-37.6zM436 856.2h37.6v37.6H436zm46.5 43.2h37.6V937h-37.6z" fill="#ebebff"/><path class="st10" d="M1217.5 1239.5H785.3c-5.7 0-10.3 4.6-10.3 10.3v69c0 5.7 4.6 10.3 10.3 10.3h432.2c5.7 0 10.3-4.6 10.3-10.3v-69c0-5.6-4.6-10.3-10.3-10.3z"/><linearGradient id="SVGID_5_" gradientUnits="userSpaceOnUse" x1="878.093" y1="1401.549" x2="1136.317" y2="1171.614"><stop offset="0" stop-color="#fc70c7"/><stop offset=".492" stop-color="#b92bf1"/><stop offset="1" stop-color="#7e5bff"/></linearGradient><path fill="url(#SVGID_5_)" d="M791.5 1268.8h431.3v35.5H791.5z"/><path class="st16" d="M1217.4 1239.5H785.3c-5.8 0-10.4 4.7-10.4 10.4v4.9h452.9v-4.9c0-5.7-4.6-10.4-10.4-10.4z"/><path d="M791.5 1304.4l-5 9.5h10.1zm80.2 0l-5.1 9.5h10.1zm113.2 0l-5 9.5H990zm238 0l-5.1 9.5h10.1zm-422.5-35.6h1.4v35.5h-1.4zm12.7 0h1.4v35.5h-1.4zm7 0h1.4v35.5h-1.4zm4.5 0h1.4v35.5h-1.4zm46.4 0h1.4v35.5H871zm113.2 0h1.4v35.5h-1.4zm10.5 0h1.4v35.5h-1.4zm5.7 0h1.4v35.5h-1.4zm96 0h1.4v35.5h-1.4zm-8.4 0h1.4v35.5h-1.4zm-4.8 0h1.4v35.5h-1.4zm20.2 0h1.4v35.5h-1.4z" fill="#c7c7ef"/><path class="st10" d="M1210.9 722.4H661.8c-4.9 0-8.8-3.9-8.8-8.8v-70.1c0-4.9 3.9-8.8 8.8-8.8h549.1c4.9 0 8.8 3.9 8.8 8.8v70.1c0 4.9-4 8.8-8.8 8.8z"/><circle class="st11" cx="730.7" cy="678.5" r="29.3"/><circle class="st12" cx="812.9" cy="678.5" r="29.3"/><circle class="st4" cx="895.2" cy="678.5" r="29.3"/><circle class="st20" cx="977.5" cy="678.5" r="29.3"/><circle class="st21" cx="1059.7" cy="678.5" r="29.3"/><circle cx="1142" cy="678.5" r="29.3" fill="#fc90b4"/><path d="M665.6 678.5l12.4 8v-16zm535.9 0l-12.5-8v16z" fill="#cccbef"/><path class="st4" d="M1625.1 527.4H397c-16.5 0-29.8 13.4-29.8 29.8v38H1655v-38c0-16.4-13.4-29.8-29.9-29.8z"/><circle class="st0" cx="1509.6" cy="561.3" r="9.8"/><circle class="st11" cx="1549.4" cy="561.3" r="9.8"/><circle class="st21" cx="1589.2" cy="561.3" r="9.8"/><path class="st21" d="M1169.6 1104.9h-466c-6.7 0-12.1-5.4-12.1-12.1v-291c0-6.7 5.4-12.1 12.1-12.1h466c6.7 0 12.1 5.4 12.1 12.1v291c0 6.7-5.4 12.1-12.1 12.1z"/><path class="st20" d="M1042.7 896.6l-102 107.5c-7.6 8-19.7 9.5-29 3.6l-101.2-64.3c-11.4-7.2-26.2-5.7-35.9 3.6l-83.1 79.9v61.1c0 9.3 7.6 16.9 16.9 16.9h456.4c9.3 0 16.9-7.6 16.9-16.9V951.6l-103-60.1c-11.7-6.8-26.6-4.7-36 5.1z"/><circle class="st4" cx="754.1" cy="849" r="33.3"/><path class="st4" d="M1205.1 1131.1h-6c-.3 0-.5-.2-.5-.5s.2-.5.5-.5h5.5v-5.5c0-.3.2-.5.5-.5s.5.2.5.5v6c0 .2-.2.5-.5.5zm-18.2 0h-12.2c-.3 0-.5-.2-.5-.5s.2-.5.5-.5h12.2c.3 0 .5.2.5.5s-.2.5-.5.5zm-24.4 0h-12.2c-.3 0-.5-.2-.5-.5s.2-.5.5-.5h12.2c.3 0 .5.2.5.5s-.2.5-.5.5zm-24.4 0h-12.2c-.3 0-.5-.2-.5-.5s.2-.5.5-.5h12.2c.3 0 .5.2.5.5s-.3.5-.5.5zm-24.5 0h-12.2c-.3 0-.5-.2-.5-.5s.2-.5.5-.5h12.2c.3 0 .5.2.5.5s-.2.5-.5.5zm-24.4 0H1077c-.3 0-.5-.2-.5-.5s.2-.5.5-.5h12.2c.3 0 .5.2.5.5s-.2.5-.5.5zm-24.4 0h-12.2c-.3 0-.5-.2-.5-.5s.2-.5.5-.5h12.2c.3 0 .5.2.5.5s-.2.5-.5.5zm-24.4 0h-12.2c-.3 0-.5-.2-.5-.5s.2-.5.5-.5h12.2c.3 0 .5.2.5.5s-.2.5-.5.5zm-24.4 0h-12.2c-.3 0-.5-.2-.5-.5s.2-.5.5-.5h12.2c.3 0 .5.2.5.5s-.3.5-.5.5zm-24.5 0h-12.2c-.3 0-.5-.2-.5-.5s.2-.5.5-.5h12.2c.3 0 .5.2.5.5s-.2.5-.5.5zm-24.4 0h-12.2c-.3 0-.5-.2-.5-.5s.2-.5.5-.5h12.2c.3 0 .5.2.5.5s-.2.5-.5.5zm-24.4 0h-12.2c-.3 0-.5-.2-.5-.5s.2-.5.5-.5h12.2c.3 0 .5.2.5.5s-.2.5-.5.5zm-24.4 0H906c-.3 0-.5-.2-.5-.5s.2-.5.5-.5h12.2c.3 0 .5.2.5.5s-.2.5-.4.5zm-24.5 0h-12.2c-.3 0-.5-.2-.5-.5s.2-.5.5-.5h12.2c.3 0 .5.2.5.5s-.2.5-.5.5zm-24.4 0h-12.2c-.3 0-.5-.2-.5-.5s.2-.5.5-.5h12.2c.3 0 .5.2.5.5s-.2.5-.5.5zm-24.4 0h-12.2c-.3 0-.5-.2-.5-.5s.2-.5.5-.5H845c.3 0 .5.2.5.5s-.2.5-.5.5zm-24.4 0h-12.2c-.3 0-.5-.2-.5-.5s.2-.5.5-.5h12.2c.3 0 .5.2.5.5s-.3.5-.5.5zm-24.5 0h-12.2c-.3 0-.5-.2-.5-.5s.2-.5.5-.5h12.2c.3 0 .5.2.5.5s-.2.5-.5.5zm-24.4 0h-12.2c-.3 0-.5-.2-.5-.5s.2-.5.5-.5h12.2c.3 0 .5.2.5.5s-.2.5-.5.5zm-24.4 0h-12.2c-.3 0-.5-.2-.5-.5s.2-.5.5-.5h12.2c.3 0 .5.2.5.5s-.2.5-.5.5zm-24.4 0h-12.2c-.3 0-.5-.2-.5-.5s.2-.5.5-.5h12.2c.3 0 .5.2.5.5s-.3.5-.5.5zm-24.5 0h-12.2c-.3 0-.5-.2-.5-.5s.2-.5.5-.5h12.2c.3 0 .5.2.5.5s-.2.5-.5.5zm-24.4 0h-6c-.3 0-.5-.2-.5-.5v-6c0-.3.2-.5.5-.5s.5.2.5.5v5.5h5.5c.3 0 .5.2.5.5s-.2.5-.5.5zm-6-18.3c-.3 0-.5-.2-.5-.5v-12.2c0-.3.2-.5.5-.5s.5.2.5.5v12.2c0 .3-.2.5-.5.5zm0-24.4c-.3 0-.5-.2-.5-.5v-12.2c0-.3.2-.5.5-.5s.5.2.5.5v12.2c0 .3-.2.5-.5.5zm0-24.5c-.3 0-.5-.2-.5-.5v-12.2c0-.3.2-.5.5-.5s.5.2.5.5v12.2c0 .3-.2.5-.5.5zm0-24.4c-.3 0-.5-.2-.5-.5v-12.2c0-.3.2-.5.5-.5s.5.2.5.5v12.2c0 .3-.2.5-.5.5zm0-24.5c-.3 0-.5-.2-.5-.5v-12.2c0-.3.2-.5.5-.5s.5.2.5.5v12.2c0 .3-.2.5-.5.5zm0-24.4c-.3 0-.5-.2-.5-.5v-12.2c0-.3.2-.5.5-.5s.5.2.5.5v12.2c0 .3-.2.5-.5.5zm0-24.5c-.3 0-.5-.2-.5-.5v-12.2c0-.3.2-.5.5-.5s.5.2.5.5v12.2c0 .3-.2.5-.5.5zm0-24.4c-.3 0-.5-.2-.5-.5V929c0-.3.2-.5.5-.5s.5.2.5.5v12.2c0 .3-.2.5-.5.5zm0-24.5c-.3 0-.5-.2-.5-.5v-12.2c0-.3.2-.5.5-.5s.5.2.5.5v12.2c0 .3-.2.5-.5.5zm0-24.4c-.3 0-.5-.2-.5-.5v-12.2c0-.3.2-.5.5-.5s.5.2.5.5v12.2c0 .3-.2.5-.5.5zm0-24.5c-.3 0-.5-.2-.5-.5v-12.2c0-.3.2-.5.5-.5s.5.2.5.5v12.2c0 .3-.2.5-.5.5zm0-24.4c-.3 0-.5-.2-.5-.5v-12.2c0-.3.2-.5.5-.5s.5.2.5.5v12.2c0 .3-.2.5-.5.5zm0-24.5c-.3 0-.5-.2-.5-.5v-12.2c0-.3.2-.5.5-.5s.5.2.5.5v12.2c0 .3-.2.5-.5.5zm0-24.4c-.3 0-.5-.2-.5-.5v-12.2c0-.3.2-.5.5-.5s.5.2.5.5v12.2c0 .3-.2.5-.5.5zm0-24.5c-.3 0-.5-.2-.5-.5v-6c0-.3.2-.5.5-.5h6c.3 0 .5.2.5.5s-.2.5-.5.5h-5.5v5.5c0 .3-.2.5-.5.5zm518.9-6h-12.2c-.3 0-.5-.2-.5-.5s.2-.5.5-.5h12.2c.3 0 .5.2.5.5s-.2.5-.5.5zm-24.4 0h-12.2c-.3 0-.5-.2-.5-.5s.2-.5.5-.5h12.2c.3 0 .5.2.5.5s-.2.5-.5.5zm-24.4 0h-12.2c-.3 0-.5-.2-.5-.5s.2-.5.5-.5h12.2c.3 0 .5.2.5.5s-.3.5-.5.5zm-24.5 0h-12.2c-.3 0-.5-.2-.5-.5s.2-.5.5-.5h12.2c.3 0 .5.2.5.5s-.2.5-.5.5zm-24.4 0H1077c-.3 0-.5-.2-.5-.5s.2-.5.5-.5h12.2c.3 0 .5.2.5.5s-.2.5-.5.5zm-24.4 0h-12.2c-.3 0-.5-.2-.5-.5s.2-.5.5-.5h12.2c.3 0 .5.2.5.5s-.2.5-.5.5zm-24.4 0h-12.2c-.3 0-.5-.2-.5-.5s.2-.5.5-.5h12.2c.3 0 .5.2.5.5s-.2.5-.5.5zm-24.4 0h-12.2c-.3 0-.5-.2-.5-.5s.2-.5.5-.5h12.2c.3 0 .5.2.5.5s-.3.5-.5.5zm-24.5 0h-12.2c-.3 0-.5-.2-.5-.5s.2-.5.5-.5h12.2c.3 0 .5.2.5.5s-.2.5-.5.5zm-24.4 0h-12.2c-.3 0-.5-.2-.5-.5s.2-.5.5-.5h12.2c.3 0 .5.2.5.5s-.2.5-.5.5zm-24.4 0h-12.2c-.3 0-.5-.2-.5-.5s.2-.5.5-.5h12.2c.3 0 .5.2.5.5s-.2.5-.5.5zm-24.4 0H906c-.3 0-.5-.2-.5-.5s.2-.5.5-.5h12.2c.3 0 .5.2.5.5s-.2.5-.4.5zm-24.5 0h-12.2c-.3 0-.5-.2-.5-.5s.2-.5.5-.5h12.2c.3 0 .5.2.5.5s-.2.5-.5.5zm-24.4 0h-12.2c-.3 0-.5-.2-.5-.5s.2-.5.5-.5h12.2c.3 0 .5.2.5.5s-.2.5-.5.5zm-24.4 0h-12.2c-.3 0-.5-.2-.5-.5s.2-.5.5-.5H845c.3 0 .5.2.5.5s-.2.5-.5.5zm-24.4 0h-12.2c-.3 0-.5-.2-.5-.5s.2-.5.5-.5h12.2c.3 0 .5.2.5.5s-.3.5-.5.5zm-24.5 0h-12.2c-.3 0-.5-.2-.5-.5s.2-.5.5-.5h12.2c.3 0 .5.2.5.5s-.2.5-.5.5zm-24.4 0h-12.2c-.3 0-.5-.2-.5-.5s.2-.5.5-.5h12.2c.3 0 .5.2.5.5s-.2.5-.5.5zm-24.4 0h-12.2c-.3 0-.5-.2-.5-.5s.2-.5.5-.5h12.2c.3 0 .5.2.5.5s-.2.5-.5.5zm-24.4 0h-12.2c-.3 0-.5-.2-.5-.5s.2-.5.5-.5h12.2c.3 0 .5.2.5.5s-.3.5-.5.5zm-24.5 0h-12.2c-.3 0-.5-.2-.5-.5s.2-.5.5-.5h12.2c.3 0 .5.2.5.5s-.2.5-.5.5zm506.7 6c-.3 0-.5-.2-.5-.5v-5.5h-5.5c-.3 0-.5-.2-.5-.5s.2-.5.5-.5h6c.3 0 .5.2.5.5v6c0 .3-.2.5-.5.5zm0 342.3c-.3 0-.5-.2-.5-.5v-12.2c0-.3.2-.5.5-.5s.5.2.5.5v12.2c0 .3-.2.5-.5.5zm0-24.4c-.3 0-.5-.2-.5-.5v-12.2c0-.3.2-.5.5-.5s.5.2.5.5v12.2c0 .3-.2.5-.5.5zm0-24.5c-.3 0-.5-.2-.5-.5v-12.2c0-.3.2-.5.5-.5s.5.2.5.5v12.2c0 .3-.2.5-.5.5zm0-24.4c-.3 0-.5-.2-.5-.5v-12.2c0-.3.2-.5.5-.5s.5.2.5.5v12.2c0 .3-.2.5-.5.5zm0-24.5c-.3 0-.5-.2-.5-.5v-12.2c0-.3.2-.5.5-.5s.5.2.5.5v12.2c0 .3-.2.5-.5.5zm0-24.4c-.3 0-.5-.2-.5-.5v-12.2c0-.3.2-.5.5-.5s.5.2.5.5v12.2c0 .3-.2.5-.5.5zm0-24.5c-.3 0-.5-.2-.5-.5v-12.2c0-.3.2-.5.5-.5s.5.2.5.5v12.2c0 .3-.2.5-.5.5zm0-24.4c-.3 0-.5-.2-.5-.5V929c0-.3.2-.5.5-.5s.5.2.5.5v12.2c0 .3-.2.5-.5.5zm0-24.5c-.3 0-.5-.2-.5-.5v-12.2c0-.3.2-.5.5-.5s.5.2.5.5v12.2c0 .3-.2.5-.5.5zm0-24.4c-.3 0-.5-.2-.5-.5v-12.2c0-.3.2-.5.5-.5s.5.2.5.5v12.2c0 .3-.2.5-.5.5zm0-24.5c-.3 0-.5-.2-.5-.5v-12.2c0-.3.2-.5.5-.5s.5.2.5.5v12.2c0 .3-.2.5-.5.5zm0-24.4c-.3 0-.5-.2-.5-.5v-12.2c0-.3.2-.5.5-.5s.5.2.5.5v12.2c0 .3-.2.5-.5.5zm0-24.5c-.3 0-.5-.2-.5-.5v-12.2c0-.3.2-.5.5-.5s.5.2.5.5v12.2c0 .3-.2.5-.5.5zm0-24.4c-.3 0-.5-.2-.5-.5v-12.2c0-.3.2-.5.5-.5s.5.2.5.5v12.2c0 .3-.2.5-.5.5z"/><path class="st4" d="M660.6 754.6h18.8v18.8h-18.8zm0 366.6h18.8v18.8h-18.8zm532.7-366.6h18.8v18.8h-18.8zM660.6 937.9h18.8v18.8h-18.8zm532.7 0h18.8v18.8h-18.8zm0 183.3h18.8v18.8h-18.8zM927.2 754.6H946v18.8h-18.8zm0 366.6H946v18.8h-18.8z"/><path class="st10" d="M1176 1163.8H694.3c-2.4 0-4.3 1.9-4.3 4.3v38.7c0 2.4 1.9 4.3 4.3 4.3H1176c2.4 0 4.3-1.9 4.3-4.3v-38.7c0-2.3-1.9-4.3-4.3-4.3z"/><linearGradient id="SVGID_6_" gradientUnits="userSpaceOnUse" x1="944.576" y1="1244.724" x2="923.47" y2="1139.974"><stop offset="0" stop-color="#51f2ed"/><stop offset=".492" stop-color="#7e5bff"/><stop offset="1" stop-color="#303075"/></linearGradient><path fill="url(#SVGID_6_)" d="M699 1185.2h470.1v14.3H699z"/><path class="st16" d="M1176.2 1163.8H694.1c-2.3 0-4.1 1.8-4.1 4.1v8.2h490.3v-8.2c0-2.2-1.8-4.1-4.1-4.1z"/><circle class="st21" cx="1654.3" cy="1017.4" r="62.8"/><path class="st0" d="M1700.7 1011.9l-15-1.5c-.8-3.7-2.3-7.2-4.3-10.3l9.6-11.7c.4-.4.3-1.1-.1-1.5l-3.1-3.1-3.1-3.1c-.4-.4-1-.4-1.5-.1l-11.7 9.6c-3.1-2-6.6-3.4-10.3-4.3l-1.5-15c-.1-.6-.5-1-1.1-1h-8.8c-.6 0-1 .4-1.1 1l-1.5 15c-3.7.8-7.2 2.3-10.3 4.3l-11.7-9.6c-.4-.4-1.1-.3-1.5.1l-3.1 3.1-3.1 3.1c-.4.4-.4 1-.1 1.5l9.6 11.7c-2 3.1-3.4 6.6-4.3 10.3l-15 1.5c-.6.1-1 .5-1 1.1v8.8c0 .6.4 1 1 1.1l15 1.5c.8 3.7 2.3 7.2 4.3 10.3l-9.6 11.7c-.4.4-.3 1.1.1 1.5l3.1 3.1 3.1 3.1c.4.4 1 .4 1.5.1l11.7-9.6c3.1 2 6.6 3.4 10.3 4.3l1.5 15c.1.6.5 1 1.1 1h8.8c.6 0 1-.4 1.1-1l1.5-15c3.7-.8 7.2-2.3 10.3-4.3l11.7 9.6c.4.4 1.1.3 1.5-.1l3.1-3.1 3.1-3.1c.4-.4.4-1 .1-1.5l-9.6-11.7c2-3.1 3.4-6.6 4.3-10.3l15-1.5c.6-.1 1-.5 1-1.1v-8.8c0-.6-.5-1-1-1.1zm-46.4 30.4c-13.8 0-24.9-11.2-24.9-24.9s11.2-24.9 24.9-24.9c13.8 0 24.9 11.2 24.9 24.9s-11.2 24.9-24.9 24.9z"/><path class="st0" d="M1654.3 996.8c-11.4 0-20.6 9.2-20.6 20.6 0 11.4 9.2 20.6 20.6 20.6s20.6-9.2 20.6-20.6c0-11.4-9.2-20.6-20.6-20.6zm0 38c-9.6 0-17.4-7.8-17.4-17.4 0-9.6 7.8-17.4 17.4-17.4 9.6 0 17.4 7.8 17.4 17.4 0 9.6-7.8 17.4-17.4 17.4z"/><circle class="st11" cx="1654.3" cy="1192.3" r="62.8"/><path class="st0" d="M1699.9 1185l-13.2-1.2c0-.1-.1-.3-.1-.4l10.9-7.6c.8-.6 1-1.6.6-2.5l-2.7-4.7-2.7-4.7c-.5-.8-1.5-1.2-2.4-.8l-12 5.6-.3-.3 5.6-12c.4-.9.1-1.9-.8-2.4l-4.7-2.7-4.7-2.7c-.8-.5-1.9-.3-2.5.6l-7.6 10.9c-.1 0-.3-.1-.4-.1l-1.2-13.2c-.1-1-.9-1.7-1.9-1.7H1649c-1 0-1.8.7-1.9 1.7l-1.2 13.2c-.1 0-.3.1-.4.1l-7.6-10.9c-.6-.8-1.6-1-2.5-.6l-4.7 2.7-4.7 2.7c-.8.5-1.2 1.5-.8 2.4l5.6 12-.3.3-12-5.6c-.9-.4-1.9-.1-2.4.8l-2.7 4.7-2.7 4.7c-.5.8-.3 1.9.6 2.5l10.9 7.6c0 .1-.1.3-.1.4l-13.2 1.2c-1 .1-1.7.9-1.7 1.9v10.8c0 1 .7 1.8 1.7 1.9l13.2 1.2c0 .1.1.3.1.4l-10.9 7.6c-.8.6-1 1.6-.6 2.5l2.7 4.7 2.7 4.7c.5.8 1.5 1.2 2.4.8l12-5.6.3.3-5.6 12c-.4.9-.1 1.9.8 2.4l4.7 2.7 4.7 2.7c.8.5 1.9.3 2.5-.6l7.6-10.9c.1 0 .3.1.4.1l1.2 13.2c.1 1 .9 1.7 1.9 1.7h10.8c1 0 1.8-.7 1.9-1.7l1.2-13.2c.1 0 .3-.1.4-.1l7.6 10.9c.6.8 1.6 1 2.5.6l4.7-2.7 4.7-2.7c.8-.5 1.2-1.5.8-2.4l-5.6-12 .3-.3 12 5.6c.9.4 1.9.1 2.4-.8l2.7-4.7 2.7-4.7c.5-.8.3-1.9-.6-2.5l-10.9-7.6c0-.1.1-.3.1-.4l13.2-1.2c1-.1 1.7-.9 1.7-1.9v-10.8c.1-.9-.7-1.8-1.7-1.9zm-45.6 32.4c-13.8 0-25.1-11.2-25.1-25.1 0-13.8 11.2-25.1 25.1-25.1s25.1 11.2 25.1 25.1c-.1 13.9-11.3 25.1-25.1 25.1z"/><path class="st25" d="M1306.7 773.4h34.9v34.9h-34.9z"/><path class="st26" d="M1361.7 773.4h34.9v34.9h-34.9z"/><path class="st25" d="M1416.8 773.4h34.9v34.9h-34.9z"/><path class="st26" d="M1471.8 773.4h34.9v34.9h-34.9zm-165.1 50.9h34.9v34.9h-34.9z"/><path class="st25" d="M1361.7 824.3h34.9v34.9h-34.9z"/><path class="st26" d="M1416.8 824.3h34.9v34.9h-34.9z"/><path class="st25" d="M1471.8 824.3h34.9v34.9h-34.9z"/><path class="st26" d="M1507.3 721.5h-201.2c-8.7 0-15.8 7.1-15.8 15.8v3.1H1523v-3.1c.1-8.8-7-15.8-15.7-15.8z"/><linearGradient id="SVGID_7_" gradientUnits="userSpaceOnUse" x1="665.962" y1="1750.635" x2="665.962" y2="1725.79"><stop offset="0" stop-color="#464392"/><stop offset="1" stop-color="#303075"/></linearGradient><path d="M653.5 1710.9l5.7 57.5s5.6 2.2 12.5 0l6.6-48.4-24.8-9.1z" fill="url(#SVGID_7_)"/><linearGradient id="SVGID_8_" gradientUnits="userSpaceOnUse" x1="505.064" y1="1750.133" x2="505.064" y2="1722.63"><stop offset="0" stop-color="#464392"/><stop offset="1" stop-color="#303075"/></linearGradient><path d="M491.3 1695.8l8.3 69.7s10.5 2.8 16 0l3.1-53-27.4-16.7z" fill="url(#SVGID_8_)"/><path class="st29" d="M573.5 841.1c-7-13.1-22.6-16.4-36-18.5-4.4-.7-6.3 6-1.9 6.7.3.1.7.1 1 .2-.1 14 .5 28.8 9.4 40.3 5.9 7.6 19.4 15.8 27.5 6.4 7.4-8.2 4.7-26.2 0-35.1z"/><linearGradient id="SVGID_9_" gradientUnits="userSpaceOnUse" x1="679.911" y1="1158.528" x2="611.129" y2="1124.217"><stop offset="0" stop-color="#ffc5c5"/><stop offset="1" stop-color="#ea8ca7"/></linearGradient><path d="M514.2 984.3s-19.1 26.8-25.3 58.8c-6.2 32.1-25.7 87.1-18 101 7.7 13.9 137.3 40.4 144.9 46s17.6 18.1 21.3 25.1c3.8 7 28.8 9.8 31.6 0 2.8-9.8-10.5-37.6-37.6-46.7-27.2-9.1-102.4-44.6-102.4-44.6l-14.5-139.6z" fill="url(#SVGID_9_)"/><linearGradient id="SVGID_10_" gradientUnits="userSpaceOnUse" x1="421.165" y1="1112.46" x2="512.593" y2="1082.444"><stop offset="0" stop-color="#fc70c7"/><stop offset="1" stop-color="#db4dac"/></linearGradient><path d="M560.1 1146.3l8.9-3.8c-21.9-9.9-40.3-18.6-40.3-18.6l-14.5-139.7s-19.1 26.8-25.3 58.8c-6.2 32.1-25.7 87.1-18 101 3.8 6.9 37.8 17 72 26l17.2-23.7z" fill="url(#SVGID_10_)"/><linearGradient id="SVGID_11_" gradientUnits="userSpaceOnUse" x1="536.056" y1="1554.581" x2="554.061" y2="1408.396"><stop offset="0" stop-color="#ffc5c5"/><stop offset="1" stop-color="#ea8ca7"/></linearGradient><path d="M506.9 1180.2s-29.7 37.1-29.8 93.8c0 56.9 26.9 146.8 25.1 174.7-1.9 27.9-8.7 37.2-9.3 81.8-.6 44.6 21.5 102.3 15.8 125.8-5.9 24.4-28.9 35.2-10.2 54.5 17.4 17.9 35.3 30.2 43.7 46.9s72.5 12.5 62.2-1.4c-10.2-13.9-63.2-48.3-61.3-118s20.4-329.8 20.4-329.8l-56.6-128.3z" fill="url(#SVGID_11_)"/><linearGradient id="SVGID_12_" gradientUnits="userSpaceOnUse" x1="646.869" y1="1561.254" x2="613.239" y2="1383.557"><stop offset="0" stop-color="#ffc5c5"/><stop offset="1" stop-color="#ea8ca7"/></linearGradient><path d="M560.8 923.6s-1 41.8 10.5 48.8 28.2 39.7 39.7 54.7c11.5 15 14.3 34.5 5.9 48.1s-17.1 30-20.2 52.6c-3.1 22.6.3 67.9 12.2 106.3s50.9 220.9 53.7 236.9c2.8 16 25.1 177.7 33.4 204.9s31.4 58.5 44.6 66.9c13.2 8.4 57.8 16.7 41.1 24.4-16.7 7.7-67.6 4.9-73.9 0-6.3-4.9-21.6-33.4-38.3-39-16.7-5.6-21.6-22.3-10.5-44.6 11.1-22.3-15.1-79.4-31.8-123.3-16.7-43.9-11.1-77.8-26.5-110.6-15.3-32.8-124-145.5-111-214.8 12.5-66.9 33.7-66.7 30.2-97.3-3.5-30.7-26.9-86.9-17.7-123.1 9.3-36.2 27.4-44.1 26.5-72.5-.9-28.3 2.3-34.4 2.3-34.4l29.8 16z" fill="url(#SVGID_12_)"/><linearGradient id="SVGID_13_" gradientUnits="userSpaceOnUse" x1="719.435" y1="828.526" x2="681.287" y2="894.019"><stop offset="0" stop-color="#ffc5c5"/><stop offset="1" stop-color="#ea8ca7"/></linearGradient><path d="M560.1 988.6s109.1-35.7 123.3-61 46.8-73.3 41.9-91.8c-4.9-18.5-1.2-38.2 8-38.8s30.6 15.4 26.1 27.7-13.8 6.2-18.1 28.3c-4.3 22.2-20.3 99.8-35.7 109.7-15.4 9.9-109.7 67.2-109.7 67.2l-35.8-41.3z" fill="url(#SVGID_13_)"/><linearGradient id="SVGID_14_" gradientUnits="userSpaceOnUse" x1="598.41" y1="919.502" x2="519.3" y2="870.074"><stop offset="0" stop-color="#ffc5c5"/><stop offset="1" stop-color="#ea8ca7"/></linearGradient><path d="M573.7 930.2c10.8-4.2 9.2-19.3 4.6-37.5l-6.1-21.6c-1.3-4.7-2.6-9.3-3.8-13.9-7.7-30.8-36.6-34.2-36.6-34.2-63.7 23.2-42.5 69.3-27.2 93.1 15.4 23.8 54.9 19.6 69.1 14.1z" fill="url(#SVGID_14_)"/><linearGradient id="SVGID_15_" gradientUnits="userSpaceOnUse" x1="566.97" y1="1096.14" x2="509.055" y2="970.262"><stop offset="0" stop-color="#fc70c7"/><stop offset="1" stop-color="#db4dac"/></linearGradient><path d="M610.9 1027.1c-11.5-15-28.2-47.7-39.7-54.7-.9-.6-1.8-1.4-2.6-2.4 6.6-7.5 13-24.4-.7-27.1-3.3-.7-6.4.4-9.4 1.7-4 1.7-6.2 4-11.2 2.2-1.4-.5-2.5-1.9-4.1-2.4-4.1-1.3-7.7 1.6-11.7.8-3.7-.7-6.4-3.5-10.4-3.6-16.5-.3-5.4 20.8.4 29.2-5.9 11.3-14.1 22.8-19.4 43.5-9.3 36.2 14.2 92.4 17.7 123.1.9 8.3.1 14.3-1.9 20.1 27.9 7.7 61.3-1.6 77.6-7.3-.1-8.7.2-16.4 1.1-22.4 3.1-22.6 11.8-39 20.2-52.6s5.6-33.1-5.9-48.1z" fill="url(#SVGID_15_)"/><linearGradient id="SVGID_16_" gradientUnits="userSpaceOnUse" x1="707.871" y1="985.093" x2="530.82" y2="909.418"><stop offset="0" stop-color="#fc70c7"/><stop offset="1" stop-color="#db4dac"/></linearGradient><path d="M740.8 912.7c-2.9-2.5-5.1-1.4-8.3-1-.7.1-1.5 1.1-2.2 1.1-1.2-.1-2.4-2-2.8-2.8-.5-1.3-.1-3.4-.4-4.8-.6-2.9-2.1-5.6-5.1-6.6-2.7-.9-5.1 0-7.3 1.5-1.2.8-2.8 3.1-4.2 3.2-2.3.2-2.9-2.1-4-3.6-3.4-4.9-9.2-8.8-14.2-3.1-3.1 3.5-2.8 8.9-3 13.2-.1 2.7-.3 5.4-.4 8.1-2.1 3.5-4 6.8-5.7 9.7-14.2 25.3-123.3 61-123.3 61l35.7 41.3s94.3-57.3 109.7-67.2c.4-.3.8-.6 1.3-1 8.9-4.4 16.6-15 22.1-21.4 4.7-5.5 14.5-12.4 14.9-20.3.3-2.7-.8-5.6-2.8-7.3z" fill="url(#SVGID_16_)"/><path class="st20" d="M604.4 1756.2c-2.8-3.9-9-9.3-16.4-16.7-9.3.3-21.8-.1-32-3.5-18.8-6.3-53.8-64.2-53.8-64.2-8.1 14.5-18 24.3-3.8 38.9 17.4 17.9 35.3 30.2 43.7 46.9 8.4 16.7 72.5 12.5 62.3-1.4zm138.7-12c-19 8.2-36.7-8.1-48.6-24-9.3-12.5-26.4-27.5-36-35.6-10.5 21.8-5.5 38 11 43.5 16.7 5.6 32.1 34.1 38.3 39 6.3 4.9 57.1 7.7 73.9 0 15.7-7.2-23-15.1-38.6-22.9z"/><ellipse transform="rotate(-55.243 487.668 1074.916)" class="st38" cx="487.7" cy="1075" rx="5.6" ry="5.6"/><ellipse transform="rotate(-55.243 496.757 1122.172)" class="st38" cx="496.8" cy="1122.2" rx="5.6" ry="5.6"/><path class="st38" d="M492.3 1044.2c1.8-2.5 1.1-6-1.4-7.8-.1-.1-.3-.2-.4-.2-.6 2.3-1.1 4.6-1.6 6.9-.2 1.1-.5 2.3-.7 3.4 1.6-.1 3.1-.9 4.1-2.3zm-16.8 67.5c1.8-2.5 1.1-6-1.4-7.8-.1 0-.2-.1-.2-.1-.8 3.5-1.6 6.9-2.2 10.2 1.5-.2 2.9-1 3.8-2.3zm20.3 44.2c1.8-2.5 1.1-6-1.4-7.8s-6-1.1-7.8 1.4c-.7 1-1 2.1-1 3.2 2.9 1.2 6.2 2.4 9.8 3.6.2-.1.3-.2.4-.4z"/><ellipse transform="rotate(-55.24 543.944 1082.846)" class="st38" cx="543.9" cy="1082.8" rx="5.6" ry="5.6"/><path class="st38" d="M522.9 1122.8c1.8-2.5 1.1-6-1.4-7.8-1.9-1.3-4.2-1.3-6.1-.2.9 3.6 1.7 7 2.3 10.3 2.1.2 4-.6 5.2-2.3z"/><ellipse transform="rotate(-82.3 533.563 1007.1)" class="st38" cx="533.6" cy="1007.1" rx="5.6" ry="5.6"/><ellipse transform="rotate(-55.243 551 1120.43)" class="st38" cx="551" cy="1120.5" rx="5.6" ry="5.6"/><circle class="st38" cx="519.1" cy="1035.4" r="5.6"/><path class="st38" d="M504.3 1068.7c2.2.6 4.6-.2 6-2.2 1.8-2.5 1.1-6-1.4-7.8-2-1.4-4.5-1.3-6.4.1.5 3.3 1.1 6.6 1.8 9.9z"/><ellipse transform="rotate(-31.537 560.047 1039.174)" class="st38" cx="560.1" cy="1039.3" rx="5.6" ry="5.6"/><circle class="st38" cx="548.3" cy="974.1" r="5.6"/><ellipse transform="rotate(-82.3 594.685 1046.21)" class="st38" cx="594.7" cy="1046.2" rx="5.6" ry="5.6"/><path class="st38" d="M606.3 1082.6c-1.8 2.5-1.1 6 1.4 7.8.2.1.3.2.5.3 1.7-3.4 3.5-6.7 5.2-9.8-2.4-1.3-5.5-.6-7.1 1.7z"/><ellipse transform="rotate(-55.243 587.322 1139.709)" class="st38" cx="587.4" cy="1139.8" rx="5.6" ry="5.6"/><ellipse transform="rotate(-55.236 580.332 1091.454)" class="st38" cx="580.3" cy="1091.4" rx="5.6" ry="5.6"/><circle class="st38" cx="580.3" cy="1017.3" r="5.6"/><ellipse transform="rotate(-82.3 720.024 919.639)" class="st38" cx="720" cy="919.7" rx="5.6" ry="5.6"/><ellipse transform="rotate(-20.495 680.853 958.346)" class="st38" cx="680.9" cy="958.5" rx="5.6" ry="5.6"/><path class="st38" d="M689.7 923.2c3.1.4 5.9-1.7 6.3-4.8.4-3.1-1.7-5.9-4.8-6.3-.7-.1-1.3 0-1.9.1-.1 1.9-.2 3.7-.3 5.6-.8 1.4-1.6 2.7-2.3 3.9.8.8 1.8 1.4 3 1.5zm31.9 25.7c-1.2-2.7-4.3-4-7-3-2.9 1.1-4.3 4.3-3.3 7.2.6 1.5 1.7 2.6 3.2 3.2 2.5-2.3 4.9-4.9 7.1-7.4zm-108.3 63.4c-3.1 0-5.6 2.5-5.6 5.6 0 1.5.6 2.8 1.5 3.8 2.8-1.7 5.9-3.6 9.3-5.7-.8-2.1-2.8-3.7-5.2-3.7zm30.3-56.9c1.1 2.9 4.3 4.3 7.2 3.3 2.9-1.1 4.3-4.3 3.3-7.2l-.6-1.2c-3.2 1.7-6.5 3.4-9.9 5.1 0-.1 0-.1 0 0zm10.8 31.5c-3.1 0-5.6 2.5-5.6 5.6 0 1.6.7 3 1.7 4 3.1-1.9 6.1-3.7 9.2-5.6-.6-2.3-2.8-4-5.3-4zm-57.4-5.4c3.1 0 5.6-2.5 5.6-5.6 0-.9-.2-1.8-.6-2.5-3.6 1.4-7 2.7-10.3 4 .6 2.3 2.7 4.1 5.3 4.1z"/><ellipse transform="rotate(-20.495 628.854 984.638)" class="st38" cx="628.9" cy="984.8" rx="5.6" ry="5.6"/><linearGradient id="SVGID_17_" gradientUnits="userSpaceOnUse" x1="524.638" y1="992.338" x2="496.814" y2="816.116"><stop offset="0" stop-color="#464392"/><stop offset="1" stop-color="#303075"/></linearGradient><path d="M562.1 839.6c-.2-.4-.5-.7-.8-.8-5.5-10.6-16.9-17.1-29-16.7-2.6-.2-4.9 0-6.3.1h-.6c-19.1 1-34.1 14.1-42.4 30.7-8.9 17.7-10.8 37.5-15.1 56.5-5.7 11.5-13.5 22.3-14.1 35.4-.3 5.8 1 11.6 4.4 16.3 4.7 6.4 13.4 9.8 16.1 17.4-1.6 6.5-4.4 12.6-1.8 19.8 2.6 7.2 8.6 12.6 16.1 14.1 6.9 1.3 15.4 1.6 22.8-.5 7.5 2.3 16.1-.2 21.1-7.9 11.1-17.3-3-37.5 0-56.1 4.3-7.5 8.9-12.6 7.2-21.9-1-5.5-3.5-10.7-3.2-16.4.1-1.1.2-2.2.4-3.2 6.4-9.1 18-16.1 24.4-24.3 10.4-13.3 6.4-28.2.8-42.5zm-91.4 129.2c-7.1-6.5-13.9-11.3-14.2-22-.2-9.5 3.9-18 8.4-26.4-2.7 8.8-5.9 17.8-3.7 27 .9 3.9 2.8 7.3 5.4 10.3 3.4 4.1 8.4 7.6 8.5 13.4 0 .9 0 1.8-.1 2.7-1.1-1.7-2.6-3.4-4.3-5zm63.2 15.8c.6 7.6-.8 16.1-6.7 21.5-3.2 2.9-7 4-10.7 3.9 1.4-.7 2.7-1.4 3.8-2.3 4.2-3.1 8.5-7.5 10.6-12.6 5.8-10.3-.6-23.2-1.1-34.9.9 8.1 3.4 16.1 4.1 24.4zm13.4-92.8c-2.7 2.4-5.5 4.9-8 7.6 1-2 2.1-3.9 3.3-5.7 7.9-12.1 20.2-22.9 22-37.3.9 4.9 1.1 9.9-.4 14.8-2.7 8.7-10.2 14.9-16.9 20.6z" fill="url(#SVGID_17_)"/><linearGradient id="SVGID_18_" gradientUnits="userSpaceOnUse" x1="557.323" y1="1380.558" x2="492.909" y2="1155.635"><stop offset="0" stop-color="#51f2ed"/><stop offset="1" stop-color="#35cfdb"/></linearGradient><path d="M608.8 1234c-10-32.4-14.1-69.8-13.2-94.3-27.3 7.1-56.2 4.7-75.5 1.4.8 15.7-5.6 23.1-13.4 39.2-2.1 2.7-27.5 36.5-29.5 87.5v.5c-.1 1.9-.1 3.7-.1 5.6v.5c-.1 10.9.1 33.8 2.8 58.6 3.7 34.4-22.9 71.8-22.9 71.8s12.1 13.2 48.9 21.8h.2c15.7 3.8 32.4 5.7 48.9 6.3 0 0 8.2 1.9 35.1-.5 25.8-1.5 48.5-5.1 62.8-7.9-13-61.1-35.6-163-44.1-190.5z" fill="url(#SVGID_18_)"/><path d="M515.8 1271.2c-.1-11 .3-22 1.7-32.9 1.4-11.2 4.3-22 7.9-32.7 6.8-20 15.3-40.8 12.4-62.1-.5 0-1-.1-1.4-.1 2.9 20.1-4.7 40-11.3 58.8-3.6 10.5-6.8 21.1-8.5 32.1-1.6 10.7-2.2 21.5-2.2 32.4-.1 22.4 1.9 44.7 1 67.1-.9 21.9-5 43.7-12 64.5-2.9 8.6-6.7 16.7-10.1 25.1.5.1.9.3 1.4.4 3.3-8 6.9-15.8 9.7-23.9 6.8-19.8 10.9-40.6 12.2-61.5 1.3-22.5-.7-44.8-.8-67.2zm40.1-59.1c-.8-22.7.4-45.6 5.3-67.8h-1.4c-8.9 40.6-5.4 82.6-.1 123.5 5.6 43.7 12.8 87.3 9.5 131.5-.8 11.3-1.9 22.9-1.2 34.3h1.4c-.7-10.2.1-20.6.9-30.6 1.6-21 1.4-41.9-.4-62.9-3.8-42.7-12.4-85-14-128zm47.9 180.6c-.8-20.2-3.5-40.1-7.3-59.9-8-41.1-20.2-81.4-24.9-123.1-2.5-22-2.8-44.2.6-66-.5 0-1 .1-1.4.1-13.1 83.2 27.7 162.9 31.4 245.4.6 13.9.8 28.6 4.9 41.9.5 0 .9-.1 1.4-.1-3.7-12.2-4.1-25.5-4.7-38.3zm-129.2 23.4c6.9-15 13.4-30.2 17.8-46.2 2.6-9.4 4.5-19.1 5.2-28.9.8-10.7.1-21.4-.7-32.1-1.7-21-3.8-41.8 1.2-62.6 4.3-17.7 11.9-34.4 18.6-51.3 6.6-16.9 12.2-34.4 12.2-52.6-.5-.1-.9-.1-1.4-.2.2 34.8-20 65.5-29.3 98.3-5.4 19.1-5.2 38.1-3.6 57.7 1.8 21.2 3.3 41.8-1.4 62.7-4.2 19-11.8 36.9-19.9 54.6.5.2.9.4 1.3.6zm159.7-4.4c-4.9-22.1-9.7-44.3-14.5-66.4-9.7-44.1-20-88.2-28-132.6-4.2-23.2-7.5-46.6-9.4-70.2-.5.1-.9.2-1.4.2 3.5 43.2 11.9 85.9 21.1 128.2 9.8 45.5 19.9 91 29.8 136.5 1.4 6.6 2.9 13.4 4.7 20.1.5-.1.9-.1 1.4-.2-1.4-5.2-2.6-10.4-3.7-15.6zm-103.4-24.4c3-9.4 6.2-18.8 8.3-28.5 2.1-9.2 3-18.6 3.2-28.1.5-20.4-1.9-40.7-2.3-61.1-.4-20.7.4-41.5 1.9-62.2 1.6-21.2 3.8-42.2 6.2-63.3-.5 0-.9 0-1.4-.1-4.4 39.4-8.5 79-8.2 118.7.2 20.5 2.4 40.8 2.5 61.3 0 10.7-.6 21.4-2.7 31.9-2 9.7-5.1 19.1-8.1 28.6-4.7 14.6-9.1 30-8.5 45.3.5.1.9.2 1.4.2-.5-14.4 3.4-28.9 7.7-42.7z" fill="#7afcf5"/><linearGradient id="SVGID_19_" gradientUnits="userSpaceOnUse" x1="-9354.843" y1="1606.453" x2="-9035.541" y2="1606.453" gradientTransform="matrix(-1 0 0 1 -7642.283 0)"><stop offset="0" stop-color="#ffc5c5"/><stop offset="1" stop-color="#f9aab4"/></linearGradient><path d="M1537.5 1491.9s-16.3 43.2-30.5 73.7-41.8 77.2-32.6 77.2c9.2 0 164.4-4.3 176.4-9.2 12-5 44.6-24.8 53.1-6.4s12.5 97.9 3.6 100c-24.4 5.8-67.3 10.5-46.1-17.8 6.1-8.2 14.2-41.8-9.9-34s-177.6 38.3-231.2 28.3c-53.6-9.9-11.1-156.6-11.1-156.6l46-65.9 82.3 10.7z" fill="url(#SVGID_19_)"/><path class="st29" d="M1707.5 1727.2c8.9-2.1 4.9-81.6-3.6-100-8.5-18.4-41.1 1.4-53.1 6.4-1.9.8-7.6 1.6-15.7 2.3v43.8c7.5-1.7 13.2-3.2 16.5-4.3 24.1-7.8 16 25.8 9.9 34-21.3 28.3 21.6 23.6 46 17.8z"/><linearGradient id="SVGID_20_" gradientUnits="userSpaceOnUse" x1="1557.787" y1="1821.784" x2="1506.214" y2="1565.825"><stop offset="0" stop-color="#464392"/><stop offset="1" stop-color="#303075"/></linearGradient><path d="M1474.4 1642.8c-9.2 0 18.4-46.8 32.6-77.2 14.2-30.5 30.5-73.7 30.5-73.7l-82.2-10.6-46 65.9s-42.5 146.6 11.1 156.6c53.6 9.9 184.7-1.4 209.8-4.9 7.1-1 23.4-3 24.3-3.1.1-15.3-1.5-54.4-2.3-62.7-.4.2-.8.4-1.2.5-12.2 5-167.4 9.2-176.6 9.2z" fill="url(#SVGID_20_)"/><linearGradient id="SVGID_21_" gradientUnits="userSpaceOnUse" x1="-9181.564" y1="1502.154" x2="-8816.351" y2="1502.154" gradientTransform="matrix(-1 0 0 1 -7642.283 0)"><stop offset="0" stop-color="#ffc5c5"/><stop offset="1" stop-color="#f9aab4"/></linearGradient><path d="M1373.1 1265.2s15.6 15.9 17.4 22.3c1.8 6.4-25.6 60.8-25.6 60.8s29.8 75.6 36.4 94c6.6 18.4-14.6 20.8-41.6 22.2-26.9 1.4-101.1-5.2-118.3 13.2-16.6 17.8 25.5 216.8 21.3 227.4s-21.3 15.6-43.2 26.2-69.4 29-30.5 30.5c39 1.4 121 1.5 121.9-10.6 2.3-32.5-13.5-51.8-14.2-65.9-.7-14.2-.7-135.3 9.2-138.9 9.9-3.5 56 12.8 112.6 4.3 56.7-8.5 109.1-26.2 119-58.8 9.9-32.6-23.4-138.1-42.5-167.2-19.1-29-93.5-82.9-93.5-82.9l-28.4 23.4z" fill="url(#SVGID_21_)"/><path class="st29" d="M1188.9 1761.8c39 1.4 121 1.5 121.9-10.6 2.3-32.5-13.5-51.8-14.2-65.9v-.4c-11.5.4-24.3.9-35.2 1.3 1.3 10.3 1.9 17.2 1.2 18.9-4.3 10.6-21.3 15.6-43.2 26.2s-69.4 29.1-30.5 30.5z"/><linearGradient id="SVGID_22_" gradientUnits="userSpaceOnUse" x1="-9062.606" y1="1354.022" x2="-8793.543" y2="1354.022" gradientTransform="matrix(-1 0 0 1 -7642.283 0)"><stop offset="0" stop-color="#ffc5c5"/><stop offset="1" stop-color="#f9aab4"/></linearGradient><path d="M1417.7 1282.9s-18.9-6.4-40.1 12.5c-21.3 18.9-62.8 75.1-74.6 78.4-11.8 3.3-98.2-20.3-109.1-32.1s-17.5-21.3-26.4-21.7c-9-.5-25.5 26-9.4 35.5 16.1 9.4 23.6 9 56.7 28.3 16.8 9.8 93.6 46.4 105.1 42 26.2-9.9 71-60 71-60l29.5-83.9" fill="url(#SVGID_22_)"/><linearGradient id="SVGID_23_" gradientUnits="userSpaceOnUse" x1="-9060.013" y1="1216.492" x2="-8967.91" y2="1216.492" gradientTransform="matrix(-1 0 0 1 -7642.283 0)"><stop offset="0" stop-color="#ffc5c5"/><stop offset="1" stop-color="#f9aab4"/></linearGradient><path d="M1368.6 1160.8s-37.5 3.8-38 46.2c0 2.5 0 4.9.1 7.2-1.6 6.4-6.4 25.9-4.7 27 1.7 1.1 6.8 1 8.4.9 5 19.5 13.6 29.8 18.8 30.6 7.7 1.2 61.5-10.8 64.2-54.3 2.8-43.4-13.3-61.9-48.8-57.6z" fill="url(#SVGID_23_)"/><linearGradient id="SVGID_24_" gradientUnits="userSpaceOnUse" x1="-9062.606" y1="1215.645" x2="-8962.071" y2="1215.645" gradientTransform="matrix(-1 0 0 1 -7642.283 0)"><stop offset="0" stop-color="#464392"/><stop offset="1" stop-color="#303075"/></linearGradient><path d="M1381.6 1158.5c-12-3-18-2.4-30.2.4-3.2.7-6.3 1.8-9.1 3.2-1.6.8-3.4.9-5 .4-5-1.7-10.2-2.9-14.8 1.7-5 5-2.7 16.2 3 20.6.5.3.9.8 1.2 1.2 4.3 5.9 6.1 2.6 12.9 2.1 5.2-.3 9.9 0 14.2 3.2 4.1 3.1 7.5 7.3 10.6 11.3 6.6 8.6 10.1 19.4 3.6 29.2-2.9 4.3-7.4 7.3-12.4 8.6-5.1 1.3-10-.2-15.1.5-3.6.5-6.5.5-6.5 4.4-.1 4.7 1.4 7 3.8 10.5 3.2 4.8 5.8 9.7 9.4 14.2 2.4 3.1 3.1 3.9 7.3 4.6 4.8.8 9.2-.4 12.8-3.1 4.3-3.2 7.2-3.8 11-7.7 6.6-6.7 11.6-14.9 12.9-24.4.8-6 0-12-.1-18 0-2-.1-5 1.6-6.3 2.5-1.9 5.5 1.4 6.7 3.4 5.2 8.7 3.7 21.2 14.2 26.3 2 1 5.1-.5 4.3-3.1-3.9-12.4 2.9-24.5 2.2-36.7-.7-11.8-3.2-24.9-11.6-33.1-8.2-8.5-15.6-10.6-26.9-13.4z" fill="url(#SVGID_24_)"/><linearGradient id="SVGID_25_" gradientUnits="userSpaceOnUse" x1="1231.65" y1="1573.628" x2="1538.702" y2="1573.628"><stop offset="0" stop-color="#464392"/><stop offset="1" stop-color="#303075"/></linearGradient><path d="M1537.5 1491.9c.5-1.8.9-3.7 1.2-5.9-27.1-8.3-100-30.8-137.2-42.8 5.6 17.6-15.4 19.9-41.9 21.3-26.9 1.4-101.1-13.2-123.2 14-16.5 20.3 14.4 156.1 12.6 225.5 14.7-.7 52.4-5.3 59.5-7.4-1-4.6-1.3-9.5-1.5-13.2-.7-14.2-11.2-133.4-1.3-137 9.9-3.5 56 12.8 112.6 4.3 56.8-8.5 109.3-26.2 119.2-58.8z" fill="url(#SVGID_25_)"/><linearGradient id="SVGID_26_" gradientUnits="userSpaceOnUse" x1="1395.509" y1="1446.315" x2="1522.959" y2="1327.234"><stop offset="0" stop-color="#51f2ed"/><stop offset="1" stop-color="#35cfdb"/></linearGradient><path d="M1495 1324.7c-11.3-17.1-41.7-42.8-64.8-61.1 8.3-11.8-11.1-22.9-19.3-11.3-7.1 10.2-17.6 16.9-29.6 20-13.9 3.6-8 25.1 5.9 21.5.8-.2 1.5-.4 2.3-.6-4.8 15.6-24.7 55.1-24.7 55.1s29.8 75.6 36.4 94c3 8.4.2 13.4-6.2 16.6 29.8 36 101.3 47.2 135.8 50.1 3.1-5.1 4.8-11.3 6.6-17.1 10-32.6-23.3-138.1-42.4-167.2z" fill="url(#SVGID_26_)"/><linearGradient id="SVGID_27_" gradientUnits="userSpaceOnUse" x1="1271.873" y1="1393.929" x2="1476.533" y2="1211.689"><stop offset="0" stop-color="#51f2ed"/><stop offset="1" stop-color="#35cfdb"/></linearGradient><path d="M1417.7 1282.9s-18.9-6.4-40.1 12.5-62.8 75.1-74.6 78.4c-8 2.2-49.9-7.8-79.6-18.2-1.4 7.8-11.6 29.3-18.1 36.4.8.4 9.7 5.8 10.5 6.3 16.8 9.8 92.6 31.8 104.1 27.5 26.2-9.9 71-60 71-60l29.5-83.9-2.7 1z" fill="url(#SVGID_27_)"/></svg>