<svg id="Layer_1" xmlns="http://www.w3.org/2000/svg" width="2000" height="2000" viewBox="0 0 2000 2000"><style>.st0{fill:#fff}.st1{fill:#dafcfb}.st2{fill:#bdfaf8}.st3{fill:#a6f8f6}.st4{fill:url(#SVGID_1_)}.st5{fill:#baacc6}.st6{fill:#f4ebff}.st7{fill:#7e5bff}.st8{fill:#ebfcfb}.st9{fill:#51f2ed}.st10{fill:#464392}.st11{fill:#5c41e5}.st12{fill:#35cfdb}.st13{fill:#303075}.st14{fill:#fc70c7}.st15{fill:#db4dac}.st16{fill:#d3f2ef}.st17{fill:#b4a5f9}.st18{fill:#b92bf1}.st19{fill:url(#SVGID_2_)}.st20{fill:url(#SVGID_3_)}.st21{fill:#dff7f5}.st22{fill:#f8fffe}.st23{fill:url(#SVGID_4_)}.st24{fill:url(#SVGID_5_)}.st25{fill:url(#SVGID_6_)}.st26{fill:url(#SVGID_7_)}.st27{fill:url(#SVGID_8_)}.st28{fill:url(#SVGID_9_)}.st29{fill:url(#SVGID_10_)}.st30{fill:url(#SVGID_11_)}.st31{fill:url(#SVGID_12_)}.st32{fill:url(#SVGID_13_)}.st33{fill:url(#SVGID_14_)}.st34{fill:url(#SVGID_15_)}.st35{fill:url(#SVGID_16_)}.st36{fill:url(#SVGID_17_)}.st37{fill:url(#SVGID_18_)}.st38{fill:url(#SVGID_19_)}.st39{fill:url(#SVGID_20_)}.st40{fill:url(#SVGID_21_)}</style><path class="st0" d="M0 0h2000v2000H0z"/><path class="st1" d="M1763.1 1697.3c-15.6 13.1-32.4 24.2-49.9 33.6-9.3 15.8-19.7 30.9-31.2 45 8.6-5.4 17-11.4 25.1-17.8 21.8-17.5 40.4-38.1 56-60.8M178 1644c10.7 20.9 24.7 40.2 40.7 57.1 10.1 10.7 21.1 20.4 32.7 29.3-11-15.7-20-32.8-26.2-50.9-16.7-10.5-32.6-22.3-47.2-35.5M1732.3 278c12.8 16 24.1 33.2 33.8 51.2 14.3 10.4 27.9 21.9 40.4 34.4-13.9-22.8-30.5-44-49.8-63.3-7.8-7.9-15.9-15.3-24.4-22.3M280.9 222.5c-14.3 8.8-27.7 19-40.3 30.7-16.4 15.3-30.2 32.5-42 51 16-13.2 33.4-24.3 51.9-33.5 8.9-17 18.9-33.2 30.4-48.2M251.4 1730.4c11.8 16.9 25.9 32.1 41.4 45.5 34.4 29.6 75.9 49.6 119.3 62 32.3 9.2 66.1 12.8 99.9 12.8 18.7 0 37.4-1.1 55.9-3 57.2-5.9 113.2-19.7 168.9-33.4 49.5-12.2 101.4-22.4 154-27.7 8-.5 16.1-1 24.1-1.4-13.2-3.3-26.4-6.5-39.7-9.7-20.8-1.5-41.7-2.7-62.7-3.5H811c-52.3 0-104.5 5-154.5 12-56.8 8-113.9 16.1-171.4 16.2h-.8c-51.7 0-104.8-6.3-153.1-25.5-28.4-11.2-55.5-25.9-79.8-44.3m1523.4-726c-3.3 12.1-6.2 24.4-8.7 36.8 3.7 43.3 11.3 85.8 19.9 128.7 22.5 112 52.8 226.4 40.9 341.6-6.7 64.9-26.7 131.4-63.9 185.8 5.6-4.6 11-9.5 16.3-14.7 67.9-66.3 94.4-164.9 94.5-257.4.2-115.8-41.4-226.6-75.1-335.7-8.7-28.3-17-56.6-23.9-85.1M198.7 304.2c-10.6 8.7-20.6 18.4-29.8 28.9-65.6 75.2-78.7 181.6-75 277.6 3.9 102.7 29.6 203.3 57.9 301.5 14.1 49 29.2 97.7 43.1 146.7 2.4 8.6 4.8 17 7.1 25.3 1.1-12.9 2-25.9 2.6-38.9-3.2-22-7-44.1-11.1-67.4-8.9-50.2-19-100.2-28.1-150.3-18.3-100.6-33.6-203.3-27.2-305.8 4.5-74.3 19.9-153.9 60.5-217.6m1273.3-153c-17.4 0-34.8 1.3-52.1 3.8-56.7 8.1-111.3 26.9-165 46.1-51.2 18.3-104.2 36.6-156 48.2-25.6 5.8-51.5 10.5-77.6 14.4 12.3 2.7 24.6 5.1 37 7.4 38.8-.5 77.7-3 116.1-7.6 52.7-6.4 107.3-19.2 160.1-32.3 55.4-13.7 111.6-26.9 168.8-29.2 5.2-.2 10.4-.3 15.7-.3 44.1 0 87.8 7.7 128.6 24.9 30.6 12.9 59.2 30.2 84.7 51.3-14.8-18.5-31.7-35.5-50.4-50.8-34.3-28-73.7-49.2-116-62.2-30.6-9.4-62.2-13.7-93.9-13.7"/><path class="st2" d="M225.2 1679.5c6.2 18.1 15.2 35.2 26.2 50.9 24.2 18.5 51.4 33.1 79.7 44.4 48.3 19.2 101.4 25.5 153.1 25.5h.8c57.5-.1 114.6-8.2 171.4-16.2 50-7 102.2-12 154.5-12h1.5c20.9.7 41.8 1.9 62.7 3.5-50.2-11.9-100.8-22.5-152-30.5-41.5-5-83.4-6.8-124.3-6.8-10.8 0-21.5.1-32.1.4-23 .5-46.1 1-69.2 1-34.4 0-68.8-1.1-103-5.2-51.6-6.1-103.9-18.6-149.9-43.5-6.4-3.7-13-7.5-19.4-11.5m1540.9-638.3c-3.2 16.4-5.6 33.2-7.3 50.8-5.3 57-2.5 113 2.1 170 9.1 113.8 25.7 231.1.3 344-9.7 43-25.5 86.1-48.1 124.9 17.5-9.5 34.3-20.6 49.9-33.6 37.2-54.4 57.2-120.9 63.9-185.8 11.8-115.2-18.4-229.6-40.9-341.6-8.6-42.9-16.1-85.4-19.9-128.7M250.5 270.6c-18.4 9.3-35.9 20.4-51.9 33.5-40.6 63.8-55.9 143.3-60.6 217.7-6.4 102.6 8.9 205.2 27.2 305.8 9.1 50.2 19.2 100.1 28.1 150.3 4.1 23.3 7.9 45.4 11.1 67.4.2-4.5.4-9 .5-13.5 1.7-50.8 0-96.8-2.9-148.5-2.9-50.9-7-101.7-10.1-152.6-6.3-102.1-9.4-205.8 9.1-306.9 9.5-51.7 24.6-105.4 49.5-153.2M1519 201.7c-5.2 0-10.4.1-15.7.3-57.2 2.3-113.4 15.6-168.8 29.2-52.8 13-107.4 25.9-160.1 32.3-38.5 4.6-77.3 7.1-116.1 7.6 66.1 12.1 133.6 18.6 200.7 18.6h1.6c53.1-.1 108.8-6.4 162.8-13.1 43.8-5.4 87.9-10.5 132.1-10.5 13 0 26 .4 39 1.5 49.3 3.8 97.3 17 140.4 41.5 10.8 6.1 21.2 12.8 31.2 20.1-9.6-18-20.9-35.1-33.8-51.2-25.6-21.1-54.1-38.4-84.7-51.3-40.8-17.3-84.5-25-128.6-25"/><path class="st1" d="M1681.9 1775.9c-73.9 46.7-163.7 56.1-250.5 56.1h-8.1c-107.7-.7-214.3-14.8-320.8-29.9-47.2-6.7-94.6-13.3-142.2-18.6-15.1.4-30.2.9-45.3 1.6 31 7.8 61.9 15.9 92.6 24 104 27.5 208.2 54.1 315.1 67.5 33.4 4.2 67.4 7.2 101.3 7.2 66.1 0 131.4-11.3 189.2-47.1 26.3-16.3 49.2-37.1 68.7-60.8m-1480-691.6c-2.8 31.8-7.3 63.5-14.1 94.8-4.9 22.7-10.8 43.7-19.3 67.6-9 25.5-20.3 50.2-31.3 74.9-22.8 51-43.4 103.4-41.4 160.3 1.6 44.4 19.7 87.3 46.1 122.6 10.7 14.4 22.9 27.6 36.1 39.6-9.5-18.6-16.3-38.6-19.5-59.3-8.7-56.2 5.5-110.7 22.2-164 8.1-25.8 16.3-51.6 22.3-78 5.6-24.7 9-46.3 11.2-69.4 4.5-47 3.9-94.4.3-141.4-4-15.9-8.2-31.6-12.6-47.7m1655.4-490.1v-1.4 1.4m-50.8-230.7c33.3 54.6 50.5 117.9 48.5 183.2-3.1 104-45.6 200.5-71.7 299.8-10 37.8-16.3 73-18.6 110.1 2.9 16.1 6.3 32.1 10.2 47.9 5.8-21.2 13-42.1 21.6-63.9 37.6-95.5 91.3-186.3 106.6-289.2 13.6-91.6-11.3-183.6-68.5-256.4-8.8-11.1-18.1-21.6-28.1-31.5M512 116.1c-63.1 0-125.8 15.2-177.4 53.2-20.7 15.2-38.5 33.2-53.7 53.2 53-32.7 116.4-45.9 179.2-45.9 18.6 0 37.2 1.2 55.4 3.3 56.2 6.7 110.8 20.8 165.3 35.7 54.1 14.8 108.2 28.7 163.5 38.3 43.8 7.6 88.4 12.8 133.3 15.4 14.6-1.6 29.1-3.4 43.6-5.6-29.5-6.4-58.6-13.9-87.2-22.4-53.8-16-105.9-36.3-157.9-57.3-52.4-21.2-104.9-41.6-159.9-54.9-33.6-8.2-69-13-104.2-13"/><path class="st2" d="M1713.2 1730.9c-63.1 34.1-136.8 47-208.6 53.8-52.3 5-104.7 6.7-157.1 6.7-55 0-110-1.9-165.1-4.1-57.5-2.3-115.2-4.4-173.2-4.4-16.3 0-32.6.2-48.9.5 47.7 5.4 95.1 12 142.2 18.6 106.5 15 213.1 29.2 320.8 29.9h8.1c86.7 0 176.5-9.4 250.5-56.1 11.6-13.9 22-29 31.3-44.9M214.4 1131.8c3.7 47.1 4.3 94.4-.3 141.4-2.2 23.1-5.6 44.7-11.2 69.4-6 26.4-14.2 52.2-22.3 78-16.6 53.3-30.9 107.8-22.2 164 3.2 20.7 10 40.6 19.5 59.3 14.6 13.2 30.5 25 47.2 35.5-1.5-4.4-2.8-8.8-4-13.3-14.3-55-5.6-110.7 5.5-165.4 5.4-26.5 11-53 14.3-79.9 3.1-25.2 4.3-47 4.1-70.2-.3-49.5-6.1-98.7-15.2-147.3-4.5-24.7-9.7-48.1-15.4-71.5m1532.8-716.4s.2.7.3 1.3c-.3-1-.3-1.3-.3-1.3m18.9-86.3c21.8 40.8 35.1 86 38.5 133.3 7.4 103.8-25.2 204.1-41.2 305.5-8.5 53.9-10.6 101.9-3.7 156.1 1.4 10.9 3.1 21.8 5 32.5 2.3-37.1 8.7-72.2 18.6-110.1 26.1-99.2 68.7-195.8 71.7-299.8 1.9-65.3-15.3-128.6-48.5-183.2-12.6-12.4-26.1-23.9-40.4-34.3m-1306-152.5c-62.7 0-126.2 13.2-179.2 45.9-11.5 15.1-21.6 31.2-30.4 48.1 53.7-27 115.8-38.2 175.7-38.2 2.9 0 5.8 0 8.7.1 56.6 1 112.3 9.5 168 18.8 55.3 9.2 110.6 17.7 166.6 21.6 27.7 2 55.6 2.9 83.5 2.9 41.5 0 83.1-2.2 124.6-6.7-44.9-2.6-89.5-7.8-133.3-15.4-55.3-9.6-109.4-23.5-163.5-38.3-54.5-14.9-109.1-28.9-165.3-35.7-18.2-1.9-36.7-3.1-55.4-3.1"/><path class="st2" d="M875.3 1775.5c13.3 3.2 26.5 6.4 39.7 9.7 15.1-.8 30.2-1.3 45.3-1.6-28.3-3.3-56.6-6-85-8.1m-670.8-730.1c-.6 13-1.5 25.9-2.6 38.9 4.4 16.1 8.6 31.8 12.5 47.5-.2-2.2-.4-4.4-.5-6.6-2.4-27.6-5.6-53.6-9.4-79.8m1560.2-88.9c-.9 14.6-1.2 29.4-.8 44.8.3 13.4 1.1 26.7 2.3 39.9 2.4-12.5 5.3-24.7 8.7-36.8-3.9-15.8-7.4-31.8-10.2-47.9m38-462.5l.2 1.4c-.2-1-.2-1.4-.2-1.4m-781.5-230.3c-14.5 2.1-29 4-43.6 5.6 22.1 1.3 44.3 1.9 66.5 1.9 4.7 0 9.4 0 14.1-.1-12.3-2.3-24.7-4.7-37-7.4"/><path class="st3" d="M1802.8 495.4c-.1-.6-.2-1.4-.2-1.4.1 0 .1.4.2 1.4m-55.3-78.7c-.1-.6-.3-1.3-.3-1.3s0 .3.3 1.3M426.3 232.4c-59.9 0-122.1 11.2-175.7 38.2-24.9 47.7-40 101.5-49.5 153.4-18.5 101.1-15.4 204.8-9.1 306.9 3.1 50.9 7.2 101.7 10.1 152.6 3 51.7 4.7 97.7 2.9 148.5-.2 4.5-.3 9-.5 13.5 3.9 26.2 7 52.2 9.3 79.7.2 2.2.4 4.4.5 6.6 5.8 23.4 11 46.8 15.6 71.5 9.1 48.6 14.9 97.8 15.2 147.3.1 23.2-1.1 45.1-4.1 70.2-3.3 26.9-8.9 53.4-14.3 79.9-11.2 54.8-19.8 110.4-5.5 165.4 1.2 4.5 2.5 8.9 4 13.3 6.4 4 13 7.8 19.6 11.4 45.9 24.9 98.3 37.4 149.9 43.5 34.2 4 68.6 5.2 103 5.2 23.1 0 46.2-.5 69.2-1 10.6-.2 21.3-.4 32.1-.4 40.9 0 82.7 1.8 124.3 6.8 51.3 7.9 101.9 18.6 152 30.5 28.4 2.1 56.7 4.9 85 8.1 16.3-.4 32.6-.5 48.9-.5 58 0 115.7 2.1 173.2 4.4 55 2.2 110.1 4.1 165.1 4.1 52.4 0 104.8-1.7 157.1-6.7 71.8-6.8 145.5-19.8 208.6-53.8 22.6-38.7 38.5-81.8 48.1-124.9 25.3-113 8.8-230.2-.3-344-4.6-57-7.4-113-2.1-170 1.6-17.6 4.1-34.4 7.3-50.8-1.1-13.2-1.9-26.5-2.3-39.9-.4-15.4-.1-30.3.8-44.8-1.9-10.7-3.6-21.6-5-32.5-6.9-54.2-4.8-102.2 3.7-156.1 16-101.4 48.6-201.7 41.2-305.5-3.4-47.3-16.7-92.6-38.5-133.3-10-7.3-20.5-14-31.2-20.1-43.1-24.5-91-37.7-140.4-41.5-13-1-26-1.5-39-1.5-44.2 0-88.3 5.1-132.1 10.5-54 6.7-109.7 13-162.8 13.1h-1.6c-67.2 0-134.7-6.5-200.7-18.6-4.7.1-9.4.1-14.1.1-22.2 0-44.4-.7-66.5-1.9-41.4 4.5-83.1 6.7-124.6 6.7-28 0-55.9-1-83.5-2.9-56-4-111.2-12.4-166.6-21.6-55.7-9.3-111.5-17.8-168-18.8-2.9-.2-5.8-.3-8.7-.3"/><g><linearGradient id="SVGID_1_" gradientUnits="userSpaceOnUse" x1="1006.368" y1="1594.147" x2="1006.368" y2="1316.591"><stop offset="0" stop-color="#baacc6"/><stop offset="1" stop-color="#9e8eaf"/></linearGradient><path class="st4" d="M895.2 1277.3h222.2v255.9H895.2z"/><path class="st5" d="M1260.2 1522.2H752.6c-10.9 0-19.8 8.9-19.8 19.8s8.9 19.8 19.8 19.8h507.6c10.9 0 19.8-8.9 19.8-19.8-.1-10.9-8.9-19.8-19.8-19.8zM1626.5 430.6h-1253c-5.2 0-9.4 4.2-9.4 9.4v844.1c0 5.2 4.2 9.4 9.4 9.4h1252.9c5.2 0 9.4-4.2 9.4-9.4V440c.1-5.2-4.1-9.4-9.3-9.4z"/><path class="st6" d="M387.9 452.5h1224.2v725.2H387.9z"/><path class="st0" d="M406.2 470.4h1187.5v689.3H406.2z"/><circle class="st0" cx="1000" cy="1238.8" r="25.8"/><path class="st7" d="M406.2 470.4h1187.5V512H406.2z"/><path class="st8" d="M1284 560.4h258.3v158.2H1284z"/><path class="st7" d="M1295.4 595.7h46v46h-46z"/><path class="st9" d="M1359 595.7h46v46h-46z"/><path class="st10" d="M1422.5 595.7h46v46h-46z"/><path class="st11" d="M1295.5 655.1h46v46h-46z"/><path class="st12" d="M1359 655.1h46v46h-46z"/><path class="st13" d="M1422.6 655.1h46v46h-46z"/><path class="st14" d="M1484.7 595.7h46v46h-46z"/><path class="st15" d="M1484.8 655.1h46v46h-46z"/><path class="st16" d="M1284 560.4h258.3v21.9H1284z"/><circle class="st0" cx="1499.9" cy="572.5" r="2.9"/><circle class="st0" cx="1514.1" cy="572.5" r="2.9"/><circle class="st0" cx="1528.2" cy="572.5" r="2.9"/><g><path class="st8" d="M739.9 564.6h501.5v400.5H739.9z"/><path class="st16" d="M739.9 564.6h501.5v29.1H739.9z"/><circle class="st0" cx="1180" cy="581.5" r="4.1"/><circle class="st0" cx="1198" cy="581.5" r="4.1"/><circle class="st0" cx="1216" cy="581.5" r="4.1"/><path class="st7" d="M818.6 655.7h346.2v243H818.6z"/><path class="st10" d="M818.6 798.9c6.9 5.3 15.3 8.2 25.8 6.9 18.9-2.4 35.8-16.8 55.3-15.4 19 1.4 30.8 20.3 48.9 24.8 14.8 3.6 26.9-4 32.7-17.5 6.1-14.2 3.9-31.3 12-44.7 12.7-20.8 39-5.3 54.8 2.5 8.8 4.3 17.5 8.7 26.3 13 9.2 4.5 18.3 9.8 28.2 12.9 14.6 4.5 30.8 1.4 37.7-13.4 2.7-5.7 3.7-12 6.1-17.8 3.6-8.8 10.1-11.7 18.3-13.6v-80.7H818.6v143z"/><circle class="st9" cx="895.1" cy="851.2" r="24.7"/><circle class="st9" cx="1024.8" cy="783" r="14.7"/><circle class="st9" cx="1118.3" cy="851.2" r="24.7"/><path class="st7" d="M1190 923.2h-4c-.3 0-.5-.2-.5-.5s.2-.5.5-.5h3.5v-3.5c0-.3.2-.5.5-.5s.5.2.5.5v4c0 .2-.3.5-.5.5zM1176 923.2h-8c-.3 0-.5-.2-.5-.5s.2-.5.5-.5h8c.3 0 .5.2.5.5s-.2.5-.5.5zm-18 0h-8c-.3 0-.5-.2-.5-.5s.2-.5.5-.5h8c.3 0 .5.2.5.5s-.2.5-.5.5zm-17.9 0h-8c-.3 0-.5-.2-.5-.5s.2-.5.5-.5h8c.3 0 .5.2.5.5s-.2.5-.5.5zm-18 0h-8c-.3 0-.5-.2-.5-.5s.2-.5.5-.5h8c.3 0 .5.2.5.5s-.2.5-.5.5zm-17.9 0h-8c-.3 0-.5-.2-.5-.5s.2-.5.5-.5h8c.3 0 .5.2.5.5s-.3.5-.5.5zm-18 0h-8c-.3 0-.5-.2-.5-.5s.2-.5.5-.5h8c.3 0 .5.2.5.5s-.2.5-.5.5zm-17.9 0h-8c-.3 0-.5-.2-.5-.5s.2-.5.5-.5h8c.3 0 .5.2.5.5s-.3.5-.5.5zm-18 0h-8c-.3 0-.5-.2-.5-.5s.2-.5.5-.5h8c.3 0 .5.2.5.5s-.2.5-.5.5zm-17.9 0h-8c-.3 0-.5-.2-.5-.5s.2-.5.5-.5h8c.3 0 .5.2.5.5s-.3.5-.5.5zm-18 0h-8c-.3 0-.5-.2-.5-.5s.2-.5.5-.5h8c.3 0 .5.2.5.5s-.2.5-.5.5zm-18 0h-8c-.3 0-.5-.2-.5-.5s.2-.5.5-.5h8c.3 0 .5.2.5.5s-.2.5-.5.5zm-17.9 0h-8c-.3 0-.5-.2-.5-.5s.2-.5.5-.5h8c.3 0 .5.2.5.5s-.2.5-.5.5zm-18 0h-8c-.3 0-.5-.2-.5-.5s.2-.5.5-.5h8c.3 0 .5.2.5.5s-.2.5-.5.5zm-17.9 0h-8c-.3 0-.5-.2-.5-.5s.2-.5.5-.5h8c.3 0 .5.2.5.5s-.2.5-.5.5zm-18 0h-8c-.3 0-.5-.2-.5-.5s.2-.5.5-.5h8c.3 0 .5.2.5.5s-.2.5-.5.5zm-17.9 0h-8c-.3 0-.5-.2-.5-.5s.2-.5.5-.5h8c.3 0 .5.2.5.5s-.2.5-.5.5zm-18 0h-8c-.3 0-.5-.2-.5-.5s.2-.5.5-.5h8c.3 0 .5.2.5.5s-.2.5-.5.5zm-17.9 0h-8c-.3 0-.5-.2-.5-.5s.2-.5.5-.5h8c.3 0 .5.2.5.5s-.3.5-.5.5zm-18 0h-8c-.3 0-.5-.2-.5-.5s.2-.5.5-.5h8c.3 0 .5.2.5.5s-.2.5-.5.5zm-17.9 0h-8c-.3 0-.5-.2-.5-.5s.2-.5.5-.5h8c.3 0 .5.2.5.5s-.3.5-.5.5zm-18 0h-8c-.3 0-.5-.2-.5-.5s.2-.5.5-.5h8c.3 0 .5.2.5.5s-.2.5-.5.5zM799 923.2h-4c-.3 0-.5-.2-.5-.5v-4c0-.3.2-.5.5-.5s.5.2.5.5v3.5h3.5c.3 0 .5.2.5.5s-.3.5-.5.5zM795 909.1c-.3 0-.5-.2-.5-.5v-8c0-.3.2-.5.5-.5s.5.2.5.5v8c0 .3-.3.5-.5.5zm0-18.1c-.3 0-.5-.2-.5-.5v-8c0-.3.2-.5.5-.5s.5.2.5.5v8c0 .3-.3.5-.5.5zm0-18c-.3 0-.5-.2-.5-.5v-8c0-.3.2-.5.5-.5s.5.2.5.5v8c0 .2-.3.5-.5.5zm0-18.1c-.3 0-.5-.2-.5-.5v-8c0-.3.2-.5.5-.5s.5.2.5.5v8c0 .3-.3.5-.5.5zm0-18.1c-.3 0-.5-.2-.5-.5v-8c0-.3.2-.5.5-.5s.5.2.5.5v8c0 .3-.3.5-.5.5zm0-18.1c-.3 0-.5-.2-.5-.5v-8c0-.3.2-.5.5-.5s.5.2.5.5v8c0 .3-.3.5-.5.5zm0-18.1c-.3 0-.5-.2-.5-.5v-8c0-.3.2-.5.5-.5s.5.2.5.5v8c0 .3-.3.5-.5.5zm0-18c-.3 0-.5-.2-.5-.5v-8c0-.3.2-.5.5-.5s.5.2.5.5v8c0 .2-.3.5-.5.5zm0-18.1c-.3 0-.5-.2-.5-.5v-8c0-.3.2-.5.5-.5s.5.2.5.5v8c0 .3-.3.5-.5.5zm0-18.1c-.3 0-.5-.2-.5-.5v-8c0-.3.2-.5.5-.5s.5.2.5.5v8c0 .3-.3.5-.5.5zm0-18.1c-.3 0-.5-.2-.5-.5v-8c0-.3.2-.5.5-.5s.5.2.5.5v8c0 .3-.3.5-.5.5zm0-18c-.3 0-.5-.2-.5-.5v-8c0-.3.2-.5.5-.5s.5.2.5.5v8c0 .2-.3.5-.5.5zm0-18.1c-.3 0-.5-.2-.5-.5v-8c0-.3.2-.5.5-.5s.5.2.5.5v8c0 .3-.3.5-.5.5zm0-18.1c-.3 0-.5-.2-.5-.5v-8c0-.3.2-.5.5-.5s.5.2.5.5v8c0 .3-.3.5-.5.5zm0-18.1c-.3 0-.5-.2-.5-.5v-8c0-.3.2-.5.5-.5s.5.2.5.5v8c0 .3-.3.5-.5.5zM795 637.9c-.3 0-.5-.2-.5-.5v-4c0-.3.2-.5.5-.5h4c.3 0 .5.2.5.5s-.2.5-.5.5h-3.5v3.5c0 .3-.3.5-.5.5zM1176 633.9h-8c-.3 0-.5-.2-.5-.5s.2-.5.5-.5h8c.3 0 .5.2.5.5s-.2.5-.5.5zm-18 0h-8c-.3 0-.5-.2-.5-.5s.2-.5.5-.5h8c.3 0 .5.2.5.5s-.2.5-.5.5zm-17.9 0h-8c-.3 0-.5-.2-.5-.5s.2-.5.5-.5h8c.3 0 .5.2.5.5s-.2.5-.5.5zm-18 0h-8c-.3 0-.5-.2-.5-.5s.2-.5.5-.5h8c.3 0 .5.2.5.5s-.2.5-.5.5zm-17.9 0h-8c-.3 0-.5-.2-.5-.5s.2-.5.5-.5h8c.3 0 .5.2.5.5s-.3.5-.5.5zm-18 0h-8c-.3 0-.5-.2-.5-.5s.2-.5.5-.5h8c.3 0 .5.2.5.5s-.2.5-.5.5zm-17.9 0h-8c-.3 0-.5-.2-.5-.5s.2-.5.5-.5h8c.3 0 .5.2.5.5s-.3.5-.5.5zm-18 0h-8c-.3 0-.5-.2-.5-.5s.2-.5.5-.5h8c.3 0 .5.2.5.5s-.2.5-.5.5zm-17.9 0h-8c-.3 0-.5-.2-.5-.5s.2-.5.5-.5h8c.3 0 .5.2.5.5s-.3.5-.5.5zm-18 0h-8c-.3 0-.5-.2-.5-.5s.2-.5.5-.5h8c.3 0 .5.2.5.5s-.2.5-.5.5zm-18 0h-8c-.3 0-.5-.2-.5-.5s.2-.5.5-.5h8c.3 0 .5.2.5.5s-.2.5-.5.5zm-17.9 0h-8c-.3 0-.5-.2-.5-.5s.2-.5.5-.5h8c.3 0 .5.2.5.5s-.2.5-.5.5zm-18 0h-8c-.3 0-.5-.2-.5-.5s.2-.5.5-.5h8c.3 0 .5.2.5.5s-.2.5-.5.5zm-17.9 0h-8c-.3 0-.5-.2-.5-.5s.2-.5.5-.5h8c.3 0 .5.2.5.5s-.2.5-.5.5zm-18 0h-8c-.3 0-.5-.2-.5-.5s.2-.5.5-.5h8c.3 0 .5.2.5.5s-.2.5-.5.5zm-17.9 0h-8c-.3 0-.5-.2-.5-.5s.2-.5.5-.5h8c.3 0 .5.2.5.5s-.2.5-.5.5zm-18 0h-8c-.3 0-.5-.2-.5-.5s.2-.5.5-.5h8c.3 0 .5.2.5.5s-.2.5-.5.5zm-17.9 0h-8c-.3 0-.5-.2-.5-.5s.2-.5.5-.5h8c.3 0 .5.2.5.5s-.3.5-.5.5zm-18 0h-8c-.3 0-.5-.2-.5-.5s.2-.5.5-.5h8c.3 0 .5.2.5.5s-.2.5-.5.5zm-17.9 0h-8c-.3 0-.5-.2-.5-.5s.2-.5.5-.5h8c.3 0 .5.2.5.5s-.3.5-.5.5zm-18 0h-8c-.3 0-.5-.2-.5-.5s.2-.5.5-.5h8c.3 0 .5.2.5.5s-.2.5-.5.5zM1190 637.9c-.3 0-.5-.2-.5-.5v-3.5h-3.5c-.3 0-.5-.2-.5-.5s.2-.5.5-.5h4c.3 0 .5.2.5.5v4c0 .3-.3.5-.5.5zM1190 909.1c-.3 0-.5-.2-.5-.5v-8c0-.3.2-.5.5-.5s.5.2.5.5v8c0 .3-.3.5-.5.5zm0-18.1c-.3 0-.5-.2-.5-.5v-8c0-.3.2-.5.5-.5s.5.2.5.5v8c0 .3-.3.5-.5.5zm0-18c-.3 0-.5-.2-.5-.5v-8c0-.3.2-.5.5-.5s.5.2.5.5v8c0 .2-.3.5-.5.5zm0-18.1c-.3 0-.5-.2-.5-.5v-8c0-.3.2-.5.5-.5s.5.2.5.5v8c0 .3-.3.5-.5.5zm0-18.1c-.3 0-.5-.2-.5-.5v-8c0-.3.2-.5.5-.5s.5.2.5.5v8c0 .3-.3.5-.5.5zm0-18.1c-.3 0-.5-.2-.5-.5v-8c0-.3.2-.5.5-.5s.5.2.5.5v8c0 .3-.3.5-.5.5zm0-18.1c-.3 0-.5-.2-.5-.5v-8c0-.3.2-.5.5-.5s.5.2.5.5v8c0 .3-.3.5-.5.5zm0-18c-.3 0-.5-.2-.5-.5v-8c0-.3.2-.5.5-.5s.5.2.5.5v8c0 .2-.3.5-.5.5zm0-18.1c-.3 0-.5-.2-.5-.5v-8c0-.3.2-.5.5-.5s.5.2.5.5v8c0 .3-.3.5-.5.5zm0-18.1c-.3 0-.5-.2-.5-.5v-8c0-.3.2-.5.5-.5s.5.2.5.5v8c0 .3-.3.5-.5.5zm0-18.1c-.3 0-.5-.2-.5-.5v-8c0-.3.2-.5.5-.5s.5.2.5.5v8c0 .3-.3.5-.5.5zm0-18c-.3 0-.5-.2-.5-.5v-8c0-.3.2-.5.5-.5s.5.2.5.5v8c0 .2-.3.5-.5.5zm0-18.1c-.3 0-.5-.2-.5-.5v-8c0-.3.2-.5.5-.5s.5.2.5.5v8c0 .3-.3.5-.5.5zm0-18.1c-.3 0-.5-.2-.5-.5v-8c0-.3.2-.5.5-.5s.5.2.5.5v8c0 .3-.3.5-.5.5zm0-18.1c-.3 0-.5-.2-.5-.5v-8c0-.3.2-.5.5-.5s.5.2.5.5v8c0 .3-.3.5-.5.5z"/><path class="st17" d="M785.3 623.8h19.2V643h-19.2zM785.3 913h19.2v19.2h-19.2z"/><g><path class="st17" d="M982.8 623.8h19.2V643h-19.2zM982.8 913h19.2v19.2h-19.2z"/></g><g><path class="st17" d="M1180.4 623.8h19.2V643h-19.2zM1180.4 913h19.2v19.2h-19.2z"/></g><g><path class="st17" d="M785.3 768.4h19.2v19.2h-19.2zM1184 768.4h19.2v19.2H1184z"/></g></g><g><circle class="st8" cx="1468.5" cy="822.9" r="88.2"/><circle class="st7" cx="1468.5" cy="822.9" r="80.7"/><path class="st18" d="M1388 827.7c.1.9.1 1.8.2 2.7 0 .4.1.7.1 1.1.1 1.2.3 2.4.4 3.5 0 .2.1.4.1.7.2 1 .3 1.9.5 2.8.1.4.2.9.3 1.3.2.8.3 1.5.5 2.2.1.4.2.9.3 1.3.3 1.1.6 2.1.9 3.1.1.5.3.9.4 1.4.2.6.4 1.3.6 1.9.2.5.4 1.1.6 1.6.2.5.4 1.1.6 1.6.2.5.4 1.1.7 1.6.3.7.6 1.4 1 2.1.4.8.7 1.5 1.1 2.3l.6 1.2c.3.6.6 1.2 1 1.8.2.4.4.7.6 1.1.8 1.4 1.7 2.8 2.6 4.2l67.2-44.6v-80.7c-44.6 0-80.7 36.1-80.7 80.7 0 1.2 0 2.5.1 3.7.3.7.3 1.1.3 1.4z"/><path class="st9" d="M1535.8 867.5c8.5-12.8 13.4-28.1 13.4-44.6 0-44.6-36.1-80.7-80.7-80.7v80.7l67.3 44.6z"/><path class="st0" d="M1468.5 853.9c-17.1 0-31-13.9-31-31s13.9-31 31-31 31 13.9 31 31-13.9 31-31 31zm0-56.9c-14.3 0-25.9 11.6-25.9 25.9 0 14.3 11.6 25.9 25.9 25.9 14.3 0 25.9-11.6 25.9-25.9 0-14.3-11.6-25.9-25.9-25.9z"/></g><path class="st0" d="M782.9 1038.3h1.4v18.2h-1.4zM791 1038.3h1.4v18.2H791zM795.5 1038.3h1.4v18.2h-1.4zM776.9 1067.4h1.4v18.2h-1.4z"/><g><path class="st8" d="M739.2 1004.7h501.5v103.6H739.2z"/><path class="st16" d="M739.2 1004.7h501.5v25.9H739.2z"/><circle class="st0" cx="1183" cy="1018.3" r="3.7"/><circle class="st0" cx="1198.9" cy="1018.3" r="3.7"/><circle class="st0" cx="1214.7" cy="1018.3" r="3.7"/><linearGradient id="SVGID_2_" gradientUnits="userSpaceOnUse" x1="759.906" y1="1055.436" x2="1219.954" y2="1055.436"><stop offset="0" stop-color="#464392"/><stop offset=".341" stop-color="#7e5bff"/><stop offset=".749" stop-color="#fc70c7"/><stop offset=".99" stop-color="#ff6695"/></linearGradient><path class="st19" d="M759.9 1046.3h460v18.2h-460z"/><linearGradient id="SVGID_3_" gradientUnits="userSpaceOnUse" x1="-5662.688" y1="3194.249" x2="-5202.641" y2="3194.249" gradientTransform="rotate(180 -2221.367 2139.424)"><stop offset="0" stop-color="#464392"/><stop offset=".341" stop-color="#b92bf1"/><stop offset=".711" stop-color="#7e5bff"/><stop offset=".99" stop-color="#51f2ed"/></linearGradient><path class="st20" d="M759.9 1075.5H1220v18.2H759.9z"/><path class="st0" d="M898 1046.3h1.4v18.2H898zM903.1 1046.3h1.4v18.2h-1.4zM966.9 1075.5h1.4v18.2h-1.4zM989.2 1075.5h1.4v18.2h-1.4zM1188.6 1046.3h1.4v18.2h-1.4zM1180.7 1046.3h1.4v18.2h-1.4zM1202.6 1075.5h1.4v18.2h-1.4zM1198.2 1075.5h1.4v18.2h-1.4zM995.4 1075.5h1.4v18.2h-1.4z"/></g><g><path class="st8" d="M457.3 565.9h234v151.5h-234z"/><path class="st16" d="M457.3 565.9h234v25.3h-234z"/><circle class="st0" cx="649.2" cy="578.7" r="2.7"/><circle class="st0" cx="661.8" cy="578.7" r="2.7"/><circle class="st0" cx="674.5" cy="578.7" r="2.7"/><path class="st21" d="M479.5 615h26v26h-26z"/><path class="st22" d="M520.4 615h26v26h-26z"/><path class="st21" d="M561.4 615h26v26h-26z"/><path class="st22" d="M602.3 615h26v26h-26z"/><path class="st21" d="M643.2 615h26v26h-26z"/><path class="st22" d="M479.5 653.7h26v26h-26z"/><path class="st21" d="M520.4 653.7h26v26h-26z"/><path class="st22" d="M561.4 653.7h26v26h-26z"/><path class="st21" d="M602.3 653.7h26v26h-26z"/><path class="st22" d="M643.2 653.7h26v26h-26z"/></g><g><linearGradient id="SVGID_4_" gradientUnits="userSpaceOnUse" x1="1361.381" y1="1381.055" x2="1355.391" y2="1208.795"><stop offset="0" stop-color="#fda3a2"/><stop offset="1" stop-color="#e05865"/></linearGradient><path class="st23" d="M1326.8 788.2s4.7 23 0 24.5c-4.7 1.6-24-9.4-49-9.4s-80.9-11.5-84.5-15.1c-3.7-3.7-42.3-82.4-50.1-97s2.1-44.4-13-43.3c-15.1 1-31.3 15.7-16.2 36s25.6 53.2 35.5 84c9.9 30.8 17.2 49 32.9 57.9 15.7 8.9 98.1 22.4 102.8 38.6s-8.9 35-.5 55.8c8.3 20.9 41.5 40.7 36 90.3-4.4 39.4-12.2 208.7-16 278.6s-2.8 213.9-9.8 228c-7 14.1-35.2 24.3-54 28.2-18.8 3.9-39.9 14.9-27.4 19.6s109 6.5 115.6 0 15.9-12.5 5-39.9c-11-27.4 18.8-107.2 20.3-150.3s3.7-62.9 6-85.6c2.3-22.7 20.9-155.5 33.4-160.2s29.5 145.6 38.9 165.1 96.3 159.7 101.7 176.9c5.5 17.2 10.2 55.6 0 62.6s-42.3 32.7-20.3 35.5c21.9 2.8 50.1-11.3 61.8-35.5 11.7-24.3 29-53.2 8.6-58.7-20.3-5.5-21.9-7-42.3-55.6s-46.2-117.4-62.6-140.9 2.3-85.3-3.9-147.1-42.3-92.4-54-122.1c-11.7-29.7 6.3-155 3.9-165.1-2.3-10.2-65-29-65-29l-6.3-43-27.5 16.2z"/><linearGradient id="SVGID_5_" gradientUnits="userSpaceOnUse" x1="1392.037" y1="1034.665" x2="1458.299" y2="941.493"><stop offset="0" stop-color="#fda3a2"/><stop offset="1" stop-color="#e05865"/></linearGradient><path class="st24" d="M1425.5 844s23 13.6 42.8 41.7 54.3 65.2 56.4 79.8c2.1 14.6-47.5 98.6-59.5 108s-23.5 0-23.5 0 50.1-87.1 46.4-104.4c-3.7-17.2-77.7-74.1-77.7-74.1l15.1-51z"/><linearGradient id="SVGID_6_" gradientUnits="userSpaceOnUse" x1="1389.03" y1="1236.144" x2="1354.845" y2="1070.52"><stop offset="0" stop-color="#464392"/><stop offset="1" stop-color="#303075"/></linearGradient><path class="st25" d="M1475.2 1128.5c-.2-2.1-.5-4.2-.8-6.2 0-.2 0-.3-.1-.5-.5-4.8-1.5-9.3-2.7-13.5-11.4-46.9-39.9-73.3-50.1-99.2-.9-2.3-1.7-5.3-2.2-8.7-28.8 6.6-69 3.9-98.1.4 0 0-11.2 110.6-32.7 189.5-5.9 21.5-24.2 61.6-24.2 61.6s35.2 31.6 61.8 25.4c26.6-6.3 43.7-11 59.3 0 15.7 11 56.3-.4 61-6.7s25.4-15.1 45-3.4 30.4-7.8 30.4-7.8-37.7-72.8-46.6-130.9z"/><path class="st18" d="M1264.2 1553.1c-12 1-15.5-4.1-16-9.6-2.6.7-5.1 1.3-7.5 1.8-18.8 3.9-39.9 14.9-27.4 19.6s109.1 6.5 115.6 0c6.2-6.2 14.8-11.8 6.6-35.5-3.2.4-6.8 1.2-10.8 2.3-21.3 6.2-35.9 19.3-60.5 21.4zM1584.3 1474.8c-5.5-1.5-9.6-2.7-13.1-4.6-1.6 9.1-4.5 24.5-8.6 39-6.3 22.4-16 33.2-35.7 29.7-12.8 10.2-31.1 27.8-13.1 30.1 21.9 2.8 50.1-11.3 61.8-35.5 11.9-24.3 29.1-53.2 8.7-58.7z"/><linearGradient id="SVGID_7_" gradientUnits="userSpaceOnUse" x1="1492.891" y1="967.956" x2="1414.255" y2="889.534"><stop offset="0" stop-color="#51f2ed"/><stop offset="1" stop-color="#35cfdb"/></linearGradient><path class="st26" d="M1488.1 969.2c1.4 6.6-5.1 23.4-13.6 41.7 6.2 5.1 15 10.2 25.8 10.3 13.6-23.9 25.3-48.4 24.3-55.7-2.1-14.6-36.5-51.7-56.4-79.8-19.8-28.2-45.6-45.4-45.6-45.4l-12.3 54.8s74.1 56.9 77.8 74.1z"/><linearGradient id="SVGID_8_" gradientUnits="userSpaceOnUse" x1="1135.014" y1="677.348" x2="1193.308" y2="764.49"><stop offset="0" stop-color="#fda3a2"/><stop offset="1" stop-color="#e05865"/></linearGradient><path class="st27" d="M1149.4 767.8c9.9 30.8 17.2 49 32.9 57.9 9.1 5.1 40.6 11.9 66.4 19.7l27.8-42.2c-25.6-.4-79.6-11.5-83.2-15.1-3.7-3.7-42.3-82.4-50.1-97-7.8-14.6 2.1-44.4-13-43.3-15.1 1-31.3 15.7-16.2 36 15.1 20.4 25.5 53.2 35.4 84z"/><linearGradient id="SVGID_9_" gradientUnits="userSpaceOnUse" x1="1262.601" y1="883.308" x2="1366.894" y2="842.851"><stop offset="0" stop-color="#51f2ed"/><stop offset="1" stop-color="#35cfdb"/></linearGradient><path class="st28" d="M1425.5 844c-1.7-7.4-35.3-19.3-53.5-25.3-.1 0-.2-.1-.3-.1-.2-.1-.4-.1-.7-.2-.4-.1-.7-.2-1.1-.4l-.9-.3c-.3-.1-.7-.2-1-.3-.2-.1-.4-.1-.6-.2-.4-.1-.8-.3-1.2-.4-.1 0-.3-.1-.4-.1l-.9-.3c-.1 0-.1 0-.2-.1-2.7-.8-4.3-1.3-4.3-1.3l-4-27.6c-3.8.1-19.3.5-29.6 1 .5 2.6 4.3 22.8-.1 24.2-1.2.4-3.2 0-6-.8-.2-.1-.5-.1-.8-.2-.4-.1-.8-.2-1.2-.4-.4-.1-.9-.3-1.4-.4-.2-.1-.3-.1-.5-.2-2-.6-4.3-1.3-6.7-2.1-.1 0-.1 0-.2-.1-8.6-2.6-19.7-5.3-32.2-5.3-25 0-80.9-11.5-84.5-15.1-2.1-2.1-15.7-28.9-28.4-54.1-8.4 4.8-17.1 7.7-23.5 9.3 2.8 8.1 5.4 16.3 8 24.4 9.9 30.8 17.2 49 32.9 57.9s98.1 22.4 102.8 38.6c4.7 16.2-8.9 35-.5 55.8 8.3 20.9 41.5 40.7 36 90.3-.1 1-.2 2.1-.3 3.2 40.6 10.1 79.9 1.8 101.2-4.8-11.5-30 6.4-154.5 4.1-164.6z"/><linearGradient id="SVGID_10_" gradientUnits="userSpaceOnUse" x1="1304.58" y1="751.604" x2="1384.231" y2="751.604"><stop offset="0" stop-color="#fda3a2"/><stop offset="1" stop-color="#e05865"/></linearGradient><path class="st29" d="M1364.4 711.1c-8.7-4.8-19.1-5.3-28.2-1.4-6.3 2.7-13.1 7-17.5 13.7-10 15.3-20.8 58.8-8.8 66 20.7 12.3 43.5 7.3 57.6-10.3 12.4-15.7 32-48.6-3.1-68z"/><linearGradient id="SVGID_11_" gradientUnits="userSpaceOnUse" x1="1375.157" y1="852.251" x2="1347.493" y2="718.224"><stop offset="0" stop-color="#464392"/><stop offset="1" stop-color="#303075"/></linearGradient><path class="st30" d="M1405.2 789.7c-4.3-5.3-7.8-11.2-10.4-17.4v-2.7c0-11.5 1.9-22.8-1.9-33.9-6.6-19.5-24.7-31.9-44.7-32.4-5.9.3-7.8 1.1-7.8 1.1-4.3 1.2-8.3 3.4-11.6 6.5-11.7 9.1-16.3 25-10.2 39.2 5.3 12.5 19.7 25.5 22 39.7-.1.6-.1 1.2-.3 1.8-2.1 11.5-9.4 21.1-14.1 31.7-2.3 5.2-3.6 10.5-3.9 15.6-.1 1.6-.2 3.2-.4 4.7-2 14.7 5.6 29.6 18.6 37.5 8.2 4.9 18 7.3 27.5 6.7 7.4-.4 11.7-4.4 13.3-10.2 2.1-2.5 3.2-5.8 2.8-9.7-.5-5-3.2-9.4-3.5-14.4-.5-9 8.9-9.2 15.5-10.8 3.6.2 7.2 0 10.7-1.4 9.2-3.8 14.7-13.3 14.4-23.2-.4-12.1-8.8-19.7-16-28.4zm-87.3-58.7c.7-3.8 2.1-7.4 4.1-10.5-5.9 13.5-.7 28.3 7.5 40.1 5.3 7.7 10.6 15.2 11.2 24.3-3-9-9.7-17.4-14.8-24.9-5.9-8.8-10-18.3-8-29zm58.3 152.5c-3.6 3.1-9.1 2.9-13.6 2.7-8.3-.5-16.5-3.1-23.3-7.8-9.5-6.5-15.5-17.2-16.1-28.4 1.2 5.4 3.5 10.5 6.8 15.4 0 .2.1.4.3.6.7.9 1.4 1.8 2.2 2.7.2.2.3.4.4.6.1.1.2.2.4.3 9.9 10.5 27.3 16.6 41.1 12.4 1.8-.6 3.5-1.4 4.9-2.4-.8 1.5-1.7 2.8-3.1 3.9zm37.1-48.5c-3.6 3.7-7.8 5.5-12.5 6 14.4-6.7 19.1-25.5 9.6-38.6-2.9-4-6.9-7.2-9.8-11.3-3.2-4.3-4.7-9.2-5.4-14.3 1.2 2.5 2.6 5 4.1 7.3 7 10.8 19 18.9 20.2 32.6.6 6.8-1.5 13.5-6.2 18.3z"/><path class="st7" d="M1440.2 1236.4c12.8-6.1 26.6-4 39.9-.9 10.4 2.5 21.9 5.3 33 5.5-1.1-2.4-2.2-4.9-3.4-7.5-16.2-1.1-33.9-8.3-48.4-8.9-12.3-.5-22.7 3.3-33.2 9.5-11.6 6.8-22.7 13.8-36.2 7.2-9.6-4.7-17.6-12.5-28.1-15.4-12.5-3.4-24.6 1.4-36.8 3.4-17 2.9-34.6-1.1-48.9-10.3-1 2.5-2 4.9-3.1 7.3 7.4 4.7 15.7 8.1 24.4 10 8.9 1.9 18.1 2.3 27.1 1 12.2-1.8 25-7.5 37.3-3.2 9.5 3.4 17 10.8 26.1 14.8 8.2 3.6 16.7 3.9 25.2.8 9-3.3 16.6-9.3 25.1-13.3z"/><path class="st7" d="M1322.9 1218.9c12.9-1.2 25.8-4.3 38.8-3.2 7 .6 13.6 2.6 19.5 6.5 4.7 3.1 8.9 6.8 14.3 8.7 11.6 3.9 22.6-2.2 32.4-7.8 14.3-8.2 27.2-8.4 43.1-6 10.1 1.5 21.7 3 32.2 1.3-1-2.3-1.9-4.7-2.9-7.1-12.9 1.5-28-2.4-39.6-3.4-10.2-.9-20.2 0-29.5 4.5-11.6 5.6-23.7 16.8-37 9.3-8.6-4.8-15-10.7-25-12.7-9.9-2-20-1.2-29.9.1-16.5 2.2-41.7 6.3-54.4-7.1-.9 2.4-1.8 5-2.8 7.5 10.7 8.7 26.6 10.7 40.8 9.4z"/><g><linearGradient id="SVGID_12_" gradientUnits="userSpaceOnUse" x1="533.877" y1="1290.78" x2="671.633" y2="1290.78"><stop offset="0" stop-color="#fda3a2"/><stop offset="1" stop-color="#e05865"/></linearGradient><path class="st31" d="M550.9 1022.6s-17.2 50.8-12.3 97.4c4.9 46.6 19 147 17.8 172.1s-8.2 139-9.3 174.6c-1.1 35.5 1.3 22.1-4.8 42.3s-15.3 43.5 0 47.2c15.3 3.7 125.6 6.1 129.2-6.7 3.7-12.9-69.8-12.9-76-57.6-6.1-44.7 22.7-153.7 25.7-200.9 3.1-47.2 12.9-161.1 12.9-161.1l-83.2-107.3z"/><path class="st13" d="M542.3 1556.1c15.3 3.7 125.6 6.1 129.2-6.7 3.7-12.9-69.8-12.9-76-57.6-.2-1.5-.4-3.1-.5-4.8l-48.3-4c-.1 15.1.4 9.8-4.4 25.9-6.2 20.2-15.4 43.5 0 47.2z"/><linearGradient id="SVGID_13_" gradientUnits="userSpaceOnUse" x1="589.36" y1="1377.221" x2="582.019" y2="1177.498"><stop offset="0" stop-color="#464392"/><stop offset="1" stop-color="#303075"/></linearGradient><path class="st32" d="M609.5 1482.6c.3-5.7.2-11.5-.3-17.2-3.3-46.7 14.6-130 17.5-174.6 3.1-47.2 7.4-161 7.4-161l-83.2-107.2s-17.2 50.9-12.3 97.4c4.9 46.6 15.2 145.7 13.9 170.8s-6.9 131.5-11 166.8c-1.6 14.3-1.9 27.8-2 31.7 11.3 3.9 50.4 10.7 69.4 4.7.1-.2.4-5.9.6-11.4z"/><linearGradient id="SVGID_14_" gradientUnits="userSpaceOnUse" x1="534.907" y1="1108.59" x2="893.881" y2="1108.59"><stop offset="0" stop-color="#fda3a2"/><stop offset="1" stop-color="#e05865"/></linearGradient><path class="st33" d="M639 727.9s-5.5 20.8-4.9 30.6c.6 9.8 157.4 31.2 157.4 31.2s47.8-52.1 57-70.4c9.2-18.4 11-39.8 19-50.2 8-10.4 18.4-27 23.3-14.7 4.9 12.3 4.9 51.5-6.7 60-11.6 8.6-45.9 112.1-67.4 121.9-21.4 9.8-105.4 1-111.1 10.8-5.7 9.8-16.3 180.5-9 213.2 7.4 32.7 69.4 182.9 70.2 206.6.8 23.7-77.9 196.7-83.3 216.4-4.6 16.6 18 47.4 27 50.6 9 3.3 39.2 15.5 32.7 26.1s-52.7 7.8-67.8 0c-15.1-7.8-24.2-22.1-41.3-26.5-17.1-4.5-23.2-42.4 10.3-69.3 22-17.7 45.9-176.4 46.5-188.4.8-14-118.4-118.4-135.8-224-12-72.7-16.1-178.7-16.1-178.7l-4.1-80s43.3-19.6 49-35.1c5.7-15.5 13-52.5 13-52.5l42.1 22.4z"/><linearGradient id="SVGID_15_" gradientUnits="userSpaceOnUse" x1="858.45" y1="686.786" x2="795.482" y2="787.413"><stop offset="0" stop-color="#fda3a2"/><stop offset="1" stop-color="#e05865"/></linearGradient><path class="st34" d="M867.5 669.1c-8 10.4-9.8 31.9-19 50.2-9.2 18.4-57 70.4-57 70.4s-21.8-3-49.2-7.2l-7.4 59.5c28.1-.8 67.9.6 81.7-5.7C838 826.5 872.3 723 884 714.4c11.6-8.6 11.6-47.8 6.7-60-4.8-12.2-15.2 4.3-23.2 14.7z"/><linearGradient id="SVGID_16_" gradientUnits="userSpaceOnUse" x1="486.611" y1="894.951" x2="585.543" y2="894.951"><stop offset="0" stop-color="#fda3a2"/><stop offset="1" stop-color="#e05865"/></linearGradient><path class="st35" d="M534.9 793.3s-14.3 2-24.1 29.4-28.6 147.4-23.3 157.2 98 16.7 98 16.7l-50.6-203.3z"/><linearGradient id="SVGID_17_" gradientUnits="userSpaceOnUse" x1="463.867" y1="946.838" x2="550.847" y2="899.701"><stop offset="0" stop-color="#b92bf1"/><stop offset="1" stop-color="#951dce"/></linearGradient><path class="st36" d="M534.9 793.3s-14.3 2-24.1 29.4-28.6 147.4-23.3 157.2 98 16.7 98 16.7l-50.6-203.3z"/><linearGradient id="SVGID_18_" gradientUnits="userSpaceOnUse" x1="996.621" y1="2633.915" x2="976.771" y2="2543.356" gradientTransform="rotate(-22.883 -3920.156 2560.34)"><stop offset="0" stop-color="#fda3a2"/><stop offset="1" stop-color="#e05865"/></linearGradient><path class="st37" d="M601.6 636.1s36.3-11.2 53.4 28c1 2.3 1.9 4.5 2.7 6.7 4 5.3 16.1 21.6 14.9 23.2-1.2 1.6-5.9 3.6-7.4 4.1 3 20.1-1 33-5.5 35.7-6.6 4.1-61.3 14.1-80.8-25.2-19.5-39.2-11.8-62.6 22.7-72.5z"/><linearGradient id="SVGID_19_" gradientUnits="userSpaceOnUse" x1="941.851" y1="2601.336" x2="1043.048" y2="2601.336" gradientTransform="rotate(-22.883 -3920.156 2560.34)"><stop offset="0" stop-color="#464392"/><stop offset="1" stop-color="#303075"/></linearGradient><path class="st38" d="M588.7 639c10-7.5 15.7-9.3 28.1-11.4 3.3-.6 6.5-.8 9.7-.6 1.7.1 3.5-.4 4.8-1.6 4-3.6 8.3-6.7 14.3-4.2 6.6 2.7 8.9 14 5.2 20.3-.3.5-.5 1-.6 1.6-1.7 7.2-4.7 4.8-11.2 7-5 1.7-9.2 3.8-11.9 8.6-2.6 4.4-4.1 9.7-5.4 14.7-2.8 10.6-1.7 22 8.1 28.5 4.3 2.9 9.7 3.9 14.9 3.2 5.2-.7 9.2-4.1 14.2-5.5 3.5-1 6.2-2 7.8 1.5 1.9 4.4 1.4 7.1.6 11.2-1.1 5.7-1.6 11.3-3.1 16.9-1.1 3.8-1.4 4.9-5 7.1-4.2 2.6-8.7 3.2-13.1 2.1-5.3-1.3-8.2-.7-13.2-2.8-8.7-3.7-16.6-9.3-21.5-17.6-3.1-5.3-4.7-11.1-7-16.7-.8-1.8-1.8-4.7-4-5.2-3-.8-4.6 3.5-4.9 5.8-1.5 10.1 4.9 21.1-2.9 29.9-1.5 1.7-5 1.6-5.2-1.2-1.3-13-12.3-21.6-16.4-33.2-4-11.2-6.7-24.3-2.3-35.3 4.6-11.2 10.6-16.1 20-23.1z"/><linearGradient id="SVGID_20_" gradientUnits="userSpaceOnUse" x1="637.351" y1="1004.46" x2="679.223" y2="838.895"><stop offset="0" stop-color="#b92bf1"/><stop offset="1" stop-color="#951dce"/></linearGradient><path class="st39" d="M817.8 760c-13.6 15.9-26.3 29.8-26.3 29.8s-121.2-16.6-150.9-27.2c2.9-1.9 4.9-4.9 4.9-8.9 0-5.5-5.1-11.6-11-11-15.6 1.6-30.8.3-45.8-4.2-13.6-4.1-19.4 17.2-5.9 21.3.1 0 .2.1.3.1-7.9 15.2-48.3 33.5-48.3 33.5l4.1 80s3.7 93.4 14 165h141.5c-2.2-56.8 6.2-182.7 11.1-191.1 5.7-9.8 89.6-1 111.1-10.8 9-4.1 20.3-24.8 31.2-48-14.5-7.5-24.9-20.8-30-28.5z"/><path class="st13" d="M710.5 1534c-9-3.3-31.5-34-27-50.6 1.1-3.9 5-13.7 10.5-27.1l-37.1-14.2-.8.8c-3.9 10.6-7.9 18.3-11.9 21.4-33.5 27-27.4 64.8-10.3 69.3 17.1 4.5 26.2 18.8 41.3 26.5 15.1 7.8 61.3 10.6 67.8 0 6.7-10.6-23.5-22.8-32.5-26.1z"/><linearGradient id="SVGID_21_" gradientUnits="userSpaceOnUse" x1="689.352" y1="1342.904" x2="641.365" y2="1031.945"><stop offset="0" stop-color="#464392"/><stop offset="1" stop-color="#303075"/></linearGradient><path class="st40" d="M694.1 1022.6c-59.6 16.1-143.2 0-143.2 0 1.3 10.2 2.7 20.1 4.2 29.4 17.4 105.6 133.6 209.3 132.8 223.3-.7 11.7-35 158.8-56.7 181.2 10.8 12.3 53.1 34 63.8 37.6.1-.9 8.4-23 8.6-23.9 5.4-19.7 64.1-179.5 63.3-203.1-.8-23.7-62.9-174-70.2-206.6-1.7-7.3-2.4-20.9-2.6-37.9z"/></g></g><g><circle class="st9" cx="1503" cy="491.3" r="6.4"/><circle class="st14" cx="1533.1" cy="491.3" r="6.4"/><circle class="st10" cx="1563.2" cy="491.3" r="6.4"/></g></g></svg>