<?xml version="1.0" encoding="utf-8"?>
<!-- Generator: Adobe Illustrator 21.0.0, SVG Export Plug-In . SVG Version: 6.00 Build 0)  -->
<svg version="1.1" id="Layer_1" xmlns="http://www.w3.org/2000/svg" xmlns:xlink="http://www.w3.org/1999/xlink" x="0px" y="0px"
	 width="2000px" height="2000px" viewBox="0 0 2000 2000" style="enable-background:new 0 0 2000 2000;" xml:space="preserve">
<style type="text/css">
	.st0{fill:#FFFFFF;}
	.st1{fill:#E4C9F7;}
	.st2{fill:#D5ACF2;}
	.st3{fill:url(#SVGID_1_);}
	.st4{fill:#7E5BFF;}
	.st5{fill:url(#SVGID_2_);}
	.st6{fill:url(#SVGID_3_);}
	.st7{fill:url(#SVGID_4_);}
	.st8{fill:#FFC2EB;}
	.st9{fill:#CCFFFC;}
	.st10{fill:#F4F3FF;}
	.st11{fill:#FC70C7;}
	.st12{fill:#B92BF1;}
	.st13{fill:#AA25E8;}
	.st14{fill:#BA3BF4;}
	.st15{fill:#A624E2;}
	.st16{fill:#E3E2F7;}
	.st17{fill:#EBEBFF;}
	.st18{fill:url(#SVGID_5_);}
	.st19{fill:#C7C7EF;}
	.st20{fill:#464392;}
	.st21{fill:#51F2ED;}
	.st22{fill:#FC90B4;}
	.st23{fill:#CCCBEF;}
	.st24{fill:url(#SVGID_6_);}
	.st25{fill:#FF80D5;}
	.st26{fill:#EA5CC2;}
	.st27{fill:url(#SVGID_7_);}
	.st28{fill:url(#SVGID_8_);}
	.st29{fill:#303075;}
	.st30{fill:url(#SVGID_9_);}
	.st31{fill:url(#SVGID_10_);}
	.st32{fill:url(#SVGID_11_);}
	.st33{fill:url(#SVGID_12_);}
	.st34{fill:url(#SVGID_13_);}
	.st35{fill:url(#SVGID_14_);}
	.st36{fill:url(#SVGID_15_);}
	.st37{fill:url(#SVGID_16_);}
	.st38{fill:#FC81D3;}
	.st39{fill:url(#SVGID_17_);}
	.st40{fill:url(#SVGID_18_);}
	.st41{fill:#7AFCF5;}
	.st42{fill:url(#SVGID_19_);}
	.st43{fill:url(#SVGID_20_);}
	.st44{fill:url(#SVGID_21_);}
	.st45{fill:url(#SVGID_22_);}
	.st46{fill:url(#SVGID_23_);}
	.st47{fill:url(#SVGID_24_);}
	.st48{fill:url(#SVGID_25_);}
	.st49{fill:url(#SVGID_26_);}
	.st50{fill:url(#SVGID_27_);}
</style>
<g>
	<rect class="st0" width="2000" height="2000"/>
	<g>
		<g>
			<path class="st1" d="M1125.4,1598.3c-18.4,0.2-36.9,1.6-55.5,4.5c-40.4,6.1-86,16.4-130.2,18.3c16.2,5.1,32.8,7.3,49.8,7.3
				C1034.6,1628.3,1081.7,1613.1,1125.4,1598.3 M154.5,1489.5c5.4,24.9,15.6,48.6,30.9,69.4c22.8,31.2,54.5,55,89.3,71.4
				c47.4,22.4,97.4,30.6,148.1,30.6c39.3,0,78.9-4.9,117.9-11.9c93.2-16.8,186.4-42.4,281.7-42.4c5.4,0,10.7,0.1,16.1,0.2
				c3.4,0.1,6.7,0.3,10.1,0.4c-5-2.1-9.8-4.5-14.6-7.2c-29.6-10.7-59.8-19.9-90.8-25.7c-41.2-7.7-82.7-10.1-124.4-10.1
				c-58.8,0-117.8,4.8-176.3,6.2c-7.8,0.2-15.6,0.3-23.4,0.3c-83.1,0-166.2-11.8-236.6-59.5C172.7,1504.6,163.3,1497.4,154.5,1489.5
				 M1761.8,883.2c-0.3,1.4-0.7,2.8-1,4.1c-11.2,49.6,1,100.2,15,147.8c14.5,49.2,29.1,98.1,37.5,148.8c15.9,96,13.8,198.7-25.6,289
				c-3.1,7.2-6.5,14.3-10.1,21.4c37.1-42,63.4-93.7,77.6-147.6c25.2-95.3,11.5-197.1-18.9-289.6c-16.1-48.8-38-94.9-59.8-141.3
				C1771.4,905.2,1766.4,894.3,1761.8,883.2 M237,372.6c-51.2,42-82.4,104.2-94.7,170.2c-28.5,153.5,40.8,298,69.9,446.5
				c32.7-189.5-59.7-386.3,6-573.2C223.4,401.3,229.7,386.6,237,372.6 M1582.1,282.7c-48.1,0-97,9.5-142.2,20.3
				c-101.2,24.3-199.5,59.3-300.5,84.5c-42.1,10.5-84.9,19.2-128,24.3c38,6.1,76.5,8.6,115.1,8.6c33.6,0,67.3-1.9,100.8-4.9
				c103.7-9.4,206.1-29,309.9-37.5c23.3-1.9,47.5-3.3,71.9-3.3c68.5,0,138.2,11.2,192.2,54.4c-15.9-46.2-45.5-87.5-87.9-113.3
				C1673.2,291.3,1628,282.7,1582.1,282.7"/>
			<path class="st1" d="M848.5,1607.3c24.1,10.3,50.4,14,77.5,14c4.5,0,9.1-0.1,13.7-0.3c-2.5-0.8-5-1.7-7.5-2.6
				C904.5,1613,876.6,1608.8,848.5,1607.3 M1777.6,1494.4c-16.7,19-35.7,35.9-56.7,50.2c-36,24.5-77.1,39.1-120.2,44.7
				c-16.5,2.1-33,3-49.6,3c-30.8,0-61.7-3.1-92.3-7.1c-49-6.3-97.7-15-147.1-17.8c-8.7-0.5-17.3-0.8-25.9-0.8
				c-40.8,0-80.5,5.7-120.1,18.2c-13,4.1-26.5,8.7-40.3,13.4c1.1,0,2.2,0,3.4,0c29.4,0,58.6,3.3,88,9.6
				c48.4,10.4,95.2,26.4,142.6,40.2c45.5,13.2,92,24.5,139.6,25.7c2.5,0.1,5,0.1,7.5,0.1c40.8,0,81.1-8.2,118.1-25.8
				C1691.2,1616.4,1744.1,1559.7,1777.6,1494.4 M212.2,989.4c-2.6,15.3-6.1,30.6-10.5,45.8c-27.4,94.4-97.2,173-113.9,271
				c-7,41-2,83.6,17.3,120.8c12.4,23.8,29.5,44.8,49.4,62.6c-3.4-15.5-4.9-31.4-4.7-47.3c1.4-99.4,58.3-187.7,71-285.2
				C228.2,1100.2,223,1044.5,212.2,989.4 M1801.2,429c9.3,27.1,14,56,13.7,84.5c-0.4,42.9-13.5,82.6-30.3,121.6
				c-19,44-42.4,88.4-45.7,137.1c-2.7,38.6,8.2,75.7,22.9,111.1c11.5-45.8,40.4-84.9,65.2-124.3c22.6-36,41.6-73.2,48.6-115.5
				c12.5-76-10-160.2-70.2-211C1804,431.3,1802.6,430.2,1801.2,429 M474.3,228.2c-29.6,0-59.1,3.8-87.7,12.7
				c-67.6,21-118,70.8-149.6,131.8c13.6-11.1,28.5-20.9,44.9-28.9c44.6-21.8,93.9-30.3,143.5-30.3c36.9,0,74,4.7,109.4,12.2
				c101,21.4,195.9,65.2,297.8,83.2c31.9,5.6,63.9,8.1,95.9,8.1c27.7,0,55.4-1.9,82.9-5.2c-30.6-4.9-60.9-12.1-90.6-22.3
				c-97.9-33.4-185-91.2-281.5-127.8C587.4,242,530.6,228.2,474.3,228.2"/>
			<path class="st2" d="M425.4,313.4c-49.6,0-98.9,8.5-143.5,30.3c-16.4,8-31.4,17.7-44.9,28.9c-7.3,14-13.6,28.6-18.8,43.6
				c-65.6,186.9,26.7,383.7-6,573.2c10.8,55.1,16,110.8,8.6,167.6c-12.7,97.5-69.6,185.8-71,285.2c-0.2,15.9,1.3,31.8,4.7,47.3
				c8.8,7.8,18.1,15.1,27.9,21.7c70.4,47.7,153.5,59.5,236.6,59.5c7.8,0,15.6-0.1,23.4-0.3c58.5-1.4,117.5-6.2,176.3-6.2
				c41.7,0,83.2,2.4,124.4,10.1c31,5.8,61.2,15,90.8,25.7c4.8,2.7,9.6,5.1,14.6,7.2c28.1,1.5,56,5.7,83.6,11.1c2.5,1,5,1.8,7.5,2.6
				c44.3-1.9,89.8-12.2,130.2-18.3c18.6-2.8,37.1-4.3,55.5-4.5c13.8-4.7,27.3-9.3,40.3-13.4c39.5-12.4,79.2-18.2,120.1-18.2
				c8.6,0,17.2,0.3,25.9,0.8c49.4,2.8,98.1,11.5,147.1,17.8c30.6,4,61.4,7.1,92.3,7.1c16.6,0,33.1-0.9,49.6-3
				c43-5.6,84.2-20.2,120.2-44.7c21-14.3,40-31.3,56.7-50.2c3.6-7,7-14.2,10.1-21.4c39.5-90.4,41.6-193,25.6-289
				c-8.4-50.7-23-99.6-37.5-148.8c-14-47.7-26.2-98.2-15-147.8c0.3-1.4,0.6-2.8,1-4.1c-14.7-35.4-25.5-72.5-22.9-111.1
				c3.3-48.7,26.7-93.1,45.7-137.1c16.9-39,29.9-78.7,30.3-121.6c0.2-28.5-4.4-57.3-13.7-84.5c-54-43.1-123.7-54.4-192.2-54.4
				c-24.4,0-48.6,1.4-71.9,3.3c-103.8,8.5-206.2,28-309.9,37.5c-33.5,3-67.2,4.9-100.8,4.9c-38.6,0-77.1-2.5-115.1-8.6
				c-27.6,3.3-55.2,5.2-82.9,5.2c-32,0-64-2.5-95.9-8.1c-101.8-18-196.8-61.8-297.8-83.2C499.4,318.1,462.3,313.4,425.4,313.4"/>
		</g>
		<g>
			<g>
				
					<linearGradient id="SVGID_1_" gradientUnits="userSpaceOnUse" x1="-198.9545" y1="2827.8398" x2="-6.9762" y2="3101.7673" gradientTransform="matrix(0.8532 -0.5217 0.5217 0.8532 -1189.9626 -1621.7891)">
					<stop  offset="0.2831" style="stop-color:#7E5BFF"/>
					<stop  offset="0.9313" style="stop-color:#FC70C7"/>
				</linearGradient>
				<path class="st3" d="M279.6,1051.3c-0.1,15.2-0.6,30.4,5.4,44.7c12.4,29.2,40.8,45.4,69.1,56.1c6.6,2.5,13.3,4.8,20.1,7
					c1.9,2.6,5.8,3.9,8.7,0.9c18.5-19.4,21.5-47.5,17.5-72.9c-4.9-31.1-20.7-59.2-26.3-90.1c-5.2-28.6-2.6-60.1-19.7-85.2
					c-14.9-21.8-39.2-33.5-59.5-49.3c-9.7-7.5-18.8-16.2-24.1-27.4c-5.8-12.4-5.8-29.3-20.2-35.6c-15.4-6.7-25.6,8.5-32.7,19.7
					c-7.5,11.9-14.7,24.2-18.8,37.7c-18.9,62.6,46.5,102.7,71.2,151.4C277.3,1022,279.7,1036.1,279.6,1051.3z"/>
				<path class="st4" d="M341.8,1098.9c-4.8-3.2-9.8-6-15.1-8.4c-6.6-3-12,6.9-5.3,9.9c9.9,4.5,18.7,10.4,26.6,17.7
					c10,29.8,22.3,58.7,40.7,84.5c16.5,23.1,37.3,43.1,62.8,56c6.5,3.3,11.8-6.7,5.3-9.9c-46-23.2-74.2-69.5-91.8-116.2
					c-1.8-4.7-3.5-9.4-5.1-14.1c0.6-1.8,0.4-3.9-1.4-5.7c-0.3-0.3-0.5-0.5-0.8-0.8c-5.3-16.1-10.1-32.5-14.8-48.9
					c0.4-0.6,0.7-1.2,0.8-2c6.3-30.6,8.1-61.9,5.3-93c-0.6-7.2-11.9-7-11.3,0.2c2.1,23.8,1.5,47.7-1.8,71.4
					c-7-23.3-14.8-46.3-25.1-68.5c-13.1-28.1-30.6-54.4-54.1-74.8c-5.5-4.7-13.2,3.5-7.7,8.2c15.5,13.5,28,29.3,38.4,46.5
					c-5.5-3.6-10.9-7.2-16.4-10.8c-6-4-11.4,5.9-5.3,9.9c11,7.3,22,14.6,33.1,21.9c12.1,25,20.9,51.9,28.7,78.4
					C332.3,1066.5,336.8,1082.8,341.8,1098.9z"/>
			</g>
			<g>
				
					<linearGradient id="SVGID_2_" gradientUnits="userSpaceOnUse" x1="-33.9344" y1="2463.709" x2="27.2808" y2="2903.5515" gradientTransform="matrix(0.9077 -0.4196 0.4196 0.9077 -894.6777 -1370.2479)">
					<stop  offset="0.2831" style="stop-color:#7E5BFF"/>
					<stop  offset="1" style="stop-color:#FC70C7"/>
				</linearGradient>
				<path class="st5" d="M155.5,1127c9.2,16.7,23.9,26.5,39.7,36.3c8,5,15.9,10.1,22.1,17.2c5.5,6.3,9.4,13.6,12.7,21.3
					c6.6,15.4,10.3,31.8,16.8,47.1c6.8,15.7,17.1,29.6,32.3,38.1c32.5,18.2,71.7,9.9,101.2-10.2c15.1-10.3,30.1-23.3,37.9-40.3
					c6.9-15.1,6-31.6-0.6-46.6c-15.4-34.7-52.6-48.1-85.4-61c-18.2-7.2-36.9-15.4-50.9-29.5c-6.8-6.8-12-14.6-15.4-23.5
					c-3.2-8.3-5.1-17.1-8-25.5c-2.9-8.6-6.5-16.9-12.4-24c-5.5-6.6-12.9-11.5-20.6-15.3c-16.1-7.9-33.9-12.2-47.1-25.1
					c-13.4-13.1-22-30.2-33.9-44.6c-9.6-11.6-27.7-29.5-44.5-22.2c-7.2,3.1-11.4,10.1-10.3,17.9c0.2,1.6,0.9,2.8,1.9,3.5
					c-5.3,30.7,16.7,60.3,31.2,86c9.3,16.4,14,33.6,18,52C143.8,1095.1,147.3,1112.1,155.5,1127z"/>
				<path class="st4" d="M235.5,1050.2c-2.5-7.2-14.2-4.7-11.7,2.6c8.9,26.3,14,53.6,15,81.3c-8.3-11.1-16.2-22.5-23.7-34.1
					c-18.6-28.9-35.2-59-51.6-89.2c-3.7-6.8-14.3-1.3-10.6,5.5c29,53.1,58.5,106.9,98.8,152.5c19.9,22.5,42.6,42,67.1,59.3
					c0.2,0.2,0.5,0.3,0.7,0.5c-12.7-0.8-25.5-1.7-38.2-2.5c-7.7-0.5-8.1,11.4-0.5,12c15.9,1.1,31.8,2.1,47.7,3.2
					c2.6,0.2,4.3-1,5.2-2.7c19.6,13.3,39.4,26.2,57.8,41.2c24.4,20,46.1,44,57.7,73.6c2.8,7.2,13.4,1.6,10.6-5.5
					c-21.4-54.5-72.6-87.5-119-119c-24.9-16.9-48.7-34.7-69.6-56.5c-7.2-7.5-14-15.2-20.6-23.2c0.1-0.5,0.2-1.1,0.2-1.7
					C251.3,1114.4,246.1,1081.5,235.5,1050.2z"/>
			</g>
			<g>
				
					<linearGradient id="SVGID_3_" gradientUnits="userSpaceOnUse" x1="-6962.2935" y1="-1644.949" x2="-6770.3154" y2="-1371.0215" gradientTransform="matrix(-0.8532 -0.5217 -0.5217 0.8532 -4884.0371 -1621.7891)">
					<stop  offset="0.2831" style="stop-color:#7E5BFF"/>
					<stop  offset="0.9313" style="stop-color:#FC70C7"/>
				</linearGradient>
				<path class="st6" d="M1749.8,763.5c0.1,15.2,0.6,30.4-5.4,44.7c-12.4,29.2-40.8,45.4-69.1,56.1c-6.6,2.5-13.3,4.8-20.1,7
					c-1.9,2.6-5.8,3.9-8.7,0.9c-18.5-19.4-21.5-47.5-17.5-72.9c4.9-31.1,20.7-59.2,26.3-90.1c5.2-28.6,2.6-60.1,19.7-85.2
					c14.9-21.8,39.2-33.5,59.5-49.3c9.7-7.5,18.8-16.2,24.1-27.4c5.8-12.4,5.8-29.3,20.2-35.6c15.4-6.7,25.6,8.5,32.7,19.7
					c7.5,11.9,14.7,24.2,18.8,37.7c18.9,62.6-46.5,102.7-71.2,151.4C1752.2,734.2,1749.7,748.3,1749.8,763.5z"/>
				<path class="st4" d="M1687.6,811.1c4.8-3.2,9.8-6,15.1-8.4c6.6-3,12,6.9,5.3,9.9c-9.9,4.5-18.7,10.4-26.6,17.7
					c-10,29.8-22.3,58.7-40.7,84.5c-16.5,23.1-37.3,43.1-62.8,56c-6.5,3.3-11.8-6.7-5.3-9.9c46-23.2,74.2-69.5,91.8-116.2
					c1.8-4.7,3.5-9.4,5.1-14.1c-0.6-1.8-0.4-3.9,1.4-5.7c0.3-0.3,0.5-0.5,0.8-0.8c5.3-16.1,10.1-32.5,14.8-48.9
					c-0.4-0.6-0.7-1.2-0.8-2c-6.3-30.6-8.1-61.9-5.3-93c0.6-7.2,11.9-7,11.3,0.2c-2.1,23.8-1.5,47.7,1.8,71.4
					c7-23.3,14.8-46.3,25.1-68.5c13.1-28.1,30.6-54.4,54.1-74.8c5.5-4.7,13.2,3.5,7.7,8.2c-15.5,13.5-28,29.3-38.4,46.5
					c5.5-3.6,10.9-7.2,16.4-10.8c6-4,11.4,5.9,5.3,9.9c-11,7.3-22,14.6-33.1,21.9c-12.1,25-20.9,51.9-28.7,78.4
					C1697.2,778.7,1692.6,795,1687.6,811.1z"/>
			</g>
			<g>
				
					<linearGradient id="SVGID_4_" gradientUnits="userSpaceOnUse" x1="-7252.4209" y1="-1172.8613" x2="-7191.2061" y2="-733.0189" gradientTransform="matrix(-0.9077 -0.4196 -0.4196 0.9077 -5179.3223 -1370.2479)">
					<stop  offset="0.2831" style="stop-color:#7E5BFF"/>
					<stop  offset="1" style="stop-color:#FC70C7"/>
				</linearGradient>
				<path class="st7" d="M1848.7,854.7c-9.2,16.7-23.9,26.5-39.7,36.3c-8,5-15.9,10.1-22.1,17.2c-5.5,6.3-9.4,13.6-12.7,21.3
					c-6.6,15.4-10.3,31.8-16.8,47.1c-6.8,15.7-17.1,29.6-32.3,38.1c-32.5,18.2-71.7,9.9-101.2-10.2c-15.1-10.3-30.1-23.3-37.9-40.3
					c-6.9-15.1-6-31.6,0.6-46.6c15.4-34.7,52.6-48.1,85.4-61c18.2-7.2,36.9-15.4,50.9-29.5c6.8-6.8,12-14.6,15.4-23.5
					c3.2-8.3,5.1-17.1,8-25.5c2.9-8.6,6.5-16.9,12.4-24c5.5-6.6,12.9-11.5,20.6-15.3c16.1-7.9,33.9-12.2,47.1-25.1
					c13.4-13.1,22-30.2,33.9-44.6c9.6-11.6,27.7-29.5,44.5-22.2c7.2,3.1,11.4,10.1,10.3,17.9c-0.2,1.6-0.9,2.8-1.9,3.5
					c5.3,30.7-16.7,60.3-31.2,86c-9.3,16.4-14,33.6-18,52C1860.4,822.8,1856.9,839.8,1848.7,854.7z"/>
				<path class="st4" d="M1768.7,777.9c2.5-7.2,14.2-4.7,11.7,2.6c-8.9,26.3-14,53.6-15,81.3c8.3-11.1,16.2-22.5,23.7-34.1
					c18.6-28.9,35.2-59,51.6-89.2c3.7-6.8,14.3-1.3,10.6,5.5c-29,53.1-58.5,106.9-98.8,152.5c-19.9,22.5-42.6,42-67.1,59.3
					c-0.2,0.2-0.5,0.3-0.7,0.5c12.7-0.8,25.5-1.7,38.2-2.5c7.7-0.5,8.1,11.4,0.5,12c-15.9,1.1-31.8,2.1-47.7,3.2
					c-2.6,0.2-4.3-1-5.2-2.7c-19.6,13.3-39.4,26.2-57.8,41.2c-24.4,20-46.1,44-57.7,73.6c-2.8,7.2-13.4,1.6-10.6-5.5
					c21.4-54.5,72.6-87.5,119-119c24.9-16.9,48.7-34.7,69.6-56.5c7.2-7.5,14-15.2,20.6-23.2c-0.1-0.5-0.2-1.1-0.2-1.7
					C1752.9,842.1,1758,809.2,1768.7,777.9z"/>
			</g>
			<g>
				<path class="st0" d="M1625.6,527.7H396.5c-16.2,0-29.3,13.1-29.3,29.3v814.6c0,16.2,13.1,29.3,29.3,29.3h1229.2
					c16.2,0,29.3-13.1,29.3-29.3V557C1655,540.8,1641.8,527.7,1625.6,527.7z"/>
				<rect x="1002.5" y="1008.3" class="st8" width="489.1" height="291.5"/>
				<rect x="474.4" y="696" class="st9" width="489.1" height="291.5"/>
				<path class="st10" d="M1522.3,1117.2h-233.5c-11.5,0-20.8-9.3-20.8-20.8V717.7c0-11.5,9.3-20.8,20.8-20.8h233.5
					c11.5,0,20.8,9.3,20.8,20.8v378.8C1543.1,1107.9,1533.8,1117.2,1522.3,1117.2z"/>
				<path class="st11" d="M1507.3,721.5h-201.2c-8.7,0-15.8,7.1-15.8,15.8v139c0,8.7,7.1,15.8,15.8,15.8h201.2
					c8.7,0,15.8-7.1,15.8-15.8v-139C1523.1,728.5,1516,721.5,1507.3,721.5z"/>
				<g>
					<path class="st12" d="M1507.3,923.7h-201.2c-8.7,0-15.8,7.1-15.8,15.8v139c0,8.7,7.1,15.8,15.8,15.8h201.2
						c8.7,0,15.8-7.1,15.8-15.8v-139C1523.1,930.8,1516,923.7,1507.3,923.7z"/>
					<g>
						<rect x="1317" y="964.3" class="st13" width="25.5" height="25.5"/>
						<rect x="1355.5" y="964.3" class="st14" width="25.5" height="25.5"/>
						<rect x="1393.9" y="964.3" class="st13" width="25.5" height="25.5"/>
						<rect x="1432.4" y="964.3" class="st14" width="25.5" height="25.5"/>
						<rect x="1470.8" y="964.3" class="st13" width="25.5" height="25.5"/>
					</g>
					<path class="st15" d="M1507.3,923.7h-201.2c-8.7,0-15.8,7.1-15.8,15.8v4.7h232.7v-4.7C1523.1,930.8,1516,923.7,1507.3,923.7z"
						/>
				</g>
				<g>
					<path class="st10" d="M520.4,649.5h-82.3c-7,0-12.7,5.7-12.7,12.7v346.3c0,7,5.7,12.7,12.7,12.7h82.3c7,0,12.7-5.7,12.7-12.7
						V662.3C533.1,655.2,527.4,649.5,520.4,649.5z"/>
					<path class="st16" d="M519.8,649.5h-81.2c-7.3,0-13.3,5.9-13.3,13.3v15.7h107.7v-15.7C533.1,655.5,527.1,649.5,519.8,649.5z"/>
					<rect x="436" y="692.7" class="st17" width="37.6" height="37.6"/>
					<rect x="482.5" y="735.8" class="st17" width="37.6" height="37.6"/>
					<rect x="436" y="774.4" class="st17" width="37.6" height="37.6"/>
					<rect x="482.5" y="817.6" class="st17" width="37.6" height="37.6"/>
					<rect x="436" y="856.2" class="st17" width="37.6" height="37.6"/>
					<rect x="482.5" y="899.4" class="st17" width="37.6" height="37.6"/>
				</g>
				<g>
					<path class="st10" d="M1217.5,1239.5H785.3c-5.7,0-10.3,4.6-10.3,10.3v69c0,5.7,4.6,10.3,10.3,10.3h432.2
						c5.7,0,10.3-4.6,10.3-10.3v-69C1227.8,1244.2,1223.2,1239.5,1217.5,1239.5z"/>
					<linearGradient id="SVGID_5_" gradientUnits="userSpaceOnUse" x1="878.0933" y1="1401.5492" x2="1136.3167" y2="1171.6144">
						<stop  offset="0" style="stop-color:#FC70C7"/>
						<stop  offset="0.4916" style="stop-color:#B92BF1"/>
						<stop  offset="1" style="stop-color:#7E5BFF"/>
					</linearGradient>
					<rect x="791.5" y="1268.8" class="st18" width="431.3" height="35.5"/>
					<path class="st16" d="M1217.4,1239.5H785.3c-5.8,0-10.4,4.7-10.4,10.4v4.9h452.9v-4.9
						C1227.8,1244.2,1223.2,1239.5,1217.4,1239.5z"/>
					<g>
						<polygon class="st19" points="791.5,1304.4 786.5,1313.9 791.5,1313.9 796.6,1313.9 						"/>
						<polygon class="st19" points="871.7,1304.4 866.6,1313.9 871.7,1313.9 876.7,1313.9 						"/>
						<polygon class="st19" points="984.9,1304.4 979.9,1313.9 984.9,1313.9 990,1313.9 						"/>
						<polygon class="st19" points="1222.9,1304.4 1217.8,1313.9 1222.9,1313.9 1227.9,1313.9 						"/>
					</g>
					<rect x="800.4" y="1268.8" class="st19" width="1.4" height="35.5"/>
					<rect x="813.1" y="1268.8" class="st19" width="1.4" height="35.5"/>
					<rect x="820.1" y="1268.8" class="st19" width="1.4" height="35.5"/>
					<rect x="824.6" y="1268.8" class="st19" width="1.4" height="35.5"/>
					<rect x="871" y="1268.8" class="st19" width="1.4" height="35.5"/>
					<rect x="984.2" y="1268.8" class="st19" width="1.4" height="35.5"/>
					<rect x="994.7" y="1268.8" class="st19" width="1.4" height="35.5"/>
					<rect x="1000.4" y="1268.8" class="st19" width="1.4" height="35.5"/>
					<rect x="1096.4" y="1268.8" class="st19" width="1.4" height="35.5"/>
					<rect x="1088" y="1268.8" class="st19" width="1.4" height="35.5"/>
					<rect x="1083.2" y="1268.8" class="st19" width="1.4" height="35.5"/>
					<rect x="1103.4" y="1268.8" class="st19" width="1.4" height="35.5"/>
				</g>
				<g>
					<path class="st10" d="M1210.9,722.4H661.8c-4.9,0-8.8-3.9-8.8-8.8v-70.1c0-4.9,3.9-8.8,8.8-8.8h549.1c4.9,0,8.8,3.9,8.8,8.8
						v70.1C1219.7,718.5,1215.7,722.4,1210.9,722.4z"/>
					<g>
						<circle class="st11" cx="730.7" cy="678.5" r="29.3"/>
						<circle class="st12" cx="812.9" cy="678.5" r="29.3"/>
						<circle class="st4" cx="895.2" cy="678.5" r="29.3"/>
						<circle class="st20" cx="977.5" cy="678.5" r="29.3"/>
						<circle class="st21" cx="1059.7" cy="678.5" r="29.3"/>
						<circle class="st22" cx="1142" cy="678.5" r="29.3"/>
					</g>
					<polygon class="st23" points="665.6,678.5 678,686.5 678,678.5 678,670.5 					"/>
					<polygon class="st23" points="1201.5,678.5 1189,670.5 1189,678.5 1189,686.5 					"/>
				</g>
				<path class="st4" d="M1625.1,527.4H397c-16.5,0-29.8,13.4-29.8,29.8v38H1655v-38C1655,540.8,1641.6,527.4,1625.1,527.4z"/>
				<circle class="st0" cx="1509.6" cy="561.3" r="9.8"/>
				<circle class="st11" cx="1549.4" cy="561.3" r="9.8"/>
				<circle class="st21" cx="1589.2" cy="561.3" r="9.8"/>
				<g>
					<g>
						<path class="st21" d="M1169.6,1104.9h-466c-6.7,0-12.1-5.4-12.1-12.1v-291c0-6.7,5.4-12.1,12.1-12.1h466
							c6.7,0,12.1,5.4,12.1,12.1v291C1181.7,1099.5,1176.3,1104.9,1169.6,1104.9z"/>
						<path class="st20" d="M1042.7,896.6l-102,107.5c-7.6,8-19.7,9.5-29,3.6l-101.2-64.3c-11.4-7.2-26.2-5.7-35.9,3.6l-83.1,79.9
							v61.1c0,9.3,7.6,16.9,16.9,16.9h456.4c9.3,0,16.9-7.6,16.9-16.9V951.6l-103-60.1C1067,884.7,1052.1,886.8,1042.7,896.6z"/>
						<circle class="st4" cx="754.1" cy="849" r="33.3"/>
					</g>
					<g>
						<g>
							<path class="st4" d="M1205.1,1131.1h-6c-0.3,0-0.5-0.2-0.5-0.5s0.2-0.5,0.5-0.5h5.5v-5.5c0-0.3,0.2-0.5,0.5-0.5
								s0.5,0.2,0.5,0.5v6C1205.6,1130.8,1205.4,1131.1,1205.1,1131.1z"/>
							<path class="st4" d="M1186.9,1131.1h-12.2c-0.3,0-0.5-0.2-0.5-0.5s0.2-0.5,0.5-0.5h12.2c0.3,0,0.5,0.2,0.5,0.5
								S1187.2,1131.1,1186.9,1131.1z M1162.5,1131.1h-12.2c-0.3,0-0.5-0.2-0.5-0.5s0.2-0.5,0.5-0.5h12.2c0.3,0,0.5,0.2,0.5,0.5
								S1162.8,1131.1,1162.5,1131.1z M1138.1,1131.1h-12.2c-0.3,0-0.5-0.2-0.5-0.5s0.2-0.5,0.5-0.5h12.2c0.3,0,0.5,0.2,0.5,0.5
								S1138.3,1131.1,1138.1,1131.1z M1113.6,1131.1h-12.2c-0.3,0-0.5-0.2-0.5-0.5s0.2-0.5,0.5-0.5h12.2c0.3,0,0.5,0.2,0.5,0.5
								S1113.9,1131.1,1113.6,1131.1z M1089.2,1131.1H1077c-0.3,0-0.5-0.2-0.5-0.5s0.2-0.5,0.5-0.5h12.2c0.3,0,0.5,0.2,0.5,0.5
								S1089.5,1131.1,1089.2,1131.1z M1064.8,1131.1h-12.2c-0.3,0-0.5-0.2-0.5-0.5s0.2-0.5,0.5-0.5h12.2c0.3,0,0.5,0.2,0.5,0.5
								S1065.1,1131.1,1064.8,1131.1z M1040.4,1131.1h-12.2c-0.3,0-0.5-0.2-0.5-0.5s0.2-0.5,0.5-0.5h12.2c0.3,0,0.5,0.2,0.5,0.5
								S1040.7,1131.1,1040.4,1131.1z M1016,1131.1h-12.2c-0.3,0-0.5-0.2-0.5-0.5s0.2-0.5,0.5-0.5h12.2c0.3,0,0.5,0.2,0.5,0.5
								S1016.2,1131.1,1016,1131.1z M991.5,1131.1h-12.2c-0.3,0-0.5-0.2-0.5-0.5s0.2-0.5,0.5-0.5h12.2c0.3,0,0.5,0.2,0.5,0.5
								S991.8,1131.1,991.5,1131.1z M967.1,1131.1h-12.2c-0.3,0-0.5-0.2-0.5-0.5s0.2-0.5,0.5-0.5h12.2c0.3,0,0.5,0.2,0.5,0.5
								S967.4,1131.1,967.1,1131.1z M942.7,1131.1h-12.2c-0.3,0-0.5-0.2-0.5-0.5s0.2-0.5,0.5-0.5h12.2c0.3,0,0.5,0.2,0.5,0.5
								S943,1131.1,942.7,1131.1z M918.3,1131.1H906c-0.3,0-0.5-0.2-0.5-0.5s0.2-0.5,0.5-0.5h12.2c0.3,0,0.5,0.2,0.5,0.5
								S918.5,1131.1,918.3,1131.1z M893.8,1131.1h-12.2c-0.3,0-0.5-0.2-0.5-0.5s0.2-0.5,0.5-0.5h12.2c0.3,0,0.5,0.2,0.5,0.5
								S894.1,1131.1,893.8,1131.1z M869.4,1131.1h-12.2c-0.3,0-0.5-0.2-0.5-0.5s0.2-0.5,0.5-0.5h12.2c0.3,0,0.5,0.2,0.5,0.5
								S869.7,1131.1,869.4,1131.1z M845,1131.1h-12.2c-0.3,0-0.5-0.2-0.5-0.5s0.2-0.5,0.5-0.5H845c0.3,0,0.5,0.2,0.5,0.5
								S845.3,1131.1,845,1131.1z M820.6,1131.1h-12.2c-0.3,0-0.5-0.2-0.5-0.5s0.2-0.5,0.5-0.5h12.2c0.3,0,0.5,0.2,0.5,0.5
								S820.8,1131.1,820.6,1131.1z M796.1,1131.1h-12.2c-0.3,0-0.5-0.2-0.5-0.5s0.2-0.5,0.5-0.5h12.2c0.3,0,0.5,0.2,0.5,0.5
								S796.4,1131.1,796.1,1131.1z M771.7,1131.1h-12.2c-0.3,0-0.5-0.2-0.5-0.5s0.2-0.5,0.5-0.5h12.2c0.3,0,0.5,0.2,0.5,0.5
								S772,1131.1,771.7,1131.1z M747.3,1131.1h-12.2c-0.3,0-0.5-0.2-0.5-0.5s0.2-0.5,0.5-0.5h12.2c0.3,0,0.5,0.2,0.5,0.5
								S747.6,1131.1,747.3,1131.1z M722.9,1131.1h-12.2c-0.3,0-0.5-0.2-0.5-0.5s0.2-0.5,0.5-0.5h12.2c0.3,0,0.5,0.2,0.5,0.5
								S723.1,1131.1,722.9,1131.1z M698.4,1131.1h-12.2c-0.3,0-0.5-0.2-0.5-0.5s0.2-0.5,0.5-0.5h12.2c0.3,0,0.5,0.2,0.5,0.5
								S698.7,1131.1,698.4,1131.1z"/>
							<path class="st4" d="M674,1131.1h-6c-0.3,0-0.5-0.2-0.5-0.5v-6c0-0.3,0.2-0.5,0.5-0.5s0.5,0.2,0.5,0.5v5.5h5.5
								c0.3,0,0.5,0.2,0.5,0.5S674.3,1131.1,674,1131.1z"/>
							<path class="st4" d="M668,1112.8c-0.3,0-0.5-0.2-0.5-0.5v-12.2c0-0.3,0.2-0.5,0.5-0.5s0.5,0.2,0.5,0.5v12.2
								C668.5,1112.6,668.3,1112.8,668,1112.8z M668,1088.4c-0.3,0-0.5-0.2-0.5-0.5v-12.2c0-0.3,0.2-0.5,0.5-0.5s0.5,0.2,0.5,0.5
								v12.2C668.5,1088.2,668.3,1088.4,668,1088.4z M668,1063.9c-0.3,0-0.5-0.2-0.5-0.5v-12.2c0-0.3,0.2-0.5,0.5-0.5
								s0.5,0.2,0.5,0.5v12.2C668.5,1063.7,668.3,1063.9,668,1063.9z M668,1039.5c-0.3,0-0.5-0.2-0.5-0.5v-12.2
								c0-0.3,0.2-0.5,0.5-0.5s0.5,0.2,0.5,0.5v12.2C668.5,1039.3,668.3,1039.5,668,1039.5z M668,1015c-0.3,0-0.5-0.2-0.5-0.5v-12.2
								c0-0.3,0.2-0.5,0.5-0.5s0.5,0.2,0.5,0.5v12.2C668.5,1014.8,668.3,1015,668,1015z M668,990.6c-0.3,0-0.5-0.2-0.5-0.5v-12.2
								c0-0.3,0.2-0.5,0.5-0.5s0.5,0.2,0.5,0.5v12.2C668.5,990.4,668.3,990.6,668,990.6z M668,966.1c-0.3,0-0.5-0.2-0.5-0.5v-12.2
								c0-0.3,0.2-0.5,0.5-0.5s0.5,0.2,0.5,0.5v12.2C668.5,965.9,668.3,966.1,668,966.1z M668,941.7c-0.3,0-0.5-0.2-0.5-0.5V929
								c0-0.3,0.2-0.5,0.5-0.5s0.5,0.2,0.5,0.5v12.2C668.5,941.5,668.3,941.7,668,941.7z M668,917.2c-0.3,0-0.5-0.2-0.5-0.5v-12.2
								c0-0.3,0.2-0.5,0.5-0.5s0.5,0.2,0.5,0.5v12.2C668.5,917,668.3,917.2,668,917.2z M668,892.8c-0.3,0-0.5-0.2-0.5-0.5v-12.2
								c0-0.3,0.2-0.5,0.5-0.5s0.5,0.2,0.5,0.5v12.2C668.5,892.6,668.3,892.8,668,892.8z M668,868.3c-0.3,0-0.5-0.2-0.5-0.5v-12.2
								c0-0.3,0.2-0.5,0.5-0.5s0.5,0.2,0.5,0.5v12.2C668.5,868.1,668.3,868.3,668,868.3z M668,843.9c-0.3,0-0.5-0.2-0.5-0.5v-12.2
								c0-0.3,0.2-0.5,0.5-0.5s0.5,0.2,0.5,0.5v12.2C668.5,843.7,668.3,843.9,668,843.9z M668,819.4c-0.3,0-0.5-0.2-0.5-0.5v-12.2
								c0-0.3,0.2-0.5,0.5-0.5s0.5,0.2,0.5,0.5v12.2C668.5,819.2,668.3,819.4,668,819.4z M668,795c-0.3,0-0.5-0.2-0.5-0.5v-12.2
								c0-0.3,0.2-0.5,0.5-0.5s0.5,0.2,0.5,0.5v12.2C668.5,794.8,668.3,795,668,795z"/>
							<path class="st4" d="M668,770.5c-0.3,0-0.5-0.2-0.5-0.5v-6c0-0.3,0.2-0.5,0.5-0.5h6c0.3,0,0.5,0.2,0.5,0.5s-0.2,0.5-0.5,0.5
								h-5.5v5.5C668.5,770.3,668.3,770.5,668,770.5z"/>
							<path class="st4" d="M1186.9,764.5h-12.2c-0.3,0-0.5-0.2-0.5-0.5s0.2-0.5,0.5-0.5h12.2c0.3,0,0.5,0.2,0.5,0.5
								S1187.2,764.5,1186.9,764.5z M1162.5,764.5h-12.2c-0.3,0-0.5-0.2-0.5-0.5s0.2-0.5,0.5-0.5h12.2c0.3,0,0.5,0.2,0.5,0.5
								S1162.8,764.5,1162.5,764.5z M1138.1,764.5h-12.2c-0.3,0-0.5-0.2-0.5-0.5s0.2-0.5,0.5-0.5h12.2c0.3,0,0.5,0.2,0.5,0.5
								S1138.3,764.5,1138.1,764.5z M1113.6,764.5h-12.2c-0.3,0-0.5-0.2-0.5-0.5s0.2-0.5,0.5-0.5h12.2c0.3,0,0.5,0.2,0.5,0.5
								S1113.9,764.5,1113.6,764.5z M1089.2,764.5H1077c-0.3,0-0.5-0.2-0.5-0.5s0.2-0.5,0.5-0.5h12.2c0.3,0,0.5,0.2,0.5,0.5
								S1089.5,764.5,1089.2,764.5z M1064.8,764.5h-12.2c-0.3,0-0.5-0.2-0.5-0.5s0.2-0.5,0.5-0.5h12.2c0.3,0,0.5,0.2,0.5,0.5
								S1065.1,764.5,1064.8,764.5z M1040.4,764.5h-12.2c-0.3,0-0.5-0.2-0.5-0.5s0.2-0.5,0.5-0.5h12.2c0.3,0,0.5,0.2,0.5,0.5
								S1040.7,764.5,1040.4,764.5z M1016,764.5h-12.2c-0.3,0-0.5-0.2-0.5-0.5s0.2-0.5,0.5-0.5h12.2c0.3,0,0.5,0.2,0.5,0.5
								S1016.2,764.5,1016,764.5z M991.5,764.5h-12.2c-0.3,0-0.5-0.2-0.5-0.5s0.2-0.5,0.5-0.5h12.2c0.3,0,0.5,0.2,0.5,0.5
								S991.8,764.5,991.5,764.5z M967.1,764.5h-12.2c-0.3,0-0.5-0.2-0.5-0.5s0.2-0.5,0.5-0.5h12.2c0.3,0,0.5,0.2,0.5,0.5
								S967.4,764.5,967.1,764.5z M942.7,764.5h-12.2c-0.3,0-0.5-0.2-0.5-0.5s0.2-0.5,0.5-0.5h12.2c0.3,0,0.5,0.2,0.5,0.5
								S943,764.5,942.7,764.5z M918.3,764.5H906c-0.3,0-0.5-0.2-0.5-0.5s0.2-0.5,0.5-0.5h12.2c0.3,0,0.5,0.2,0.5,0.5
								S918.5,764.5,918.3,764.5z M893.8,764.5h-12.2c-0.3,0-0.5-0.2-0.5-0.5s0.2-0.5,0.5-0.5h12.2c0.3,0,0.5,0.2,0.5,0.5
								S894.1,764.5,893.8,764.5z M869.4,764.5h-12.2c-0.3,0-0.5-0.2-0.5-0.5s0.2-0.5,0.5-0.5h12.2c0.3,0,0.5,0.2,0.5,0.5
								S869.7,764.5,869.4,764.5z M845,764.5h-12.2c-0.3,0-0.5-0.2-0.5-0.5s0.2-0.5,0.5-0.5H845c0.3,0,0.5,0.2,0.5,0.5
								S845.3,764.5,845,764.5z M820.6,764.5h-12.2c-0.3,0-0.5-0.2-0.5-0.5s0.2-0.5,0.5-0.5h12.2c0.3,0,0.5,0.2,0.5,0.5
								S820.8,764.5,820.6,764.5z M796.1,764.5h-12.2c-0.3,0-0.5-0.2-0.5-0.5s0.2-0.5,0.5-0.5h12.2c0.3,0,0.5,0.2,0.5,0.5
								S796.4,764.5,796.1,764.5z M771.7,764.5h-12.2c-0.3,0-0.5-0.2-0.5-0.5s0.2-0.5,0.5-0.5h12.2c0.3,0,0.5,0.2,0.5,0.5
								S772,764.5,771.7,764.5z M747.3,764.5h-12.2c-0.3,0-0.5-0.2-0.5-0.5s0.2-0.5,0.5-0.5h12.2c0.3,0,0.5,0.2,0.5,0.5
								S747.6,764.5,747.3,764.5z M722.9,764.5h-12.2c-0.3,0-0.5-0.2-0.5-0.5s0.2-0.5,0.5-0.5h12.2c0.3,0,0.5,0.2,0.5,0.5
								S723.1,764.5,722.9,764.5z M698.4,764.5h-12.2c-0.3,0-0.5-0.2-0.5-0.5s0.2-0.5,0.5-0.5h12.2c0.3,0,0.5,0.2,0.5,0.5
								S698.7,764.5,698.4,764.5z"/>
							<path class="st4" d="M1205.1,770.5c-0.3,0-0.5-0.2-0.5-0.5v-5.5h-5.5c-0.3,0-0.5-0.2-0.5-0.5s0.2-0.5,0.5-0.5h6
								c0.3,0,0.5,0.2,0.5,0.5v6C1205.6,770.3,1205.4,770.5,1205.1,770.5z"/>
							<path class="st4" d="M1205.1,1112.8c-0.3,0-0.5-0.2-0.5-0.5v-12.2c0-0.3,0.2-0.5,0.5-0.5s0.5,0.2,0.5,0.5v12.2
								C1205.6,1112.6,1205.4,1112.8,1205.1,1112.8z M1205.1,1088.4c-0.3,0-0.5-0.2-0.5-0.5v-12.2c0-0.3,0.2-0.5,0.5-0.5
								s0.5,0.2,0.5,0.5v12.2C1205.6,1088.2,1205.4,1088.4,1205.1,1088.4z M1205.1,1063.9c-0.3,0-0.5-0.2-0.5-0.5v-12.2
								c0-0.3,0.2-0.5,0.5-0.5s0.5,0.2,0.5,0.5v12.2C1205.6,1063.7,1205.4,1063.9,1205.1,1063.9z M1205.1,1039.5
								c-0.3,0-0.5-0.2-0.5-0.5v-12.2c0-0.3,0.2-0.5,0.5-0.5s0.5,0.2,0.5,0.5v12.2C1205.6,1039.3,1205.4,1039.5,1205.1,1039.5z
								 M1205.1,1015c-0.3,0-0.5-0.2-0.5-0.5v-12.2c0-0.3,0.2-0.5,0.5-0.5s0.5,0.2,0.5,0.5v12.2
								C1205.6,1014.8,1205.4,1015,1205.1,1015z M1205.1,990.6c-0.3,0-0.5-0.2-0.5-0.5v-12.2c0-0.3,0.2-0.5,0.5-0.5s0.5,0.2,0.5,0.5
								v12.2C1205.6,990.4,1205.4,990.6,1205.1,990.6z M1205.1,966.1c-0.3,0-0.5-0.2-0.5-0.5v-12.2c0-0.3,0.2-0.5,0.5-0.5
								s0.5,0.2,0.5,0.5v12.2C1205.6,965.9,1205.4,966.1,1205.1,966.1z M1205.1,941.7c-0.3,0-0.5-0.2-0.5-0.5V929
								c0-0.3,0.2-0.5,0.5-0.5s0.5,0.2,0.5,0.5v12.2C1205.6,941.5,1205.4,941.7,1205.1,941.7z M1205.1,917.2c-0.3,0-0.5-0.2-0.5-0.5
								v-12.2c0-0.3,0.2-0.5,0.5-0.5s0.5,0.2,0.5,0.5v12.2C1205.6,917,1205.4,917.2,1205.1,917.2z M1205.1,892.8
								c-0.3,0-0.5-0.2-0.5-0.5v-12.2c0-0.3,0.2-0.5,0.5-0.5s0.5,0.2,0.5,0.5v12.2C1205.6,892.6,1205.4,892.8,1205.1,892.8z
								 M1205.1,868.3c-0.3,0-0.5-0.2-0.5-0.5v-12.2c0-0.3,0.2-0.5,0.5-0.5s0.5,0.2,0.5,0.5v12.2
								C1205.6,868.1,1205.4,868.3,1205.1,868.3z M1205.1,843.9c-0.3,0-0.5-0.2-0.5-0.5v-12.2c0-0.3,0.2-0.5,0.5-0.5
								s0.5,0.2,0.5,0.5v12.2C1205.6,843.7,1205.4,843.9,1205.1,843.9z M1205.1,819.4c-0.3,0-0.5-0.2-0.5-0.5v-12.2
								c0-0.3,0.2-0.5,0.5-0.5s0.5,0.2,0.5,0.5v12.2C1205.6,819.2,1205.4,819.4,1205.1,819.4z M1205.1,795c-0.3,0-0.5-0.2-0.5-0.5
								v-12.2c0-0.3,0.2-0.5,0.5-0.5s0.5,0.2,0.5,0.5v12.2C1205.6,794.8,1205.4,795,1205.1,795z"/>
						</g>
						<rect x="660.6" y="754.6" class="st4" width="18.8" height="18.8"/>
						<rect x="660.6" y="1121.2" class="st4" width="18.8" height="18.8"/>
						<rect x="1193.3" y="754.6" class="st4" width="18.8" height="18.8"/>
						<rect x="660.6" y="937.9" class="st4" width="18.8" height="18.8"/>
						<rect x="1193.3" y="937.9" class="st4" width="18.8" height="18.8"/>
						<rect x="1193.3" y="1121.2" class="st4" width="18.8" height="18.8"/>
						<g>
							<rect x="927.2" y="754.6" class="st4" width="18.8" height="18.8"/>
							<rect x="927.2" y="1121.2" class="st4" width="18.8" height="18.8"/>
						</g>
					</g>
				</g>
				<g>
					<path class="st10" d="M1176,1163.8H694.3c-2.4,0-4.3,1.9-4.3,4.3v38.7c0,2.4,1.9,4.3,4.3,4.3H1176c2.4,0,4.3-1.9,4.3-4.3v-38.7
						C1180.3,1165.8,1178.4,1163.8,1176,1163.8z"/>
					<linearGradient id="SVGID_6_" gradientUnits="userSpaceOnUse" x1="944.5763" y1="1244.7238" x2="923.4703" y2="1139.9736">
						<stop  offset="0" style="stop-color:#51F2ED"/>
						<stop  offset="0.4916" style="stop-color:#7E5BFF"/>
						<stop  offset="1" style="stop-color:#303075"/>
					</linearGradient>
					<rect x="699" y="1185.2" class="st24" width="470.1" height="14.3"/>
					<path class="st16" d="M1176.2,1163.8H694.1c-2.3,0-4.1,1.8-4.1,4.1v8.2h490.3v-8.2C1180.3,1165.7,1178.5,1163.8,1176.2,1163.8z
						"/>
				</g>
				<g>
					<circle class="st21" cx="1654.3" cy="1017.4" r="62.8"/>
					<g>
						<path class="st0" d="M1700.7,1011.9l-15-1.5c-0.8-3.7-2.3-7.2-4.3-10.3l9.6-11.7c0.4-0.4,0.3-1.1-0.1-1.5l-3.1-3.1l-3.1-3.1
							c-0.4-0.4-1-0.4-1.5-0.1l-11.7,9.6c-3.1-2-6.6-3.4-10.3-4.3l-1.5-15c-0.1-0.6-0.5-1-1.1-1h-4.4h-4.4c-0.6,0-1,0.4-1.1,1
							l-1.5,15c-3.7,0.8-7.2,2.3-10.3,4.3l-11.7-9.6c-0.4-0.4-1.1-0.3-1.5,0.1l-3.1,3.1l-3.1,3.1c-0.4,0.4-0.4,1-0.1,1.5l9.6,11.7
							c-2,3.1-3.4,6.6-4.3,10.3l-15,1.5c-0.6,0.1-1,0.5-1,1.1v4.4v4.4c0,0.6,0.4,1,1,1.1l15,1.5c0.8,3.7,2.3,7.2,4.3,10.3l-9.6,11.7
							c-0.4,0.4-0.3,1.1,0.1,1.5l3.1,3.1l3.1,3.1c0.4,0.4,1,0.4,1.5,0.1l11.7-9.6c3.1,2,6.6,3.4,10.3,4.3l1.5,15
							c0.1,0.6,0.5,1,1.1,1h4.4h4.4c0.6,0,1-0.4,1.1-1l1.5-15c3.7-0.8,7.2-2.3,10.3-4.3l11.7,9.6c0.4,0.4,1.1,0.3,1.5-0.1l3.1-3.1
							l3.1-3.1c0.4-0.4,0.4-1,0.1-1.5l-9.6-11.7c2-3.1,3.4-6.6,4.3-10.3l15-1.5c0.6-0.1,1-0.5,1-1.1v-4.4v-4.4
							C1701.7,1012.4,1701.2,1012,1700.7,1011.9z M1654.3,1042.3c-13.8,0-24.9-11.2-24.9-24.9s11.2-24.9,24.9-24.9
							c13.8,0,24.9,11.2,24.9,24.9S1668,1042.3,1654.3,1042.3z"/>
						<path class="st0" d="M1654.3,996.8c-11.4,0-20.6,9.2-20.6,20.6c0,11.4,9.2,20.6,20.6,20.6s20.6-9.2,20.6-20.6
							C1674.9,1006,1665.7,996.8,1654.3,996.8z M1654.3,1034.8c-9.6,0-17.4-7.8-17.4-17.4c0-9.6,7.8-17.4,17.4-17.4
							c9.6,0,17.4,7.8,17.4,17.4C1671.7,1027,1663.9,1034.8,1654.3,1034.8z"/>
					</g>
				</g>
				<g>
					<circle class="st11" cx="1654.3" cy="1192.3" r="62.8"/>
					<g>
						<path class="st0" d="M1699.9,1185l-13.2-1.2c0-0.1-0.1-0.3-0.1-0.4l10.9-7.6c0.8-0.6,1-1.6,0.6-2.5l-2.7-4.7l-2.7-4.7
							c-0.5-0.8-1.5-1.2-2.4-0.8l-12,5.6c-0.1-0.1-0.2-0.2-0.3-0.3l5.6-12c0.4-0.9,0.1-1.9-0.8-2.4l-4.7-2.7l-4.7-2.7
							c-0.8-0.5-1.9-0.3-2.5,0.6l-7.6,10.9c-0.1,0-0.3-0.1-0.4-0.1l-1.2-13.2c-0.1-1-0.9-1.7-1.9-1.7h-5.4h-5.4
							c-1,0-1.8,0.7-1.9,1.7l-1.2,13.2c-0.1,0-0.3,0.1-0.4,0.1l-7.6-10.9c-0.6-0.8-1.6-1-2.5-0.6l-4.7,2.7l-4.7,2.7
							c-0.8,0.5-1.2,1.5-0.8,2.4l5.6,12c-0.1,0.1-0.2,0.2-0.3,0.3l-12-5.6c-0.9-0.4-1.9-0.1-2.4,0.8l-2.7,4.7l-2.7,4.7
							c-0.5,0.8-0.3,1.9,0.6,2.5l10.9,7.6c0,0.1-0.1,0.3-0.1,0.4l-13.2,1.2c-1,0.1-1.7,0.9-1.7,1.9v5.4v5.4c0,1,0.7,1.8,1.7,1.9
							l13.2,1.2c0,0.1,0.1,0.3,0.1,0.4l-10.9,7.6c-0.8,0.6-1,1.6-0.6,2.5l2.7,4.7l2.7,4.7c0.5,0.8,1.5,1.2,2.4,0.8l12-5.6
							c0.1,0.1,0.2,0.2,0.3,0.3l-5.6,12c-0.4,0.9-0.1,1.9,0.8,2.4l4.7,2.7l4.7,2.7c0.8,0.5,1.9,0.3,2.5-0.6l7.6-10.9
							c0.1,0,0.3,0.1,0.4,0.1l1.2,13.2c0.1,1,0.9,1.7,1.9,1.7h5.4h5.4c1,0,1.8-0.7,1.9-1.7l1.2-13.2c0.1,0,0.3-0.1,0.4-0.1l7.6,10.9
							c0.6,0.8,1.6,1,2.5,0.6l4.7-2.7l4.7-2.7c0.8-0.5,1.2-1.5,0.8-2.4l-5.6-12c0.1-0.1,0.2-0.2,0.3-0.3l12,5.6
							c0.9,0.4,1.9,0.1,2.4-0.8l2.7-4.7l2.7-4.7c0.5-0.8,0.3-1.9-0.6-2.5l-10.9-7.6c0-0.1,0.1-0.3,0.1-0.4l13.2-1.2
							c1-0.1,1.7-0.9,1.7-1.9v-5.4v-5.4C1701.7,1186,1700.9,1185.1,1699.9,1185z M1654.3,1217.4c-13.8,0-25.1-11.2-25.1-25.1
							c0-13.8,11.2-25.1,25.1-25.1s25.1,11.2,25.1,25.1C1679.3,1206.2,1668.1,1217.4,1654.3,1217.4z"/>
					</g>
				</g>
				<g>
					<rect x="1306.7" y="773.4" class="st25" width="34.9" height="34.9"/>
					<rect x="1361.7" y="773.4" class="st26" width="34.9" height="34.9"/>
					<rect x="1416.8" y="773.4" class="st25" width="34.9" height="34.9"/>
					<rect x="1471.8" y="773.4" class="st26" width="34.9" height="34.9"/>
					<rect x="1306.7" y="824.3" class="st26" width="34.9" height="34.9"/>
					<rect x="1361.7" y="824.3" class="st25" width="34.9" height="34.9"/>
					<rect x="1416.8" y="824.3" class="st26" width="34.9" height="34.9"/>
					<rect x="1471.8" y="824.3" class="st25" width="34.9" height="34.9"/>
				</g>
				<path class="st26" d="M1507.3,721.5h-201.2c-8.7,0-15.8,7.1-15.8,15.8v3.1h232.7v-3.1C1523.1,728.5,1516,721.5,1507.3,721.5z"/>
			</g>
			<g>
				<g>
					<linearGradient id="SVGID_7_" gradientUnits="userSpaceOnUse" x1="665.9625" y1="1750.6354" x2="665.9625" y2="1725.79">
						<stop  offset="0" style="stop-color:#464392"/>
						<stop  offset="1" style="stop-color:#303075"/>
					</linearGradient>
					<path class="st27" d="M653.5,1710.9l5.7,57.5c0,0,5.6,2.2,12.5,0l6.6-48.4L653.5,1710.9z"/>
					<linearGradient id="SVGID_8_" gradientUnits="userSpaceOnUse" x1="505.0642" y1="1750.1335" x2="505.0642" y2="1722.63">
						<stop  offset="0" style="stop-color:#464392"/>
						<stop  offset="1" style="stop-color:#303075"/>
					</linearGradient>
					<path class="st28" d="M491.3,1695.8l8.3,69.7c0,0,10.5,2.8,16,0l3.1-53L491.3,1695.8z"/>
					<path class="st29" d="M573.5,841.1c-7-13.1-22.6-16.4-36-18.5c-4.4-0.7-6.3,6-1.9,6.7c0.3,0.1,0.7,0.1,1,0.2
						c-0.1,14,0.5,28.8,9.4,40.3c5.9,7.6,19.4,15.8,27.5,6.4C580.9,868,578.2,850,573.5,841.1z"/>
					<linearGradient id="SVGID_9_" gradientUnits="userSpaceOnUse" x1="679.9108" y1="1158.5284" x2="611.129" y2="1124.2172">
						<stop  offset="0" style="stop-color:#FFC5C5"/>
						<stop  offset="1" style="stop-color:#EA8CA7"/>
					</linearGradient>
					<path class="st30" d="M514.2,984.3c0,0-19.1,26.8-25.3,58.8c-6.2,32.1-25.7,87.1-18,101c7.7,13.9,137.3,40.4,144.9,46
						s17.6,18.1,21.3,25.1c3.8,7,28.8,9.8,31.6,0c2.8-9.8-10.5-37.6-37.6-46.7c-27.2-9.1-102.4-44.6-102.4-44.6L514.2,984.3z"/>
					<linearGradient id="SVGID_10_" gradientUnits="userSpaceOnUse" x1="421.1649" y1="1112.4603" x2="512.5927" y2="1082.4441">
						<stop  offset="0" style="stop-color:#FC70C7"/>
						<stop  offset="1" style="stop-color:#DB4DAC"/>
					</linearGradient>
					<path class="st31" d="M560.1,1146.3l8.9-3.8c-21.9-9.9-40.3-18.6-40.3-18.6l-14.5-139.7c0,0-19.1,26.8-25.3,58.8
						c-6.2,32.1-25.7,87.1-18,101c3.8,6.9,37.8,17,72,26L560.1,1146.3z"/>
					<linearGradient id="SVGID_11_" gradientUnits="userSpaceOnUse" x1="536.0557" y1="1554.5812" x2="554.0607" y2="1408.3961">
						<stop  offset="0" style="stop-color:#FFC5C5"/>
						<stop  offset="1" style="stop-color:#EA8CA7"/>
					</linearGradient>
					<path class="st32" d="M506.9,1180.2c0,0-29.7,37.1-29.8,93.8c0,56.9,26.9,146.8,25.1,174.7c-1.9,27.9-8.7,37.2-9.3,81.8
						c-0.6,44.6,21.5,102.3,15.8,125.8c-5.9,24.4-28.9,35.2-10.2,54.5c17.4,17.9,35.3,30.2,43.7,46.9s72.5,12.5,62.2-1.4
						c-10.2-13.9-63.2-48.3-61.3-118s20.4-329.8,20.4-329.8L506.9,1180.2z"/>
					<linearGradient id="SVGID_12_" gradientUnits="userSpaceOnUse" x1="646.8688" y1="1561.2543" x2="613.2386" y2="1383.5566">
						<stop  offset="0" style="stop-color:#FFC5C5"/>
						<stop  offset="1" style="stop-color:#EA8CA7"/>
					</linearGradient>
					<path class="st33" d="M560.8,923.6c0,0-1,41.8,10.5,48.8c11.5,7,28.2,39.7,39.7,54.7c11.5,15,14.3,34.5,5.9,48.1
						s-17.1,30-20.2,52.6c-3.1,22.6,0.3,67.9,12.2,106.3s50.9,220.9,53.7,236.9c2.8,16,25.1,177.7,33.4,204.9s31.4,58.5,44.6,66.9
						c13.2,8.4,57.8,16.7,41.1,24.4c-16.7,7.7-67.6,4.9-73.9,0c-6.3-4.9-21.6-33.4-38.3-39c-16.7-5.6-21.6-22.3-10.5-44.6
						c11.1-22.3-15.1-79.4-31.8-123.3c-16.7-43.9-11.1-77.8-26.5-110.6c-15.3-32.8-124-145.5-111-214.8
						c12.5-66.9,33.7-66.7,30.2-97.3c-3.5-30.7-26.9-86.9-17.7-123.1c9.3-36.2,27.4-44.1,26.5-72.5c-0.9-28.3,2.3-34.4,2.3-34.4
						L560.8,923.6z"/>
					<linearGradient id="SVGID_13_" gradientUnits="userSpaceOnUse" x1="719.4348" y1="828.5259" x2="681.2871" y2="894.0185">
						<stop  offset="0" style="stop-color:#FFC5C5"/>
						<stop  offset="1" style="stop-color:#EA8CA7"/>
					</linearGradient>
					<path class="st34" d="M560.1,988.6c0,0,109.1-35.7,123.3-61s46.8-73.3,41.9-91.8c-4.9-18.5-1.2-38.2,8-38.8
						s30.6,15.4,26.1,27.7s-13.8,6.2-18.1,28.3c-4.3,22.2-20.3,99.8-35.7,109.7c-15.4,9.9-109.7,67.2-109.7,67.2L560.1,988.6z"/>
					<linearGradient id="SVGID_14_" gradientUnits="userSpaceOnUse" x1="598.4105" y1="919.502" x2="519.2998" y2="870.0742">
						<stop  offset="0" style="stop-color:#FFC5C5"/>
						<stop  offset="1" style="stop-color:#EA8CA7"/>
					</linearGradient>
					<path class="st35" d="M573.7,930.2c10.8-4.2,9.2-19.3,4.6-37.5l-6.1-21.6c-1.3-4.7-2.6-9.3-3.8-13.9
						c-7.7-30.8-36.6-34.2-36.6-34.2c-63.7,23.2-42.5,69.3-27.2,93.1C520,939.9,559.5,935.7,573.7,930.2z"/>
					<linearGradient id="SVGID_15_" gradientUnits="userSpaceOnUse" x1="566.9698" y1="1096.1399" x2="509.0552" y2="970.2617">
						<stop  offset="0" style="stop-color:#FC70C7"/>
						<stop  offset="1" style="stop-color:#DB4DAC"/>
					</linearGradient>
					<path class="st36" d="M610.9,1027.1c-11.5-15-28.2-47.7-39.7-54.7c-0.9-0.6-1.8-1.4-2.6-2.4c6.6-7.5,13-24.4-0.7-27.1
						c-3.3-0.7-6.4,0.4-9.4,1.7c-4,1.7-6.2,4-11.2,2.2c-1.4-0.5-2.5-1.9-4.1-2.4c-4.1-1.3-7.7,1.6-11.7,0.8
						c-3.7-0.7-6.4-3.5-10.4-3.6c-16.5-0.3-5.4,20.8,0.4,29.2c-5.9,11.3-14.1,22.8-19.4,43.5c-9.3,36.2,14.2,92.4,17.7,123.1
						c0.9,8.3,0.1,14.3-1.9,20.1c27.9,7.7,61.3-1.6,77.6-7.3c-0.1-8.7,0.2-16.4,1.1-22.4c3.1-22.6,11.8-39,20.2-52.6
						S622.4,1042.1,610.9,1027.1z"/>
					<linearGradient id="SVGID_16_" gradientUnits="userSpaceOnUse" x1="707.8706" y1="985.093" x2="530.8196" y2="909.4175">
						<stop  offset="0" style="stop-color:#FC70C7"/>
						<stop  offset="1" style="stop-color:#DB4DAC"/>
					</linearGradient>
					<path class="st37" d="M740.8,912.7c-2.9-2.5-5.1-1.4-8.3-1c-0.7,0.1-1.5,1.1-2.2,1.1c-1.2-0.1-2.4-2-2.8-2.8
						c-0.5-1.3-0.1-3.4-0.4-4.8c-0.6-2.9-2.1-5.6-5.1-6.6c-2.7-0.9-5.1,0-7.3,1.5c-1.2,0.8-2.8,3.1-4.2,3.2c-2.3,0.2-2.9-2.1-4-3.6
						c-3.4-4.9-9.2-8.8-14.2-3.1c-3.1,3.5-2.8,8.9-3,13.2c-0.1,2.7-0.3,5.4-0.4,8.1c-2.1,3.5-4,6.8-5.7,9.7
						c-14.2,25.3-123.3,61-123.3,61l35.7,41.3c0,0,94.3-57.3,109.7-67.2c0.4-0.3,0.8-0.6,1.3-1c8.9-4.4,16.6-15,22.1-21.4
						c4.7-5.5,14.5-12.4,14.9-20.3C743.9,917.3,742.8,914.4,740.8,912.7z"/>
					<path class="st20" d="M604.4,1756.2c-2.8-3.9-9-9.3-16.4-16.7c-9.3,0.3-21.8-0.1-32-3.5c-18.8-6.3-53.8-64.2-53.8-64.2l0,0
						c-8.1,14.5-18,24.3-3.8,38.9c17.4,17.9,35.3,30.2,43.7,46.9C550.5,1774.3,614.6,1770.1,604.4,1756.2z"/>
					<path class="st20" d="M743.1,1744.2c-19,8.2-36.7-8.1-48.6-24c-9.3-12.5-26.4-27.5-36-35.6c-10.5,21.8-5.5,38,11,43.5
						c16.7,5.6,32.1,34.1,38.3,39c6.3,4.9,57.1,7.7,73.9,0C797.4,1759.9,758.7,1752,743.1,1744.2z"/>
					<g>
						
							<ellipse transform="matrix(0.5701 -0.8216 0.8216 0.5701 -673.5027 862.7742)" class="st38" cx="487.7" cy="1075" rx="5.6" ry="5.6"/>
						
							<ellipse transform="matrix(0.5701 -0.8216 0.8216 0.5701 -708.4204 890.5569)" class="st38" cx="496.8" cy="1122.2" rx="5.6" ry="5.6"/>
						<path class="st38" d="M492.3,1044.2c1.8-2.5,1.1-6-1.4-7.8c-0.1-0.1-0.3-0.2-0.4-0.2c-0.6,2.3-1.1,4.6-1.6,6.9
							c-0.2,1.1-0.5,2.3-0.7,3.4C489.8,1046.4,491.3,1045.6,492.3,1044.2z"/>
						<path class="st38" d="M475.5,1111.7c1.8-2.5,1.1-6-1.4-7.8c-0.1,0-0.2-0.1-0.2-0.1c-0.8,3.5-1.6,6.9-2.2,10.2
							C473.2,1113.8,474.6,1113,475.5,1111.7z"/>
						<path class="st38" d="M495.8,1155.9c1.8-2.5,1.1-6-1.4-7.8s-6-1.1-7.8,1.4c-0.7,1-1,2.1-1,3.2c2.9,1.2,6.2,2.4,9.8,3.6
							C495.6,1156.2,495.7,1156.1,495.8,1155.9z"/>
					</g>
					<g>
						
							<ellipse transform="matrix(0.5701 -0.8215 0.8215 0.5701 -655.7505 912.2982)" class="st38" cx="543.9" cy="1082.8" rx="5.6" ry="5.6"/>
						<path class="st38" d="M522.9,1122.8c1.8-2.5,1.1-6-1.4-7.8c-1.9-1.3-4.2-1.3-6.1-0.2c0.9,3.6,1.7,7,2.3,10.3
							C519.8,1125.3,521.7,1124.5,522.9,1122.8z"/>
						
							<ellipse transform="matrix(0.134 -0.991 0.991 0.134 -535.9712 1400.9106)" class="st38" cx="533.6" cy="1007.1" rx="5.6" ry="5.6"/>
						
							<ellipse transform="matrix(0.5701 -0.8216 0.8216 0.5701 -683.6702 934.374)" class="st38" cx="551" cy="1120.5" rx="5.6" ry="5.6"/>
						<circle class="st38" cx="519.1" cy="1035.4" r="5.6"/>
						<path class="st38" d="M504.3,1068.7c2.2,0.6,4.6-0.2,6-2.2c1.8-2.5,1.1-6-1.4-7.8c-2-1.4-4.5-1.3-6.4,0.1
							C503,1062.1,503.6,1065.4,504.3,1068.7z"/>
						
							<ellipse transform="matrix(0.8523 -0.5231 0.5231 0.8523 -460.8729 446.4463)" class="st38" cx="560.1" cy="1039.3" rx="5.6" ry="5.6"/>
						<circle class="st38" cx="548.3" cy="974.1" r="5.6"/>
						
							<ellipse transform="matrix(0.134 -0.991 0.991 0.134 -521.797 1495.3512)" class="st38" cx="594.7" cy="1046.2" rx="5.6" ry="5.6"/>
						<path class="st38" d="M606.3,1082.6c-1.8,2.5-1.1,6,1.4,7.8c0.2,0.1,0.3,0.2,0.5,0.3c1.7-3.4,3.5-6.7,5.2-9.8
							C611,1079.6,607.9,1080.3,606.3,1082.6z"/>
						
							<ellipse transform="matrix(0.5701 -0.8216 0.8216 0.5701 -683.8947 972.5046)" class="st38" cx="587.4" cy="1139.8" rx="5.6" ry="5.6"/>
						
							<ellipse transform="matrix(0.5702 -0.8215 0.8215 0.5702 -647.2026 945.8496)" class="st38" cx="580.3" cy="1091.4" rx="5.6" ry="5.6"/>
						<circle class="st38" cx="580.3" cy="1017.3" r="5.6"/>
					</g>
					<g>
						
							<ellipse transform="matrix(0.134 -0.991 0.991 0.134 -287.821 1509.9515)" class="st38" cx="720" cy="919.7" rx="5.6" ry="5.6"/>
						
							<ellipse transform="matrix(0.9367 -0.3502 0.3502 0.9367 -292.5147 299.0981)" class="st38" cx="680.9" cy="958.5" rx="5.6" ry="5.6"/>
						<path class="st38" d="M689.7,923.2c3.1,0.4,5.9-1.7,6.3-4.8c0.4-3.1-1.7-5.9-4.8-6.3c-0.7-0.1-1.3,0-1.9,0.1
							c-0.1,1.9-0.2,3.7-0.3,5.6c-0.8,1.4-1.6,2.7-2.3,3.9C687.5,922.5,688.5,923.1,689.7,923.2z"/>
						<path class="st38" d="M721.6,948.9c-1.2-2.7-4.3-4-7-3c-2.9,1.1-4.3,4.3-3.3,7.2c0.6,1.5,1.7,2.6,3.2,3.2
							C717,954,719.4,951.4,721.6,948.9z"/>
						<path class="st38" d="M613.3,1012.3c-3.1,0-5.6,2.5-5.6,5.6c0,1.5,0.6,2.8,1.5,3.8c2.8-1.7,5.9-3.6,9.3-5.7
							C617.7,1013.9,615.7,1012.3,613.3,1012.3z"/>
						<path class="st38" d="M643.6,955.4c1.1,2.9,4.3,4.3,7.2,3.3c2.9-1.1,4.3-4.3,3.3-7.2c-0.2-0.4-0.4-0.8-0.6-1.2
							C650.3,952,647,953.7,643.6,955.4C643.6,955.3,643.6,955.3,643.6,955.4z"/>
						<path class="st38" d="M654.4,986.9c-3.1,0-5.6,2.5-5.6,5.6c0,1.6,0.7,3,1.7,4c3.1-1.9,6.1-3.7,9.2-5.6
							C659.1,988.6,656.9,986.9,654.4,986.9z"/>
						<path class="st38" d="M597,981.5c3.1,0,5.6-2.5,5.6-5.6c0-0.9-0.2-1.8-0.6-2.5c-3.6,1.4-7,2.7-10.3,4
							C592.3,979.7,594.4,981.5,597,981.5z"/>
						
							<ellipse transform="matrix(0.9367 -0.3502 0.3502 0.9367 -305.0138 282.5523)" class="st38" cx="628.9" cy="984.8" rx="5.6" ry="5.6"/>
					</g>
					<linearGradient id="SVGID_17_" gradientUnits="userSpaceOnUse" x1="524.6383" y1="992.3381" x2="496.8138" y2="816.1156">
						<stop  offset="0" style="stop-color:#464392"/>
						<stop  offset="1" style="stop-color:#303075"/>
					</linearGradient>
					<path class="st39" d="M562.1,839.6c-0.2-0.4-0.5-0.7-0.8-0.8c-5.5-10.6-16.9-17.1-29-16.7c-2.6-0.2-4.9,0-6.3,0.1
						c-0.2,0-0.4,0-0.6,0c-19.1,1-34.1,14.1-42.4,30.7c-8.9,17.7-10.8,37.5-15.1,56.5c-5.7,11.5-13.5,22.3-14.1,35.4
						c-0.3,5.8,1,11.6,4.4,16.3c4.7,6.4,13.4,9.8,16.1,17.4c-1.6,6.5-4.4,12.6-1.8,19.8c2.6,7.2,8.6,12.6,16.1,14.1
						c6.9,1.3,15.4,1.6,22.8-0.5c7.5,2.3,16.1-0.2,21.1-7.9c11.1-17.3-3-37.5,0-56.1c4.3-7.5,8.9-12.6,7.2-21.9
						c-1-5.5-3.5-10.7-3.2-16.4c0.1-1.1,0.2-2.2,0.4-3.2c6.4-9.1,18-16.1,24.4-24.3C571.7,868.8,567.7,853.9,562.1,839.6z
						 M470.7,968.8c-7.1-6.5-13.9-11.3-14.2-22c-0.2-9.5,3.9-18,8.4-26.4c-2.7,8.8-5.9,17.8-3.7,27c0.9,3.9,2.8,7.3,5.4,10.3
						c3.4,4.1,8.4,7.6,8.5,13.4c0,0.9,0,1.8-0.1,2.7C473.9,972.1,472.4,970.4,470.7,968.8z M533.9,984.6c0.6,7.6-0.8,16.1-6.7,21.5
						c-3.2,2.9-7,4-10.7,3.9c1.4-0.7,2.7-1.4,3.8-2.3c4.2-3.1,8.5-7.5,10.6-12.6c5.8-10.3-0.6-23.2-1.1-34.9
						C530.7,968.3,533.2,976.3,533.9,984.6z M547.3,891.8c-2.7,2.4-5.5,4.9-8,7.6c1-2,2.1-3.9,3.3-5.7c7.9-12.1,20.2-22.9,22-37.3
						c0.9,4.9,1.1,9.9-0.4,14.8C561.5,879.9,554,886.1,547.3,891.8z"/>
					<linearGradient id="SVGID_18_" gradientUnits="userSpaceOnUse" x1="557.323" y1="1380.5579" x2="492.9093" y2="1155.635">
						<stop  offset="0" style="stop-color:#51F2ED"/>
						<stop  offset="1" style="stop-color:#35CFDB"/>
					</linearGradient>
					<path class="st40" d="M608.8,1234c-10-32.4-14.1-69.8-13.2-94.3c-27.3,7.1-56.2,4.7-75.5,1.4c0.8,15.7-5.6,23.1-13.4,39.2
						c-2.1,2.7-27.5,36.5-29.5,87.5l0,0c0,0,0,0.2,0,0.5c-0.1,1.9-0.1,3.7-0.1,5.6c0,0.2,0,0.3,0,0.5c-0.1,10.9,0.1,33.8,2.8,58.6
						c3.7,34.4-22.9,71.8-22.9,71.8s12.1,13.2,48.9,21.8c0.1,0,0.1,0,0.2,0c15.7,3.8,32.4,5.7,48.9,6.3c0,0,8.2,1.9,35.1-0.5
						c25.8-1.5,48.5-5.1,62.8-7.9C639.9,1363.4,617.3,1261.5,608.8,1234z"/>
					<g>
						<path class="st41" d="M515.8,1271.2c-0.1-11,0.3-22,1.7-32.9c1.4-11.2,4.3-22,7.9-32.7c6.8-20,15.3-40.8,12.4-62.1
							c-0.5,0-1-0.1-1.4-0.1c2.9,20.1-4.7,40-11.3,58.8c-3.6,10.5-6.8,21.1-8.5,32.1c-1.6,10.7-2.2,21.5-2.2,32.4
							c-0.1,22.4,1.9,44.7,1,67.1c-0.9,21.9-5,43.7-12,64.5c-2.9,8.6-6.7,16.7-10.1,25.1c0.5,0.1,0.9,0.3,1.4,0.4
							c3.3-8,6.9-15.8,9.7-23.9c6.8-19.8,10.9-40.6,12.2-61.5C517.9,1315.9,515.9,1293.6,515.8,1271.2z"/>
						<path class="st41" d="M555.9,1212.1c-0.8-22.7,0.4-45.6,5.3-67.8c-0.5,0-1,0-1.4,0c-8.9,40.6-5.4,82.6-0.1,123.5
							c5.6,43.7,12.8,87.3,9.5,131.5c-0.8,11.3-1.9,22.9-1.2,34.3c0.4,0,0.9,0,1.4,0c-0.7-10.2,0.1-20.6,0.9-30.6
							c1.6-21,1.4-41.9-0.4-62.9C566.1,1297.4,557.5,1255.1,555.9,1212.1z"/>
						<path class="st41" d="M603.8,1392.7c-0.8-20.2-3.5-40.1-7.3-59.9c-8-41.1-20.2-81.4-24.9-123.1c-2.5-22-2.8-44.2,0.6-66
							c-0.5,0-1,0.1-1.4,0.1c-13.1,83.2,27.7,162.9,31.4,245.4c0.6,13.9,0.8,28.6,4.9,41.9c0.5,0,0.9-0.1,1.4-0.1
							C604.8,1418.8,604.4,1405.5,603.8,1392.7z"/>
						<path class="st41" d="M474.6,1416.1c6.9-15,13.4-30.2,17.8-46.2c2.6-9.4,4.5-19.1,5.2-28.9c0.8-10.7,0.1-21.4-0.7-32.1
							c-1.7-21-3.8-41.8,1.2-62.6c4.3-17.7,11.9-34.4,18.6-51.3c6.6-16.9,12.2-34.4,12.2-52.6c-0.5-0.1-0.9-0.1-1.4-0.2
							c0.2,34.8-20,65.5-29.3,98.3c-5.4,19.1-5.2,38.1-3.6,57.7c1.8,21.2,3.3,41.8-1.4,62.7c-4.2,19-11.8,36.9-19.9,54.6
							C473.8,1415.7,474.2,1415.9,474.6,1416.1z"/>
						<path class="st41" d="M634.3,1411.7c-4.9-22.1-9.7-44.3-14.5-66.4c-9.7-44.1-20-88.2-28-132.6c-4.2-23.2-7.5-46.6-9.4-70.2
							c-0.5,0.1-0.9,0.2-1.4,0.2c3.5,43.2,11.9,85.9,21.1,128.2c9.8,45.5,19.9,91,29.8,136.5c1.4,6.6,2.9,13.4,4.7,20.1
							c0.5-0.1,0.9-0.1,1.4-0.2C636.6,1422.1,635.4,1416.9,634.3,1411.7z"/>
						<path class="st41" d="M530.9,1387.3c3-9.4,6.2-18.8,8.3-28.5c2.1-9.2,3-18.6,3.2-28.1c0.5-20.4-1.9-40.7-2.3-61.1
							c-0.4-20.7,0.4-41.5,1.9-62.2c1.6-21.2,3.8-42.2,6.2-63.3c-0.5,0-0.9,0-1.4-0.1c-4.4,39.4-8.5,79-8.2,118.7
							c0.2,20.5,2.4,40.8,2.5,61.3c0,10.7-0.6,21.4-2.7,31.9c-2,9.7-5.1,19.1-8.1,28.6c-4.7,14.6-9.1,30-8.5,45.3
							c0.5,0.1,0.9,0.2,1.4,0.2C522.7,1415.6,526.6,1401.1,530.9,1387.3z"/>
					</g>
				</g>
				<g>
					
						<linearGradient id="SVGID_19_" gradientUnits="userSpaceOnUse" x1="-9354.8428" y1="1606.4531" x2="-9035.541" y2="1606.4531" gradientTransform="matrix(-1 0 0 1 -7642.2827 0)">
						<stop  offset="0" style="stop-color:#FFC5C5"/>
						<stop  offset="1" style="stop-color:#F9AAB4"/>
					</linearGradient>
					<path class="st42" d="M1537.5,1491.9c0,0-16.3,43.2-30.5,73.7c-14.2,30.5-41.8,77.2-32.6,77.2c9.2,0,164.4-4.3,176.4-9.2
						c12-5,44.6-24.8,53.1-6.4c8.5,18.4,12.5,97.9,3.6,100c-24.4,5.8-67.3,10.5-46.1-17.8c6.1-8.2,14.2-41.8-9.9-34
						s-177.6,38.3-231.2,28.3c-53.6-9.9-11.1-156.6-11.1-156.6l46-65.9L1537.5,1491.9z"/>
					<path class="st29" d="M1707.5,1727.2c8.9-2.1,4.9-81.6-3.6-100c-8.5-18.4-41.1,1.4-53.1,6.4c-1.9,0.8-7.6,1.6-15.7,2.3v43.8
						c7.5-1.7,13.2-3.2,16.5-4.3c24.1-7.8,16,25.8,9.9,34C1640.2,1737.7,1683.1,1733,1707.5,1727.2z"/>
					<linearGradient id="SVGID_20_" gradientUnits="userSpaceOnUse" x1="1557.7871" y1="1821.7844" x2="1506.2141" y2="1565.8248">
						<stop  offset="0" style="stop-color:#464392"/>
						<stop  offset="1" style="stop-color:#303075"/>
					</linearGradient>
					<path class="st43" d="M1474.4,1642.8c-9.2,0,18.4-46.8,32.6-77.2c14.2-30.5,30.5-73.7,30.5-73.7l-82.2-10.6l-46,65.9
						c0,0-42.5,146.6,11.1,156.6c53.6,9.9,184.7-1.4,209.8-4.9c7.1-1,23.4-3,24.3-3.1c0.1-15.3-1.5-54.4-2.3-62.7
						c-0.4,0.2-0.8,0.4-1.2,0.5C1638.8,1638.6,1483.6,1642.8,1474.4,1642.8z"/>
					
						<linearGradient id="SVGID_21_" gradientUnits="userSpaceOnUse" x1="-9181.5635" y1="1502.1536" x2="-8816.3506" y2="1502.1536" gradientTransform="matrix(-1 0 0 1 -7642.2827 0)">
						<stop  offset="0" style="stop-color:#FFC5C5"/>
						<stop  offset="1" style="stop-color:#F9AAB4"/>
					</linearGradient>
					<path class="st44" d="M1373.1,1265.2c0,0,15.6,15.9,17.4,22.3c1.8,6.4-25.6,60.8-25.6,60.8s29.8,75.6,36.4,94
						c6.6,18.4-14.6,20.8-41.6,22.2c-26.9,1.4-101.1-5.2-118.3,13.2c-16.6,17.8,25.5,216.8,21.3,227.4s-21.3,15.6-43.2,26.2
						s-69.4,29-30.5,30.5c39,1.4,121,1.5,121.9-10.6c2.3-32.5-13.5-51.8-14.2-65.9c-0.7-14.2-0.7-135.3,9.2-138.9
						c9.9-3.5,56,12.8,112.6,4.3c56.7-8.5,109.1-26.2,119-58.8c9.9-32.6-23.4-138.1-42.5-167.2c-19.1-29-93.5-82.9-93.5-82.9
						L1373.1,1265.2z"/>
					<path class="st29" d="M1188.9,1761.8c39,1.4,121,1.5,121.9-10.6c2.3-32.5-13.5-51.8-14.2-65.9c0-0.1,0-0.3,0-0.4
						c-11.5,0.4-24.3,0.9-35.2,1.3c1.3,10.3,1.9,17.2,1.2,18.9c-4.3,10.6-21.3,15.6-43.2,26.2S1150,1760.4,1188.9,1761.8z"/>
					
						<linearGradient id="SVGID_22_" gradientUnits="userSpaceOnUse" x1="-9062.6064" y1="1354.0217" x2="-8793.543" y2="1354.0217" gradientTransform="matrix(-1 0 0 1 -7642.2827 0)">
						<stop  offset="0" style="stop-color:#FFC5C5"/>
						<stop  offset="1" style="stop-color:#F9AAB4"/>
					</linearGradient>
					<path class="st45" d="M1417.7,1282.9c0,0-18.9-6.4-40.1,12.5c-21.3,18.9-62.8,75.1-74.6,78.4c-11.8,3.3-98.2-20.3-109.1-32.1
						s-17.5-21.3-26.4-21.7c-9-0.5-25.5,26-9.4,35.5c16.1,9.4,23.6,9,56.7,28.3c16.8,9.8,93.6,46.4,105.1,42c26.2-9.9,71-60,71-60
						l29.5-83.9"/>
					
						<linearGradient id="SVGID_23_" gradientUnits="userSpaceOnUse" x1="-9060.0127" y1="1216.4916" x2="-8967.9102" y2="1216.4916" gradientTransform="matrix(-1 0 0 1 -7642.2827 0)">
						<stop  offset="0" style="stop-color:#FFC5C5"/>
						<stop  offset="1" style="stop-color:#F9AAB4"/>
					</linearGradient>
					<path class="st46" d="M1368.6,1160.8c0,0-37.5,3.8-38,46.2c0,2.5,0,4.9,0.1,7.2c-1.6,6.4-6.4,25.9-4.7,27
						c1.7,1.1,6.8,1,8.4,0.9c5,19.5,13.6,29.8,18.8,30.6c7.7,1.2,61.5-10.8,64.2-54.3C1420.2,1175,1404.1,1156.5,1368.6,1160.8z"/>
					
						<linearGradient id="SVGID_24_" gradientUnits="userSpaceOnUse" x1="-9062.6064" y1="1215.6454" x2="-8962.0713" y2="1215.6454" gradientTransform="matrix(-1 0 0 1 -7642.2827 0)">
						<stop  offset="0" style="stop-color:#464392"/>
						<stop  offset="1" style="stop-color:#303075"/>
					</linearGradient>
					<path class="st47" d="M1381.6,1158.5c-12-3-18-2.4-30.2,0.4c-3.2,0.7-6.3,1.8-9.1,3.2c-1.6,0.8-3.4,0.9-5,0.4c0,0,0,0,0,0
						c-5-1.7-10.2-2.9-14.8,1.7c-5,5-2.7,16.2,3,20.6c0.5,0.3,0.9,0.8,1.2,1.2c4.3,5.9,6.1,2.6,12.9,2.1c5.2-0.3,9.9,0,14.2,3.2
						c4.1,3.1,7.5,7.3,10.6,11.3c6.6,8.6,10.1,19.4,3.6,29.2c-2.9,4.3-7.4,7.3-12.4,8.6c-5.1,1.3-10-0.2-15.1,0.5
						c-3.6,0.5-6.5,0.5-6.5,4.4c-0.1,4.7,1.4,7,3.8,10.5c3.2,4.8,5.8,9.7,9.4,14.2c2.4,3.1,3.1,3.9,7.3,4.6
						c4.8,0.8,9.2-0.4,12.8-3.1c4.3-3.2,7.2-3.8,11-7.7c6.6-6.7,11.6-14.9,12.9-24.4c0.8-6,0-12-0.1-18c0-2-0.1-5,1.6-6.3
						c2.5-1.9,5.5,1.4,6.7,3.4c5.2,8.7,3.7,21.2,14.2,26.3c2,1,5.1-0.5,4.3-3.1c-3.9-12.4,2.9-24.5,2.2-36.7
						c-0.7-11.8-3.2-24.9-11.6-33.1C1400.3,1163.4,1392.9,1161.3,1381.6,1158.5z"/>
					<linearGradient id="SVGID_25_" gradientUnits="userSpaceOnUse" x1="1231.6503" y1="1573.6278" x2="1538.7024" y2="1573.6278">
						<stop  offset="0" style="stop-color:#464392"/>
						<stop  offset="1" style="stop-color:#303075"/>
					</linearGradient>
					<path class="st48" d="M1537.5,1491.9c0.5-1.8,0.9-3.7,1.2-5.9c-27.1-8.3-100-30.8-137.2-42.8c5.6,17.6-15.4,19.9-41.9,21.3
						c-26.9,1.4-101.1-13.2-123.2,14c-16.5,20.3,14.4,156.1,12.6,225.5c14.7-0.7,52.4-5.3,59.5-7.4c-1-4.6-1.3-9.5-1.5-13.2
						c-0.7-14.2-11.2-133.4-1.3-137c9.9-3.5,56,12.8,112.6,4.3C1475.1,1542.2,1527.6,1524.5,1537.5,1491.9z"/>
					<linearGradient id="SVGID_26_" gradientUnits="userSpaceOnUse" x1="1395.5089" y1="1446.3152" x2="1522.959" y2="1327.2339">
						<stop  offset="0" style="stop-color:#51F2ED"/>
						<stop  offset="1" style="stop-color:#35CFDB"/>
					</linearGradient>
					<path class="st49" d="M1495,1324.7c-11.3-17.1-41.7-42.8-64.8-61.1c0,0,0,0,0,0c8.3-11.8-11.1-22.9-19.3-11.3
						c-7.1,10.2-17.6,16.9-29.6,20c-13.9,3.6-8,25.1,5.9,21.5c0.8-0.2,1.5-0.4,2.3-0.6c-4.8,15.6-24.7,55.1-24.7,55.1
						s29.8,75.6,36.4,94c3,8.4,0.2,13.4-6.2,16.6c29.8,36,101.3,47.2,135.8,50.1c3.1-5.1,4.8-11.3,6.6-17.1
						C1547.4,1459.3,1514.1,1353.8,1495,1324.7z"/>
					<linearGradient id="SVGID_27_" gradientUnits="userSpaceOnUse" x1="1271.8727" y1="1393.9293" x2="1476.5332" y2="1211.6895">
						<stop  offset="0" style="stop-color:#51F2ED"/>
						<stop  offset="1" style="stop-color:#35CFDB"/>
					</linearGradient>
					<path class="st50" d="M1417.7,1282.9c0,0-18.9-6.4-40.1,12.5s-62.8,75.1-74.6,78.4c-8,2.2-49.9-7.8-79.6-18.2
						c-1.4,7.8-11.6,29.3-18.1,36.4c0.8,0.4,9.7,5.8,10.5,6.3c16.8,9.8,92.6,31.8,104.1,27.5c26.2-9.9,71-60,71-60l29.5-83.9
						L1417.7,1282.9z"/>
				</g>
			</g>
		</g>
	</g>
</g>
</svg>
