<?xml version="1.0" encoding="utf-8"?>
<!-- Generator: Adobe Illustrator 21.0.0, SVG Export Plug-In . SVG Version: 6.00 Build 0)  -->
<svg version="1.1" id="Layer_1" xmlns="http://www.w3.org/2000/svg" xmlns:xlink="http://www.w3.org/1999/xlink" x="0px" y="0px"
	 width="2000px" height="2000px" viewBox="0 0 2000 2000" style="enable-background:new 0 0 2000 2000;" xml:space="preserve">
<style type="text/css">
	.st0{fill:#FFFFFF;}
	.st1{opacity:0.26;fill:#F464C8;}
	.st2{fill:#FFBBED;}
	.st3{fill:#D4FFFD;}
	.st4{fill:#51F2ED;}
	.st5{fill:#27C0CC;}
	.st6{fill:#37DDD4;}
	.st7{fill:#7E5BFF;}
	.st8{fill:#B92BF1;}
	.st9{fill:#FAE6FF;}
	.st10{fill:url(#SVGID_1_);}
	.st11{fill:#303075;}
	.st12{fill:#A897FC;}
	.st13{fill:#F464C8;}
	.st14{fill:#464392;}
	.st15{fill:#E476FF;}
	.st16{fill:#D8A5E5;}
	.st17{fill:#FDF3FF;}
	.st18{fill:#F1DAF7;}
	.st19{fill:#6C52EF;}
	.st20{fill:#E250BC;}
	.st21{fill:url(#SVGID_2_);}
	.st22{fill:url(#SVGID_3_);}
	.st23{fill:url(#SVGID_4_);}
	.st24{fill:url(#SVGID_5_);}
	.st25{fill:url(#SVGID_6_);}
	.st26{fill:url(#SVGID_7_);}
	.st27{fill:url(#SVGID_8_);}
	.st28{fill:url(#SVGID_9_);}
	.st29{fill:url(#SVGID_10_);}
	.st30{fill:#5252AA;}
</style>
<g>
	<rect class="st0" width="2000" height="2000"/>
	<g>
		<path class="st1" d="M1880.4,621.3c8.4-90.6-9.1-184.3-71.1-253.9c-26.4-29.7-60.6-53-98.9-64c-50.4-14.5-103.4-6.1-153.8,4
			c-51.9,10.4-103.7,20-156.4,26c-51.5,5.9-103.3,9.3-155.2,10.2c-105.8,1.8-211.8-6.8-315.9-26.2c-102.3-19.1-202.2-49.1-304.5-68
			c-95.3-17.6-195.3-26.9-290.6-4.5c-84.8,19.9-160.9,67.8-202.4,146.1c-95.2,179.3-3.8,382.3-2.5,570.4
			c1.3,190.9-60.6,402.4,44.9,577.8c92.1,152.9,283.7,196.6,450.3,185.4c105.8-7.1,209.2-31.8,313.3-50.4
			c98.2-17.6,197.9-25.4,297.4-14.2c33.2,3.8,66.2,9.9,98.5,18.4c12.3,4,24.8,7.8,37.4,11.1c0.5,0.2,1.1,0.4,1.6,0.5
			c1.1,0.4,2.1,0.6,3.1,0.7c79.7,20.5,164.2,25.7,242.9-1.2c42.2-14.4,81.8-37.2,113.4-69c30.5-30.6,52.2-68.7,66.2-109.4
			c30.2-87.2,24.8-181.2,14.2-271.3c-6.2-52.9-13.8-105.8-16-159.1c-2.2-51.7,2.4-102.4,13.1-153
			C1831.2,825.2,1870.6,726.5,1880.4,621.3z"/>
		<path class="st1" d="M1815.8,866.7c30.8-42.6,61.6-84.8,82.6-133.4c41.3-95.5,54.3-210,23.1-310.5c-14.2-46-40.7-90.1-84-113.8
			c-45.4-24.9-98.9-24.6-148.8-17.3c-109.1,16-213.1,58.3-318.2,89.7c-102.7,30.8-210.1,53.6-317.5,36.9
			c-95-14.8-183.9-53.7-270.6-93.5c-87.3-40.1-174.7-83-268.2-106.7c-91.8-23.2-196.8-29.4-283.4,15.2
			c-44.7,23-78.5,60.2-97.9,106.5c-20.8,49.7-24.6,104.7-20.8,157.9c4.2,60.4,16,120,21.2,180.3c5.1,59.7,6.4,119.8,3.8,179.7
			c-2.6,59.8-9.1,119.4-19.6,178.3c-10,55.9-24.1,110.9-35.9,166.4c-22.4,105.7-36.6,220,13.9,320.2
			c39.8,79,114.7,133.1,196.1,163.5c91.7,34.3,189.5,37.3,285.6,24.2c116.4-15.9,228.3-53.2,342.6-78.9
			c100-22.6,205.9-35.6,307.6-15.8c46.3,9,90.7,25.1,131.1,49.5c74.9,53.9,157.8,101.5,252,104.7c46.9,1.6,95.2-8,136-31.5
			c42.1-24.2,72.4-62.7,89.5-107.7c37.9-99.5,7.9-206.5-28.8-301.3c-39.9-103.2-94.3-217.2-63.5-330.1
			C1757,949.9,1786.4,907.5,1815.8,866.7z"/>
		<path class="st0" d="M1404.4,1554.3h-10.4c-1.9,0-3.5-1.6-3.5-3.5s1.6-3.5,3.5-3.5h10.4c1.9,0,3.5,1.6,3.5,3.5
			S1406.4,1554.3,1404.4,1554.3z M1354.1,1554.3h-20c-1.9,0-3.5-1.6-3.5-3.5s1.6-3.5,3.5-3.5h20c1.9,0,3.5,1.6,3.5,3.5
			S1356,1554.3,1354.1,1554.3z M1294.1,1554.3h-20c-1.9,0-3.5-1.6-3.5-3.5s1.6-3.5,3.5-3.5h20c1.9,0,3.5,1.6,3.5,3.5
			S1296,1554.3,1294.1,1554.3z M1234.1,1554.3h-20c-1.9,0-3.5-1.6-3.5-3.5s1.6-3.5,3.5-3.5h20c1.9,0,3.5,1.6,3.5,3.5
			S1236,1554.3,1234.1,1554.3z M1174.1,1554.3h-20c-1.9,0-3.5-1.6-3.5-3.5s1.6-3.5,3.5-3.5h20c1.9,0,3.5,1.6,3.5,3.5
			S1176,1554.3,1174.1,1554.3z M1114.1,1554.3h-20c-1.9,0-3.5-1.6-3.5-3.5s1.6-3.5,3.5-3.5h20c1.9,0,3.5,1.6,3.5,3.5
			S1116,1554.3,1114.1,1554.3z M1054.1,1554.3h-20c-1.9,0-3.5-1.6-3.5-3.5s1.6-3.5,3.5-3.5h20c1.9,0,3.5,1.6,3.5,3.5
			S1056,1554.3,1054.1,1554.3z M994.1,1554.3h-20c-1.9,0-3.5-1.6-3.5-3.5s1.6-3.5,3.5-3.5h20c1.9,0,3.5,1.6,3.5,3.5
			S996,1554.3,994.1,1554.3z M934.1,1554.3h-20c-1.9,0-3.5-1.6-3.5-3.5s1.6-3.5,3.5-3.5h20c1.9,0,3.5,1.6,3.5,3.5
			S936,1554.3,934.1,1554.3z M874.1,1554.3h-20c-1.9,0-3.5-1.6-3.5-3.5s1.6-3.5,3.5-3.5h20c1.9,0,3.5,1.6,3.5,3.5
			S876,1554.3,874.1,1554.3z M814.1,1554.3h-20c-1.9,0-3.5-1.6-3.5-3.5s1.6-3.5,3.5-3.5h20c1.9,0,3.5,1.6,3.5,3.5
			S816,1554.3,814.1,1554.3z M754.1,1554.3h-20c-1.9,0-3.5-1.6-3.5-3.5s1.6-3.5,3.5-3.5h20c1.9,0,3.5,1.6,3.5,3.5
			S756,1554.3,754.1,1554.3z M694.1,1554.3h-20c-1.9,0-3.5-1.6-3.5-3.5s1.6-3.5,3.5-3.5h20c1.9,0,3.5,1.6,3.5,3.5
			S696,1554.3,694.1,1554.3z M634.1,1554.3h-20c-1.9,0-3.5-1.6-3.5-3.5s1.6-3.5,3.5-3.5h20c1.9,0,3.5,1.6,3.5,3.5
			S636,1554.3,634.1,1554.3z M574.1,1554.3h-20c-1.9,0-3.5-1.6-3.5-3.5s1.6-3.5,3.5-3.5h20c1.9,0,3.5,1.6,3.5,3.5
			S576,1554.3,574.1,1554.3z M514.1,1554.3h-20c-1.9,0-3.5-1.6-3.5-3.5s1.6-3.5,3.5-3.5h20c1.9,0,3.5,1.6,3.5,3.5
			S516,1554.3,514.1,1554.3z M459,1539.5c-1.1,0-2.2-0.5-2.9-1.5c-4.2-6.1-6.5-13.3-6.6-20.7c0-1.9,1.5-3.5,3.4-3.6c0,0,0,0,0.1,0
			c1.9,0,3.5,1.5,3.5,3.4c0.1,6.1,1.9,11.9,5.4,16.8c1.1,1.6,0.7,3.8-0.9,4.9C460.4,1539.3,459.7,1539.5,459,1539.5z M453,1480.7
			c-1.9,0-3.5-1.6-3.5-3.5v-20c0-1.9,1.6-3.5,3.5-3.5s3.5,1.6,3.5,3.5v20C456.5,1479.1,455,1480.7,453,1480.7z"/>
		<path class="st0" d="M1649.4,723.6h-20c-1.9,0-3.5-1.6-3.5-3.5s1.6-3.5,3.5-3.5h20c1.9,0,3.5,1.6,3.5,3.5
			S1651.3,723.6,1649.4,723.6z M1689.4,723.4c-1.8,0-3.3-1.3-3.5-3.2c-0.2-1.9,1.2-3.6,3.1-3.8c6-0.6,11.6-3,16.2-6.9
			c1.5-1.3,3.7-1.1,4.9,0.4c1.3,1.5,1.1,3.7-0.4,4.9c-5.7,4.9-12.6,7.8-20,8.6C1689.6,723.4,1689.5,723.4,1689.4,723.4z M1719,679
			c-1.9,0-3.5-1.6-3.5-3.5v-20c0-1.9,1.6-3.5,3.5-3.5s3.5,1.6,3.5,3.5v20C1722.5,677.5,1720.9,679,1719,679z M1719,619
			c-1.9,0-3.5-1.6-3.5-3.5v-20c0-1.9,1.6-3.5,3.5-3.5s3.5,1.6,3.5,3.5v20C1722.5,617.5,1720.9,619,1719,619z M1719,559
			c-1.9,0-3.5-1.6-3.5-3.5v-20c0-1.9,1.6-3.5,3.5-3.5s3.5,1.6,3.5,3.5v20C1722.5,557.5,1720.9,559,1719,559z M1719,499
			c-1.9,0-3.5-1.6-3.5-3.5v-20c0-1.9,1.6-3.5,3.5-3.5s3.5,1.6,3.5,3.5v20C1722.5,497.5,1720.9,499,1719,499z M670.5,484.6
			c-1.9,0-3.5-1.6-3.5-3.5v-20c0-1.9,1.6-3.5,3.5-3.5s3.5,1.6,3.5,3.5v20C674,483.1,672.4,484.6,670.5,484.6z M1719,439
			c-1.9,0-3.5-1.6-3.5-3.5v-14.2c0-1.7-0.2-3.5-0.5-5.2c-0.3-1.9,0.9-3.7,2.8-4.1c1.9-0.3,3.7,0.9,4.1,2.8c0.4,2.1,0.6,4.3,0.6,6.4
			v14.2C1722.5,437.5,1720.9,439,1719,439z M670.5,424.6C670.4,424.6,670.4,424.6,670.5,424.6c-2,0-3.5-1.6-3.5-3.5
			c0.1-7.5,2.4-14.7,6.7-20.7c1.1-1.6,3.3-1.9,4.9-0.8c1.6,1.1,1.9,3.3,0.8,4.9c-3.5,4.9-5.3,10.7-5.4,16.7
			C673.9,423.1,672.4,424.6,670.5,424.6z M1691.9,392.5c-0.2,0-0.4,0-0.6-0.1c-1.7-0.3-3.4-0.4-5.1-0.4h-14.2
			c-1.9,0-3.5-1.6-3.5-3.5s1.6-3.5,3.5-3.5h14.2c2.1,0,4.3,0.2,6.4,0.6c1.9,0.3,3.2,2.2,2.8,4.1
			C1695,391.3,1693.6,392.5,1691.9,392.5z M1631.9,392h-20c-1.9,0-3.5-1.6-3.5-3.5s1.6-3.5,3.5-3.5h20c1.9,0,3.5,1.6,3.5,3.5
			S1633.9,392,1631.9,392z M1571.9,392h-20c-1.9,0-3.5-1.6-3.5-3.5s1.6-3.5,3.5-3.5h20c1.9,0,3.5,1.6,3.5,3.5S1573.9,392,1571.9,392
			z M1511.9,392h-20c-1.9,0-3.5-1.6-3.5-3.5s1.6-3.5,3.5-3.5h20c1.9,0,3.5,1.6,3.5,3.5S1513.9,392,1511.9,392z M1451.9,392h-20
			c-1.9,0-3.5-1.6-3.5-3.5s1.6-3.5,3.5-3.5h20c1.9,0,3.5,1.6,3.5,3.5S1453.9,392,1451.9,392z M1391.9,392h-20
			c-1.9,0-3.5-1.6-3.5-3.5s1.6-3.5,3.5-3.5h20c1.9,0,3.5,1.6,3.5,3.5S1393.9,392,1391.9,392z M1331.9,392h-20
			c-1.9,0-3.5-1.6-3.5-3.5s1.6-3.5,3.5-3.5h20c1.9,0,3.5,1.6,3.5,3.5S1333.9,392,1331.9,392z M1271.9,392h-20
			c-1.9,0-3.5-1.6-3.5-3.5s1.6-3.5,3.5-3.5h20c1.9,0,3.5,1.6,3.5,3.5S1273.9,392,1271.9,392z M1211.9,392h-20
			c-1.9,0-3.5-1.6-3.5-3.5s1.6-3.5,3.5-3.5h20c1.9,0,3.5,1.6,3.5,3.5S1213.9,392,1211.9,392z M1151.9,392h-20
			c-1.9,0-3.5-1.6-3.5-3.5s1.6-3.5,3.5-3.5h20c1.9,0,3.5,1.6,3.5,3.5S1153.9,392,1151.9,392z M1091.9,392h-20
			c-1.9,0-3.5-1.6-3.5-3.5s1.6-3.5,3.5-3.5h20c1.9,0,3.5,1.6,3.5,3.5S1093.9,392,1091.9,392z M1031.9,392h-20
			c-1.9,0-3.5-1.6-3.5-3.5s1.6-3.5,3.5-3.5h20c1.9,0,3.5,1.6,3.5,3.5S1033.9,392,1031.9,392z M971.9,392h-20c-1.9,0-3.5-1.6-3.5-3.5
			s1.6-3.5,3.5-3.5h20c1.9,0,3.5,1.6,3.5,3.5S973.9,392,971.9,392z M911.9,392h-20c-1.9,0-3.5-1.6-3.5-3.5s1.6-3.5,3.5-3.5h20
			c1.9,0,3.5,1.6,3.5,3.5S913.9,392,911.9,392z M851.9,392h-20c-1.9,0-3.5-1.6-3.5-3.5s1.6-3.5,3.5-3.5h20c1.9,0,3.5,1.6,3.5,3.5
			S853.9,392,851.9,392z M791.9,392h-20c-1.9,0-3.5-1.6-3.5-3.5s1.6-3.5,3.5-3.5h20c1.9,0,3.5,1.6,3.5,3.5S793.9,392,791.9,392z
			 M731.9,392h-20c-1.9,0-3.5-1.6-3.5-3.5s1.6-3.5,3.5-3.5h20c1.9,0,3.5,1.6,3.5,3.5S733.9,392,731.9,392z"/>
		<g>
			<g>
				<path class="st0" d="M1576.5,1457.2H310.6c-22,0-39.9-17.9-39.9-39.9V521c0-22,17.9-39.9,39.9-39.9h1265.9
					c22,0,39.9,17.9,39.9,39.9v896.3C1616.5,1439.3,1598.6,1457.2,1576.5,1457.2z"/>
				<path class="st2" d="M1525.8,1335.3H859.7c-9.3,0-16.9-7.6-16.9-16.9V996.6c0-9.3,7.6-16.9,16.9-16.9h666.2
					c9.3,0,16.9,7.6,16.9,16.9v321.8C1542.7,1327.7,1535.2,1335.3,1525.8,1335.3z"/>
				<path class="st3" d="M1075.6,1237.9H402.7c-13,0-23.6-10.6-23.6-23.6V700.4c0-13,10.6-23.6,23.6-23.6h672.9
					c13,0,23.6,10.6,23.6,23.6v513.9C1099.2,1227.3,1088.7,1237.9,1075.6,1237.9z"/>
				<path class="st4" d="M1574.9,481.1H312.3c-23,0-41.6,18.6-41.6,41.6V572h1345.7v-49.3C1616.5,499.8,1597.8,481.1,1574.9,481.1z"
					/>
				<g>
					<path class="st4" d="M316.1,1264.3h-78.2c-3.9,0-7.1-3.2-7.1-7.1V1179c0-3.9,3.2-7.1,7.1-7.1h78.2c3.9,0,7.1,3.2,7.1,7.1v78.2
						C323.2,1261.1,320,1264.3,316.1,1264.3z"/>
					<path class="st5" d="M301.2,1258.3c-0.6,0-1-0.4-1-1s0.4-1,1-1h7.9c0.6,0,1,0.4,1,1c0,0.6-0.4,1-1,1v-1l0,1L301.2,1258.3z
						 M291.4,1258.3h-7.9c-0.6,0-1-0.4-1-1s0.4-1,1-1h7.9c0.6,0,1,0.4,1,1S291.9,1258.3,291.4,1258.3z M273.6,1258.3h-7.9
						c-0.6,0-1-0.4-1-1s0.4-1,1-1h7.9c0.6,0,1,0.4,1,1S274.2,1258.3,273.6,1258.3z M255.9,1258.3H248c-0.6,0-1-0.4-1-1s0.4-1,1-1
						h7.9c0.6,0,1,0.4,1,1S256.4,1258.3,255.9,1258.3z M239.1,1255.4c-0.3,0-0.6-0.1-0.8-0.4c-1-1.4-1.5-3-1.5-4.8v-3.4
						c0-0.6,0.4-1,1-1s1,0.4,1,1v3.4c0,1.3,0.4,2.5,1.2,3.6c0.3,0.4,0.2,1.1-0.2,1.4C239.5,1255.4,239.3,1255.4,239.1,1255.4z
						 M316.1,1252.4c-0.1,0-0.1,0-0.2,0c-0.5-0.1-0.9-0.6-0.8-1.2c0.1-0.3,0.1-0.7,0.1-1v-6.7c0-0.6,0.4-1,1-1s1,0.4,1,1v6.7
						c0,0.4,0,0.9-0.1,1.3C317,1252.1,316.6,1252.4,316.1,1252.4z M237.7,1238c-0.6,0-1-0.4-1-1v-7.9c0-0.6,0.4-1,1-1s1,0.4,1,1v7.9
						C238.7,1237.5,238.3,1238,237.7,1238z M316.2,1234.7c-0.6,0-1-0.4-1-1v-7.9c0-0.6,0.4-1,1-1s1,0.4,1,1v7.9
						C317.2,1234.2,316.8,1234.7,316.2,1234.7z M237.7,1220.2c-0.6,0-1-0.4-1-1v-7.9c0-0.6,0.4-1,1-1s1,0.4,1,1v7.9
						C238.7,1219.8,238.3,1220.2,237.7,1220.2z M316.2,1216.9c-0.6,0-1-0.4-1-1v-7.9c0-0.6,0.4-1,1-1s1,0.4,1,1v7.9
						C317.2,1216.5,316.8,1216.9,316.2,1216.9z M237.7,1202.5c-0.6,0-1-0.4-1-1v-7.9c0-0.6,0.4-1,1-1s1,0.4,1,1v7.9
						C238.7,1202,238.3,1202.5,237.7,1202.5z M316.2,1199.2c-0.6,0-1-0.4-1-1v-7.9c0-0.6,0.4-1,1-1s1,0.4,1,1v7.9
						C317.2,1198.7,316.8,1199.2,316.2,1199.2z M238.1,1184.7c-0.1,0-0.2,0-0.3,0c-0.5-0.2-0.8-0.7-0.6-1.3c0.9-2.9,3.5-5.1,6.5-5.5
						c0.5-0.1,1.1,0.3,1.1,0.8c0.1,0.5-0.3,1.1-0.8,1.1c-2.3,0.3-4.2,2-4.9,4.1C238.9,1184.5,238.5,1184.7,238.1,1184.7z
						 M314.2,1182c-0.3,0-0.5-0.1-0.7-0.3c-1.2-1.2-2.7-1.8-4.3-1.8h-2.2c-0.6,0-1-0.4-1-1s0.4-1,1-1h2.2c2.2,0,4.2,0.9,5.8,2.4
						c0.4,0.4,0.4,1,0,1.4C314.7,1181.9,314.4,1182,314.2,1182z M297,1179.8h-7.9c-0.6,0-1-0.4-1-1s0.4-1,1-1h7.9c0.6,0,1,0.4,1,1
						S297.6,1179.8,297,1179.8z M279.3,1179.8h-7.9c-0.6,0-1-0.4-1-1s0.4-1,1-1h7.9c0.6,0,1,0.4,1,1S279.8,1179.8,279.3,1179.8z
						 M261.5,1179.8h-7.9c-0.6,0-1-0.4-1-1s0.4-1,1-1h7.9c0.6,0,1,0.4,1,1S262.1,1179.8,261.5,1179.8z"/>
					<g>
						<g>
							<path class="st6" d="M283.9,1203.9v37.9c0,1.3-1,2.3-2.3,2.3H275c-1.3,0-2.3-1-2.3-2.3v-37.9H261c-1.3,0-2.4-1.1-2.4-2.4
								v-4.9c0-1.3,1.1-2.4,2.4-2.4h34.6c1.3,0,2.4,1.1,2.4,2.4v4.9c0,1.3-1.1,2.4-2.4,2.4H283.9z"/>
						</g>
						<g>
							<path class="st7" d="M281.2,1201.7v37.9c0,1.3-1,2.3-2.3,2.3h-6.6c-1.3,0-2.3-1-2.3-2.3v-37.9h-11.8c-1.3,0-2.4-1.1-2.4-2.4
								v-4.9c0-1.3,1.1-2.4,2.4-2.4h34.6c1.3,0,2.4,1.1,2.4,2.4v4.9c0,1.3-1.1,2.4-2.4,2.4H281.2z"/>
						</g>
					</g>
				</g>
				<g>
					<path class="st4" d="M432.7,1264.3h-78.2c-3.9,0-7.1-3.2-7.1-7.1V1179c0-3.9,3.2-7.1,7.1-7.1h78.2c3.9,0,7.1,3.2,7.1,7.1v78.2
						C439.8,1261.1,436.7,1264.3,432.7,1264.3z"/>
					<path class="st5" d="M417.9,1258.3c-0.6,0-1-0.4-1-1s0.4-1,1-1h7.9c0.6,0,1,0.4,1,1c0,0.6-0.4,1-1,1v-1l0,1L417.9,1258.3z
						 M408.1,1258.3h-7.9c-0.6,0-1-0.4-1-1s0.4-1,1-1h7.9c0.6,0,1,0.4,1,1S408.6,1258.3,408.1,1258.3z M390.3,1258.3h-7.9
						c-0.6,0-1-0.4-1-1s0.4-1,1-1h7.9c0.6,0,1,0.4,1,1S390.9,1258.3,390.3,1258.3z M372.6,1258.3h-7.9c-0.6,0-1-0.4-1-1s0.4-1,1-1
						h7.9c0.6,0,1,0.4,1,1S373.1,1258.3,372.6,1258.3z M355.8,1255.4c-0.3,0-0.6-0.1-0.8-0.4c-1-1.4-1.5-3-1.5-4.8v-3.4
						c0-0.6,0.4-1,1-1s1,0.4,1,1v3.4c0,1.3,0.4,2.5,1.2,3.6c0.3,0.4,0.2,1.1-0.2,1.4C356.2,1255.4,356,1255.4,355.8,1255.4z
						 M432.8,1252.4c-0.1,0-0.1,0-0.2,0c-0.5-0.1-0.9-0.6-0.8-1.2c0.1-0.3,0.1-0.7,0.1-1v-6.7c0-0.6,0.4-1,1-1s1,0.4,1,1v6.7
						c0,0.5,0,0.9-0.1,1.3C433.7,1252.1,433.3,1252.4,432.8,1252.4z M354.4,1238c-0.6,0-1-0.4-1-1v-7.9c0-0.6,0.4-1,1-1s1,0.4,1,1
						v7.9C355.4,1237.5,354.9,1238,354.4,1238z M432.9,1234.7c-0.6,0-1-0.4-1-1v-7.9c0-0.6,0.4-1,1-1s1,0.4,1,1v7.9
						C433.9,1234.2,433.4,1234.7,432.9,1234.7z M354.4,1220.2c-0.6,0-1-0.4-1-1v-7.9c0-0.6,0.4-1,1-1s1,0.4,1,1v7.9
						C355.4,1219.8,354.9,1220.2,354.4,1220.2z M432.9,1216.9c-0.6,0-1-0.4-1-1v-7.9c0-0.6,0.4-1,1-1s1,0.4,1,1v7.9
						C433.9,1216.5,433.4,1216.9,432.9,1216.9z M354.4,1202.5c-0.6,0-1-0.4-1-1v-7.9c0-0.6,0.4-1,1-1s1,0.4,1,1v7.9
						C355.4,1202,354.9,1202.5,354.4,1202.5z M432.9,1199.2c-0.6,0-1-0.4-1-1v-7.9c0-0.6,0.4-1,1-1s1,0.4,1,1v7.9
						C433.9,1198.7,433.4,1199.2,432.9,1199.2z M354.7,1184.7c-0.1,0-0.2,0-0.3,0c-0.5-0.2-0.8-0.7-0.6-1.3c0.9-2.9,3.5-5.1,6.5-5.5
						c0.5-0.1,1.1,0.3,1.1,0.8c0.1,0.5-0.3,1.1-0.8,1.1c-2.3,0.3-4.2,2-4.9,4.1C355.6,1184.5,355.2,1184.7,354.7,1184.7z
						 M430.9,1182c-0.3,0-0.5-0.1-0.7-0.3c-1.2-1.2-2.7-1.8-4.3-1.8h-2.2c-0.6,0-1-0.4-1-1s0.4-1,1-1h2.2c2.2,0,4.2,0.9,5.8,2.4
						c0.4,0.4,0.4,1,0,1.4C431.4,1181.9,431.1,1182,430.9,1182z M413.7,1179.8h-7.9c-0.6,0-1-0.4-1-1s0.4-1,1-1h7.9c0.6,0,1,0.4,1,1
						S414.2,1179.8,413.7,1179.8z M395.9,1179.8h-7.9c-0.6,0-1-0.4-1-1s0.4-1,1-1h7.9c0.6,0,1,0.4,1,1S396.5,1179.8,395.9,1179.8z
						 M378.2,1179.8h-7.9c-0.6,0-1-0.4-1-1s0.4-1,1-1h7.9c0.6,0,1,0.4,1,1S378.8,1179.8,378.2,1179.8z"/>
					<path class="st6" d="M417.2,1198.6l-9-9l-2.8,10.8l-16.4,3.4c-2.7,0.6-4.9,2.4-6.1,4.9l-16.4,36.1l1.5,1.5l23.2-23.2
						c-1.4-2.1-1.1-4.9,0.9-6.7c1.9-1.7,4.9-1.6,6.8,0.1c2.1,2,2.1,5.2,0.1,7.3c-1.7,1.7-4.4,1.9-6.4,0.6l-23.2,23.2l1.5,1.5
						l36.1-16.4c2.5-1.1,4.3-3.4,4.9-6.1l3.4-16.4l10.8-2.8L417.2,1198.6z"/>
					<g>
						<path class="st0" d="M409,1224.1l3.4-16.4l-5-5l-5-5l-16.4,3.4c-2.7,0.6-4.9,2.4-6.1,4.9l-16.4,36.1l1.5,1.5l23.2-23.2
							c-1.4-2.1-1.1-4.9,0.9-6.7c1.9-1.7,4.9-1.6,6.8,0.1c2.1,2,2.1,5.2,0.1,7.3c-1.7,1.7-4.4,1.9-6.4,0.6l-23.2,23.2l1.5,1.5
							l36.1-16.4C406.6,1229.1,408.4,1226.8,409,1224.1z"/>
						<polygon class="st8" points="414.2,1195.9 405.2,1186.9 402.4,1197.7 407.4,1202.7 412.4,1207.7 423.2,1204.9 						"/>
					</g>
				</g>
				<g>
					<path class="st9" d="M742.6,1387.6H238.8c-5.3,0-9.7-4.3-9.7-9.7v-76.4c0-5.3,4.3-9.7,9.7-9.7h503.8c5.3,0,9.7,4.3,9.7,9.7
						v76.4C752.3,1383.3,748,1387.6,742.6,1387.6z"/>
					<linearGradient id="SVGID_1_" gradientUnits="userSpaceOnUse" x1="250.878" y1="1332.0352" x2="730.5344" y2="1332.0352">
						<stop  offset="0" style="stop-color:#B92BF1"/>
						<stop  offset="0.4958" style="stop-color:#7E5BFF"/>
						<stop  offset="1" style="stop-color:#FF6695"/>
					</linearGradient>
					<rect x="250.9" y="1311.3" class="st10" width="479.7" height="41.5"/>
					<polygon class="st0" points="261.3,1352.8 256.3,1359.6 256.3,1366.4 261.3,1366.4 266.4,1366.4 266.4,1359.6 					"/>
					<polygon class="st0" points="712.7,1351.9 707.6,1358.7 707.6,1365.5 712.7,1365.5 717.7,1365.5 717.7,1358.7 					"/>
					<polygon class="st0" points="481.9,1352.8 476.9,1359.6 476.9,1366.4 481.9,1366.4 487,1366.4 487,1359.6 					"/>
					<rect x="260.8" y="1311.3" class="st0" width="1" height="41.5"/>
					<rect x="276.5" y="1311.3" class="st0" width="1" height="41.5"/>
					<rect x="282.4" y="1311.3" class="st0" width="1" height="41.5"/>
					<rect x="288.3" y="1311.3" class="st0" width="1" height="41.5"/>
					<rect x="481.4" y="1311.3" class="st0" width="1" height="41.5"/>
					<rect x="712.1" y="1311.3" class="st0" width="1" height="41.5"/>
					<rect x="718.7" y="1311.3" class="st0" width="1" height="41.5"/>
					<rect x="686.4" y="1311.3" class="st0" width="1" height="41.5"/>
					<rect x="680.4" y="1311.3" class="st0" width="1" height="41.5"/>
					<rect x="670.5" y="1311.3" class="st0" width="1" height="41.5"/>
				</g>
				<g>
					<g>
						<path class="st4" d="M1117.9,1169.6H567.7c-9.9,0-17.9-8-17.9-17.9V839.1c0-9.9,8-17.9,17.9-17.9h550.2
							c9.9,0,17.9,8,17.9,17.9v312.6C1135.8,1161.6,1127.8,1169.6,1117.9,1169.6z"/>
						<path class="st11" d="M568.5,1169.6h548.6c10.3,0,18.7-8.4,18.7-18.7V995.4l-74.4-61.7c-24.6-20.4-60.8-18-82.4,5.5
							l-122.1,132.7c-7.9,8.5-21,9.4-29.9,1.9l-92.4-77.9c-23-19.4-56.7-18.8-79,1.4l-105.8,96v57.6
							C549.8,1161.3,558.1,1169.6,568.5,1169.6z"/>
						<circle class="st8" cx="627.2" cy="918.5" r="32.7"/>
					</g>
					<g>
						<path class="st7" d="M1165.6,1205.3h-8c-1.1,0-2-0.9-2-2s0.9-2,2-2h8c1.1,0,2,0.9,2,2S1166.7,1205.3,1165.6,1205.3z
							 M1137.6,1205.3h-8c-1.1,0-2-0.9-2-2s0.9-2,2-2h8c1.1,0,2,0.9,2,2S1138.7,1205.3,1137.6,1205.3z M1109.6,1205.3h-8
							c-1.1,0-2-0.9-2-2s0.9-2,2-2h8c1.1,0,2,0.9,2,2S1110.7,1205.3,1109.6,1205.3z M1081.6,1205.3h-8c-1.1,0-2-0.9-2-2s0.9-2,2-2h8
							c1.1,0,2,0.9,2,2S1082.7,1205.3,1081.6,1205.3z M1053.6,1205.3h-8c-1.1,0-2-0.9-2-2s0.9-2,2-2h8c1.1,0,2,0.9,2,2
							S1054.7,1205.3,1053.6,1205.3z M1025.6,1205.3h-8c-1.1,0-2-0.9-2-2s0.9-2,2-2h8c1.1,0,2,0.9,2,2S1026.7,1205.3,1025.6,1205.3z
							 M997.6,1205.3h-8c-1.1,0-2-0.9-2-2s0.9-2,2-2h8c1.1,0,2,0.9,2,2S998.7,1205.3,997.6,1205.3z M969.6,1205.3h-8
							c-1.1,0-2-0.9-2-2s0.9-2,2-2h8c1.1,0,2,0.9,2,2S970.7,1205.3,969.6,1205.3z M941.6,1205.3h-8c-1.1,0-2-0.9-2-2s0.9-2,2-2h8
							c1.1,0,2,0.9,2,2S942.7,1205.3,941.6,1205.3z M913.6,1205.3h-8c-1.1,0-2-0.9-2-2s0.9-2,2-2h8c1.1,0,2,0.9,2,2
							S914.7,1205.3,913.6,1205.3z M885.6,1205.3h-8c-1.1,0-2-0.9-2-2s0.9-2,2-2h8c1.1,0,2,0.9,2,2S886.7,1205.3,885.6,1205.3z
							 M857.6,1205.3h-8c-1.1,0-2-0.9-2-2s0.9-2,2-2h8c1.1,0,2,0.9,2,2S858.7,1205.3,857.6,1205.3z M829.6,1205.3h-8
							c-1.1,0-2-0.9-2-2s0.9-2,2-2h8c1.1,0,2,0.9,2,2S830.7,1205.3,829.6,1205.3z M801.6,1205.3h-8c-1.1,0-2-0.9-2-2s0.9-2,2-2h8
							c1.1,0,2,0.9,2,2S802.7,1205.3,801.6,1205.3z M773.6,1205.3h-8c-1.1,0-2-0.9-2-2s0.9-2,2-2h8c1.1,0,2,0.9,2,2
							S774.7,1205.3,773.6,1205.3z M745.6,1205.3h-8c-1.1,0-2-0.9-2-2s0.9-2,2-2h8c1.1,0,2,0.9,2,2S746.7,1205.3,745.6,1205.3z
							 M717.6,1205.3h-8c-1.1,0-2-0.9-2-2s0.9-2,2-2h8c1.1,0,2,0.9,2,2S718.7,1205.3,717.6,1205.3z M689.6,1205.3h-8
							c-1.1,0-2-0.9-2-2s0.9-2,2-2h8c1.1,0,2,0.9,2,2S690.7,1205.3,689.6,1205.3z M661.6,1205.3h-8c-1.1,0-2-0.9-2-2s0.9-2,2-2h8
							c1.1,0,2,0.9,2,2S662.7,1205.3,661.6,1205.3z M633.6,1205.3h-8c-1.1,0-2-0.9-2-2s0.9-2,2-2h8c1.1,0,2,0.9,2,2
							S634.7,1205.3,633.6,1205.3z M605.6,1205.3h-8c-1.1,0-2-0.9-2-2s0.9-2,2-2h8c1.1,0,2,0.9,2,2S606.7,1205.3,605.6,1205.3z
							 M577.6,1205.3h-8c-1.1,0-2-0.9-2-2s0.9-2,2-2h8c1.1,0,2,0.9,2,2S578.7,1205.3,577.6,1205.3z M549.6,1205.3h-8
							c-1.1,0-2-0.9-2-2s0.9-2,2-2h8c1.1,0,2,0.9,2,2S550.7,1205.3,549.6,1205.3z M521.6,1205.3h-1.2c-1.1,0-2-0.9-2-2v-6.8
							c0-1.1,0.9-2,2-2s2,0.9,2,2v5c0.7,0.3,1.2,1,1.2,1.8C523.6,1204.4,522.7,1205.3,521.6,1205.3z M1165.6,1191.2
							c-1.1,0-2-0.9-2-2v-8c0-1.1,0.9-2,2-2s2,0.9,2,2v8C1167.6,1190.3,1166.7,1191.2,1165.6,1191.2z M520.4,1178.5
							c-1.1,0-2-0.9-2-2v-8c0-1.1,0.9-2,2-2s2,0.9,2,2v8C522.4,1177.6,521.5,1178.5,520.4,1178.5z M1165.6,1163.2c-1.1,0-2-0.9-2-2
							v-8c0-1.1,0.9-2,2-2s2,0.9,2,2v8C1167.6,1162.3,1166.7,1163.2,1165.6,1163.2z M520.4,1150.5c-1.1,0-2-0.9-2-2v-8
							c0-1.1,0.9-2,2-2s2,0.9,2,2v8C522.4,1149.6,521.5,1150.5,520.4,1150.5z M1165.6,1135.2c-1.1,0-2-0.9-2-2v-8c0-1.1,0.9-2,2-2
							s2,0.9,2,2v8C1167.6,1134.3,1166.7,1135.2,1165.6,1135.2z M520.4,1122.5c-1.1,0-2-0.9-2-2v-8c0-1.1,0.9-2,2-2s2,0.9,2,2v8
							C522.4,1121.6,521.5,1122.5,520.4,1122.5z M1165.6,1107.2c-1.1,0-2-0.9-2-2v-8c0-1.1,0.9-2,2-2s2,0.9,2,2v8
							C1167.6,1106.3,1166.7,1107.2,1165.6,1107.2z M520.4,1094.5c-1.1,0-2-0.9-2-2v-8c0-1.1,0.9-2,2-2s2,0.9,2,2v8
							C522.4,1093.6,521.5,1094.5,520.4,1094.5z M1165.6,1079.2c-1.1,0-2-0.9-2-2v-8c0-1.1,0.9-2,2-2s2,0.9,2,2v8
							C1167.6,1078.3,1166.7,1079.2,1165.6,1079.2z M520.4,1066.5c-1.1,0-2-0.9-2-2v-8c0-1.1,0.9-2,2-2s2,0.9,2,2v8
							C522.4,1065.6,521.5,1066.5,520.4,1066.5z M1165.6,1051.2c-1.1,0-2-0.9-2-2v-8c0-1.1,0.9-2,2-2s2,0.9,2,2v8
							C1167.6,1050.3,1166.7,1051.2,1165.6,1051.2z M520.4,1038.5c-1.1,0-2-0.9-2-2v-8c0-1.1,0.9-2,2-2s2,0.9,2,2v8
							C522.4,1037.6,521.5,1038.5,520.4,1038.5z M1165.6,1023.2c-1.1,0-2-0.9-2-2v-8c0-1.1,0.9-2,2-2s2,0.9,2,2v8
							C1167.6,1022.3,1166.7,1023.2,1165.6,1023.2z M520.4,1010.5c-1.1,0-2-0.9-2-2v-8c0-1.1,0.9-2,2-2s2,0.9,2,2v8
							C522.4,1009.6,521.5,1010.5,520.4,1010.5z M1165.6,995.2c-1.1,0-2-0.9-2-2v-8c0-1.1,0.9-2,2-2s2,0.9,2,2v8
							C1167.6,994.3,1166.7,995.2,1165.6,995.2z M520.4,982.5c-1.1,0-2-0.9-2-2v-8c0-1.1,0.9-2,2-2s2,0.9,2,2v8
							C522.4,981.6,521.5,982.5,520.4,982.5z M1165.6,967.2c-1.1,0-2-0.9-2-2v-8c0-1.1,0.9-2,2-2s2,0.9,2,2v8
							C1167.6,966.3,1166.7,967.2,1165.6,967.2z M520.4,954.5c-1.1,0-2-0.9-2-2v-8c0-1.1,0.9-2,2-2s2,0.9,2,2v8
							C522.4,953.6,521.5,954.5,520.4,954.5z M1165.6,939.2c-1.1,0-2-0.9-2-2v-8c0-1.1,0.9-2,2-2s2,0.9,2,2v8
							C1167.6,938.3,1166.7,939.2,1165.6,939.2z M520.4,926.5c-1.1,0-2-0.9-2-2v-8c0-1.1,0.9-2,2-2s2,0.9,2,2v8
							C522.4,925.6,521.5,926.5,520.4,926.5z M1165.6,911.2c-1.1,0-2-0.9-2-2v-8c0-1.1,0.9-2,2-2s2,0.9,2,2v8
							C1167.6,910.3,1166.7,911.2,1165.6,911.2z M520.4,898.5c-1.1,0-2-0.9-2-2v-8c0-1.1,0.9-2,2-2s2,0.9,2,2v8
							C522.4,897.6,521.5,898.5,520.4,898.5z M1165.6,883.2c-1.1,0-2-0.9-2-2v-8c0-1.1,0.9-2,2-2s2,0.9,2,2v8
							C1167.6,882.3,1166.7,883.2,1165.6,883.2z M520.4,870.5c-1.1,0-2-0.9-2-2v-8c0-1.1,0.9-2,2-2s2,0.9,2,2v8
							C522.4,869.6,521.5,870.5,520.4,870.5z M1165.6,855.2c-1.1,0-2-0.9-2-2v-8c0-1.1,0.9-2,2-2s2,0.9,2,2v8
							C1167.6,854.3,1166.7,855.2,1165.6,855.2z M520.4,842.5c-1.1,0-2-0.9-2-2v-8c0-1.1,0.9-2,2-2s2,0.9,2,2v8
							C522.4,841.6,521.5,842.5,520.4,842.5z M1165.6,827.2c-1.1,0-2-0.9-2-2v-8c0-1.1,0.9-2,2-2s2,0.9,2,2v8
							C1167.6,826.3,1166.7,827.2,1165.6,827.2z M520.4,814.5c-1.1,0-2-0.9-2-2v-8c0-1.1,0.9-2,2-2s2,0.9,2,2v8
							C522.4,813.6,521.5,814.5,520.4,814.5z M1165.6,799.2c-1.1,0-2-0.9-2-2v-8c0-1.1,0.9-2,2-2s2,0.9,2,2v8
							C1167.6,798.3,1166.7,799.2,1165.6,799.2z M1147.3,789.4h-8c-1.1,0-2-0.9-2-2s0.9-2,2-2h8c1.1,0,2,0.9,2,2
							S1148.5,789.4,1147.3,789.4z M1119.3,789.4h-8c-1.1,0-2-0.9-2-2s0.9-2,2-2h8c1.1,0,2,0.9,2,2S1120.5,789.4,1119.3,789.4z
							 M1091.3,789.4h-8c-1.1,0-2-0.9-2-2s0.9-2,2-2h8c1.1,0,2,0.9,2,2S1092.5,789.4,1091.3,789.4z M1063.3,789.4h-8
							c-1.1,0-2-0.9-2-2s0.9-2,2-2h8c1.1,0,2,0.9,2,2S1064.5,789.4,1063.3,789.4z M1035.3,789.4h-8c-1.1,0-2-0.9-2-2s0.9-2,2-2h8
							c1.1,0,2,0.9,2,2S1036.5,789.4,1035.3,789.4z M1007.3,789.4h-8c-1.1,0-2-0.9-2-2s0.9-2,2-2h8c1.1,0,2,0.9,2,2
							S1008.5,789.4,1007.3,789.4z M979.3,789.4h-8c-1.1,0-2-0.9-2-2s0.9-2,2-2h8c1.1,0,2,0.9,2,2S980.5,789.4,979.3,789.4z
							 M951.3,789.4h-8c-1.1,0-2-0.9-2-2s0.9-2,2-2h8c1.1,0,2,0.9,2,2S952.5,789.4,951.3,789.4z M923.3,789.4h-8c-1.1,0-2-0.9-2-2
							s0.9-2,2-2h8c1.1,0,2,0.9,2,2S924.5,789.4,923.3,789.4z M895.3,789.4h-8c-1.1,0-2-0.9-2-2s0.9-2,2-2h8c1.1,0,2,0.9,2,2
							S896.5,789.4,895.3,789.4z M867.3,789.4h-8c-1.1,0-2-0.9-2-2s0.9-2,2-2h8c1.1,0,2,0.9,2,2S868.5,789.4,867.3,789.4z
							 M839.3,789.4h-8c-1.1,0-2-0.9-2-2s0.9-2,2-2h8c1.1,0,2,0.9,2,2S840.5,789.4,839.3,789.4z M811.3,789.4h-8c-1.1,0-2-0.9-2-2
							s0.9-2,2-2h8c1.1,0,2,0.9,2,2S812.5,789.4,811.3,789.4z M783.3,789.4h-8c-1.1,0-2-0.9-2-2s0.9-2,2-2h8c1.1,0,2,0.9,2,2
							S784.5,789.4,783.3,789.4z M755.3,789.4h-8c-1.1,0-2-0.9-2-2s0.9-2,2-2h8c1.1,0,2,0.9,2,2S756.5,789.4,755.3,789.4z
							 M727.3,789.4h-8c-1.1,0-2-0.9-2-2s0.9-2,2-2h8c1.1,0,2,0.9,2,2S728.5,789.4,727.3,789.4z M699.3,789.4h-8c-1.1,0-2-0.9-2-2
							s0.9-2,2-2h8c1.1,0,2,0.9,2,2S700.5,789.4,699.3,789.4z M671.3,789.4h-8c-1.1,0-2-0.9-2-2s0.9-2,2-2h8c1.1,0,2,0.9,2,2
							S672.5,789.4,671.3,789.4z M643.3,789.4h-8c-1.1,0-2-0.9-2-2s0.9-2,2-2h8c1.1,0,2,0.9,2,2S644.5,789.4,643.3,789.4z
							 M615.3,789.4h-8c-1.1,0-2-0.9-2-2s0.9-2,2-2h8c1.1,0,2,0.9,2,2S616.5,789.4,615.3,789.4z M587.3,789.4h-8c-1.1,0-2-0.9-2-2
							s0.9-2,2-2h8c1.1,0,2,0.9,2,2S588.5,789.4,587.3,789.4z M559.3,789.4h-8c-1.1,0-2-0.9-2-2s0.9-2,2-2h8c1.1,0,2,0.9,2,2
							S560.5,789.4,559.3,789.4z M531.3,789.4h-8c-1.1,0-2-0.9-2-2s0.9-2,2-2h8c1.1,0,2,0.9,2,2S532.5,789.4,531.3,789.4z"/>
						<rect x="502.7" y="774" class="st12" width="34.4" height="34.4"/>
						<rect x="1148.4" y="774" class="st12" width="34.4" height="34.4"/>
						<rect x="1148.4" y="1184.2" class="st12" width="34.4" height="34.4"/>
						<rect x="503.2" y="1184.2" class="st12" width="34.4" height="34.4"/>
						<rect x="503.2" y="979.1" class="st12" width="34.4" height="34.4"/>
						<rect x="1148.4" y="979.1" class="st12" width="34.4" height="34.4"/>
						<rect x="825.8" y="771.4" class="st12" width="34.4" height="34.4"/>
						<rect x="825.8" y="1184.2" class="st12" width="34.4" height="34.4"/>
					</g>
				</g>
				<circle class="st7" cx="337.7" cy="529.1" r="14.5"/>
				<circle class="st8" cx="393.6" cy="529.1" r="14.5"/>
				<circle class="st13" cx="449.6" cy="529.1" r="14.5"/>
				<path class="st13" d="M983.3,708.4h-8.3c-1.2,0-2.1-0.9-2.1-2.1c0-1.2,0.9-2.1,2.1-2.1h8.3c1.2,0,2.1,0.9,2.1,2.1
					C985.3,707.5,984.4,708.4,983.3,708.4z M954.1,708.4h-8.3c-1.2,0-2.1-0.9-2.1-2.1c0-1.2,0.9-2.1,2.1-2.1h8.3
					c1.2,0,2.1,0.9,2.1,2.1C956.2,707.5,955.2,708.4,954.1,708.4z M924.9,708.4h-8.3c-1.2,0-2.1-0.9-2.1-2.1c0-1.2,0.9-2.1,2.1-2.1
					h8.3c1.2,0,2.1,0.9,2.1,2.1C927,707.5,926,708.4,924.9,708.4z M895.7,708.4h-8.3c-1.2,0-2.1-0.9-2.1-2.1c0-1.2,0.9-2.1,2.1-2.1
					h8.3c1.2,0,2.1,0.9,2.1,2.1C897.8,707.5,896.9,708.4,895.7,708.4z M866.5,708.4h-8.3c-1.2,0-2.1-0.9-2.1-2.1
					c0-1.2,0.9-2.1,2.1-2.1h8.3c1.2,0,2.1,0.9,2.1,2.1C868.6,707.5,867.7,708.4,866.5,708.4z M837.3,708.4H829
					c-1.2,0-2.1-0.9-2.1-2.1c0-1.2,0.9-2.1,2.1-2.1h8.3c1.2,0,2.1,0.9,2.1,2.1C839.4,707.5,838.5,708.4,837.3,708.4z M808.1,708.4
					h-8.3c-1.2,0-2.1-0.9-2.1-2.1c0-1.2,0.9-2.1,2.1-2.1h8.3c1.2,0,2.1,0.9,2.1,2.1C810.2,707.5,809.3,708.4,808.1,708.4z
					 M779,708.4h-8.3c-1.2,0-2.1-0.9-2.1-2.1c0-1.2,0.9-2.1,2.1-2.1h8.3c1.2,0,2.1,0.9,2.1,2.1C781,707.5,780.1,708.4,779,708.4z
					 M749.8,708.4h-8.3c-1.2,0-2.1-0.9-2.1-2.1c0-1.2,0.9-2.1,2.1-2.1h8.3c1.2,0,2.1,0.9,2.1,2.1
					C751.9,707.5,750.9,708.4,749.8,708.4z M720.6,708.4h-8.3c-1.2,0-2.1-0.9-2.1-2.1c0-1.2,0.9-2.1,2.1-2.1h8.3
					c1.2,0,2.1,0.9,2.1,2.1C722.7,707.5,721.7,708.4,720.6,708.4z M691.4,708.4h-8.3c-1.2,0-2.1-0.9-2.1-2.1c0-1.2,0.9-2.1,2.1-2.1
					h8.3c1.2,0,2.1,0.9,2.1,2.1C693.5,707.5,692.6,708.4,691.4,708.4z M662.2,708.4h-8.3c-1.2,0-2.1-0.9-2.1-2.1
					c0-1.2,0.9-2.1,2.1-2.1h8.3c1.2,0,2.1,0.9,2.1,2.1C664.3,707.5,663.4,708.4,662.2,708.4z M633,708.4h-8.3
					c-1.2,0-2.1-0.9-2.1-2.1c0-1.2,0.9-2.1,2.1-2.1h8.3c1.2,0,2.1,0.9,2.1,2.1C635.1,707.5,634.2,708.4,633,708.4z M603.8,708.4
					h-8.3c-1.2,0-2.1-0.9-2.1-2.1c0-1.2,0.9-2.1,2.1-2.1h8.3c1.2,0,2.1,0.9,2.1,2.1C605.9,707.5,605,708.4,603.8,708.4z
					 M574.7,708.4h-8.3c-1.2,0-2.1-0.9-2.1-2.1c0-1.2,0.9-2.1,2.1-2.1h8.3c1.2,0,2.1,0.9,2.1,2.1
					C576.7,707.5,575.8,708.4,574.7,708.4z M545.5,708.4h-8.3c-1.2,0-2.1-0.9-2.1-2.1c0-1.2,0.9-2.1,2.1-2.1h8.3
					c1.2,0,2.1,0.9,2.1,2.1C547.6,707.5,546.6,708.4,545.5,708.4z M516.3,708.4H508c-1.2,0-2.1-0.9-2.1-2.1c0-1.2,0.9-2.1,2.1-2.1
					h8.3c1.2,0,2.1,0.9,2.1,2.1C518.4,707.5,517.4,708.4,516.3,708.4z M487.1,708.4h-8.3c-1.2,0-2.1-0.9-2.1-2.1
					c0-1.2,0.9-2.1,2.1-2.1h8.3c1.2,0,2.1,0.9,2.1,2.1C489.2,707.5,488.3,708.4,487.1,708.4z M457.9,708.4h-8.3
					c-1.2,0-2.1-0.9-2.1-2.1c0-1.2,0.9-2.1,2.1-2.1h8.3c1.2,0,2.1,0.9,2.1,2.1C460,707.5,459.1,708.4,457.9,708.4z"/>
				<path class="st13" d="M1315.1,1367.6h-8.3c-1.2,0-2.1-0.9-2.1-2.1s0.9-2.1,2.1-2.1h8.3c1.2,0,2.1,0.9,2.1,2.1
					S1316.3,1367.6,1315.1,1367.6z M1286,1367.6h-8.3c-1.2,0-2.1-0.9-2.1-2.1s0.9-2.1,2.1-2.1h8.3c1.2,0,2.1,0.9,2.1,2.1
					S1287.1,1367.6,1286,1367.6z M1256.8,1367.6h-8.3c-1.2,0-2.1-0.9-2.1-2.1s0.9-2.1,2.1-2.1h8.3c1.2,0,2.1,0.9,2.1,2.1
					S1257.9,1367.6,1256.8,1367.6z M1227.6,1367.6h-8.3c-1.2,0-2.1-0.9-2.1-2.1s0.9-2.1,2.1-2.1h8.3c1.2,0,2.1,0.9,2.1,2.1
					S1228.7,1367.6,1227.6,1367.6z M1198.4,1367.6h-8.3c-1.2,0-2.1-0.9-2.1-2.1s0.9-2.1,2.1-2.1h8.3c1.2,0,2.1,0.9,2.1,2.1
					S1199.5,1367.6,1198.4,1367.6z M1169.2,1367.6h-8.3c-1.2,0-2.1-0.9-2.1-2.1s0.9-2.1,2.1-2.1h8.3c1.2,0,2.1,0.9,2.1,2.1
					S1170.4,1367.6,1169.2,1367.6z M1140,1367.6h-8.3c-1.2,0-2.1-0.9-2.1-2.1s0.9-2.1,2.1-2.1h8.3c1.2,0,2.1,0.9,2.1,2.1
					S1141.2,1367.6,1140,1367.6z M1110.8,1367.6h-8.3c-1.2,0-2.1-0.9-2.1-2.1s0.9-2.1,2.1-2.1h8.3c1.2,0,2.1,0.9,2.1,2.1
					S1112,1367.6,1110.8,1367.6z M1081.7,1367.6h-8.3c-1.2,0-2.1-0.9-2.1-2.1s0.9-2.1,2.1-2.1h8.3c1.2,0,2.1,0.9,2.1,2.1
					S1082.8,1367.6,1081.7,1367.6z M1052.5,1367.6h-8.3c-1.2,0-2.1-0.9-2.1-2.1s0.9-2.1,2.1-2.1h8.3c1.2,0,2.1,0.9,2.1,2.1
					S1053.6,1367.6,1052.5,1367.6z M1023.3,1367.6h-8.3c-1.2,0-2.1-0.9-2.1-2.1s0.9-2.1,2.1-2.1h8.3c1.2,0,2.1,0.9,2.1,2.1
					S1024.4,1367.6,1023.3,1367.6z M994.1,1367.6h-8.3c-1.2,0-2.1-0.9-2.1-2.1s0.9-2.1,2.1-2.1h8.3c1.2,0,2.1,0.9,2.1,2.1
					S995.3,1367.6,994.1,1367.6z M964.9,1367.6h-8.3c-1.2,0-2.1-0.9-2.1-2.1s0.9-2.1,2.1-2.1h8.3c1.2,0,2.1,0.9,2.1,2.1
					S966.1,1367.6,964.9,1367.6z M935.7,1367.6h-8.3c-1.2,0-2.1-0.9-2.1-2.1s0.9-2.1,2.1-2.1h8.3c1.2,0,2.1,0.9,2.1,2.1
					S936.9,1367.6,935.7,1367.6z M906.5,1367.6h-8.3c-1.2,0-2.1-0.9-2.1-2.1s0.9-2.1,2.1-2.1h8.3c1.2,0,2.1,0.9,2.1,2.1
					S907.7,1367.6,906.5,1367.6z M877.4,1367.6H869c-1.2,0-2.1-0.9-2.1-2.1s0.9-2.1,2.1-2.1h8.3c1.2,0,2.1,0.9,2.1,2.1
					S878.5,1367.6,877.4,1367.6z M848.2,1367.6h-8.3c-1.2,0-2.1-0.9-2.1-2.1s0.9-2.1,2.1-2.1h8.3c1.2,0,2.1,0.9,2.1,2.1
					S849.3,1367.6,848.2,1367.6z M819,1367.6h-8.3c-1.2,0-2.1-0.9-2.1-2.1s0.9-2.1,2.1-2.1h8.3c1.2,0,2.1,0.9,2.1,2.1
					S820.1,1367.6,819,1367.6z M789.8,1367.6h-8.3c-1.2,0-2.1-0.9-2.1-2.1s0.9-2.1,2.1-2.1h8.3c1.2,0,2.1,0.9,2.1,2.1
					S791,1367.6,789.8,1367.6z M760.6,1367.6h-8.3c-1.2,0-2.1-0.9-2.1-2.1s0.9-2.1,2.1-2.1h8.3c1.2,0,2.1,0.9,2.1,2.1
					S761.8,1367.6,760.6,1367.6z M1325.6,1357.2c-1.2,0-2.1-0.9-2.1-2.1v-8.3c0-1.2,0.9-2.1,2.1-2.1s2.1,0.9,2.1,2.1v8.3
					C1327.7,1356.3,1326.8,1357.2,1325.6,1357.2z M1325.6,1328c-1.2,0-2.1-0.9-2.1-2.1v-8.3c0-1.2,0.9-2.1,2.1-2.1s2.1,0.9,2.1,2.1
					v8.3C1327.7,1327.1,1326.8,1328,1325.6,1328z M1325.6,1298.9c-1.2,0-2.1-0.9-2.1-2.1v-8.3c0-1.2,0.9-2.1,2.1-2.1
					s2.1,0.9,2.1,2.1v8.3C1327.7,1297.9,1326.8,1298.9,1325.6,1298.9z M1325.6,1269.7c-1.2,0-2.1-0.9-2.1-2.1v-8.3
					c0-1.2,0.9-2.1,2.1-2.1s2.1,0.9,2.1,2.1v8.3C1327.7,1268.7,1326.8,1269.7,1325.6,1269.7z M1325.6,1240.5c-1.2,0-2.1-0.9-2.1-2.1
					v-8.3c0-1.2,0.9-2.1,2.1-2.1s2.1,0.9,2.1,2.1v8.3C1327.7,1239.6,1326.8,1240.5,1325.6,1240.5z M1325.6,1211.3
					c-1.2,0-2.1-0.9-2.1-2.1v-8.3c0-1.2,0.9-2.1,2.1-2.1s2.1,0.9,2.1,2.1v8.3C1327.7,1210.4,1326.8,1211.3,1325.6,1211.3z
					 M1325.6,1182.1c-1.2,0-2.1-0.9-2.1-2.1v-8.3c0-1.2,0.9-2.1,2.1-2.1s2.1,0.9,2.1,2.1v8.3
					C1327.7,1181.2,1326.8,1182.1,1325.6,1182.1z M1325.6,1152.9c-1.2,0-2.1-0.9-2.1-2.1v-8.3c0-1.2,0.9-2.1,2.1-2.1
					s2.1,0.9,2.1,2.1v8.3C1327.7,1152,1326.8,1152.9,1325.6,1152.9z M1325.6,1123.8c-1.2,0-2.1-0.9-2.1-2.1v-8.3
					c0-1.2,0.9-2.1,2.1-2.1s2.1,0.9,2.1,2.1v8.3C1327.7,1122.8,1326.8,1123.8,1325.6,1123.8z M1325.6,1094.6c-1.2,0-2.1-0.9-2.1-2.1
					v-8.3c0-1.2,0.9-2.1,2.1-2.1s2.1,0.9,2.1,2.1v8.3C1327.7,1093.6,1326.8,1094.6,1325.6,1094.6z M1325.6,1065.4
					c-1.2,0-2.1-0.9-2.1-2.1v-8.3c0-1.2,0.9-2.1,2.1-2.1s2.1,0.9,2.1,2.1v8.3C1327.7,1064.4,1326.8,1065.4,1325.6,1065.4z
					 M1325.6,1036.2c-1.2,0-2.1-0.9-2.1-2.1v-8.3c0-1.2,0.9-2.1,2.1-2.1s2.1,0.9,2.1,2.1v8.3
					C1327.7,1035.3,1326.8,1036.2,1325.6,1036.2z M1325.6,1007c-1.2,0-2.1-0.9-2.1-2.1v-8.3c0-1.2,0.9-2.1,2.1-2.1s2.1,0.9,2.1,2.1
					v8.3C1327.7,1006.1,1326.8,1007,1325.6,1007z M1325.6,977.8c-1.2,0-2.1-0.9-2.1-2.1v-8.3c0-1.2,0.9-2.1,2.1-2.1s2.1,0.9,2.1,2.1
					v8.3C1327.7,976.9,1326.8,977.8,1325.6,977.8z M1325.6,948.6c-1.2,0-2.1-0.9-2.1-2.1v-8.3c0-1.2,0.9-2.1,2.1-2.1
					s2.1,0.9,2.1,2.1v8.3C1327.7,947.7,1326.8,948.6,1325.6,948.6z M1325.6,919.5c-1.2,0-2.1-0.9-2.1-2.1V909c0-1.2,0.9-2.1,2.1-2.1
					s2.1,0.9,2.1,2.1v8.3C1327.7,918.5,1326.8,919.5,1325.6,919.5z"/>
				<path class="st13" d="M1469.6,821.6h-1c-1.2,0-2.1-0.9-2.1-2.1c0-0.7,0.4-1.4,1-1.8v-5.6c0-1.2,0.9-2.1,2.1-2.1s2.1,0.9,2.1,2.1
					v7.4C1471.7,820.7,1470.8,821.6,1469.6,821.6z M1447.8,821.6h-8.3c-1.2,0-2.1-0.9-2.1-2.1s0.9-2.1,2.1-2.1h8.3
					c1.2,0,2.1,0.9,2.1,2.1S1448.9,821.6,1447.8,821.6z M1418.6,821.6h-8.3c-1.2,0-2.1-0.9-2.1-2.1s0.9-2.1,2.1-2.1h8.3
					c1.2,0,2.1,0.9,2.1,2.1S1419.8,821.6,1418.6,821.6z M1389.4,821.6h-8.3c-1.2,0-2.1-0.9-2.1-2.1s0.9-2.1,2.1-2.1h8.3
					c1.2,0,2.1,0.9,2.1,2.1S1390.6,821.6,1389.4,821.6z M1360.2,821.6h-8.3c-1.2,0-2.1-0.9-2.1-2.1s0.9-2.1,2.1-2.1h8.3
					c1.2,0,2.1,0.9,2.1,2.1S1361.4,821.6,1360.2,821.6z M1331.1,821.6h-8.3c-1.2,0-2.1-0.9-2.1-2.1s0.9-2.1,2.1-2.1h8.3
					c1.2,0,2.1,0.9,2.1,2.1S1332.2,821.6,1331.1,821.6z M1301.9,821.6h-8.3c-1.2,0-2.1-0.9-2.1-2.1s0.9-2.1,2.1-2.1h8.3
					c1.2,0,2.1,0.9,2.1,2.1S1303,821.6,1301.9,821.6z M1272.7,821.6h-8.3c-1.2,0-2.1-0.9-2.1-2.1s0.9-2.1,2.1-2.1h8.3
					c1.2,0,2.1,0.9,2.1,2.1S1273.8,821.6,1272.7,821.6z M1243.5,821.6h-8.3c-1.2,0-2.1-0.9-2.1-2.1s0.9-2.1,2.1-2.1h8.3
					c1.2,0,2.1,0.9,2.1,2.1S1244.6,821.6,1243.5,821.6z M1225.8,810.2c-1.2,0-2.1-0.9-2.1-2.1v-8.3c0-1.2,0.9-2.1,2.1-2.1
					s2.1,0.9,2.1,2.1v8.3C1227.9,809.2,1226.9,810.2,1225.8,810.2z M1469.6,793.4c-1.2,0-2.1-0.9-2.1-2.1V783c0-1.2,0.9-2.1,2.1-2.1
					s2.1,0.9,2.1,2.1v8.3C1471.7,792.5,1470.8,793.4,1469.6,793.4z M1225.8,781c-1.2,0-2.1-0.9-2.1-2.1v-8.3c0-1.2,0.9-2.1,2.1-2.1
					s2.1,0.9,2.1,2.1v8.3C1227.9,780.1,1226.9,781,1225.8,781z M1469.6,764.3c-1.2,0-2.1-0.9-2.1-2.1v-8.3c0-1.2,0.9-2.1,2.1-2.1
					s2.1,0.9,2.1,2.1v8.3C1471.7,763.3,1470.8,764.3,1469.6,764.3z M1225.8,751.8c-1.2,0-2.1-0.9-2.1-2.1v-8.3
					c0-1.2,0.9-2.1,2.1-2.1s2.1,0.9,2.1,2.1v8.3C1227.9,750.9,1226.9,751.8,1225.8,751.8z"/>
				<g>
					<path class="st9" d="M1501.4,741.4h-488.9c-8.8,0-15.9-7.1-15.9-15.9v-72.1c0-8.8,7.1-15.9,15.9-15.9h488.9
						c8.8,0,15.9,7.1,15.9,15.9v72.1C1517.3,734.3,1510.2,741.4,1501.4,741.4z"/>
					<g>
						<g>
							<path class="st13" d="M1109.4,720.1h-48.2c-3.6,0-6.5-2.9-6.5-6.5v-48.2c0-3.6,2.9-6.5,6.5-6.5h48.2c3.6,0,6.5,2.9,6.5,6.5
								v48.2C1116,717.1,1113,720.1,1109.4,720.1z"/>
							<path class="st8" d="M1177.9,720.1h-48.2c-3.6,0-6.5-2.9-6.5-6.5v-48.2c0-3.6,2.9-6.5,6.5-6.5h48.2c3.6,0,6.5,2.9,6.5,6.5
								v48.2C1184.5,717.1,1181.5,720.1,1177.9,720.1z"/>
							<path class="st7" d="M1246.1,720.1h-48.2c-3.6,0-6.5-2.9-6.5-6.5v-48.2c0-3.6,2.9-6.5,6.5-6.5h48.2c3.6,0,6.5,2.9,6.5,6.5
								v48.2C1252.7,717.1,1249.7,720.1,1246.1,720.1z"/>
							<path class="st14" d="M1315.2,720.1H1267c-3.6,0-6.5-2.9-6.5-6.5v-48.2c0-3.6,2.9-6.5,6.5-6.5h48.2c3.6,0,6.5,2.9,6.5,6.5
								v48.2C1321.7,717.1,1318.8,720.1,1315.2,720.1z"/>
							<path class="st4" d="M1384.9,720.1h-48.2c-3.6,0-6.5-2.9-6.5-6.5v-48.2c0-3.6,2.9-6.5,6.5-6.5h48.2c3.6,0,6.5,2.9,6.5,6.5
								v48.2C1391.4,717.1,1388.5,720.1,1384.9,720.1z"/>
							<path class="st15" d="M1453.8,720.1h-48.2c-3.6,0-6.5-2.9-6.5-6.5v-48.2c0-3.6,2.9-6.5,6.5-6.5h48.2c3.6,0,6.5,2.9,6.5,6.5
								v48.2C1460.4,717.1,1457.4,720.1,1453.8,720.1z"/>
						</g>
						<polygon class="st16" points="1014.4,689.4 1035.6,706.3 1035.6,689.4 1035.6,672.5 						"/>
						<polygon class="st16" points="1499.5,689.4 1478.3,672.5 1478.3,689.4 1478.3,706.3 						"/>
					</g>
				</g>
				<g>
					<path class="st9" d="M438.5,1082.4h-79.4c-8,0-14.5-6.5-14.5-14.5V640.4c0-8,6.5-14.5,14.5-14.5h79.4c8,0,14.5,6.5,14.5,14.5
						v427.5C453,1075.9,446.6,1082.4,438.5,1082.4z"/>
					<path class="st16" d="M437.9,625.9h-78.2c-8.3,0-15.1,6.8-15.1,15.1v16.2H453V641C453,632.7,446.3,625.9,437.9,625.9z"/>
					<g>
						<polygon class="st0" points="353.8,643 363.4,650.7 363.4,643 363.4,635.3 						"/>
						<polygon class="st0" points="363.4,643 373.1,650.7 373.1,643 373.1,635.3 						"/>
					</g>
					<g>
						<rect x="357.2" y="676.8" class="st17" width="36.4" height="36.4"/>
						<rect x="404" y="676.8" class="st18" width="36.4" height="36.4"/>
						<rect x="357.2" y="723.4" class="st18" width="36.4" height="36.4"/>
						<rect x="404" y="723.4" class="st17" width="36.4" height="36.4"/>
						<rect x="357.2" y="770" class="st17" width="36.4" height="36.4"/>
						<rect x="404" y="770" class="st18" width="36.4" height="36.4"/>
						<rect x="357.2" y="816.5" class="st18" width="36.4" height="36.4"/>
						<rect x="404" y="816.5" class="st17" width="36.4" height="36.4"/>
						<rect x="357.2" y="863.1" class="st17" width="36.4" height="36.4"/>
						<rect x="404" y="863.1" class="st18" width="36.4" height="36.4"/>
						<rect x="357.2" y="909.7" class="st18" width="36.4" height="36.4"/>
						<rect x="404" y="909.7" class="st17" width="36.4" height="36.4"/>
					</g>
					<path class="st17" d="M438.7,1036.3H385v-53.7h53.7V1036.3z M393.4,1028h37v-37h-37V1028z"/>
					<rect x="359.8" y="967.8" class="st7" width="52.1" height="52.1"/>
				</g>
				<g>
					<path class="st13" d="M1407.9,1203.5h-164.6c-9.7,0-17.6-7.9-17.6-17.6v-117c0-9.7,7.9-17.6,17.6-17.6h164.6
						c9.7,0,17.6,7.9,17.6,17.6v117C1425.5,1195.6,1417.6,1203.5,1407.9,1203.5z"/>
					<path class="st7" d="M1410.6,1021.4h-169.9c-8.2,0-14.9-6.7-14.9-14.9V884.1c0-8.2,6.7-14.9,14.9-14.9h169.9
						c8.2,0,14.9,6.7,14.9,14.9v122.3C1425.5,1014.7,1418.8,1021.4,1410.6,1021.4z"/>
					<path class="st19" d="M1409.9,869.2h-168.6c-8.6,0-15.6,7-15.6,15.6v12.9h199.7v-12.9C1425.5,876.2,1418.5,869.2,1409.9,869.2z
						"/>
					<path class="st20" d="M1407.2,1051.3h-163.1c-10.1,0-18.3,8.2-18.3,18.3v8.1h199.7v-8.1
						C1425.5,1059.5,1417.3,1051.3,1407.2,1051.3z"/>
				</g>
			</g>
			<g>
				<linearGradient id="SVGID_2_" gradientUnits="userSpaceOnUse" x1="1421.7115" y1="947.1833" x2="1389.8098" y2="877.0347">
					<stop  offset="0" style="stop-color:#F27370"/>
					<stop  offset="1" style="stop-color:#FFABAB"/>
				</linearGradient>
				<path class="st21" d="M1474.8,847.9c0,0-15.8,10.7-25.8,28.6s-57.3,86.2-70.9,83.1c-13.6-3.1-61.9-112.1-65.6-126.3
					c-3.7-14.2-26.5-38.9-42-38.3c0,0-13.6,9.1-6.2,21.8c7.4,12.8,26.5,16.5,31.5,28.2s42.1,170.4,72.6,171.6
					c30.5,1.2,110.6-96.3,110.6-96.3L1474.8,847.9z"/>
				<linearGradient id="SVGID_3_" gradientUnits="userSpaceOnUse" x1="1385.105" y1="956.2173" x2="1468.5986" y2="813.1267">
					<stop  offset="0" style="stop-color:#B92BF1"/>
					<stop  offset="1" style="stop-color:#951DCE"/>
				</linearGradient>
				<path class="st22" d="M1474.8,847.9c0,0-15.8,10.7-25.8,28.6c-9.9,17.9-57.3,86.2-70.9,83.1c-5.2-1.2-15.5-17.9-26.4-38.9
					c-5.7,14.7-24.7,27.4-38.3,33.4c14.6,20.1,40.4,61.9,55.1,62.5c30.5,1.2,110.6-96.3,110.6-96.3L1474.8,847.9z"/>
				<linearGradient id="SVGID_4_" gradientUnits="userSpaceOnUse" x1="1445.0947" y1="1496.6797" x2="1445.0947" y2="1702.9835">
					<stop  offset="0" style="stop-color:#F27370"/>
					<stop  offset="1" style="stop-color:#FFABAB"/>
				</linearGradient>
				<path class="st23" d="M1507.9,798.5c0,0,14.5,21.7,6.5,31.9c-8,10.1-46.3,15.2-44.9,26.1c1.4,10.9,11.5,141.2,9.4,157.9
					c-2.1,16.7-10.8,117.8-24.6,176.2c-13.8,58.4-36.2,219.9-42.7,240.9c-6.5,21-59.4,273.7-67.4,293.3s-24.7,42-37.7,42.8
					c-25.3,1.6-52.1,24.5-37.6,28.2c9,2.2,37.6,1.7,58.2,1c13.1-0.5,24.9-8.1,30.7-19.8c8.1-16.2,20.8-37.4,33.3-40.5
					c20.5-5.1,15-26.8,0-39.1c-15-12.3,48-117.3,56.7-180.3c8.7-63,13-76,31.9-103.6c18.8-27.5,56.1-128.6,62.3-199.9
					c1.2-14,2.2,185.4,0,217.3c-2.2,31.9,5.8,249.1,6.5,260s2.2,31.9-2.2,48.5c-4.3,16.7-11.6,32.6-19.6,36.9
					c-8,4.3-34.8,8-34.8,18.1c0,6.7,31.8,5.9,53.7,4.6c11.1-0.7,20.5-8.2,23.8-18.9c3.8-12.5,11.3-27.9,26.1-32.8
					c26.1-8.7-13-32.6-13-58.7s31.7-167.3,22-215.1c-9.7-47.8-17.7-55-6.1-93.4c9.8-32.4,52.6-190.2,4.7-263.9
					c-20.1-30.9-26.5-68.7-16.7-104.3c6.8-24.8,13.6-49.1,17.1-60.6c8.7-28.2,5.1-112.3-3.6-115.1c-8.7-2.9-53.6-0.7-52.9-37.7
					C1547.7,761.6,1507.9,798.5,1507.9,798.5z"/>
				<linearGradient id="SVGID_5_" gradientUnits="userSpaceOnUse" x1="1591.822" y1="992.2747" x2="1555.8439" y2="1034.5959">
					<stop  offset="0" style="stop-color:#F27370"/>
					<stop  offset="1" style="stop-color:#FFABAB"/>
				</linearGradient>
				<path class="st24" d="M1599.4,835.1c0,0,19.1,2.2,31,16.9c14.6,18.1,85.2,95.9,88.5,118.1c3.4,22.7-73.1,73.9-93.5,86.9
					s-34.9,18.8-25.5,31.1c9.4,12.3,7.1,34.5,7.1,34.5l-25.3,4.6l-7.9-63c0,0,69.1-72.5,92.2-93c1.7-1.5,1.7-4.2-0.1-5.7l-68.6-63.8
					L1599.4,835.1z"/>
				<linearGradient id="SVGID_6_" gradientUnits="userSpaceOnUse" x1="1518.5188" y1="1531.2234" x2="1518.5188" y2="1123.6483">
					<stop  offset="0" style="stop-color:#464392"/>
					<stop  offset="1" style="stop-color:#303075"/>
				</linearGradient>
				<path class="st25" d="M1638.1,1331.3c0-73.8-4.5-117.2-6.5-132.3c-0.5-3.5-1.1-7-1.8-10.5l-5.2-23.3c-1.3-5.8-3.1-11.4-5.5-16.8
					c0,0,0-0.1,0-0.1c-17.8-39.9-40.8-78-35.3-124.5h-105.9c-0.8,10.9-3.4,26.2-4.7,44.4l-0.9,8c0,0-72.8,388.4-114,418.5
					c0,0,44.7,36.1,75.6,26.6c30.9-9.5,46.6-30,67.8-10.9c21.2,19.1,44.6,28.9,65.2,12.4c20.6-16.5,51.5-17.9,64.6-5.6
					c13.1,12.3,47.4-5.1,47.4-5.1S1638.1,1424.9,1638.1,1331.3z"/>
				<linearGradient id="SVGID_7_" gradientUnits="userSpaceOnUse" x1="1538.717" y1="1026.9272" x2="1538.717" y2="821.3942">
					<stop  offset="0" style="stop-color:#B92BF1"/>
					<stop  offset="1" style="stop-color:#951DCE"/>
				</linearGradient>
				<path class="st26" d="M1588.8,1009.8c6.8-24.8,11.4-45.9,14.9-57.4c8.7-28.2,4.4-114.4-4.3-117.3s-52.9-1.3-52.1-38.2
					c0.7-36.9-48.6,1.1-48.6,1.1s18.9,22.4,10.9,32.6c-8,10.1-42,14-40.5,24.9c1.4,10.9,11.5,141.2,9.4,157.9
					c-0.7,5.6-2.5,21.3-9.4,46.6c11.3,3.5,19.1,6.1,60.8,6.1c43.5,0,44.8-2.8,60.6-8.4C1589.1,1042.9,1584.8,1024.5,1588.8,1009.8z"
					/>
				<linearGradient id="SVGID_8_" gradientUnits="userSpaceOnUse" x1="1560.8685" y1="719.4" x2="1479.6289" y2="790.2265">
					<stop  offset="0" style="stop-color:#F27370"/>
					<stop  offset="1" style="stop-color:#FFABAB"/>
				</linearGradient>
				<path class="st27" d="M1522.7,694.6c-18.2-0.1-34.2,12.2-39.4,29.7c-4.5,15-9.9,36.3-9.4,50.7c0.8,24.3,4.6,43.3,22.8,40.2
					c18.2-3,39.5,3,60-22s36.4-67.5,14.4-82C1557.8,702.5,1540.3,694.7,1522.7,694.6z"/>
				<g>
					<g>
						<path class="st4" d="M1332,1773.1c-7.9-1.7-13.6-4.7-17.6-8.3c-2.7,1.6-5.4,2.6-7.9,2.7c-25.3,1.6-52.1,24.5-37.6,28.2
							c9,2.2,37.6,1.7,58.2,1c13.1-0.5,24.9-8.1,30.7-19.8c8.1-16.2,20.8-37.4,33.3-40.5c20.5-5.1,15-26.8,0-39.1
							C1391.1,1697.2,1357.5,1778.6,1332,1773.1z"/>
						<polygon class="st4" points="1404.4,1723.9 1390.9,1797.3 1379.3,1797.3 1382.4,1733.5 						"/>
					</g>
				</g>
				<path class="st4" d="M1587.5,1706.2c0,0-25.2,71.1-46,68.6c-4-0.5-7.4-1.3-10.3-2.3c-1.5,1.6-3,2.9-4.5,3.7
					c-8,4.3-34.8,8-34.8,18.1c0,6.7,31.8,5.9,53.7,4.6c11.1-0.7,20.5-8.2,23.8-18.9c3.8-12.5,11.3-27.9,26.1-32.8
					C1615.5,1740.5,1597.1,1724.9,1587.5,1706.2z"/>
				<polygon class="st4" points="1604.4,1739.2 1595.6,1797.3 1584.4,1797.3 1586.1,1744.4 				"/>
				<linearGradient id="SVGID_9_" gradientUnits="userSpaceOnUse" x1="1680.4346" y1="991.8978" x2="1559.6324" y2="863.2828">
					<stop  offset="0" style="stop-color:#B92BF1"/>
					<stop  offset="1" style="stop-color:#951DCE"/>
				</linearGradient>
				<path class="st28" d="M1718.9,970.1c-3.3-22.3-73.9-100-88.5-118.1c-11.9-14.7-31-16.9-31-16.9l-2.1,66.7l68.6,63.8
					c1.8,1.4,1.8,4.1,0.1,5.7c-8.9,7.8-24.5,23.3-40.4,39.4c3.4,11.4,25.6,41.3,38.9,46.8C1675,1023.9,1721.4,987.1,1718.9,970.1z"
					/>
				<linearGradient id="SVGID_10_" gradientUnits="userSpaceOnUse" x1="1680.4346" y1="991.8978" x2="1559.6324" y2="863.2828">
					<stop  offset="0" style="stop-color:#B92BF1"/>
					<stop  offset="1" style="stop-color:#951DCE"/>
				</linearGradient>
				<path class="st29" d="M1718.9,970.1c-3.3-22.3-73.9-100-88.5-118.1c-11.9-14.7-31-16.9-31-16.9l-2.1,66.7l68.6,63.8
					c1.8,1.4,1.8,4.1,0.1,5.7c-8.9,7.8-24.5,23.3-40.4,39.4c3.4,11.4,25.6,41.3,38.9,46.8C1675,1023.9,1721.4,987.1,1718.9,970.1z"
					/>
				<g>
					<circle class="st30" cx="1516.3" cy="1395.4" r="8.4"/>
					<path class="st30" d="M1472.6,1072.2l-0.5,4.1c0,0-0.8,4.5-2.4,12.5c0.6,0.2,1.3,0.2,2,0.2c4.7,0,8.4-3.8,8.4-8.4
						C1480.2,1076.2,1476.9,1072.6,1472.6,1072.2z"/>
					<path class="st30" d="M1442.8,1251.4c4.7,0,8.4-3.8,8.4-8.4c0-4.7-3.8-8.4-8.4-8.4c-1.2,0-2.3,0.2-3.3,0.7c-1,4.5-2,8.9-3,13.4
						C1438,1250.3,1440.3,1251.4,1442.8,1251.4z"/>
					<circle class="st30" cx="1530.3" cy="1286" r="8.4"/>
					<circle class="st30" cx="1588.8" cy="1246.7" r="8.4"/>
					<circle class="st30" cx="1451.2" cy="1328" r="8.4"/>
					<path class="st30" d="M1401.3,1406.8c4.7,0,8.4-3.8,8.4-8.4c0-4.6-3.8-8.4-8.4-8.4c-1.5,5.3-3,10.5-4.5,15.6
						C1398.1,1406.3,1399.6,1406.8,1401.3,1406.8z"/>
					<path class="st30" d="M1398.9,1518.1c1.4-1.5,2.3-3.6,2.3-5.8c0-4.7-3.8-8.4-8.4-8.4c-4.4,0-8.1,3.4-8.4,7.8
						C1389,1514,1393.9,1516.3,1398.9,1518.1z"/>
					<circle class="st30" cx="1459.6" cy="1462.3" r="8.4"/>
					<path class="st30" d="M1459.6,1158.1c4.7,0,8.4-3.8,8.4-8.4s-3.8-8.4-8.4-8.4c-0.1,0-0.2,0-0.3,0c-1,5.1-2.1,10.5-3.3,16.1
						C1457.2,1157.9,1458.4,1158.1,1459.6,1158.1z"/>
					<circle class="st30" cx="1580.4" cy="1448.2" r="8.4"/>
					<path class="st30" d="M1583.6,1089c0,4.7,3.8,8.4,8.4,8.4c1.3,0,2.6-0.3,3.7-0.8c-2.1-5.2-4-10.5-5.7-15.8
						C1586.3,1081.7,1583.6,1085,1583.6,1089z"/>
					<path class="st30" d="M1622.8,1171c1,0,2-0.2,2.9-0.5l-1.1-5.1c-0.8-3.8-1.9-7.5-3.2-11.1c-4,0.7-7,4.1-7,8.3
						C1614.3,1167.2,1618.1,1171,1622.8,1171z"/>
					<path class="st30" d="M1637.8,1299.3c-0.1-5.9-0.3-11.5-0.4-16.8c-4.3,0.4-7.6,4-7.6,8.4
						C1629.7,1295.4,1633.3,1299.1,1637.8,1299.3z"/>
					<path class="st30" d="M1658.1,1519.8c-0.5-4.2-4-7.5-8.4-7.5c-4.7,0-8.4,3.8-8.4,8.4c0,0.2,0,0.4,0,0.6
						C1646.5,1522.1,1652.4,1521.2,1658.1,1519.8z"/>
					<path class="st30" d="M1654.8,1453.9c0.9,0,1.8-0.1,2.6-0.4c-1.5-5.2-3.1-10.6-4.6-16.2c-3.7,0.9-6.5,4.2-6.5,8.2
						C1646.4,1450.1,1650.2,1453.9,1654.8,1453.9z"/>
					<circle class="st30" cx="1565.7" cy="1149.7" r="8.4"/>
					<circle class="st30" cx="1510.1" cy="1197.1" r="8.4"/>
					<circle class="st30" cx="1597.3" cy="1368.3" r="8.4"/>
					<path class="st30" d="M1557.2,1528.6c-0.3-4.4-4-7.9-8.4-7.9c-4.7,0-8.4,3.8-8.4,8.4c0,0.6,0.1,1.2,0.2,1.8
						C1546.2,1531.6,1551.8,1530.9,1557.2,1528.6z"/>
					<circle class="st30" cx="1524.8" cy="1105.9" r="8.4"/>
				</g>
				<path class="st14" d="M1561.4,833.2c-4-7.9-7.9-16.6-6.2-25.4c5.7-1.5,11.5-3.2,16.4-6.5c5.2-3.5,9.1-8.6,11.8-14.3
					c5.1-10.7,5.3-22.4,4.3-34c1.1-15.7-1.8-32.2-10.9-44.2c-15.4-20.2-47.6-23.9-70.6-17.2c-0.2,0-0.4,0.1-0.6,0.2
					c-0.2,0.1-0.4,0.2-0.6,0.3c-6.3,2.7-11.1,7.4-14.2,13.2c-3.7,5.2-6.9,10.8-8.3,17c-1.8,8-0.8,16.8,2.3,24.4
					c4.2,10.1,13.9,17.2,21.8,25.1c4.2,8.2,7.6,16.6,8.2,26.1c0.3,4.8,0.3,10,3.5,13.8c3.2,3.8,8,4.6,12.7,4c0,0,0.1,0,0.1,0
					c-0.9,2.2-1.4,4.5-1.7,6.8c-17,19.2,8.4,45.4,6.6,66.3c-2.8,5.3-6.7,10-10.4,14.6c-6.9,8.8-11.5,17.5-11.5,28.9
					c0,11.8,5.5,22.1,15.7,27.8c0.5,0.5,1.1,0.7,1.8,0.7c2,0.2,3.5-2,2.9-3.7c-1.4-8.5,0-17.3,4.9-24.5c0.7-1,1.4-1.9,2.1-2.7
					c7.8-3.5,17.7-5,23.9-7.4c10.1-4,16.4-12.1,17-23.1c0.1-1.3,0-2.5-0.1-3.7c1.1-3.2,1.8-6.5,2-9.7c0.6-13.2-5.2-24.7-12.8-35
					C1567.6,845.4,1564.5,839.3,1561.4,833.2z M1494.2,757.1c-7.1-7.9-10.8-17.8-10.3-28.5c0.2-4.8,1.5-9.3,3.5-13.5
					c-0.1,0.3-0.1,0.6-0.2,0.9c-2.2,13.4,3.2,26.3,9.5,37.9c2.3,4.2,4.8,8.4,7.1,12.7C1500.5,763.5,1497.1,760.4,1494.2,757.1z
					 M1584.3,772.6c0.7-2.3,1.3-4.7,1.8-7.2c-0.2,7-1.4,14-4.5,20.5c-2.7,5.8-6.9,11.1-12.4,14.4c-2.9,1.8-6.1,3-9.4,4
					C1571.3,796.4,1580.6,785.2,1584.3,772.6z M1529.2,826.3c-0.1,7.8,2.2,15.9,4.4,22.9c3.2,10.1,7.9,20.9,5.4,31.7
					c-0.3,1.2-0.6,2.3-1,3.4C1536.2,865.2,1517.8,843.1,1529.2,826.3z M1580.1,901.7c-2.4,17.6-18.5,19.2-32.3,23.5
					c3.7-2,7.9-3.3,12.4-5.1c8.3-3.2,15.6-10.6,20-19.1C1580.1,901.2,1580.1,901.4,1580.1,901.7z"/>
				<path class="st4" d="M1557.9,807.1c-3-3.8-8.9-2.7-12.5-0.5c-1,0.6-1.8,1.4-2.5,2.3c-4.3-2.4-9.8-2.8-13.9,0.4
					c-3.6,2.8-4.1,8-0.2,10.7c3.8,2.7,9.3,1.4,12.8-1.1c0.9-0.7,1.6-1.5,2.3-2.4c3.2,1.9,7.3,2.9,10.6,1.7
					C1558.7,816.4,1560.8,810.9,1557.9,807.1z M1534,816c-1-2.9-0.2-4.1,2.5-3.6c1.1,0.1,2,0.4,2.9,0.8
					C1538.1,814.7,1535.6,816.8,1534,816z M1549.6,812.9c-0.7,0.1-1.5-0.3-2.4-0.8c0.3-0.3,0.6-0.5,0.9-0.8c1.2-0.8,2.6-1.2,4-1.3
					C1551.8,812.7,1551,813.6,1549.6,812.9z"/>
			</g>
		</g>
	</g>
</g>
</svg>
