<?xml version="1.0" encoding="utf-8"?>
<!-- Generator: Adobe Illustrator 21.0.0, SVG Export Plug-In . SVG Version: 6.00 Build 0)  -->
<svg version="1.1" id="Layer_1" xmlns="http://www.w3.org/2000/svg" xmlns:xlink="http://www.w3.org/1999/xlink" x="0px" y="0px"
	 width="2000px" height="2000px" viewBox="0 0 2000 2000" style="enable-background:new 0 0 2000 2000;" xml:space="preserve">
<style type="text/css">
	.st0{fill:#FFFFFF;}
	.st1{fill:#DAFCFB;}
	.st2{fill:#BDFAF8;}
	.st3{fill:#A6F8F6;}
	.st4{fill:url(#SVGID_1_);}
	.st5{fill:#BAACC6;}
	.st6{fill:#F4EBFF;}
	.st7{fill:#7E5BFF;}
	.st8{fill:#EBFCFB;}
	.st9{fill:#51F2ED;}
	.st10{fill:#464392;}
	.st11{fill:#5C41E5;}
	.st12{fill:#35CFDB;}
	.st13{fill:#303075;}
	.st14{fill:#FC70C7;}
	.st15{fill:#DB4DAC;}
	.st16{fill:#D3F2EF;}
	.st17{fill:#B4A5F9;}
	.st18{fill:#B92BF1;}
	.st19{fill:url(#SVGID_2_);}
	.st20{fill:url(#SVGID_3_);}
	.st21{fill:#DFF7F5;}
	.st22{fill:#F8FFFE;}
	.st23{fill:url(#SVGID_4_);}
	.st24{fill:url(#SVGID_5_);}
	.st25{fill:url(#SVGID_6_);}
	.st26{fill:url(#SVGID_7_);}
	.st27{fill:url(#SVGID_8_);}
	.st28{fill:url(#SVGID_9_);}
	.st29{fill:url(#SVGID_10_);}
	.st30{fill:url(#SVGID_11_);}
	.st31{fill:url(#SVGID_12_);}
	.st32{fill:url(#SVGID_13_);}
	.st33{fill:url(#SVGID_14_);}
	.st34{fill:url(#SVGID_15_);}
	.st35{fill:url(#SVGID_16_);}
	.st36{fill:url(#SVGID_17_);}
	.st37{fill:url(#SVGID_18_);}
	.st38{fill:url(#SVGID_19_);}
	.st39{fill:url(#SVGID_20_);}
	.st40{fill:url(#SVGID_21_);}
</style>
<g>
	<rect class="st0" width="2000" height="2000"/>
	<g>
		<path class="st1" d="M1763.1,1697.3c-15.6,13.1-32.4,24.2-49.9,33.6c-9.3,15.8-19.7,30.9-31.2,45c8.6-5.4,17-11.4,25.1-17.8
			C1728.9,1740.6,1747.5,1720,1763.1,1697.3 M178,1644c10.7,20.9,24.7,40.2,40.7,57.1c10.1,10.7,21.1,20.4,32.7,29.3
			c-11-15.7-20-32.8-26.2-50.9C208.5,1669,192.6,1657.2,178,1644 M1732.3,278c12.8,16,24.1,33.2,33.8,51.2
			c14.3,10.4,27.9,21.9,40.4,34.4c-13.9-22.8-30.5-44-49.8-63.3C1748.9,292.4,1740.8,285,1732.3,278 M280.9,222.5
			c-14.3,8.8-27.7,19-40.3,30.7c-16.4,15.3-30.2,32.5-42,51c16-13.2,33.4-24.3,51.9-33.5C259.4,253.7,269.4,237.5,280.9,222.5"/>
		<path class="st1" d="M251.4,1730.4c11.8,16.9,25.9,32.1,41.4,45.5c34.4,29.6,75.9,49.6,119.3,62c32.3,9.2,66.1,12.8,99.9,12.8
			c18.7,0,37.4-1.1,55.9-3c57.2-5.9,113.2-19.7,168.9-33.4c49.5-12.2,101.4-22.4,154-27.7c8-0.5,16.1-1,24.1-1.4
			c-13.2-3.3-26.4-6.5-39.7-9.7c-20.8-1.5-41.7-2.7-62.7-3.5c-0.5,0-1,0-1.5,0c-52.3,0-104.5,5-154.5,12
			c-56.8,8-113.9,16.1-171.4,16.2c-0.3,0-0.6,0-0.8,0c-51.7,0-104.8-6.3-153.1-25.5C302.8,1763.5,275.7,1748.8,251.4,1730.4
			 M1774.8,1004.4c-3.3,12.1-6.2,24.4-8.7,36.8c3.7,43.3,11.3,85.8,19.9,128.7c22.5,112,52.8,226.4,40.9,341.6
			c-6.7,64.9-26.7,131.4-63.9,185.8c5.6-4.6,11-9.5,16.3-14.7c67.9-66.3,94.4-164.9,94.5-257.4c0.2-115.8-41.4-226.6-75.1-335.7
			C1790,1061.2,1781.7,1032.9,1774.8,1004.4 M198.7,304.2c-10.6,8.7-20.6,18.4-29.8,28.9c-65.6,75.2-78.7,181.6-75,277.6
			c3.9,102.7,29.6,203.3,57.9,301.5c14.1,49,29.2,97.7,43.1,146.7c2.4,8.6,4.8,17,7.1,25.3c1.1-12.9,2-25.9,2.6-38.9
			c-3.2-22-7-44.1-11.1-67.4c-8.9-50.2-19-100.2-28.1-150.3c-18.3-100.6-33.6-203.3-27.2-305.8C142.7,447.5,158.1,367.9,198.7,304.2
			 M1472,151.2c-17.4,0-34.8,1.3-52.1,3.8c-56.7,8.1-111.3,26.9-165,46.1c-51.2,18.3-104.2,36.6-156,48.2
			c-25.6,5.8-51.5,10.5-77.6,14.4c12.3,2.7,24.6,5.1,37,7.4c38.8-0.5,77.7-3,116.1-7.6c52.7-6.4,107.3-19.2,160.1-32.3
			c55.4-13.7,111.6-26.9,168.8-29.2c5.2-0.2,10.4-0.3,15.7-0.3c44.1,0,87.8,7.7,128.6,24.9c30.6,12.9,59.2,30.2,84.7,51.3
			c-14.8-18.5-31.7-35.5-50.4-50.8c-34.3-28-73.7-49.2-116-62.2C1535.3,155.5,1503.7,151.2,1472,151.2"/>
		<path class="st2" d="M225.2,1679.5c6.2,18.1,15.2,35.2,26.2,50.9c24.2,18.5,51.4,33.1,79.7,44.4c48.3,19.2,101.4,25.5,153.1,25.5
			c0.3,0,0.6,0,0.8,0c57.5-0.1,114.6-8.2,171.4-16.2c50-7,102.2-12,154.5-12c0.5,0,1,0,1.5,0c20.9,0.7,41.8,1.9,62.7,3.5
			c-50.2-11.9-100.8-22.5-152-30.5c-41.5-5-83.4-6.8-124.3-6.8c-10.8,0-21.5,0.1-32.1,0.4c-23,0.5-46.1,1-69.2,1
			c-34.4,0-68.8-1.1-103-5.2c-51.6-6.1-103.9-18.6-149.9-43.5C238.2,1687.3,231.6,1683.5,225.2,1679.5 M1766.1,1041.2
			c-3.2,16.4-5.6,33.2-7.3,50.8c-5.3,57-2.5,113,2.1,170c9.1,113.8,25.7,231.1,0.3,344c-9.7,43-25.5,86.1-48.1,124.9
			c17.5-9.5,34.3-20.6,49.9-33.6c37.2-54.4,57.2-120.9,63.9-185.8c11.8-115.2-18.4-229.6-40.9-341.6
			C1777.4,1127,1769.9,1084.5,1766.1,1041.2 M250.5,270.6c-18.4,9.3-35.9,20.4-51.9,33.5c-40.6,63.8-55.9,143.3-60.6,217.7
			c-6.4,102.6,8.9,205.2,27.2,305.8c9.1,50.2,19.2,100.1,28.1,150.3c4.1,23.3,7.9,45.4,11.1,67.4c0.2-4.5,0.4-9,0.5-13.5
			c1.7-50.8,0-96.8-2.9-148.5c-2.9-50.9-7-101.7-10.1-152.6c-6.3-102.1-9.4-205.8,9.1-306.9C210.5,372.1,225.6,318.4,250.5,270.6
			 M1519,201.7c-5.2,0-10.4,0.1-15.7,0.3c-57.2,2.3-113.4,15.6-168.8,29.2c-52.8,13-107.4,25.9-160.1,32.3
			c-38.5,4.6-77.3,7.1-116.1,7.6c66.1,12.1,133.6,18.6,200.7,18.6c0.5,0,1.1,0,1.6,0c53.1-0.1,108.8-6.4,162.8-13.1
			c43.8-5.4,87.9-10.5,132.1-10.5c13,0,26,0.4,39,1.5c49.3,3.8,97.3,17,140.4,41.5c10.8,6.1,21.2,12.8,31.2,20.1
			c-9.6-18-20.9-35.1-33.8-51.2c-25.6-21.1-54.1-38.4-84.7-51.3C1606.8,209.4,1563.1,201.7,1519,201.7"/>
		<path class="st1" d="M1681.9,1775.9c-73.9,46.7-163.7,56.1-250.5,56.1c-2.7,0-5.4,0-8.1,0c-107.7-0.7-214.3-14.8-320.8-29.9
			c-47.2-6.7-94.6-13.3-142.2-18.6c-15.1,0.4-30.2,0.9-45.3,1.6c31,7.8,61.9,15.9,92.6,24c104,27.5,208.2,54.1,315.1,67.5
			c33.4,4.2,67.4,7.2,101.3,7.2c66.1,0,131.4-11.3,189.2-47.1C1639.5,1820.4,1662.4,1799.6,1681.9,1775.9 M201.9,1084.3
			c-2.8,31.8-7.3,63.5-14.1,94.8c-4.9,22.7-10.8,43.7-19.3,67.6c-9,25.5-20.3,50.2-31.3,74.9c-22.8,51-43.4,103.4-41.4,160.3
			c1.6,44.4,19.7,87.3,46.1,122.6c10.7,14.4,22.9,27.6,36.1,39.6c-9.5-18.6-16.3-38.6-19.5-59.3c-8.7-56.2,5.5-110.7,22.2-164
			c8.1-25.8,16.3-51.6,22.3-78c5.6-24.7,9-46.3,11.2-69.4c4.5-47,3.9-94.4,0.3-141.4C210.5,1116.1,206.3,1100.4,201.9,1084.3
			 M1857.3,594.2c0-0.7,0-1.4,0-1.4C1857.3,592.9,1857.3,593.2,1857.3,594.2 M1806.5,363.5c33.3,54.6,50.5,117.9,48.5,183.2
			c-3.1,104-45.6,200.5-71.7,299.8c-10,37.8-16.3,73-18.6,110.1c2.9,16.1,6.3,32.1,10.2,47.9c5.8-21.2,13-42.1,21.6-63.9
			c37.6-95.5,91.3-186.3,106.6-289.2c13.6-91.6-11.3-183.6-68.5-256.4C1825.8,383.9,1816.5,373.4,1806.5,363.5 M512,116.1
			c-63.1,0-125.8,15.2-177.4,53.2c-20.7,15.2-38.5,33.2-53.7,53.2c53-32.7,116.4-45.9,179.2-45.9c18.6,0,37.2,1.2,55.4,3.3
			c56.2,6.7,110.8,20.8,165.3,35.7c54.1,14.8,108.2,28.7,163.5,38.3c43.8,7.6,88.4,12.8,133.3,15.4c14.6-1.6,29.1-3.4,43.6-5.6
			c-29.5-6.4-58.6-13.9-87.2-22.4c-53.8-16-105.9-36.3-157.9-57.3c-52.4-21.2-104.9-41.6-159.9-54.9
			C582.6,120.9,547.2,116.1,512,116.1"/>
		<path class="st2" d="M1713.2,1730.9c-63.1,34.1-136.8,47-208.6,53.8c-52.3,5-104.7,6.7-157.1,6.7c-55,0-110-1.9-165.1-4.1
			c-57.5-2.3-115.2-4.4-173.2-4.4c-16.3,0-32.6,0.2-48.9,0.5c47.7,5.4,95.1,12,142.2,18.6c106.5,15,213.1,29.2,320.8,29.9
			c2.7,0,5.4,0,8.1,0c86.7,0,176.5-9.4,250.5-56.1C1693.5,1761.9,1703.9,1746.8,1713.2,1730.9 M214.4,1131.8
			c3.7,47.1,4.3,94.4-0.3,141.4c-2.2,23.1-5.6,44.7-11.2,69.4c-6,26.4-14.2,52.2-22.3,78c-16.6,53.3-30.9,107.8-22.2,164
			c3.2,20.7,10,40.6,19.5,59.3c14.6,13.2,30.5,25,47.2,35.5c-1.5-4.4-2.8-8.8-4-13.3c-14.3-55-5.6-110.7,5.5-165.4
			c5.4-26.5,11-53,14.3-79.9c3.1-25.2,4.3-47,4.1-70.2c-0.3-49.5-6.1-98.7-15.2-147.3C225.3,1178.6,220.1,1155.2,214.4,1131.8
			 M1747.2,415.4c0,0,0.2,0.7,0.3,1.3C1747.2,415.7,1747.2,415.4,1747.2,415.4 M1766.1,329.1c21.8,40.8,35.1,86,38.5,133.3
			c7.4,103.8-25.2,204.1-41.2,305.5c-8.5,53.9-10.6,101.9-3.7,156.1c1.4,10.9,3.1,21.8,5,32.5c2.3-37.1,8.7-72.2,18.6-110.1
			c26.1-99.2,68.7-195.8,71.7-299.8c1.9-65.3-15.3-128.6-48.5-183.2C1793.9,351,1780.4,339.5,1766.1,329.1 M460.1,176.6
			c-62.7,0-126.2,13.2-179.2,45.9c-11.5,15.1-21.6,31.2-30.4,48.1c53.7-27,115.8-38.2,175.7-38.2c2.9,0,5.8,0,8.7,0.1
			c56.6,1,112.3,9.5,168,18.8c55.3,9.2,110.6,17.7,166.6,21.6c27.7,2,55.6,2.9,83.5,2.9c41.5,0,83.1-2.2,124.6-6.7
			c-44.9-2.6-89.5-7.8-133.3-15.4c-55.3-9.6-109.4-23.5-163.5-38.3c-54.5-14.9-109.1-28.9-165.3-35.7
			C497.3,177.8,478.8,176.6,460.1,176.6"/>
		<path class="st2" d="M875.3,1775.5c13.3,3.2,26.5,6.4,39.7,9.7c15.1-0.8,30.2-1.3,45.3-1.6C932,1780.3,903.7,1777.6,875.3,1775.5
			 M204.5,1045.4c-0.6,13-1.5,25.9-2.6,38.9c4.4,16.1,8.6,31.8,12.5,47.5c-0.2-2.2-0.4-4.4-0.5-6.6
			C211.5,1097.6,208.3,1071.6,204.5,1045.4 M1764.7,956.5c-0.9,14.6-1.2,29.4-0.8,44.8c0.3,13.4,1.1,26.7,2.3,39.9
			c2.4-12.5,5.3-24.7,8.7-36.8C1771,988.6,1767.5,972.6,1764.7,956.5 M1802.7,494c0,0,0.1,0.7,0.2,1.4
			C1802.7,494.4,1802.7,494,1802.7,494 M1021.2,263.7c-14.5,2.1-29,4-43.6,5.6c22.1,1.3,44.3,1.9,66.5,1.9c4.7,0,9.4,0,14.1-0.1
			C1045.9,268.8,1033.5,266.4,1021.2,263.7"/>
		<path class="st3" d="M1802.8,495.4c-0.1-0.6-0.2-1.4-0.2-1.4C1802.7,494,1802.7,494.4,1802.8,495.4 M1747.5,416.7
			c-0.1-0.6-0.3-1.3-0.3-1.3C1747.2,415.4,1747.2,415.7,1747.5,416.7 M426.3,232.4c-59.9,0-122.1,11.2-175.7,38.2
			c-24.9,47.7-40,101.5-49.5,153.4c-18.5,101.1-15.4,204.8-9.1,306.9c3.1,50.9,7.2,101.7,10.1,152.6c3,51.7,4.7,97.7,2.9,148.5
			c-0.2,4.5-0.3,9-0.5,13.5c3.9,26.2,7,52.2,9.3,79.7c0.2,2.2,0.4,4.4,0.5,6.6c5.8,23.4,11,46.8,15.6,71.5
			c9.1,48.6,14.9,97.8,15.2,147.3c0.1,23.2-1.1,45.1-4.1,70.2c-3.3,26.9-8.9,53.4-14.3,79.9c-11.2,54.8-19.8,110.4-5.5,165.4
			c1.2,4.5,2.5,8.9,4,13.3c6.4,4,13,7.8,19.6,11.4c45.9,24.9,98.3,37.4,149.9,43.5c34.2,4,68.6,5.2,103,5.2c23.1,0,46.2-0.5,69.2-1
			c10.6-0.2,21.3-0.4,32.1-0.4c40.9,0,82.7,1.8,124.3,6.8c51.3,7.9,101.9,18.6,152,30.5c28.4,2.1,56.7,4.9,85,8.1
			c16.3-0.4,32.6-0.5,48.9-0.5c58,0,115.7,2.1,173.2,4.4c55,2.2,110.1,4.1,165.1,4.1c52.4,0,104.8-1.7,157.1-6.7
			c71.8-6.8,145.5-19.8,208.6-53.8c22.6-38.7,38.5-81.8,48.1-124.9c25.3-113,8.8-230.2-0.3-344c-4.6-57-7.4-113-2.1-170
			c1.6-17.6,4.1-34.4,7.3-50.8c-1.1-13.2-1.9-26.5-2.3-39.9c-0.4-15.4-0.1-30.3,0.8-44.8c-1.9-10.7-3.6-21.6-5-32.5
			c-6.9-54.2-4.8-102.2,3.7-156.1c16-101.4,48.6-201.7,41.2-305.5c-3.4-47.3-16.7-92.6-38.5-133.3c-10-7.3-20.5-14-31.2-20.1
			c-43.1-24.5-91-37.7-140.4-41.5c-13-1-26-1.5-39-1.5c-44.2,0-88.3,5.1-132.1,10.5c-54,6.7-109.7,13-162.8,13.1c-0.5,0-1.1,0-1.6,0
			c-67.2,0-134.7-6.5-200.7-18.6c-4.7,0.1-9.4,0.1-14.1,0.1c-22.2,0-44.4-0.7-66.5-1.9c-41.4,4.5-83.1,6.7-124.6,6.7
			c-28,0-55.9-1-83.5-2.9c-56-4-111.2-12.4-166.6-21.6c-55.7-9.3-111.5-17.8-168-18.8C432.1,232.5,429.2,232.4,426.3,232.4"/>
	</g>
	<g>
		<linearGradient id="SVGID_1_" gradientUnits="userSpaceOnUse" x1="1006.3683" y1="1594.1471" x2="1006.3683" y2="1316.5913">
			<stop  offset="0" style="stop-color:#BAACC6"/>
			<stop  offset="1" style="stop-color:#9E8EAF"/>
		</linearGradient>
		<rect x="895.2" y="1277.3" class="st4" width="222.2" height="255.9"/>
		<path class="st5" d="M1260.2,1522.2H752.6c-10.9,0-19.8,8.9-19.8,19.8c0,10.9,8.9,19.8,19.8,19.8h507.6c10.9,0,19.8-8.9,19.8-19.8
			C1279.9,1531.1,1271.1,1522.2,1260.2,1522.2z"/>
		<path class="st5" d="M1626.5,430.6H373.5c-5.2,0-9.4,4.2-9.4,9.4v844.1c0,5.2,4.2,9.4,9.4,9.4h1252.9c5.2,0,9.4-4.2,9.4-9.4V440
			C1635.9,434.8,1631.7,430.6,1626.5,430.6z"/>
		<rect x="387.9" y="452.5" class="st6" width="1224.2" height="725.2"/>
		<rect x="406.2" y="470.4" class="st0" width="1187.5" height="689.3"/>
		<circle class="st0" cx="1000" cy="1238.8" r="25.8"/>
		<rect x="406.2" y="470.4" class="st7" width="1187.5" height="41.6"/>
		<g>
			<rect x="1284" y="560.4" class="st8" width="258.3" height="158.2"/>
			<rect x="1295.4" y="595.7" class="st7" width="46" height="46"/>
			<rect x="1359" y="595.7" class="st9" width="46" height="46"/>
			<rect x="1422.5" y="595.7" class="st10" width="46" height="46"/>
			<rect x="1295.5" y="655.1" class="st11" width="46" height="46"/>
			<rect x="1359" y="655.1" class="st12" width="46" height="46"/>
			<rect x="1422.6" y="655.1" class="st13" width="46" height="46"/>
			<rect x="1484.7" y="595.7" class="st14" width="46" height="46"/>
			<rect x="1484.8" y="655.1" class="st15" width="46" height="46"/>
			<rect x="1284" y="560.4" class="st16" width="258.3" height="21.9"/>
			<circle class="st0" cx="1499.9" cy="572.5" r="2.9"/>
			<circle class="st0" cx="1514.1" cy="572.5" r="2.9"/>
			<circle class="st0" cx="1528.2" cy="572.5" r="2.9"/>
		</g>
		<g>
			<rect x="739.9" y="564.6" class="st8" width="501.5" height="400.5"/>
			<rect x="739.9" y="564.6" class="st16" width="501.5" height="29.1"/>
			<circle class="st0" cx="1180" cy="581.5" r="4.1"/>
			<circle class="st0" cx="1198" cy="581.5" r="4.1"/>
			<circle class="st0" cx="1216" cy="581.5" r="4.1"/>
			<g>
				<g>
					<rect x="818.6" y="655.7" class="st7" width="346.2" height="243"/>
					<path class="st10" d="M818.6,798.9c6.9,5.3,15.3,8.2,25.8,6.9c18.9-2.4,35.8-16.8,55.3-15.4c19,1.4,30.8,20.3,48.9,24.8
						c14.8,3.6,26.9-4,32.7-17.5c6.1-14.2,3.9-31.3,12-44.7c12.7-20.8,39-5.3,54.8,2.5c8.8,4.3,17.5,8.7,26.3,13
						c9.2,4.5,18.3,9.8,28.2,12.9c14.6,4.5,30.8,1.4,37.7-13.4c2.7-5.7,3.7-12,6.1-17.8c3.6-8.8,10.1-11.7,18.3-13.6v-80.7H818.6
						V798.9z"/>
					<circle class="st9" cx="895.1" cy="851.2" r="24.7"/>
					<circle class="st9" cx="1024.8" cy="783" r="14.7"/>
					<circle class="st9" cx="1118.3" cy="851.2" r="24.7"/>
				</g>
				<g>
					<path class="st7" d="M1190,923.2h-4c-0.3,0-0.5-0.2-0.5-0.5s0.2-0.5,0.5-0.5h3.5v-3.5c0-0.3,0.2-0.5,0.5-0.5s0.5,0.2,0.5,0.5v4
						C1190.5,922.9,1190.2,923.2,1190,923.2z"/>
					<path class="st7" d="M1176,923.2h-8c-0.3,0-0.5-0.2-0.5-0.5s0.2-0.5,0.5-0.5h8c0.3,0,0.5,0.2,0.5,0.5S1176.3,923.2,1176,923.2z
						 M1158,923.2h-8c-0.3,0-0.5-0.2-0.5-0.5s0.2-0.5,0.5-0.5h8c0.3,0,0.5,0.2,0.5,0.5S1158.3,923.2,1158,923.2z M1140.1,923.2h-8
						c-0.3,0-0.5-0.2-0.5-0.5s0.2-0.5,0.5-0.5h8c0.3,0,0.5,0.2,0.5,0.5S1140.4,923.2,1140.1,923.2z M1122.1,923.2h-8
						c-0.3,0-0.5-0.2-0.5-0.5s0.2-0.5,0.5-0.5h8c0.3,0,0.5,0.2,0.5,0.5S1122.4,923.2,1122.1,923.2z M1104.2,923.2h-8
						c-0.3,0-0.5-0.2-0.5-0.5s0.2-0.5,0.5-0.5h8c0.3,0,0.5,0.2,0.5,0.5S1104.4,923.2,1104.2,923.2z M1086.2,923.2h-8
						c-0.3,0-0.5-0.2-0.5-0.5s0.2-0.5,0.5-0.5h8c0.3,0,0.5,0.2,0.5,0.5S1086.5,923.2,1086.2,923.2z M1068.3,923.2h-8
						c-0.3,0-0.5-0.2-0.5-0.5s0.2-0.5,0.5-0.5h8c0.3,0,0.5,0.2,0.5,0.5S1068.5,923.2,1068.3,923.2z M1050.3,923.2h-8
						c-0.3,0-0.5-0.2-0.5-0.5s0.2-0.5,0.5-0.5h8c0.3,0,0.5,0.2,0.5,0.5S1050.6,923.2,1050.3,923.2z M1032.4,923.2h-8
						c-0.3,0-0.5-0.2-0.5-0.5s0.2-0.5,0.5-0.5h8c0.3,0,0.5,0.2,0.5,0.5S1032.6,923.2,1032.4,923.2z M1014.4,923.2h-8
						c-0.3,0-0.5-0.2-0.5-0.5s0.2-0.5,0.5-0.5h8c0.3,0,0.5,0.2,0.5,0.5S1014.7,923.2,1014.4,923.2z M996.4,923.2h-8
						c-0.3,0-0.5-0.2-0.5-0.5s0.2-0.5,0.5-0.5h8c0.3,0,0.5,0.2,0.5,0.5S996.7,923.2,996.4,923.2z M978.5,923.2h-8
						c-0.3,0-0.5-0.2-0.5-0.5s0.2-0.5,0.5-0.5h8c0.3,0,0.5,0.2,0.5,0.5S978.8,923.2,978.5,923.2z M960.5,923.2h-8
						c-0.3,0-0.5-0.2-0.5-0.5s0.2-0.5,0.5-0.5h8c0.3,0,0.5,0.2,0.5,0.5S960.8,923.2,960.5,923.2z M942.6,923.2h-8
						c-0.3,0-0.5-0.2-0.5-0.5s0.2-0.5,0.5-0.5h8c0.3,0,0.5,0.2,0.5,0.5S942.9,923.2,942.6,923.2z M924.6,923.2h-8
						c-0.3,0-0.5-0.2-0.5-0.5s0.2-0.5,0.5-0.5h8c0.3,0,0.5,0.2,0.5,0.5S924.9,923.2,924.6,923.2z M906.7,923.2h-8
						c-0.3,0-0.5-0.2-0.5-0.5s0.2-0.5,0.5-0.5h8c0.3,0,0.5,0.2,0.5,0.5S907,923.2,906.7,923.2z M888.7,923.2h-8
						c-0.3,0-0.5-0.2-0.5-0.5s0.2-0.5,0.5-0.5h8c0.3,0,0.5,0.2,0.5,0.5S889,923.2,888.7,923.2z M870.8,923.2h-8
						c-0.3,0-0.5-0.2-0.5-0.5s0.2-0.5,0.5-0.5h8c0.3,0,0.5,0.2,0.5,0.5S871,923.2,870.8,923.2z M852.8,923.2h-8
						c-0.3,0-0.5-0.2-0.5-0.5s0.2-0.5,0.5-0.5h8c0.3,0,0.5,0.2,0.5,0.5S853.1,923.2,852.8,923.2z M834.9,923.2h-8
						c-0.3,0-0.5-0.2-0.5-0.5s0.2-0.5,0.5-0.5h8c0.3,0,0.5,0.2,0.5,0.5S835.1,923.2,834.9,923.2z M816.9,923.2h-8
						c-0.3,0-0.5-0.2-0.5-0.5s0.2-0.5,0.5-0.5h8c0.3,0,0.5,0.2,0.5,0.5S817.2,923.2,816.9,923.2z"/>
					<path class="st7" d="M799,923.2h-4c-0.3,0-0.5-0.2-0.5-0.5v-4c0-0.3,0.2-0.5,0.5-0.5s0.5,0.2,0.5,0.5v3.5h3.5
						c0.3,0,0.5,0.2,0.5,0.5S799.2,923.2,799,923.2z"/>
					<path class="st7" d="M795,909.1c-0.3,0-0.5-0.2-0.5-0.5v-8c0-0.3,0.2-0.5,0.5-0.5s0.5,0.2,0.5,0.5v8
						C795.5,908.9,795.2,909.1,795,909.1z M795,891c-0.3,0-0.5-0.2-0.5-0.5v-8c0-0.3,0.2-0.5,0.5-0.5s0.5,0.2,0.5,0.5v8
						C795.5,890.8,795.2,891,795,891z M795,873c-0.3,0-0.5-0.2-0.5-0.5v-8c0-0.3,0.2-0.5,0.5-0.5s0.5,0.2,0.5,0.5v8
						C795.5,872.7,795.2,873,795,873z M795,854.9c-0.3,0-0.5-0.2-0.5-0.5v-8c0-0.3,0.2-0.5,0.5-0.5s0.5,0.2,0.5,0.5v8
						C795.5,854.7,795.2,854.9,795,854.9z M795,836.8c-0.3,0-0.5-0.2-0.5-0.5v-8c0-0.3,0.2-0.5,0.5-0.5s0.5,0.2,0.5,0.5v8
						C795.5,836.6,795.2,836.8,795,836.8z M795,818.7c-0.3,0-0.5-0.2-0.5-0.5v-8c0-0.3,0.2-0.5,0.5-0.5s0.5,0.2,0.5,0.5v8
						C795.5,818.5,795.2,818.7,795,818.7z M795,800.6c-0.3,0-0.5-0.2-0.5-0.5v-8c0-0.3,0.2-0.5,0.5-0.5s0.5,0.2,0.5,0.5v8
						C795.5,800.4,795.2,800.6,795,800.6z M795,782.6c-0.3,0-0.5-0.2-0.5-0.5v-8c0-0.3,0.2-0.5,0.5-0.5s0.5,0.2,0.5,0.5v8
						C795.5,782.3,795.2,782.6,795,782.6z M795,764.5c-0.3,0-0.5-0.2-0.5-0.5v-8c0-0.3,0.2-0.5,0.5-0.5s0.5,0.2,0.5,0.5v8
						C795.5,764.3,795.2,764.5,795,764.5z M795,746.4c-0.3,0-0.5-0.2-0.5-0.5v-8c0-0.3,0.2-0.5,0.5-0.5s0.5,0.2,0.5,0.5v8
						C795.5,746.2,795.2,746.4,795,746.4z M795,728.3c-0.3,0-0.5-0.2-0.5-0.5v-8c0-0.3,0.2-0.5,0.5-0.5s0.5,0.2,0.5,0.5v8
						C795.5,728.1,795.2,728.3,795,728.3z M795,710.3c-0.3,0-0.5-0.2-0.5-0.5v-8c0-0.3,0.2-0.5,0.5-0.5s0.5,0.2,0.5,0.5v8
						C795.5,710,795.2,710.3,795,710.3z M795,692.2c-0.3,0-0.5-0.2-0.5-0.5v-8c0-0.3,0.2-0.5,0.5-0.5s0.5,0.2,0.5,0.5v8
						C795.5,692,795.2,692.2,795,692.2z M795,674.1c-0.3,0-0.5-0.2-0.5-0.5v-8c0-0.3,0.2-0.5,0.5-0.5s0.5,0.2,0.5,0.5v8
						C795.5,673.9,795.2,674.1,795,674.1z M795,656c-0.3,0-0.5-0.2-0.5-0.5v-8c0-0.3,0.2-0.5,0.5-0.5s0.5,0.2,0.5,0.5v8
						C795.5,655.8,795.2,656,795,656z"/>
					<path class="st7" d="M795,637.9c-0.3,0-0.5-0.2-0.5-0.5v-4c0-0.3,0.2-0.5,0.5-0.5h4c0.3,0,0.5,0.2,0.5,0.5s-0.2,0.5-0.5,0.5
						h-3.5v3.5C795.5,637.7,795.2,637.9,795,637.9z"/>
					<path class="st7" d="M1176,633.9h-8c-0.3,0-0.5-0.2-0.5-0.5s0.2-0.5,0.5-0.5h8c0.3,0,0.5,0.2,0.5,0.5S1176.3,633.9,1176,633.9z
						 M1158,633.9h-8c-0.3,0-0.5-0.2-0.5-0.5s0.2-0.5,0.5-0.5h8c0.3,0,0.5,0.2,0.5,0.5S1158.3,633.9,1158,633.9z M1140.1,633.9h-8
						c-0.3,0-0.5-0.2-0.5-0.5s0.2-0.5,0.5-0.5h8c0.3,0,0.5,0.2,0.5,0.5S1140.4,633.9,1140.1,633.9z M1122.1,633.9h-8
						c-0.3,0-0.5-0.2-0.5-0.5s0.2-0.5,0.5-0.5h8c0.3,0,0.5,0.2,0.5,0.5S1122.4,633.9,1122.1,633.9z M1104.2,633.9h-8
						c-0.3,0-0.5-0.2-0.5-0.5s0.2-0.5,0.5-0.5h8c0.3,0,0.5,0.2,0.5,0.5S1104.4,633.9,1104.2,633.9z M1086.2,633.9h-8
						c-0.3,0-0.5-0.2-0.5-0.5s0.2-0.5,0.5-0.5h8c0.3,0,0.5,0.2,0.5,0.5S1086.5,633.9,1086.2,633.9z M1068.3,633.9h-8
						c-0.3,0-0.5-0.2-0.5-0.5s0.2-0.5,0.5-0.5h8c0.3,0,0.5,0.2,0.5,0.5S1068.5,633.9,1068.3,633.9z M1050.3,633.9h-8
						c-0.3,0-0.5-0.2-0.5-0.5s0.2-0.5,0.5-0.5h8c0.3,0,0.5,0.2,0.5,0.5S1050.6,633.9,1050.3,633.9z M1032.4,633.9h-8
						c-0.3,0-0.5-0.2-0.5-0.5s0.2-0.5,0.5-0.5h8c0.3,0,0.5,0.2,0.5,0.5S1032.6,633.9,1032.4,633.9z M1014.4,633.9h-8
						c-0.3,0-0.5-0.2-0.5-0.5s0.2-0.5,0.5-0.5h8c0.3,0,0.5,0.2,0.5,0.5S1014.7,633.9,1014.4,633.9z M996.4,633.9h-8
						c-0.3,0-0.5-0.2-0.5-0.5s0.2-0.5,0.5-0.5h8c0.3,0,0.5,0.2,0.5,0.5S996.7,633.9,996.4,633.9z M978.5,633.9h-8
						c-0.3,0-0.5-0.2-0.5-0.5s0.2-0.5,0.5-0.5h8c0.3,0,0.5,0.2,0.5,0.5S978.8,633.9,978.5,633.9z M960.5,633.9h-8
						c-0.3,0-0.5-0.2-0.5-0.5s0.2-0.5,0.5-0.5h8c0.3,0,0.5,0.2,0.5,0.5S960.8,633.9,960.5,633.9z M942.6,633.9h-8
						c-0.3,0-0.5-0.2-0.5-0.5s0.2-0.5,0.5-0.5h8c0.3,0,0.5,0.2,0.5,0.5S942.9,633.9,942.6,633.9z M924.6,633.9h-8
						c-0.3,0-0.5-0.2-0.5-0.5s0.2-0.5,0.5-0.5h8c0.3,0,0.5,0.2,0.5,0.5S924.9,633.9,924.6,633.9z M906.7,633.9h-8
						c-0.3,0-0.5-0.2-0.5-0.5s0.2-0.5,0.5-0.5h8c0.3,0,0.5,0.2,0.5,0.5S907,633.9,906.7,633.9z M888.7,633.9h-8
						c-0.3,0-0.5-0.2-0.5-0.5s0.2-0.5,0.5-0.5h8c0.3,0,0.5,0.2,0.5,0.5S889,633.9,888.7,633.9z M870.8,633.9h-8
						c-0.3,0-0.5-0.2-0.5-0.5s0.2-0.5,0.5-0.5h8c0.3,0,0.5,0.2,0.5,0.5S871,633.9,870.8,633.9z M852.8,633.9h-8
						c-0.3,0-0.5-0.2-0.5-0.5s0.2-0.5,0.5-0.5h8c0.3,0,0.5,0.2,0.5,0.5S853.1,633.9,852.8,633.9z M834.9,633.9h-8
						c-0.3,0-0.5-0.2-0.5-0.5s0.2-0.5,0.5-0.5h8c0.3,0,0.5,0.2,0.5,0.5S835.1,633.9,834.9,633.9z M816.9,633.9h-8
						c-0.3,0-0.5-0.2-0.5-0.5s0.2-0.5,0.5-0.5h8c0.3,0,0.5,0.2,0.5,0.5S817.2,633.9,816.9,633.9z"/>
					<path class="st7" d="M1190,637.9c-0.3,0-0.5-0.2-0.5-0.5v-3.5h-3.5c-0.3,0-0.5-0.2-0.5-0.5s0.2-0.5,0.5-0.5h4
						c0.3,0,0.5,0.2,0.5,0.5v4C1190.5,637.7,1190.2,637.9,1190,637.9z"/>
					<path class="st7" d="M1190,909.1c-0.3,0-0.5-0.2-0.5-0.5v-8c0-0.3,0.2-0.5,0.5-0.5s0.5,0.2,0.5,0.5v8
						C1190.5,908.9,1190.2,909.1,1190,909.1z M1190,891c-0.3,0-0.5-0.2-0.5-0.5v-8c0-0.3,0.2-0.5,0.5-0.5s0.5,0.2,0.5,0.5v8
						C1190.5,890.8,1190.2,891,1190,891z M1190,873c-0.3,0-0.5-0.2-0.5-0.5v-8c0-0.3,0.2-0.5,0.5-0.5s0.5,0.2,0.5,0.5v8
						C1190.5,872.7,1190.2,873,1190,873z M1190,854.9c-0.3,0-0.5-0.2-0.5-0.5v-8c0-0.3,0.2-0.5,0.5-0.5s0.5,0.2,0.5,0.5v8
						C1190.5,854.7,1190.2,854.9,1190,854.9z M1190,836.8c-0.3,0-0.5-0.2-0.5-0.5v-8c0-0.3,0.2-0.5,0.5-0.5s0.5,0.2,0.5,0.5v8
						C1190.5,836.6,1190.2,836.8,1190,836.8z M1190,818.7c-0.3,0-0.5-0.2-0.5-0.5v-8c0-0.3,0.2-0.5,0.5-0.5s0.5,0.2,0.5,0.5v8
						C1190.5,818.5,1190.2,818.7,1190,818.7z M1190,800.6c-0.3,0-0.5-0.2-0.5-0.5v-8c0-0.3,0.2-0.5,0.5-0.5s0.5,0.2,0.5,0.5v8
						C1190.5,800.4,1190.2,800.6,1190,800.6z M1190,782.6c-0.3,0-0.5-0.2-0.5-0.5v-8c0-0.3,0.2-0.5,0.5-0.5s0.5,0.2,0.5,0.5v8
						C1190.5,782.3,1190.2,782.6,1190,782.6z M1190,764.5c-0.3,0-0.5-0.2-0.5-0.5v-8c0-0.3,0.2-0.5,0.5-0.5s0.5,0.2,0.5,0.5v8
						C1190.5,764.3,1190.2,764.5,1190,764.5z M1190,746.4c-0.3,0-0.5-0.2-0.5-0.5v-8c0-0.3,0.2-0.5,0.5-0.5s0.5,0.2,0.5,0.5v8
						C1190.5,746.2,1190.2,746.4,1190,746.4z M1190,728.3c-0.3,0-0.5-0.2-0.5-0.5v-8c0-0.3,0.2-0.5,0.5-0.5s0.5,0.2,0.5,0.5v8
						C1190.5,728.1,1190.2,728.3,1190,728.3z M1190,710.3c-0.3,0-0.5-0.2-0.5-0.5v-8c0-0.3,0.2-0.5,0.5-0.5s0.5,0.2,0.5,0.5v8
						C1190.5,710,1190.2,710.3,1190,710.3z M1190,692.2c-0.3,0-0.5-0.2-0.5-0.5v-8c0-0.3,0.2-0.5,0.5-0.5s0.5,0.2,0.5,0.5v8
						C1190.5,692,1190.2,692.2,1190,692.2z M1190,674.1c-0.3,0-0.5-0.2-0.5-0.5v-8c0-0.3,0.2-0.5,0.5-0.5s0.5,0.2,0.5,0.5v8
						C1190.5,673.9,1190.2,674.1,1190,674.1z M1190,656c-0.3,0-0.5-0.2-0.5-0.5v-8c0-0.3,0.2-0.5,0.5-0.5s0.5,0.2,0.5,0.5v8
						C1190.5,655.8,1190.2,656,1190,656z"/>
				</g>
				<rect x="785.3" y="623.8" class="st17" width="19.2" height="19.2"/>
				<rect x="785.3" y="913" class="st17" width="19.2" height="19.2"/>
				<g>
					<rect x="982.8" y="623.8" class="st17" width="19.2" height="19.2"/>
					<rect x="982.8" y="913" class="st17" width="19.2" height="19.2"/>
				</g>
				<g>
					<rect x="1180.4" y="623.8" class="st17" width="19.2" height="19.2"/>
					<rect x="1180.4" y="913" class="st17" width="19.2" height="19.2"/>
				</g>
				<g>
					<rect x="785.3" y="768.4" class="st17" width="19.2" height="19.2"/>
					<rect x="1184" y="768.4" class="st17" width="19.2" height="19.2"/>
				</g>
			</g>
		</g>
		<g>
			<circle class="st8" cx="1468.5" cy="822.9" r="88.2"/>
			<g>
				<circle class="st7" cx="1468.5" cy="822.9" r="80.7"/>
				<path class="st18" d="M1388,827.7c0.1,0.9,0.1,1.8,0.2,2.7c0,0.4,0.1,0.7,0.1,1.1c0.1,1.2,0.3,2.4,0.4,3.5
					c0,0.2,0.1,0.4,0.1,0.7c0.2,1,0.3,1.9,0.5,2.8c0.1,0.4,0.2,0.9,0.3,1.3c0.2,0.8,0.3,1.5,0.5,2.2c0.1,0.4,0.2,0.9,0.3,1.3
					c0.3,1.1,0.6,2.1,0.9,3.1c0.1,0.5,0.3,0.9,0.4,1.4c0.2,0.6,0.4,1.3,0.6,1.9c0.2,0.5,0.4,1.1,0.6,1.6c0.2,0.5,0.4,1.1,0.6,1.6
					c0.2,0.5,0.4,1.1,0.7,1.6c0.3,0.7,0.6,1.4,1,2.1c0.4,0.8,0.7,1.5,1.1,2.3c0.2,0.4,0.4,0.8,0.6,1.2c0.3,0.6,0.6,1.2,1,1.8
					c0.2,0.4,0.4,0.7,0.6,1.1c0.8,1.4,1.7,2.8,2.6,4.2l67.2-44.6v-80.7c-44.6,0-80.7,36.1-80.7,80.7c0,1.2,0,2.5,0.1,3.7
					C1388,827,1388,827.4,1388,827.7z"/>
				<path class="st9" d="M1535.8,867.5c8.5-12.8,13.4-28.1,13.4-44.6c0-44.6-36.1-80.7-80.7-80.7v80.7L1535.8,867.5z"/>
			</g>
			<path class="st0" d="M1468.5,853.9c-17.1,0-31-13.9-31-31c0-17.1,13.9-31,31-31s31,13.9,31,31
				C1499.5,840,1485.6,853.9,1468.5,853.9z M1468.5,797c-14.3,0-25.9,11.6-25.9,25.9c0,14.3,11.6,25.9,25.9,25.9
				c14.3,0,25.9-11.6,25.9-25.9C1494.4,808.6,1482.8,797,1468.5,797z"/>
		</g>
		<rect x="782.9" y="1038.3" class="st0" width="1.4" height="18.2"/>
		<rect x="791" y="1038.3" class="st0" width="1.4" height="18.2"/>
		<rect x="795.5" y="1038.3" class="st0" width="1.4" height="18.2"/>
		<rect x="776.9" y="1067.4" class="st0" width="1.4" height="18.2"/>
		<g>
			<rect x="739.2" y="1004.7" class="st8" width="501.5" height="103.6"/>
			<rect x="739.2" y="1004.7" class="st16" width="501.5" height="25.9"/>
			<circle class="st0" cx="1183" cy="1018.3" r="3.7"/>
			<circle class="st0" cx="1198.9" cy="1018.3" r="3.7"/>
			<circle class="st0" cx="1214.7" cy="1018.3" r="3.7"/>
			<linearGradient id="SVGID_2_" gradientUnits="userSpaceOnUse" x1="759.9063" y1="1055.4358" x2="1219.9535" y2="1055.4358">
				<stop  offset="0" style="stop-color:#464392"/>
				<stop  offset="0.341" style="stop-color:#7E5BFF"/>
				<stop  offset="0.749" style="stop-color:#FC70C7"/>
				<stop  offset="0.9895" style="stop-color:#FF6695"/>
			</linearGradient>
			<rect x="759.9" y="1046.3" class="st19" width="460" height="18.2"/>
			
				<linearGradient id="SVGID_3_" gradientUnits="userSpaceOnUse" x1="-5662.688" y1="3194.2493" x2="-5202.6411" y2="3194.2493" gradientTransform="matrix(-1 0 0 -1 -4442.7344 4278.8481)">
				<stop  offset="0" style="stop-color:#464392"/>
				<stop  offset="0.341" style="stop-color:#B92BF1"/>
				<stop  offset="0.7113" style="stop-color:#7E5BFF"/>
				<stop  offset="0.9895" style="stop-color:#51F2ED"/>
			</linearGradient>
			<polygon class="st20" points="759.9,1075.5 1220,1075.5 1220,1093.7 759.9,1093.7 			"/>
			<rect x="898" y="1046.3" class="st0" width="1.4" height="18.2"/>
			<rect x="903.1" y="1046.3" class="st0" width="1.4" height="18.2"/>
			<rect x="966.9" y="1075.5" class="st0" width="1.4" height="18.2"/>
			<rect x="989.2" y="1075.5" class="st0" width="1.4" height="18.2"/>
			<rect x="1188.6" y="1046.3" class="st0" width="1.4" height="18.2"/>
			<rect x="1180.7" y="1046.3" class="st0" width="1.4" height="18.2"/>
			<rect x="1202.6" y="1075.5" class="st0" width="1.4" height="18.2"/>
			<rect x="1198.2" y="1075.5" class="st0" width="1.4" height="18.2"/>
			<rect x="995.4" y="1075.5" class="st0" width="1.4" height="18.2"/>
		</g>
		<g>
			<rect x="457.3" y="565.9" class="st8" width="234" height="151.5"/>
			<rect x="457.3" y="565.9" class="st16" width="234" height="25.3"/>
			<circle class="st0" cx="649.2" cy="578.7" r="2.7"/>
			<circle class="st0" cx="661.8" cy="578.7" r="2.7"/>
			<circle class="st0" cx="674.5" cy="578.7" r="2.7"/>
			<g>
				<rect x="479.5" y="615" class="st21" width="26" height="26"/>
				<rect x="520.4" y="615" class="st22" width="26" height="26"/>
				<rect x="561.4" y="615" class="st21" width="26" height="26"/>
				<rect x="602.3" y="615" class="st22" width="26" height="26"/>
				<rect x="643.2" y="615" class="st21" width="26" height="26"/>
				<rect x="479.5" y="653.7" class="st22" width="26" height="26"/>
				<rect x="520.4" y="653.7" class="st21" width="26" height="26"/>
				<rect x="561.4" y="653.7" class="st22" width="26" height="26"/>
				<rect x="602.3" y="653.7" class="st21" width="26" height="26"/>
				<rect x="643.2" y="653.7" class="st22" width="26" height="26"/>
			</g>
		</g>
		<g>
			<g>
				<linearGradient id="SVGID_4_" gradientUnits="userSpaceOnUse" x1="1361.3806" y1="1381.0548" x2="1355.3906" y2="1208.7946">
					<stop  offset="0" style="stop-color:#FDA3A2"/>
					<stop  offset="1" style="stop-color:#E05865"/>
				</linearGradient>
				<path class="st23" d="M1326.8,788.2c0,0,4.7,23,0,24.5c-4.7,1.6-24-9.4-49-9.4s-80.9-11.5-84.5-15.1c-3.7-3.7-42.3-82.4-50.1-97
					s2.1-44.4-13-43.3c-15.1,1-31.3,15.7-16.2,36s25.6,53.2,35.5,84c9.9,30.8,17.2,49,32.9,57.9c15.7,8.9,98.1,22.4,102.8,38.6
					s-8.9,35-0.5,55.8c8.3,20.9,41.5,40.7,36,90.3c-4.4,39.4-12.2,208.7-16,278.6s-2.8,213.9-9.8,228c-7,14.1-35.2,24.3-54,28.2
					c-18.8,3.9-39.9,14.9-27.4,19.6s109,6.5,115.6,0s15.9-12.5,5-39.9c-11-27.4,18.8-107.2,20.3-150.3s3.7-62.9,6-85.6
					c2.3-22.7,20.9-155.5,33.4-160.2s29.5,145.6,38.9,165.1s96.3,159.7,101.7,176.9c5.5,17.2,10.2,55.6,0,62.6
					c-10.2,7-42.3,32.7-20.3,35.5c21.9,2.8,50.1-11.3,61.8-35.5c11.7-24.3,29-53.2,8.6-58.7c-20.3-5.5-21.9-7-42.3-55.6
					s-46.2-117.4-62.6-140.9c-16.4-23.5,2.3-85.3-3.9-147.1s-42.3-92.4-54-122.1c-11.7-29.7,6.3-155,3.9-165.1
					c-2.3-10.2-65-29-65-29l-6.3-43L1326.8,788.2z"/>
				<linearGradient id="SVGID_5_" gradientUnits="userSpaceOnUse" x1="1392.0366" y1="1034.6649" x2="1458.2987" y2="941.4928">
					<stop  offset="0" style="stop-color:#FDA3A2"/>
					<stop  offset="1" style="stop-color:#E05865"/>
				</linearGradient>
				<path class="st24" d="M1425.5,844c0,0,23,13.6,42.8,41.7s54.3,65.2,56.4,79.8c2.1,14.6-47.5,98.6-59.5,108s-23.5,0-23.5,0
					s50.1-87.1,46.4-104.4c-3.7-17.2-77.7-74.1-77.7-74.1L1425.5,844z"/>
				<linearGradient id="SVGID_6_" gradientUnits="userSpaceOnUse" x1="1389.0303" y1="1236.1436" x2="1354.8455" y2="1070.5204">
					<stop  offset="0" style="stop-color:#464392"/>
					<stop  offset="1" style="stop-color:#303075"/>
				</linearGradient>
				<path class="st25" d="M1475.2,1128.5c-0.2-2.1-0.5-4.2-0.8-6.2c0-0.2,0-0.3-0.1-0.5c-0.5-4.8-1.5-9.3-2.7-13.5
					c-11.4-46.9-39.9-73.3-50.1-99.2c-0.9-2.3-1.7-5.3-2.2-8.7c-28.8,6.6-69,3.9-98.1,0.4c0,0-11.2,110.6-32.7,189.5
					c-5.9,21.5-24.2,61.6-24.2,61.6s35.2,31.6,61.8,25.4c26.6-6.3,43.7-11,59.3,0c15.7,11,56.3-0.4,61-6.7s25.4-15.1,45-3.4
					c19.6,11.7,30.4-7.8,30.4-7.8S1484.1,1186.6,1475.2,1128.5z"/>
				<path class="st18" d="M1264.2,1553.1c-12,1-15.5-4.1-16-9.6c-2.6,0.7-5.1,1.3-7.5,1.8c-18.8,3.9-39.9,14.9-27.4,19.6
					s109.1,6.5,115.6,0c6.2-6.2,14.8-11.8,6.6-35.5c-3.2,0.4-6.8,1.2-10.8,2.3C1303.4,1537.9,1288.8,1551,1264.2,1553.1z"/>
				<path class="st18" d="M1584.3,1474.8c-5.5-1.5-9.6-2.7-13.1-4.6c-1.6,9.1-4.5,24.5-8.6,39c-6.3,22.4-16,33.2-35.7,29.7l0,0
					c-12.8,10.2-31.1,27.8-13.1,30.1c21.9,2.8,50.1-11.3,61.8-35.5C1587.5,1509.2,1604.7,1480.3,1584.3,1474.8z"/>
				<linearGradient id="SVGID_7_" gradientUnits="userSpaceOnUse" x1="1492.8906" y1="967.9561" x2="1414.2545" y2="889.5341">
					<stop  offset="0" style="stop-color:#51F2ED"/>
					<stop  offset="1" style="stop-color:#35CFDB"/>
				</linearGradient>
				<path class="st26" d="M1488.1,969.2c1.4,6.6-5.1,23.4-13.6,41.7c6.2,5.1,15,10.2,25.8,10.3c13.6-23.9,25.3-48.4,24.3-55.7
					c-2.1-14.6-36.5-51.7-56.4-79.8c-19.8-28.2-45.6-45.4-45.6-45.4l-12.3,54.8C1410.3,895.1,1484.4,952,1488.1,969.2z"/>
				<linearGradient id="SVGID_8_" gradientUnits="userSpaceOnUse" x1="1135.0138" y1="677.3479" x2="1193.308" y2="764.4895">
					<stop  offset="0" style="stop-color:#FDA3A2"/>
					<stop  offset="1" style="stop-color:#E05865"/>
				</linearGradient>
				<path class="st27" d="M1149.4,767.8c9.9,30.8,17.2,49,32.9,57.9c9.1,5.1,40.6,11.9,66.4,19.7l27.8-42.2
					c-25.6-0.4-79.6-11.5-83.2-15.1c-3.7-3.7-42.3-82.4-50.1-97c-7.8-14.6,2.1-44.4-13-43.3c-15.1,1-31.3,15.7-16.2,36
					C1129.1,704.2,1139.5,737,1149.4,767.8z"/>
				<linearGradient id="SVGID_9_" gradientUnits="userSpaceOnUse" x1="1262.6008" y1="883.3077" x2="1366.8943" y2="842.8512">
					<stop  offset="0" style="stop-color:#51F2ED"/>
					<stop  offset="1" style="stop-color:#35CFDB"/>
				</linearGradient>
				<path class="st28" d="M1425.5,844c-1.7-7.4-35.3-19.3-53.5-25.3l0,0c-0.1,0-0.2-0.1-0.3-0.1c-0.2-0.1-0.4-0.1-0.7-0.2
					c-0.4-0.1-0.7-0.2-1.1-0.4c-0.3-0.1-0.6-0.2-0.9-0.3c-0.3-0.1-0.7-0.2-1-0.3c-0.2-0.1-0.4-0.1-0.6-0.2c-0.4-0.1-0.8-0.3-1.2-0.4
					c-0.1,0-0.3-0.1-0.4-0.1c-0.3-0.1-0.6-0.2-0.9-0.3c-0.1,0-0.1,0-0.2-0.1l0,0c-2.7-0.8-4.3-1.3-4.3-1.3l-4-27.6
					c-3.8,0.1-19.3,0.5-29.6,1c0.5,2.6,4.3,22.8-0.1,24.2c-1.2,0.4-3.2,0-6-0.8l0,0c-0.2-0.1-0.5-0.1-0.8-0.2
					c-0.4-0.1-0.8-0.2-1.2-0.4c-0.4-0.1-0.9-0.3-1.4-0.4c-0.2-0.1-0.3-0.1-0.5-0.2c-2-0.6-4.3-1.3-6.7-2.1c-0.1,0-0.1,0-0.2-0.1l0,0
					c-8.6-2.6-19.7-5.3-32.2-5.3c-25,0-80.9-11.5-84.5-15.1c-2.1-2.1-15.7-28.9-28.4-54.1c-8.4,4.8-17.1,7.7-23.5,9.3
					c2.8,8.1,5.4,16.3,8,24.4c9.9,30.8,17.2,49,32.9,57.9s98.1,22.4,102.8,38.6c4.7,16.2-8.9,35-0.5,55.8
					c8.3,20.9,41.5,40.7,36,90.3c-0.1,1-0.2,2.1-0.3,3.2c40.6,10.1,79.9,1.8,101.2-4.8C1409.9,978.6,1427.8,854.1,1425.5,844z"/>
				<linearGradient id="SVGID_10_" gradientUnits="userSpaceOnUse" x1="1304.5802" y1="751.6044" x2="1384.2308" y2="751.6044">
					<stop  offset="0" style="stop-color:#FDA3A2"/>
					<stop  offset="1" style="stop-color:#E05865"/>
				</linearGradient>
				<path class="st29" d="M1364.4,711.1c-8.7-4.8-19.1-5.3-28.2-1.4c-6.3,2.7-13.1,7-17.5,13.7c-10,15.3-20.8,58.8-8.8,66
					c20.7,12.3,43.5,7.3,57.6-10.3C1379.9,763.4,1399.5,730.5,1364.4,711.1z"/>
				<linearGradient id="SVGID_11_" gradientUnits="userSpaceOnUse" x1="1375.1566" y1="852.2513" x2="1347.4932" y2="718.2237">
					<stop  offset="0" style="stop-color:#464392"/>
					<stop  offset="1" style="stop-color:#303075"/>
				</linearGradient>
				<path class="st30" d="M1405.2,789.7c-4.3-5.3-7.8-11.2-10.4-17.4c0-0.9,0-1.8,0-2.7c0-11.5,1.9-22.8-1.9-33.9
					c-6.6-19.5-24.7-31.9-44.7-32.4c-5.9,0.3-7.8,1.1-7.8,1.1c-4.3,1.2-8.3,3.4-11.6,6.5c-11.7,9.1-16.3,25-10.2,39.2
					c5.3,12.5,19.7,25.5,22,39.7c-0.1,0.6-0.1,1.2-0.3,1.8c-2.1,11.5-9.4,21.1-14.1,31.7c-2.3,5.2-3.6,10.5-3.9,15.6
					c-0.1,1.6-0.2,3.2-0.4,4.7c-2,14.7,5.6,29.6,18.6,37.5c8.2,4.9,18,7.3,27.5,6.7c7.4-0.4,11.7-4.4,13.3-10.2
					c2.1-2.5,3.2-5.8,2.8-9.7c-0.5-5-3.2-9.4-3.5-14.4c-0.5-9,8.9-9.2,15.5-10.8c3.6,0.2,7.2,0,10.7-1.4
					c9.2-3.8,14.7-13.3,14.4-23.2C1420.8,806,1412.4,798.4,1405.2,789.7z M1317.9,731c0.7-3.8,2.1-7.4,4.1-10.5
					c-5.9,13.5-0.7,28.3,7.5,40.1c5.3,7.7,10.6,15.2,11.2,24.3c-3-9-9.7-17.4-14.8-24.9C1320,751.2,1315.9,741.7,1317.9,731z
					 M1376.2,883.5c-3.6,3.1-9.1,2.9-13.6,2.7c-8.3-0.5-16.5-3.1-23.3-7.8c-9.5-6.5-15.5-17.2-16.1-28.4c1.2,5.4,3.5,10.5,6.8,15.4
					c0,0.2,0.1,0.4,0.3,0.6c0.7,0.9,1.4,1.8,2.2,2.7c0.2,0.2,0.3,0.4,0.4,0.6c0.1,0.1,0.2,0.2,0.4,0.3c9.9,10.5,27.3,16.6,41.1,12.4
					c1.8-0.6,3.5-1.4,4.9-2.4C1378.5,881.1,1377.6,882.4,1376.2,883.5z M1413.3,835c-3.6,3.7-7.8,5.5-12.5,6
					c14.4-6.7,19.1-25.5,9.6-38.6c-2.9-4-6.9-7.2-9.8-11.3c-3.2-4.3-4.7-9.2-5.4-14.3c1.2,2.5,2.6,5,4.1,7.3
					c7,10.8,19,18.9,20.2,32.6C1420.1,823.5,1418,830.2,1413.3,835z"/>
				<g>
					<path class="st7" d="M1440.2,1236.4c12.8-6.1,26.6-4,39.9-0.9c10.4,2.5,21.9,5.3,33,5.5c-1.1-2.4-2.2-4.9-3.4-7.5
						c-16.2-1.1-33.9-8.3-48.4-8.9c-12.3-0.5-22.7,3.3-33.2,9.5c-11.6,6.8-22.7,13.8-36.2,7.2c-9.6-4.7-17.6-12.5-28.1-15.4
						c-12.5-3.4-24.6,1.4-36.8,3.4c-17,2.9-34.6-1.1-48.9-10.3c-1,2.5-2,4.9-3.1,7.3c7.4,4.7,15.7,8.1,24.4,10
						c8.9,1.9,18.1,2.3,27.1,1c12.2-1.8,25-7.5,37.3-3.2c9.5,3.4,17,10.8,26.1,14.8c8.2,3.6,16.7,3.9,25.2,0.8
						C1424.1,1246.4,1431.7,1240.4,1440.2,1236.4z"/>
					<path class="st7" d="M1322.9,1218.9c12.9-1.2,25.8-4.3,38.8-3.2c7,0.6,13.6,2.6,19.5,6.5c4.7,3.1,8.9,6.8,14.3,8.7
						c11.6,3.9,22.6-2.2,32.4-7.8c14.3-8.2,27.2-8.4,43.1-6c10.1,1.5,21.7,3,32.2,1.3c-1-2.3-1.9-4.7-2.9-7.1
						c-12.9,1.5-28-2.4-39.6-3.4c-10.2-0.9-20.2,0-29.5,4.5c-11.6,5.6-23.7,16.8-37,9.3c-8.6-4.8-15-10.7-25-12.7
						c-9.9-2-20-1.2-29.9,0.1c-16.5,2.2-41.7,6.3-54.4-7.1c-0.9,2.4-1.8,5-2.8,7.5C1292.8,1218.2,1308.7,1220.2,1322.9,1218.9z"/>
				</g>
			</g>
			<g>
				<linearGradient id="SVGID_12_" gradientUnits="userSpaceOnUse" x1="533.8774" y1="1290.7803" x2="671.6331" y2="1290.7803">
					<stop  offset="0" style="stop-color:#FDA3A2"/>
					<stop  offset="1" style="stop-color:#E05865"/>
				</linearGradient>
				<path class="st31" d="M550.9,1022.6c0,0-17.2,50.8-12.3,97.4c4.9,46.6,19,147,17.8,172.1s-8.2,139-9.3,174.6
					c-1.1,35.5,1.3,22.1-4.8,42.3s-15.3,43.5,0,47.2c15.3,3.7,125.6,6.1,129.2-6.7c3.7-12.9-69.8-12.9-76-57.6
					c-6.1-44.7,22.7-153.7,25.7-200.9c3.1-47.2,12.9-161.1,12.9-161.1L550.9,1022.6z"/>
				<path class="st13" d="M542.3,1556.1c15.3,3.7,125.6,6.1,129.2-6.7c3.7-12.9-69.8-12.9-76-57.6c-0.2-1.5-0.4-3.1-0.5-4.8l-48.3-4
					c-0.1,15.1,0.4,9.8-4.4,25.9C536.1,1529.1,526.9,1552.4,542.3,1556.1z"/>
				<linearGradient id="SVGID_13_" gradientUnits="userSpaceOnUse" x1="589.3601" y1="1377.2208" x2="582.0189" y2="1177.498">
					<stop  offset="0" style="stop-color:#464392"/>
					<stop  offset="1" style="stop-color:#303075"/>
				</linearGradient>
				<path class="st32" d="M609.5,1482.6c0.3-5.7,0.2-11.5-0.3-17.2c-3.3-46.7,14.6-130,17.5-174.6c3.1-47.2,7.4-161,7.4-161
					l-83.2-107.2l0,0c0,0-17.2,50.9-12.3,97.4c4.9,46.6,15.2,145.7,13.9,170.8s-6.9,131.5-11,166.8c-1.6,14.3-1.9,27.8-2,31.7
					c11.3,3.9,50.4,10.7,69.4,4.7C609,1493.8,609.3,1488.1,609.5,1482.6z"/>
				<linearGradient id="SVGID_14_" gradientUnits="userSpaceOnUse" x1="534.9073" y1="1108.5901" x2="893.8806" y2="1108.5901">
					<stop  offset="0" style="stop-color:#FDA3A2"/>
					<stop  offset="1" style="stop-color:#E05865"/>
				</linearGradient>
				<path class="st33" d="M639,727.9c0,0-5.5,20.8-4.9,30.6c0.6,9.8,157.4,31.2,157.4,31.2s47.8-52.1,57-70.4
					c9.2-18.4,11-39.8,19-50.2c8-10.4,18.4-27,23.3-14.7c4.9,12.3,4.9,51.5-6.7,60c-11.6,8.6-45.9,112.1-67.4,121.9
					c-21.4,9.8-105.4,1-111.1,10.8c-5.7,9.8-16.3,180.5-9,213.2c7.4,32.7,69.4,182.9,70.2,206.6c0.8,23.7-77.9,196.7-83.3,216.4
					c-4.6,16.6,18,47.4,27,50.6c9,3.3,39.2,15.5,32.7,26.1s-52.7,7.8-67.8,0c-15.1-7.8-24.2-22.1-41.3-26.5
					c-17.1-4.5-23.2-42.4,10.3-69.3c22-17.7,45.9-176.4,46.5-188.4c0.8-14-118.4-118.4-135.8-224c-12-72.7-16.1-178.7-16.1-178.7
					l-4.1-80c0,0,43.3-19.6,49-35.1c5.7-15.5,13-52.5,13-52.5L639,727.9z"/>
				<linearGradient id="SVGID_15_" gradientUnits="userSpaceOnUse" x1="858.4501" y1="686.7859" x2="795.4821" y2="787.4132">
					<stop  offset="0" style="stop-color:#FDA3A2"/>
					<stop  offset="1" style="stop-color:#E05865"/>
				</linearGradient>
				<path class="st34" d="M867.5,669.1c-8,10.4-9.8,31.9-19,50.2c-9.2,18.4-57,70.4-57,70.4s-21.8-3-49.2-7.2l-7.4,59.5
					c28.1-0.8,67.9,0.6,81.7-5.7c21.4-9.8,55.7-113.3,67.4-121.9c11.6-8.6,11.6-47.8,6.7-60C885.9,642.2,875.5,658.7,867.5,669.1z"
					/>
				<linearGradient id="SVGID_16_" gradientUnits="userSpaceOnUse" x1="486.6115" y1="894.9507" x2="585.5425" y2="894.9507">
					<stop  offset="0" style="stop-color:#FDA3A2"/>
					<stop  offset="1" style="stop-color:#E05865"/>
				</linearGradient>
				<path class="st35" d="M534.9,793.3c0,0-14.3,2-24.1,29.4s-28.6,147.4-23.3,157.2s98,16.7,98,16.7L534.9,793.3z"/>
				<linearGradient id="SVGID_17_" gradientUnits="userSpaceOnUse" x1="463.8672" y1="946.8377" x2="550.847" y2="899.7013">
					<stop  offset="0" style="stop-color:#B92BF1"/>
					<stop  offset="1" style="stop-color:#951DCE"/>
				</linearGradient>
				<path class="st36" d="M534.9,793.3c0,0-14.3,2-24.1,29.4s-28.6,147.4-23.3,157.2s98,16.7,98,16.7L534.9,793.3z"/>
				
					<linearGradient id="SVGID_18_" gradientUnits="userSpaceOnUse" x1="996.621" y1="2633.915" x2="976.7715" y2="2543.3564" gradientTransform="matrix(0.9213 -0.3889 0.3889 0.9213 -1304.2328 -1323.05)">
					<stop  offset="0" style="stop-color:#FDA3A2"/>
					<stop  offset="1" style="stop-color:#E05865"/>
				</linearGradient>
				<path class="st37" d="M601.6,636.1c0,0,36.3-11.2,53.4,28c1,2.3,1.9,4.5,2.7,6.7c4,5.3,16.1,21.6,14.9,23.2
					c-1.2,1.6-5.9,3.6-7.4,4.1c3,20.1-1,33-5.5,35.7c-6.6,4.1-61.3,14.1-80.8-25.2C559.4,669.4,567.1,646,601.6,636.1z"/>
				
					<linearGradient id="SVGID_19_" gradientUnits="userSpaceOnUse" x1="941.8506" y1="2601.3357" x2="1043.0477" y2="2601.3357" gradientTransform="matrix(0.9213 -0.3889 0.3889 0.9213 -1304.2328 -1323.05)">
					<stop  offset="0" style="stop-color:#464392"/>
					<stop  offset="1" style="stop-color:#303075"/>
				</linearGradient>
				<path class="st38" d="M588.7,639c10-7.5,15.7-9.3,28.1-11.4c3.3-0.6,6.5-0.8,9.7-0.6c1.7,0.1,3.5-0.4,4.8-1.6c0,0,0,0,0,0
					c4-3.6,8.3-6.7,14.3-4.2c6.6,2.7,8.9,14,5.2,20.3c-0.3,0.5-0.5,1-0.6,1.6c-1.7,7.2-4.7,4.8-11.2,7c-5,1.7-9.2,3.8-11.9,8.6
					c-2.6,4.4-4.1,9.7-5.4,14.7c-2.8,10.6-1.7,22,8.1,28.5c4.3,2.9,9.7,3.9,14.9,3.2c5.2-0.7,9.2-4.1,14.2-5.5c3.5-1,6.2-2,7.8,1.5
					c1.9,4.4,1.4,7.1,0.6,11.2c-1.1,5.7-1.6,11.3-3.1,16.9c-1.1,3.8-1.4,4.9-5,7.1c-4.2,2.6-8.7,3.2-13.1,2.1
					c-5.3-1.3-8.2-0.7-13.2-2.8c-8.7-3.7-16.6-9.3-21.5-17.6c-3.1-5.3-4.7-11.1-7-16.7c-0.8-1.8-1.8-4.7-4-5.2
					c-3-0.8-4.6,3.5-4.9,5.8c-1.5,10.1,4.9,21.1-2.9,29.9c-1.5,1.7-5,1.6-5.2-1.2c-1.3-13-12.3-21.6-16.4-33.2
					c-4-11.2-6.7-24.3-2.3-35.3C573.3,650.9,579.3,646,588.7,639z"/>
				<linearGradient id="SVGID_20_" gradientUnits="userSpaceOnUse" x1="637.351" y1="1004.4597" x2="679.2233" y2="838.8948">
					<stop  offset="0" style="stop-color:#B92BF1"/>
					<stop  offset="1" style="stop-color:#951DCE"/>
				</linearGradient>
				<path class="st39" d="M817.8,760c-13.6,15.9-26.3,29.8-26.3,29.8s-121.2-16.6-150.9-27.2c2.9-1.9,4.9-4.9,4.9-8.9
					c0-5.5-5.1-11.6-11-11c-15.6,1.6-30.8,0.3-45.8-4.2c-13.6-4.1-19.4,17.2-5.9,21.3c0.1,0,0.2,0.1,0.3,0.1
					c-7.9,15.2-48.3,33.5-48.3,33.5l4.1,80c0,0,3.7,93.4,14,165h141.5c-2.2-56.8,6.2-182.7,11.1-191.1c5.7-9.8,89.6-1,111.1-10.8
					c9-4.1,20.3-24.8,31.2-48C833.3,781,822.9,767.7,817.8,760z"/>
				<path class="st13" d="M710.5,1534c-9-3.3-31.5-34-27-50.6c1.1-3.9,5-13.7,10.5-27.1l-37.1-14.2l-0.8,0.8
					c-3.9,10.6-7.9,18.3-11.9,21.4c-33.5,27-27.4,64.8-10.3,69.3c17.1,4.5,26.2,18.8,41.3,26.5c15.1,7.8,61.3,10.6,67.8,0
					C749.7,1549.5,719.5,1537.3,710.5,1534z"/>
				<linearGradient id="SVGID_21_" gradientUnits="userSpaceOnUse" x1="689.352" y1="1342.9038" x2="641.3655" y2="1031.9453">
					<stop  offset="0" style="stop-color:#464392"/>
					<stop  offset="1" style="stop-color:#303075"/>
				</linearGradient>
				<path class="st40" d="M694.1,1022.6L694.1,1022.6c-59.6,16.1-143.2,0-143.2,0c1.3,10.2,2.7,20.1,4.2,29.4
					c17.4,105.6,133.6,209.3,132.8,223.3c-0.7,11.7-35,158.8-56.7,181.2c10.8,12.3,53.1,34,63.8,37.6c0.1-0.9,8.4-23,8.6-23.9
					c5.4-19.7,64.1-179.5,63.3-203.1c-0.8-23.7-62.9-174-70.2-206.6C695,1053.2,694.3,1039.6,694.1,1022.6z"/>
			</g>
		</g>
		<g>
			<circle class="st9" cx="1503" cy="491.3" r="6.4"/>
			<circle class="st14" cx="1533.1" cy="491.3" r="6.4"/>
			<circle class="st10" cx="1563.2" cy="491.3" r="6.4"/>
		</g>
	</g>
</g>
</svg>
